<?xml version="1.0" encoding="UTF-8" standalone="no"?>
<!-- Created with Inkscape (http://www.inkscape.org/) -->

<svg
   xmlns:dc="http://purl.org/dc/elements/1.1/"
   xmlns:cc="http://creativecommons.org/ns#"
   xmlns:rdf="http://www.w3.org/1999/02/22-rdf-syntax-ns#"
   xmlns:svg="http://www.w3.org/2000/svg"
   xmlns="http://www.w3.org/2000/svg"
   xmlns:sodipodi="http://sodipodi.sourceforge.net/DTD/sodipodi-0.dtd"
   xmlns:inkscape="http://www.inkscape.org/namespaces/inkscape"
   width="108.55029mm"
   height="115.341mm"
   viewBox="0 0 384.627 408.68857"
   id="svg5496"
   version="1.1"
   inkscape:version="0.91 r13725"
   sodipodi:docname="blood3.svg">
  <defs
     id="defs5498" />
  <sodipodi:namedview
     id="base"
     pagecolor="#ffffff"
     bordercolor="#666666"
     borderopacity="1.0"
     inkscape:pageopacity="0.0"
     inkscape:pageshadow="2"
     inkscape:zoom="0.35"
     inkscape:cx="-61.257926"
     inkscape:cy="-21.369988"
     inkscape:document-units="px"
     inkscape:current-layer="layer1"
     showgrid="false"
     fit-margin-top="0"
     fit-margin-left="0"
     fit-margin-right="0"
     fit-margin-bottom="0"
     inkscape:window-width="1440"
     inkscape:window-height="849"
     inkscape:window-x="0"
     inkscape:window-y="25"
     inkscape:window-maximized="1" />
  <metadata
     id="metadata5501">
    <rdf:RDF>
      <cc:Work
         rdf:about="">
        <dc:format>image/svg+xml</dc:format>
        <dc:type
           rdf:resource="http://purl.org/dc/dcmitype/StillImage" />
        <dc:title></dc:title>
      </cc:Work>
    </rdf:RDF>
  </metadata>
  <g
     inkscape:label="Layer 1"
     inkscape:groupmode="layer"
     id="layer1"
     transform="translate(243.74207,-102.30365)">
    <path
       inkscape:connector-curvature="0"
       style="fill:#c80000;fill-opacity:1"
       d="m 70.604572,218.51481 -1.33203,1.90039 c -1.01503,1.44917 -2.03707,1.85349 -4.29883,1.70117 -2.02891,-0.13664 -3.96087,0.47561 -6.10937,1.93555 -1.76777,1.20123 -4.34002,2.13477 -5.88086,2.13477 -2.31418,0 -2.98906,0.48988 -4.35938,3.16211 -2.97047,5.79263 -8.74576,9.48828 -14.83007,9.48828 -3.89161,0 -3.91605,1.80963 -0.0547,4.08789 4.16128,2.45521 4.53891,5.02447 1.73437,11.8125 -1.2735,3.08234 -2.5279,6.14102 -2.78711,6.79687 -0.30117,0.76204 -0.11485,0.97169 0.51563,0.58203 2.1816,-1.34831 0.79403,2.97873 -3.33594,10.4004 -4.94367,8.88387 -4.86935,10.92121 0.4707,12.68359 2.04906,0.67625 3.17263,1.64719 3.52344,3.04492 0.90834,3.61911 4.88011,5.62671 12.0293,6.08203 6.32607,0.40291 8.19006,1.15487 9.78125,5.41797 2.51007,-4.04558 4.26833,-4.83252 14.91992,-0.16211 0.76454,-3.74196 1.13496,-4.24414 3.02148,-4.24414 1.44536,0 2.97606,-0.93545 4.47461,-2.73047 l 2.27734,-2.72851 2.69727,2.88672 c 3.10899,3.32818 4.22039,2.62847 4.24219,-2.66993 0.0169,-4.10253 2.59549,-5.82008 4.82617,-3.21484 0.80528,0.9405 2.13833,1.70898 2.96289,1.70898 1.23807,0 1.5,-0.73821 1.5,-4.24218 0,-5.10611 1.48916,-6.12017 5.085938,-3.46094 1.33919,0.99011 2.63993,1.80078 2.89062,1.80078 1.11221,0 0.29822,-2.29105 -1.30078,-3.66016 -1.16982,-1.00163 -1.5505,-1.97967 -1.14062,-2.92773 0.33856,-0.78311 0.84514,-4.72615 1.125,-8.76172 0.27987,-4.03559 0.97094,-7.79945 1.5371,-8.36523 0.68406,-0.68361 3.93662,-1.01001 9.69727,-0.97461 7.62701,0.0469 8.04953,-0.0222 3.51172,-0.5625 -11.23085,-1.33715 -17.62865,-9.92753 -14.32227,-19.23242 1.07394,-3.0222 1.08887,-3.58399 0.0957,-3.58399 -0.64778,1e-5 -1.41061,0.37992 -1.69727,0.84375 -0.81982,1.32648 -3.409598,0.98673 -4.824218,-0.63281 -0.70897,-0.81168 -1.74431,-2.89935 -2.30273,-4.63867 -0.97384,-3.0332 -2.7361,-4.09794 -3.83594,-2.31836 -1.06294,1.71987 -4.51961,0.84961 -6.24414,-1.57227 -1.2431,-1.74578 -2.64643,-2.53974 -5.05859,-2.86328 -1.83576,-0.24623 -4.65774,-1.45468 -6.27149,-2.68555 l -2.93359,-2.23828 z m 63.353508,37.20117 c -3.3353,-0.007 -6.29733,0.36627 -6.58398,0.83008 -0.68324,1.10551 9.67412,1.10551 11.38477,0 0.88166,-0.56977 -0.57415,-0.82108 -4.80079,-0.83008 z m -5.37695,7.50977 c -1.14929,0.0156 -1.81435,0.1298 -1.57422,0.38086 0.26203,0.27395 2.53772,0.83968 5.0586,1.25781 7.15371,1.18657 9.76473,1.16118 8.52148,-0.082 -0.75629,-0.7563 -8.558,-1.60327 -12.00586,-1.55664 z m -81.417958,25.52344 c 0.97709,0.0586 3.89062,3.01632 3.89062,4.05859 0,0.83817 -1.28973,0.88533 -6.53515,0.23438 -3.35053,-0.41579 -3.48016,-1.27955 -0.42188,-2.8125 1.2755,-0.63933 2.57956,-1.29332 2.89844,-1.45313 0.0465,-0.0233 0.10283,-0.0312 0.16797,-0.0273 z"
       id="path4184" />
    <path
       style="fill:#c80000;fill-opacity:1"
       d="m -223.93448,491.17023 c -1.1402,-0.16262 -2.43024,0.54486 -3.51954,1.92968 -1.33912,1.70244 -2.19106,2.06862 -3.8496,1.65235 -1.60779,-0.40353 -2.65784,-0.008 -4.28126,1.61523 -3.95775,3.95775 -2.50917,9.00063 3.29883,11.49024 2.00346,0.85878 3.91227,1.99743 4.24219,2.53125 0.32992,0.53385 1.16092,0.75571 1.84766,0.49218 0.68675,-0.26353 1.61685,-0.47851 2.0664,-0.47851 1.95591,0 3.09784,-5.48462 2.54688,-12.22852 -0.4934,-6.03928 -0.74013,-6.77409 -2.35156,-7.0039 z"
       id="path4180"
       inkscape:connector-curvature="0" />
    <path
       style="fill:#c80000;fill-opacity:1"
       d="m -179.66495,404.06671 -1.6875,2.14844 c -1.94757,2.47594 -3.77321,2.70288 -6.48047,0.80664 -1.71688,-1.20252 -2.23769,-1.21074 -5.0586,-0.082 -1.96953,0.78803 -4.58707,1.09467 -7.0039,0.82226 -3.75091,-0.42278 -3.87296,-0.36374 -4.3711,2.12696 -0.36692,1.83462 -1.06076,2.64179 -2.44336,2.83789 -1.22116,0.1732 -2.86113,1.73512 -4.46093,4.25 -1.39145,2.18736 -3.57411,4.4153 -4.84961,4.95117 -2.08352,0.87534 -2.31836,1.39656 -2.31836,5.12305 0,6.38736 -3.39215,11.79643 -9.73242,15.51757 -2.32665,1.36552 -0.71361,2.89844 3.04882,2.89844 2.85853,0 3.5739,0.39166 5.00586,2.74024 1.03741,1.70149 1.67183,4.24321 1.67383,6.70117 0.003,3.6245 0.33448,4.26633 3.91602,7.58984 2.15179,1.99676 5.28232,5.3386 6.95703,7.42578 2.21381,2.75906 3.54931,3.72242 4.89258,3.53125 1.01616,-0.14461 2.79335,0.35592 3.94922,1.11328 1.60917,1.05437 2.49678,1.16621 3.78906,0.47461 4.3154,-2.30954 8.54492,0.18854 8.54492,5.04688 0,1.21094 0.25184,2.453 0.55859,2.75976 0.30674,0.30674 1.4965,-0.86471 2.64454,-2.60156 3.51304,-5.31478 4.99456,-6.09579 10.4707,-5.5293 5.39491,0.55808 9.0957,-1.02968 9.0957,-3.90234 0,-2.69182 0.94813,-4.26756 2.57031,-4.26758 0.85064,0 1.7817,0.37994 2.06836,0.84375 0.78309,1.26708 3.79493,1.01447 3.79493,-0.31836 0,-0.63908 -0.5655,-2.51377 -1.25586,-4.16601 -1.11272,-2.66264 -1.11216,-3.14761 0.006,-4.26563 0.86234,-0.86233 2.19348,-1.10995 4.20703,-0.7832 3.54574,0.5754 3.90909,-0.93746 1.25586,-5.23047 -1.44432,-2.33697 -1.51637,-2.87851 -0.49219,-3.72851 0.65907,-0.54698 2.46389,-0.87911 4.00976,-0.73829 3.55608,0.32396 4.07721,-1.21263 0.70704,-2.08593 -1.48321,-0.38434 -2.53516,-1.21435 -2.53516,-2.00196 0,-0.74004 -1.38173,-4.41014 -3.07227,-8.15429 -2.79583,-6.19217 -2.96836,-6.99157 -1.89843,-8.83594 0.72005,-1.24125 3.46644,-2.99329 7.08007,-4.51758 3.24673,-1.36952 6.47224,-3.06967 7.16796,-3.7793 0.75045,-0.76542 -0.27994,-0.49664 -2.53125,0.66211 -10.64198,5.47744 -22.7131,-0.71115 -22.791,-11.68554 l -0.0234,-3.19727 -2.29492,2.74805 c -1.26302,1.51159 -2.74287,2.74619 -3.28711,2.74218 -0.54425,-0.004 -2.75129,-1.35509 -4.90625,-3 l -3.91992,-2.99023 z m 53.11132,5.04883 c -0.62566,0.14436 -1.61679,0.53254 -2.99023,1.22851 -2.28191,1.15633 -4.64648,2.7017 -5.25391,3.4336 -1.59366,1.92024 -0.21399,1.61347 4.52734,-1.00781 4.18864,-2.31573 5.59379,-4.08739 3.7168,-3.6543 z m 7.2207,7.00586 c -0.37603,-0.0671 -1.16509,-10e-4 -2.40039,0.21875 -3.17873,0.5666 -11.43164,4.2538 -11.43164,5.10742 0,0.63715 0.35941,0.54448 6.90625,-1.78906 5.45814,-1.94549 8.05388,-3.33586 6.92578,-3.53711 z"
       id="path4176"
       inkscape:connector-curvature="0" />
    <path
       inkscape:connector-curvature="0"
       style="fill:#c80000;fill-opacity:1"
       d="m -70.364178,102.30584 c -0.10281,0.005 -0.20893,0.0202 -0.31836,0.043 -0.87545,0.18183 -1.95701,0.92537 -3.14843,2.21093 -1.18073,1.27403 -3.7135,2.69682 -5.62696,3.16211 -2.94953,0.71724 -3.60167,1.28093 -4.29297,3.70703 -0.50974,1.78892 -1.79395,3.43956 -3.42578,4.40235 -2.46577,1.45485 -2.66777,1.97438 -3.65039,9.36719 -1.28586,9.67423 -0.66892,12.12129 4.43164,17.57421 5.30878,5.67551 5.09203,6.27037 -2.28711,6.29297 -7.76791,0.0238 -11.819182,1.84181 -27.337892,12.27344 -11.57524,7.78084 -19.87176,12.24189 -21.2207,11.4082 -1.14927,-0.71028 -1.98113,-18.28306 -0.92578,-19.55468 1.17958,-1.4213 0.66568,-6.44641 -0.70508,-6.89649 -1.77617,-0.58319 -4.17481,6.47341 -4.76172,14.00977 -0.35089,4.50567 -1.16866,8.26212 -2.27148,10.42383 -1.59553,3.12751 -1.92347,3.33882 -4.40039,2.83789 -1.47202,-0.29769 -5.27002,-0.91055 -8.43945,-1.36329 -5.63531,-0.80498 -5.88693,-0.9496 -11.38477,-6.54882 -3.09211,-3.14913 -8.2796,-7.28212 -11.52734,-9.1836 -3.24774,-1.90149 -6.62722,-4.25527 -7.50977,-5.23047 -1.99929,-2.2092 -3.55396,-2.25696 -4.68554,-0.14257 -1.30046,2.42993 -1.14128,2.95065 2.11133,6.84375 l 2.98632,3.57226 -1.80468,1.91992 c -3.58627,3.81741 -14.73245,7.09248 -24.19532,7.10938 -1.97123,0.004 -3.58398,0.38516 -3.58398,0.84765 0,0.46248 1.3301,2.31443 2.95703,4.11524 2.87466,3.18192 2.91704,3.32523 1.47656,5.08008 -0.81525,0.99316 -4.31936,2.95445 -7.78711,4.35937 -3.46775,1.40492 -7.00326,3.18794 -7.85742,3.96094 -1.45361,1.3155 -1.88803,1.28497 -6.76758,-0.46484 -6.9131,-2.47905 -7.32031,-2.42037 -7.32031,1.05273 0,3.25075 1.09727,4.16398 6.13672,5.10938 1.73482,0.32546 4.0984,1.33522 5.25391,2.24414 3.09162,2.43187 2.72381,5.5929 -1.27149,10.91014 -3.10561,4.13318 -3.37305,4.91206 -3.37305,9.81641 0,5.68169 -1.72347,10.25469 -4.9707,13.19141 -2.16486,1.95784 -2.60244,8.93554 -0.56055,8.93554 2.09702,0 2.2192,1.40464 0.47461,5.47461 -1.48752,3.47025 -1.68945,5.80594 -1.68945,19.55859 l 0,15.61915 3.92383,4.33984 c 4.52336,5.0037 7.8203,11.5808 8.10547,16.16601 0.13443,2.16164 0.0754,2.88871 -1.33399,3.70313 a 57.142857,37.142857 0 0 1 26.59766,17.66406 c 3.05406,-0.0233 7.71321,1.07786 11.81445,3.01953 3.37035,1.59564 6.75232,3.086 7.51563,3.3125 1.4345,0.42568 4.63098,12.17725 6.68164,24.56641 1.37325,8.29646 2.47265,8.78052 2.47265,1.08789 0,-4.04872 -0.61871,-8.39346 -1.67578,-11.76562 -2.14395,-6.83947 -2.13603,-6.98626 0.6211,-10.88477 1.95316,-2.76172 2.79824,-3.28169 5.35156,-3.29687 4.09132,-0.0243 6.19271,2.28473 5.39258,5.92773 -0.32453,1.47756 -0.26593,2.53287 0.13086,2.34375 0.39679,-0.18911 3.18831,-1.56194 6.20312,-3.05078 7.28793,-3.59909 12.60421,-3.72588 15.94922,-0.38086 1.27996,1.27995 2.50697,2.86468 2.72655,3.52344 0.59091,1.77272 3.25,0.43537 3.25,-1.63477 0,-4.36359 5.32188,-2.34784 11.27149,4.26953 5.55447,6.1779 12.74845,21.87305 10.02539,21.87305 -0.4196,0 -2.96251,-1.70774 -5.65039,-3.79492 -2.72384,-2.11511 -5.79369,-3.79491 -6.93554,-3.79493 -2.71818,0 -6.76276,2.15008 -7.84375,4.16993 -1.63813,3.06087 -1.01555,8.75547 1.35546,12.41211 3.3189,5.11851 6.16407,6.49119 11.97071,5.77148 7.51301,-0.93121 9.88632,-2.25052 11.21875,-6.24023 l 1.15234,-3.45118 2.67383,1.62696 c 1.47082,0.89496 3.7465,3.45529 5.05859,5.6875 2.14549,3.65005 2.38672,4.82794 2.38672,11.71484 0,7.43642 -0.0787,7.74767 -2.74023,10.78125 -5.39446,6.14845 -2.79871,8.61233 4.95312,4.69922 l 5.080082,-2.56445 3.66992,2.15234 c 2.01897,1.1832 4.44661,3.13671 5.39453,4.3418 1.72113,2.18804 1.72202,2.19628 0.0625,5.44922 -0.914,1.79158 -1.66211,4.11812 -1.66211,5.16992 0,1.73406 0.2328,1.62718 2.50782,-1.13281 1.37989,-1.67405 4.12267,-3.6879 6.09375,-4.47657 l 3.58398,-1.43554 2.97266,3.45703 c 2.93535,3.41173 3.04474,3.4543 8.64843,3.4414 3.27741,-0.008 7.14348,-0.60049 9.15235,-1.40429 l 3.47851,-1.39258 2.875,3.13867 c 3.44734,3.76299 5.51167,3.68904 6.3125,-0.22656 0.88118,-4.30854 2.24857,-5.18544 4.14649,-2.6582 3.77125,5.02174 4.2614,5.35969 5.69922,3.92187 1.12866,-1.12866 1.16818,-1.8222 0.27343,-4.80859 -1.36134,-4.54376 -0.30453,-5.75199 8.08399,-9.24414 4.70082,-1.95696 6.57291,-2.38726 7.4043,-1.69727 0.8542,0.70892 1.08588,0.57536 0.99218,-0.58008 -0.0967,-1.19207 0.6228,-1.56027 3.46094,-1.76562 1.97122,-0.14262 3.5839898,-0.59522 3.5839898,-1.00586 0,-0.41064 -0.8104898,-2.12038 -1.8007898,-3.79883 l -1.79882,-3.05078 3.5078098,-3.47266 c 4.16106,-4.11989 5.61347,-8.57666 6.35351,-19.47851 0.27831,-4.09991 0.91452,-8.21674 1.41211,-9.14649 1.17425996,-2.19413 6.44028,-4.42133 13.8320302,-5.85156 l 5.90235,-1.14258 -4.2168,-0.43164 c -3.20953,-0.32808 -4.1352002,-0.73245 -3.8789,-1.69531 1.12012,-4.20818 1.06859,-5.90235 -0.1796902,-5.90235 -1.43814,0 -4.79688,3.84506 -4.79688,5.49219 0,1.70793 -1.86226,2.74548 -6.03906004,3.36719 -3.62946996,0.54025 -4.04291996,0.41355 -5.40038996,-1.6582 -1.23933,-1.89145 -1.33104,-2.85255 -0.58398,-6.11719 l 0.88671,-3.87305 -3.70703,-3.37304 c -3.8820298,-3.53295 -4.5624398,-5.57336 -2.4433598,-7.33204 1.62551,-1.34901 1.6328,-4.12794 0.0117,-4.75 -0.68993,-0.26475 -2.37541,-0.0904 -3.74414,0.38672 -2.98914,1.04202 -3.71703,0.36786 -5.94336,-5.49609 -1.51738,-3.99662 -1.5927,-4.0558 -5.30664,-4.0957 -3.82342,-0.0411 -7.91376,-2.00357 -8.75781,-4.20313 -0.35645,-0.92887 -1.56352,-1.07834 -5.43359,-0.67383 -4.91081,0.51328 -5.01413,0.47972 -7.92383,-2.60547 -2.41719,-2.56295 -3.44414,-3.07896 -5.69531,-2.86132 -2.30281,0.22262 -2.78768,-0.0415 -3.01368,-1.63282 -0.31063,-2.18717 -1.43077,-2.4945 -2.16015,-0.59375 -0.66454,1.73175 -5.65952,3.75782 -9.26758,3.75782 -2.46257,0 -3.03,0.38038 -3.7832,2.54101 -1.08783,3.12053 -3.16762,4.0492 -4.98829,2.22852 -1.25499,-1.25499 -1.2102,-1.52516 0.5625,-3.41211 1.05882,-1.12706 4.50889,-3.87562 7.66797,-6.10938 3.15908,-2.23376 6.12477,-4.67129 6.58985,-5.41601 0.65299,-1.0456 -0.19244,-2.94949 -3.70899,-8.35547 -4.67571,-7.18796 -6.70298,-12.43762 -5.8457,-15.13867 0.60841,-1.91694 6.61499,-2.89091 10.66797,-1.72852 3.32933,0.95483 11.30304,1.04702 20.64062,0.23633 8.26554,-0.71761 5.7612,-1.72722 -4.72265,-1.9043 -3.94245,-0.0666 -8.58328,-0.62817 -10.31446,-1.24609 -1.73119,-0.61792 -2.94254,-0.79114 -2.6914,-0.38477 0.99291,1.60654 -5.58092,0.70423 -7.28516,-1 -2.05495,-2.05496 -1.73774,-3.76449 0.6836,-3.68359 1.66308,0.0556 1.6763,-0.0453 0.38281,-2.75781 -1.42783,-2.99419 -2.9635,-3.26918 -3.36524,-0.60352 -0.59069,3.91931 -1.10949,5.41211 -1.88086,5.41211 -2.12985,0 -0.063,-8.35085 4.17579,-16.86719 0.34628,-0.69573 3.07677,-2.523 6.0664,-4.06054 4.22556,-2.17318 7.70984,-3.13835 15.65625,-4.33399 12.36211,-1.86005 17.55432,-3.49359 21.39063,-6.73437 l 2.90234,-2.45313 -1.68555,-3.18945 c -3.34475,-6.32402 -6.83738,-7.06932 -27.4082,-5.85352 -11.16098,0.65965 -11.44154,0.63326 -14.32422,-1.3457 -5.88995,-4.04347 -5.57181,-9.08974 0.86328,-13.71289 6.55802,-4.71146 3.63511,-6.37945 -4.94726,-2.82227 -4.4423,1.84123 -4.54955,1.84736 -5.70899,0.26172 -1.80932,-2.47437 -1.44534,-4.19163 1.78516,-8.42382 2.38996,-3.13102 2.80093,-4.19999 2.10937,-5.49218 -1.22514,-2.2892 -1.06876,-4.69219 0.61524,-9.4336 1.80071,-5.07 0.94805,-5.99657 -4.84766,-5.27539 -6.01641,0.74865 -6.85312,-0.39435 -5.87304,-8.02734 1.11698,-8.69932 2.95045,-11.96269 7.625,-13.57422 2.05149,-0.70725 4.7758,-1.98608 6.05468,-2.8418 1.93676,-1.29592 2.88294,-1.41391 5.66016,-0.70898 3.0221,0.76709 3.45164,0.66681 4.58984,-1.07031 0.69069,-1.05412 2.6321,-2.24319 4.31446,-2.64258 2.73063,-0.64826 3.24344,-1.22471 4.77734,-5.36524 4.53869,-12.25147 4.68002,-14.88471 1.0918,-20.37109 -1.47634,-2.25729 -1.90295,-3.83826 -1.58985,-5.90234 0.42476,-2.80021 0.3764,-2.84802 -7.16211,-6.82618 -4.96926,-2.62233 -8.63598,-4.00586 -10.61523,-4.00586 -1.90948,0 -3.20124,-0.46475 -3.50781,-1.26367 -0.32283,-0.84128 -0.876,-1.23896 -1.59571,-1.20312 z"
       id="path4154" />
  </g>
</svg>
