<?xml version="1.0" encoding="UTF-8" standalone="no"?>
<!-- Created with Inkscape (http://www.inkscape.org/) -->

<svg
   xmlns:dc="http://purl.org/dc/elements/1.1/"
   xmlns:cc="http://creativecommons.org/ns#"
   xmlns:rdf="http://www.w3.org/1999/02/22-rdf-syntax-ns#"
   xmlns:svg="http://www.w3.org/2000/svg"
   xmlns="http://www.w3.org/2000/svg"
   xmlns:sodipodi="http://sodipodi.sourceforge.net/DTD/sodipodi-0.dtd"
   xmlns:inkscape="http://www.inkscape.org/namespaces/inkscape"
   width="131.74811mm"
   height="132.76846mm"
   viewBox="0 0 466.824 470.43943"
   id="svg4230"
   version="1.1"
   inkscape:version="0.91 r13725"
   sodipodi:docname="blood1.svg">
  <defs
     id="defs4232" />
  <sodipodi:namedview
     id="base"
     pagecolor="#ffffff"
     bordercolor="#666666"
     borderopacity="1.0"
     inkscape:pageopacity="0.0"
     inkscape:pageshadow="2"
     inkscape:zoom="0.35"
     inkscape:cx="-371.588"
     inkscape:cy="-39.065995"
     inkscape:document-units="px"
     inkscape:current-layer="layer1"
     showgrid="false"
     fit-margin-top="0"
     fit-margin-left="0"
     fit-margin-right="0"
     fit-margin-bottom="0"
     inkscape:window-width="1440"
     inkscape:window-height="849"
     inkscape:window-x="0"
     inkscape:window-y="25"
     inkscape:window-maximized="1" />
  <metadata
     id="metadata4235">
    <rdf:RDF>
      <cc:Work
         rdf:about="">
        <dc:format>image/svg+xml</dc:format>
        <dc:type
           rdf:resource="http://purl.org/dc/dcmitype/StillImage" />
        <dc:title></dc:title>
      </cc:Work>
    </rdf:RDF>
  </metadata>
  <g
     inkscape:label="Layer 1"
     inkscape:groupmode="layer"
     id="layer1"
     transform="translate(-66.587996,-22.856754)">
    <path
       inkscape:connector-curvature="0"
       style="fill:#c80000;fill-opacity:1"
       d="m 246.88221,22.856864 c -0.1895,5.05467 -0.41928,9.12613 -0.45898,17.125 -0.0607,12.2355 -0.33488,22.46972 -0.60938,22.74414 -0.2745,0.27442 -3.27453,-0.64558 -6.66797,-2.04492 -3.39344,-1.39935 -6.37111,-2.34372 -6.61523,-2.09961 -0.24411,0.24412 0.0522,2.37777 0.6582,4.74219 0.92406,3.60531 0.91569,4.41873 -0.0547,5.03711 -0.63638,0.40554 -5.62596,0.62103 -11.08789,0.47851 l -9.92968,-0.25976 -3.5625,-3.43555 c -1.95915,-1.88955 -4.78928,-4.05251 -6.28907,-4.80664 -1.92862,-0.96976 -3.73962,-3.21759 -6.1875,-7.67774 -1.90359,-3.46844 -3.80735,-6.51976 -4.23046,-6.78125 -1.37844,-0.85193 -0.81438,-1.86997 1.33789,-2.41015 2.87709,-0.7221 2.66526,-2.1836 -0.31641,-2.1836 -3.50866,0 -7.6953,0.94516 -7.69531,1.73633 0,0.37459 0.74062,0.91627 1.64453,1.20313 0.9039,0.28689 1.87833,1.26156 2.16601,2.16797 0.28769,0.90641 1.4094,2.70145 2.49219,3.98828 1.0828,1.28684 3.56826,5.36383 5.52344,9.06054 1.95517,3.6967 5.40603,8.63117 7.66992,10.96485 3.10694,3.20272 4.11719,4.87608 4.11719,6.82617 0,3.1496 -1.52816,4.60172 -7.71485,7.32617 -3.99686,1.76011 -4.85826,2.52747 -5.35156,4.77344 -0.78608,3.57902 -5.11428,8.36639 -9.27344,10.25586 -4.59529,2.087626 -15.61283,2.062506 -24.46093,-0.0547 -3.70854,-0.88737 -6.86372,-1.49177 -7.01172,-1.34375 -0.14802,0.14802 1.7478,0.92975 4.21289,1.73633 7.34576,2.403496 16.11135,5.998686 19.5,7.998046 l 3.17578,1.87304 -4.91406,4.44727 c -4.01573,3.63403 -6.53613,6.67238 -10.04297,12.10351 -0.10974,0.16996 -2.26929,-0.54921 -4.79883,-1.59765 -2.52953,-1.04842 -5.19896,-1.67567 -5.93163,-1.39452 -1.8519,0.71064 -0.78638,3.00508 1.6836,3.625 3.33708,0.83755 2.27384,2.00976 -1.82422,2.00976 -2.42932,0 -6.07259,-0.96106 -9.91016,-2.61523 -3.64816,-1.57251 -8.17471,-2.79624 -11.35156,-3.06836 -4.60362,-0.39435 -5.3453,-0.70028 -5.76367,-2.36719 -0.2641,-1.05227 -0.0801,-2.65981 0.4082,-3.57226 0.70815,-1.32319 0.535,-1.97817 -0.85742,-3.23829 -2.20054,-1.99147 -4.10352,-5.62417 -4.10352,-7.83593 0,-0.93434 -0.85484,-2.13803 -1.89843,-2.67383 -3.5691,-1.83242 -7.4115,-6.192936 -8.27149,-9.386716 -0.95891,-3.56113 -1.97719,-4.02084 -3.32422,-1.50391 -1.13424,2.11935 -2.82599,2.15579 -4.32422,0.0937 -0.79864,-1.09914 -2.64925,-1.75266 -5.97461,-2.11132 -4.255701,-0.45902 -4.921581,-0.32326 -5.720701,1.16992 -0.64763,1.21009 -1.76595,1.68945 -3.93555,1.68945 -2.27896,0 -3.84006,0.73356 -6.29687,2.95313 -1.79686,1.62337 -3.81647,2.95117 -4.48633,2.95117 -0.66984,0 -3.00085,-0.94984 -5.18164,-2.10938 -3.87226,-2.0589 -7.0904,-2.66741 -8.20508,-1.55273 -1.02334,1.02334 1.29891,2.81836 3.64649,2.81836 4.31444,0 4.50212,1.541906 1.27148,10.466786 -1.62669,4.4938 -3.55697,9.32846 -4.28906,10.74414 -1.26454,2.44539 -1.2362,2.67522 0.5625,4.58985 1.42404,1.51583 1.88759,3.00931 1.87109,6.02734 -0.0198,3.62064 0.36042,4.42385 3.89649,8.22852 2.15536,2.31909 4.78956,5.63958 5.85351,7.3789 2.21072,3.61401 1.89191,3.46645 4.72461,2.17579 1.92004,-0.87483 2.44689,-0.71347 4.67774,1.42382 1.38273,1.32475 2.51562,2.90668 2.51562,3.51563 0,1.37948 -0.0164,1.3808 3.73242,-0.18555 1.70233,-0.71129 6.965471,-1.87201 11.697271,-2.57812 4.73179,-0.7061 8.85548,-1.54721 9.16406,-1.86914 0.30859,-0.32193 0.68853,-1.5011 0.84375,-2.6211 0.217,-1.56568 1.0627,-2.25273 3.65625,-2.97461 2.52683,-0.70332 3.44198,-1.42729 3.65039,-2.88086 0.27703,-1.93212 0.31989,-1.93726 9.69922,-1.37304 11.25555,0.67709 20.00093,2.31732 23.63086,4.43164 1.72847,1.00678 3.0419,2.70886 3.76562,4.87695 1.72858,5.17833 2.11363,13.76993 0.81055,18.08789 l -1.14453,3.79492 -4.53516,0.25977 c -4.00601,0.2295 -4.73842,0.009 -6.29101,-1.89649 -1.7201,-2.11062 -1.84735,-2.13255 -5.97461,-1.01953 -9.67948,2.61033 -17.87413,8.61037 -21.52148,15.75977 -1.67168,3.27676 -1.71569,3.93389 -0.77735,11.38867 1.1143,8.85273 1.55685,9.52684 12.25195,18.63672 4.14948,3.53444 5.37604,4.18091 6.61719,3.48633 0.83788,-0.46886 3.28005,-0.65048 5.42773,-0.4043 3.26632,0.3744 4.71605,0.017 8.86329,-2.18555 6.05168,-3.21398 11.43157,-8.44684 13.57812,-13.20703 1.47994,-3.28193 1.80206,-3.5185 4.14062,-3.05078 3.72397,0.74479 6.20427,2.64507 9.2168,7.05859 1.47564,2.1619 3.79866,5.07539 5.16211,6.47657 l 2.47852,2.54883 -3.08204,11.80664 c -1.6953,6.49344 -3.66027,13.64999 -4.36523,15.90429 -1.15969,3.70842 -1.15589,3.99469 0.0332,3.00782 2.85072,-2.36589 5.8193,-10.4395 7.47266,-20.32618 0.43695,-2.61283 1.08568,-3.37546 4.13086,-4.84961 4.63059,-2.24163 5.72094,-2.19911 8.43945,0.32032 2.71127,2.51272 2.81624,4.36765 0.39649,6.94336 l -1.83399,1.95117 6.92188,0 c 4.11529,0 8.09811,0.49086 9.82617,1.21289 3.31828,1.38647 6.3085,5.70522 6.3125,9.11719 0.004,2.76908 1.32249,2.95827 3.87891,0.55664 1.8681,-1.75499 1.88242,-1.75617 3.54101,-0.0977 3.46289,3.46288 5.47289,10.88713 5.52539,20.41211 0.0297,5.3902 -0.37002,9.84471 -1.02344,11.38477 l -1.07421,2.53125 -3.39063,-6.4961 c -2.79851,-5.36136 -3.88023,-6.65652 -6.19336,-7.41992 -3.55588,-1.17354 -8.04429,0.51698 -10.23047,3.85352 -2.04769,3.12516 -1.97529,9.95116 0.15039,14.22851 1.46228,2.94239 2.319,3.55254 7.46289,5.3125 6.63935,2.27163 9.78526,1.98484 12.22071,-1.11133 0.88408,-1.12393 1.85882,-2.04297 2.16601,-2.04297 0.30719,0 1.34032,1.76918 2.29688,3.93165 2.87299,6.49485 0.85765,16.23717 -4.72657,22.84374 -1.27413,1.50743 -2.83412,2.74024 -3.46679,2.74024 -1.93569,0 -5.32569,1.84215 -5.83594,3.17187 -0.95344,2.4846 1.22732,3.57422 7.1582,3.57422 l 5.72071,0 2.20117,3.75782 c 1.2111,2.06656 2.42169,4.85262 2.68945,6.1914 0.4204,2.10203 0.0162,2.80697 -2.96484,5.16797 -3.78028,2.99402 -5.05638,6.2116 -1.55469,3.91992 2.80995,-1.83896 8.28336,-2.41757 10.72852,-1.13281 1.46288,0.76864 2.29274,2.14878 2.7832,4.62891 0.62082,3.13922 1.21841,3.83083 5.36133,6.20117 2.68636,1.53698 6.49335,2.89457 8.98242,3.20117 4.28351,0.52761 4.33023,0.56367 5.22656,4.24805 1.32783,5.45816 3.15752,6.23083 6.38672,2.69531 2.98328,-3.26628 3.97612,-2.82934 4.75391,2.09375 0.86851,5.49716 4.02842,5.80049 4.98633,0.47851 0.88438,-4.91345 1.42202,-5.18945 10.10937,-5.18945 7.71482,0 7.90834,0.0502 9.20313,2.32031 0.99596,1.74623 1.20246,1.86749 0.83593,0.49219 -0.62969,-2.36277 0.5914,-3.08324 2.6211,-1.54687 0.88001,0.66612 2.5,1.22348 3.60156,1.23828 1.7792,0.0238 1.94753,-0.2565 1.49805,-2.50391 -0.73558,-3.67791 0.62927,-3.09682 2.47851,1.05469 0.87805,1.97122 3.37109,5.37261 5.53906,7.55859 2.73536,2.7581 5.66537,7.40407 9.57619,15.17969 3.0996,6.16272 6.16818,11.80291 6.81835,12.53516 0.65765,0.74066 1.18165,3.09259 1.18165,5.29882 0,4.54683 -1.40238,5.68918 -4.4961,3.66211 -1.85289,-1.21407 -2.06837,-1.13492 -4.2207,1.5625 -3.03652,3.80555 -8.12967,5.41786 -10.85743,3.4375 -6.54582,-4.7523 -10.65914,-7.25543 -12.75586,-7.76367 -2.15167,-0.52155 -2.36274,-0.38316 -2.10742,1.37696 0.1947,1.3421 1.75078,2.8145 4.95507,4.68359 2.56956,1.49886 6.45996,4.63521 8.64454,6.9707 3.50892,3.75132 3.97265,4.68692 3.97265,8.01953 0,3.26455 0.25411,3.80781 1.88867,4.04102 2.59671,0.37047 2.74806,2.34351 0.44336,5.79297 -2.52886,3.78498 -6.78014,5.85723 -12.03125,5.86523 -9.15069,0.0131 -14.63522,3.59543 -10.55859,6.89649 2.5873,2.09507 6.53207,1.92227 13.16992,-0.57617 10.22269,-3.84785 15.58501,-2.47469 16.85939,4.31835 0.51438,2.74185 0.30368,3.39567 -1.63868,5.06641 -2.21115,1.90195 -2.9255,3.6875 -1.47656,3.6875 1.16136,0 1.93186,2.71268 1.02734,3.61719 -0.44278,0.44278 -0.62643,1.26921 -0.4082,1.83789 0.21823,0.56868 -0.5718,3.60358 -1.7539,6.74414 -2.42626,6.44597 -2.7362,10.16302 -0.90625,10.86523 0.85885,0.3296 1.85426,-0.75016 3.22265,-3.49414 1.08908,-2.1839 2.63492,-4.09575 3.43555,-4.25 2.21856,-0.42744 4.0877,1.55039 3.53711,3.74414 -0.60954,2.42859 -6.11174,11.9086 -8.51172,14.666 -2.31311,2.6576 -2.96005,4.4861 -2.08595,5.9004 0.98582,1.5951 4.334,-2.2634 8.47853,-9.7715 3.13067,-5.6713 8.17802,-11.30662 10.12695,-11.30661 2.50492,-1e-5 3.4092,14.47541 1.27734,20.44921 l -1.1289,3.1621 4.96094,0 c 2.72825,0 4.95898,-0.2019 4.95898,-0.4492 0,-0.2473 -0.89313,-2.24 -1.98633,-4.4277 -1.09319,-2.1877 -2.24903,-5.0605 -2.56836,-6.3848 -0.86393,-3.5826 1.67111,-10.23787 5.20899,-13.67383 4.44872,-4.32054 12.71383,-8.13229 17.79883,-8.20899 4.07591,-0.0615 4.39138,0.11695 11.33398,6.41992 8.05546,7.3133 11.58546,12.3262 13.55273,19.2539 1.26636,4.4594 3.03015,6.4132 4.80469,5.3164 1.24353,-0.7685 0.88321,-3.3699 -0.76758,-5.5312 -0.84485,-1.1062 -2.43201,-4.2894 -3.52734,-7.0723 -1.09535,-2.7829 -2.54091,-5.92009 -3.21094,-6.97266 -1.99932,-3.14078 -0.77706,-7.26556 3.30469,-11.14843 2.533,-2.40959 4.04524,-3.25398 5.17773,-2.89453 0.93077,0.29541 2.2429,-0.0762 3.14063,-0.88868 1.92892,-1.74565 4.64424,-1.09641 17.30273,4.13477 6.49566,2.68436 10.04936,4.73309 13.01368,7.50586 4.63515,4.33565 15.33307,10.06857 18.0625,9.67967 1.27712,-0.1819 1.90128,-0.9492 2.08789,-2.5703 0.21917,-1.90395 -0.65612,-3.17174 -4.95508,-7.16992 -6.75574,-6.28307 -6.95841,-6.388 -13.57422,-7.01367 -4.8664,-0.46022 -6.51789,-1.11045 -12.39258,-4.87891 -3.72772,-2.39123 -7.13319,-4.34765 -7.56641,-4.34765 -0.4332,0 -1.24339,-1.09964 -1.80078,-2.44532 -0.55737,-1.34564 -1.93398,-3.31274 -3.06054,-4.37109 -1.35523,-1.27318 -1.87742,-2.4638 -1.54297,-3.51758 0.29161,-0.91879 -0.0767,-2.23552 -0.8711,-3.11328 -1.27547,-1.40938 -1.26558,-1.74694 0.13477,-4.55859 1.79083,-3.59569 3.84342,-3.89441 9.4043,-1.3711 4.12722,1.87277 6.49011,2.11272 7.33593,0.74414 0.9122,-1.47599 -1.57355,-3.30997 -5.16797,-3.8125 -4.73358,-0.66177 -7.95312,-2.02863 -7.95312,-3.37695 0,-0.72963 0.94161,-1.16211 2.5293,-1.16211 1.39145,0 2.53127,-0.41642 2.53125,-0.92578 0,-0.63433 -1.58461,-0.74354 -5.0293,-0.34375 -4.27551,0.49622 -5.38636,0.32973 -7.41016,-1.11133 -1.3093,-0.93231 -3.65707,-2.02552 -5.21679,-2.42968 -1.75419,-0.45456 -3.10281,-1.45623 -3.53516,-2.625 -0.5815,-1.57193 -0.26008,-2.15559 1.91211,-3.47657 1.43601,-0.8733 3.94507,-1.83697 5.57422,-2.14257 1.62914,-0.30566 4.36254,-1.44167 6.07617,-2.52344 0.5523,-0.34865 1.8284,-0.95867 2.57813,-1.38086 -0.20445,-0.49102 -0.43865,-0.93537 -0.63282,-1.4375 -0.28554,-0.73844 -0.42173,-1.45603 -0.68359,-2.20703 -3.05433,1.41728 -6.50543,3.03694 -7.4668,3.26172 -3.19562,0.74716 -7.51628,-0.99425 -6.98828,-2.81641 4.95754,-17.10857 5.54633,-18.63531 8.38477,-21.75391 l 1.6875,-1.85547 -2.28907,0.17579 c -1.5443,0.1187 -3.33511,1.39969 -5.49414,3.93164 -3.07963,3.61152 -3.29491,3.71375 -5.61718,2.67187 -1.32817,-0.59588 -3.2813,-1.64227 -4.3418,-2.32617 l -1.92969,-1.24414 3.86133,-4.38672 c 4.55942,-5.18178 8.7296,-13.20387 9.30664,-17.90234 0.35103,-2.85817 -0.1919,-2.10946 -3.67969,5.08007 -4.55038,9.37987 -6.18606,11.3377 -8.125,9.72852 -1.38169,-1.1467 -1.51055,-1.08559 -8.35156,3.93359 -4.95486,3.63534 -8.76024,4.80283 -7.83984,2.4043 0.28648,-0.74658 0.0623,-1.06653 -0.57422,-0.82227 -1.62228,0.62253 -3.36117,-12.59785 -2.65235,-20.1621 0.66353,-7.0808 -0.41915,-10.76005 -2.62695,-8.92774 -0.94704,0.78599 -1.18947,2.88594 -1.05078,9.1211 0.0991,4.45446 -0.30276,9.99536 -0.89453,12.31445 -0.59175,2.31909 -1.24474,5.09551 -1.45117,6.16992 -0.59316,3.08746 -2.71758,1.9374 -7.19336,-3.89453 -2.61089,-3.40197 -4.27053,-6.51131 -4.61133,-8.64258 -0.29281,-1.83117 -0.80578,-3.33008 -1.14063,-3.33008 -0.71007,0 1.93523,14.48005 3.28516,17.98242 0.81818,2.12271 0.64912,2.64971 -1.55078,4.84961 -2.65251,2.6525 -3.82067,2.92249 -7.15625,1.6543 -3.12341,-1.18751 -12.34155,-10.86708 -14.08398,-14.78906 -0.82426,-1.85527 -3.0375,-5.43431 -4.91993,-7.95313 -2.48268,-3.32196 -3.42962,-5.40639 -3.44532,-7.58984 -0.0141,-1.96399 -1.03944,-4.60665 -2.95117,-7.60742 -2.96499,-4.65404 -3.62,-6.78711 -2.08789,-6.78711 1.77154,0 7.79343,-6.3861 10.66016,-11.30469 5.47763,-9.39827 6.69944,-10.62109 10.62305,-10.62109 1.91803,0 6.29674,0.78846 9.73047,1.75195 6.36481,1.78595 9.49375,1.75279 4.05273,-0.043 -4.10262,-1.35398 -4.42599,-2.29298 -1.7539,-5.08203 2.2384,-2.3364 2.26907,-4.2168 0.0684,-4.2168 -0.60363,0 -2.54088,0.98079 -4.30469,2.17774 -3.28476,2.2291 -6.8618,2.31117 -10.7168,0.24804 -2.24131,-1.19951 -1.8812,-5.55019 0.74414,-8.99218 2.22768,-2.92064 2.22927,-2.94378 0.83789,-6.82618 -2.03583,-5.68052 -1.81766,-7.30703 1.14258,-8.5332 1.56225,-0.6471 2.5293,-1.66353 2.5293,-2.6582 0,-1.65312 -0.35883,-1.87532 -4.53711,-2.79688 l -2.42969,-0.53515 0.41406,-5.78516 0.41407,-5.7832 -3.31641,-1.4961 c -3.88739,-1.75296 -5.72265,-4.05405 -5.72266,-7.17382 0,-1.93946 -0.49218,-2.36737 -3.64063,-3.16016 -4.27701,-1.07696 -6.46697,-3.21054 -7.23242,-7.04883 -0.41162,-2.06402 -1.25874,-3.08913 -3.30469,-3.99609 -2.47324,-1.09637 -2.69471,-1.47689 -2.18945,-3.77735 0.50888,-2.3169 0.42933,-2.44946 -0.8418,-1.39453 -1.8539,1.53861 -5.98073,1.35733 -9.96094,-0.4375 -3.13684,-1.41452 -3.26648,-1.40425 -5.15625,0.3711 -2.39052,2.24577 -4.44947,2.32792 -5.57617,0.22265 -1.33775,-2.4996 0.49898,-3.36101 10.89844,-5.10937 5.18902,-0.87237 9.66199,-1.81239 9.93945,-2.08985 0.27746,-0.27746 0.0726,-4.19973 -0.45508,-8.71484 -0.89183,-7.63102 -0.6278,-11.47969 1.06641,-15.58398 0.98702,-2.39107 6.89656,-1.0145 10.86133,2.52929 1.79548,1.60482 6.16082,4.23217 9.69923,5.83985 3.53842,1.60767 8.51932,3.8861 11.07031,5.0625 4.20076,1.93719 4.49282,1.97699 3.09375,0.42773 -0.84961,-0.94082 -4.22163,-3.11629 -7.49414,-4.83594 -3.27252,-1.71966 -7.41549,-4.45175 -9.20703,-6.07031 -1.79155,-1.61856 -3.25781,-2.50822 -3.25782,-1.97851 0,1.37375 -4.71347,-1.17998 -5.37891,-2.91407 -1.43981,-3.75209 0.0783,-6.40607 2.35937,-4.125 1.21506,1.21505 1.33204,1.02823 1.33203,-2.10156 0,-4.22809 -1.29436,-4.43703 -4.36132,-0.70508 -1.23981,1.50862 -2.50841,2.48963 -2.81836,2.17969 -1.29827,-1.29829 0.85748,-4.19227 6.57812,-8.83008 l 6.084,-4.93164 6.74609,0.0547 c 5.63805,0.0458 8.43068,0.63458 16.99414,3.58398 10.06153,3.46535 16.80346,4.39379 21.92578,3.01953 2.1831,-0.58571 2.93532,-3.65548 1.85547,-7.5664 -1.19918,-4.34306 -6.43776,-8.15976 -16.55664,-12.06445 -11.58277,-4.46961 -15.66177,-6.94692 -17.36914,-10.54493 -2.897,-6.10497 -0.55655,-10.13519 6.43164,-11.07422 5.51467,-0.74102 6.68664,-1.33131 5.72656,-2.88476 -0.42262,-0.68382 -2.95698,-1.4498 -5.96679,-1.80469 -6.36264,-0.75021 -7.99647,-2.04474 -6.74219,-5.34375 0.62442,-1.64236 2.12758,-2.8562 5.09375,-4.10937 3.64603,-1.54041 4.20898,-2.09771 4.20898,-4.17578 0,-1.67963 1.13765,-3.61617 3.79492,-6.45704 2.08718,-2.23136 3.79494,-4.51255 3.79493,-5.07031 0,-0.55774 -1.65769,-1.74838 -3.6836,-2.64453 -5.55746,-2.45833 -6.24945,-3.65621 -4.27343,-7.40039 0.898,-1.70155 3.59357,-5.13276 5.99218,-7.625 4.16282,-4.32534 4.50802,-4.50566 7.58985,-3.95703 1.77576,0.31612 4.99866,0.5411 7.16211,0.5 2.99549,-0.0569 4.49036,0.40239 6.26367,1.92773 2.0374,1.75249 2.58198,1.87128 4.35547,0.95117 1.43921,-0.74667 2.86656,-0.81998 4.92382,-0.25195 2.76586,0.7637 3.14761,0.57971 8.41797,-4.07617 7.43302,-6.5664 9.11271,-9.429176 8.95899,-15.271476 -0.0776,-2.95023 0.3755,-5.47483 1.24414,-6.94532 1.31377,-2.22403 1.26915,-2.44838 -1.1543,-5.99414 -1.38447,-2.02561 -3.55407,-5.2605 -4.82226,-7.18945 -1.26819,-1.92894 -3.44903,-3.98007 -4.84571,-4.55859 -1.39669,-0.57854 -2.8777,-1.94219 -3.29101,-3.0293 -0.80829,-2.12592 -2.47126,-2.49185 -5.05078,-1.11133 -1.00675,0.5388 -3.13339,0.60457 -5.63672,0.17383 -3.73562,-0.64277 -4.17831,-0.52556 -6.25586,1.66406 -1.48915,1.56947 -3.08876,2.35742 -4.79102,2.35742 -2.21396,0 -3.13035,0.8162 -6.85547,6.10352 -5.87332,8.33642 -6.61409,11.08869 -4.68945,17.44531 2.23034,7.366346 1.65331,7.966146 -4.66211,4.83594 -4.8602,-2.40894 -5.86199,-2.59249 -13.77344,-2.52149 -4.69221,0.0421 -12.81298,0.69208 -18.04688,1.44336 -14.20335,2.03879 -22.10742,1.79465 -22.10742,-0.68359 0,-2.69209 6.30664,-15.40833 8.52929,-17.19727 1.47616,-1.18812 2.4336,-2.76401 2.4336,-4.00586 0,-4.92685 -5.24236,-0.99037 -11.40625,8.56446 -2.74579,4.25633 -5.52097,7.52296 -7.07422,8.32617 -2.54568,1.31642 -2.58584,1.29992 -9.69141,-3.75 -7.30528,-5.19185 -7.58791,-5.57342 -8.49219,-11.41602 -0.2891,-1.86786 -2.03132,-6.04125 -3.87109,-9.27539 -1.83977,-3.23414 -4.37363,-8.05509 -5.63086,-10.71289 -2.61423,-5.52657 -4.05573,-6.45989 -6.38281,-4.13281 -1.41661,1.41661 -1.51173,2.0162 -0.68945,4.375 2.15244,6.1745 0.50378,8.38477 -6.25391,8.38477 l -2.88086,0 0.44922,-3.58399 c 0.2467,-1.97123 0.52293,-13.69981 0.61523,-26.06445 l 0.0879,-11.72852 c -1.03352,-0.12552 -2.04848,-0.18992 -3.08398,-0.32226 -1.30205,-0.16642 -2.56513,-0.21122 -3.85547,-0.3418 z m -118.63085,68.27734 c -1.57832,-0.0349 -1.55836,0.069 0.30468,1.6211 1.38683,1.15535 3.17707,1.63925 5.90234,1.59375 l 3.91211,-0.0664 -4.21679,-1.55469 c -2.31909,-0.85574 -4.97471,-1.57325 -5.90234,-1.59375 z m 322.67188,8.67774 c -1.22462,-0.12762 -2.65092,0.820736 -3.85743,2.662106 -1.04752,1.59869 -1.81654,1.91598 -3.7207,1.53515 -1.92749,-0.38549 -2.75856,-0.0266 -4.21289,1.82227 -3.43755,4.37015 -2.31149,8.11213 3.29492,10.95312 2.22838,1.12921 4.28993,2.43948 4.58203,2.91211 0.66233,1.07166 0.73559,1.07005 3.30274,-0.0996 1.15828,-0.52775 2.47648,-2.02413 2.92969,-3.32421 1.0553,-3.02723 0.18577,-14.83876 -1.17579,-15.96875 -0.34759,-0.28849 -0.73436,-0.449646 -1.14257,-0.492186 z m -5.18946,54.499996 c -0.22305,0.003 -0.4476,0.0219 -0.67187,0.0547 -1.79415,0.26257 -3.52344,1.45389 -3.52344,3.32812 0,0.83219 0.47492,1.70356 1.05469,1.9375 2.96767,1.19747 6.72942,-0.58502 6.38281,-3.02539 -0.22817,-1.60655 -1.68083,-2.31811 -3.24219,-2.29492 z M 274.9369,246.36858 c 0.28889,-0.007 0.59976,0.0236 0.91992,0.0859 1.92101,0.37402 4.18945,1.88669 4.18945,3.16015 0,2.10104 -3.30832,1.85759 -5.42773,-0.39844 -1.84808,-1.96717 -1.88353,-2.16292 -0.4707,-2.70507 0.23326,-0.0895 0.50017,-0.13521 0.78906,-0.14258 z m 82.73438,42.00586 c -6.32821,0 -7.29009,0.42476 -5.35351,2.36133 0.96447,0.96447 16.69726,1.54045 16.69726,0.61132 0,-1.473 -5.72429,-2.97265 -11.34375,-2.97265 z m -23.27148,59.87305 c -0.42262,-1e-5 -0.33586,0.95178 0.19336,2.11328 0.52921,1.16151 1.12531,1.94891 1.32422,1.75 0.59561,-0.59562 -0.6879,-3.86329 -1.51758,-3.86328 z m 12.03125,6.11328 c -1.49106,0.11288 -1.35096,1.0491 0.65234,2.42773 1.1814,0.81301 2.08718,3.16358 3.04688,7.9043 0.75115,3.71054 1.7149,7.41097 2.14258,8.22265 1.25407,2.38009 1.43844,1.7198 0.58203,-2.09179 -0.44068,-1.96173 -0.64322,-4.17418 -0.44922,-4.91602 0.194,-0.74184 -0.16336,-2.05426 -0.79492,-2.91797 -1.87499,-2.56419 -1.44867,-4.62109 0.95898,-4.62109 4.26934,0 1.23273,-2.82911 -4.11328,-3.83203 -0.85076,-0.15961 -1.52837,-0.21341 -2.02539,-0.17578 z m 74.18359,18.45703 c -0.40581,0.0483 -1.05381,0.46115 -1.65429,1.08984 -1.39164,1.45702 -1.36932,1.47936 0.51367,0.51367 1.0833,-0.55557 1.73776,-1.24271 1.45508,-1.52539 -0.0707,-0.0707 -0.17919,-0.0942 -0.31446,-0.0781 z m -6.57422,29.40234 c -0.18228,0 -0.33007,0.5699 -0.33007,1.26563 0,0.69572 0.36714,1.26367 0.8164,1.26367 0.44926,0 0.59705,-0.56795 0.33008,-1.26367 -0.26698,-0.69573 -0.63412,-1.26563 -0.81641,-1.26563 z m 118.1543,35.41797 c -1.42273,0 -4.63867,2.92341 -4.63867,4.2168 0,1.53926 4.13014,0.89299 5.0293,-0.78711 1.2198,-2.27922 1.08974,-3.42969 -0.39063,-3.42969 z m -204.61329,1.78711 c -0.61135,-0.003 -1.25285,0.0457 -1.77734,0.14648 -1.049,0.20171 -0.38848,0.37577 1.46679,0.38477 1.85529,0.009 2.71252,-0.15612 1.90626,-0.36719 -0.40314,-0.10552 -0.98436,-0.16083 -1.59571,-0.16406 z m 77.69532,37.84959 c -0.46381,0 -0.84375,0.378 -0.84375,0.8418 0,0.4638 0.37994,0.8438 0.84375,0.8438 0.46382,0 0.84375,-0.38 0.84375,-0.8438 0,-0.4638 -0.37993,-0.8418 -0.84375,-0.8418 z"
       id="path4205" />
  </g>
</svg>
