<?xml version="1.0" encoding="UTF-8" standalone="no"?>
<!-- Created with Inkscape (http://www.inkscape.org/) -->

<svg
   xmlns:dc="http://purl.org/dc/elements/1.1/"
   xmlns:cc="http://creativecommons.org/ns#"
   xmlns:rdf="http://www.w3.org/1999/02/22-rdf-syntax-ns#"
   xmlns:svg="http://www.w3.org/2000/svg"
   xmlns="http://www.w3.org/2000/svg"
   xmlns:sodipodi="http://sodipodi.sourceforge.net/DTD/sodipodi-0.dtd"
   xmlns:inkscape="http://www.inkscape.org/namespaces/inkscape"
   width="124.27213mm"
   height="84.674515mm"
   viewBox="0 0 440.3343 300.02781"
   id="svg4899"
   version="1.1"
   inkscape:version="0.91 r13725"
   sodipodi:docname="blood2.svg">
  <defs
     id="defs4901" />
  <sodipodi:namedview
     id="base"
     pagecolor="#ffffff"
     bordercolor="#666666"
     borderopacity="1.0"
     inkscape:pageopacity="0.0"
     inkscape:pageshadow="2"
     inkscape:zoom="0.35"
     inkscape:cx="3.7385702"
     inkscape:cy="238.5853"
     inkscape:document-units="px"
     inkscape:current-layer="layer1"
     showgrid="false"
     fit-margin-top="0"
     fit-margin-left="0"
     fit-margin-right="0"
     fit-margin-bottom="0"
     inkscape:window-width="1440"
     inkscape:window-height="849"
     inkscape:window-x="0"
     inkscape:window-y="25"
     inkscape:window-maximized="1" />
  <metadata
     id="metadata4904">
    <rdf:RDF>
      <cc:Work
         rdf:about="">
        <dc:format>image/svg+xml</dc:format>
        <dc:type
           rdf:resource="http://purl.org/dc/dcmitype/StillImage" />
        <dc:title></dc:title>
      </cc:Work>
    </rdf:RDF>
  </metadata>
  <g
     inkscape:label="Layer 1"
     inkscape:groupmode="layer"
     id="layer1"
     transform="translate(308.73857,-470.91971)">
    <path
       inkscape:connector-curvature="0"
       style="fill:#c80000;fill-opacity:1"
       d="m -10.923684,470.91976 c -2.01357,0 -3.56354,4.43636 -4.40234,12.59766 -0.45798,4.45611 -1.50551,9.16133 -2.51367,11.28906 -1.46482,3.09153 -2.02543,3.57533 -3.66407,3.16406 -1.06369,-0.26697 -4.8819,-0.89515 -8.48632,-1.39648 l -6.55469,-0.91211 -5.53125,-5.73828 c -3.15552,-3.27321 -8.06893,-7.19197 -11.43946,-9.125 -3.24945,-1.86363 -6.62895,-4.18491 -7.50976,-5.1582 -1.53417,-1.69524 -4.70061,-2.45694 -4.72461,-1.13672 -0.006,0.34786 -0.22243,1.41805 -0.48047,2.3789 -0.32749,1.21949 0.46845,2.86802 2.63477,5.46094 l 3.10351,3.71485 -2.76562,2.30859 c -3.74538,3.12678 -8.92537,4.77654 -18.71289,5.96094 -4.52222,0.54724 -8.22266,1.28977 -8.22266,1.65039 0,0.36061 1.31752,2.1141 2.92773,3.89648 l 2.92774,3.24219 -2.32422,2.22461 c -1.27772,1.22414 -4.56898,2.99878 -7.31445,3.94336 -2.74547,0.94458 -5.83925,2.51329 -6.874996,3.48633 l -1.88281,1.76953 -5.27735,-1.78321 c -2.90292,-0.98033 -6.6329,-1.78125 -8.28711,-1.78125 -2.16699,0 -4.59738,-1.06797 -8.69726,-3.81836 -3.12969,-2.09955 -6.9203,-4.0534 -8.42383,-4.34375 l -2.73438,-0.52929 1.6875,1.93164 c 0.92764,1.06246 3.01533,2.4855 4.63867,3.16211 1.62336,0.6766 4.84888,2.62782 7.16797,4.33594 6.57063,4.8396 8.10054,5.67101 13.13282,7.13281 8.4307,2.44899 9.618606,6.19846 4.15429,13.11133 -3.11565,3.94161 -3.37304,4.66592 -3.37304,9.50586 0,11.92607 -7.12476,18.16149 -26.33399,23.04687 -9.27447,2.35874 -8.91953,2.49256 2.29883,0.86719 4.63818,-0.67201 11.22971,-1.23335 14.64648,-1.24805 7.00986,-0.0302 6.67173,-0.79139 3.50196,7.91211 -0.99908,2.74324 -2.03864,6.91859 -2.31055,9.27734 -0.27189,2.35874 -0.91103,4.56745 -1.41992,4.90821 -0.50888,0.34076 -2.50617,0.62581 -4.43945,0.63281 -4.33203,0.0159 -6.1836,0.67745 -6.1836,2.21094 0,0.81413 1.06723,1.17382 3.47656,1.17382 2.93841,3e-5 3.32105,0.18905 2.46485,1.22071 -1.62826,1.96193 -7.42538,3.62986 -14.42383,4.17383 -0.13534,-0.26242 -0.25966,-0.52027 -0.40039,-0.78516 -2.39349,0.42084 -4.56478,0.95208 -6.08399,1.6875 -4.43383,2.14639 -6.33292,1.45816 -6.7246,-2.44141 -0.20622,-2.05311 -0.73457,-2.65472 -2.66602,-3.04101 -1.32433,-0.26487 -3.71265,-1.82742 -5.30859,-3.4707 -1.65267,-1.7017 -3.73161,-2.98829 -4.82813,-2.98829 -1.05887,0 -3.39962,-0.44207 -5.20312,-0.98242 -3.99564,-1.19712 -5.01466,-3.87929 -2.95508,-7.78711 4.97298,-9.43568 6.94718,-26.85883 4.33008,-38.2207 -0.66478,-2.88606 -0.99995,-5.79235 -0.74414,-6.45898 0.2846,-0.74163 -0.21193,-1.42819 -1.28125,-1.76758 -0.96118,-0.30507 -1.74805,-1.12064 -1.74805,-1.8125 0,-0.69185 -1.58798,-4.55492 -3.5293,-8.58594 -2.54134,-5.27693 -4.82939,-8.57614 -8.16797,-11.7793 -4.24826,-4.07595 -4.56903,-4.64111 -3.82812,-6.74609 0.85341,-2.42459 0.87385,-2.38308 -4.08203,-8.2207 -1.27551,-1.50244 -2.31836,-3.61238 -2.31836,-4.6875 0,-1.44473 -0.24804,-1.70703 -0.94727,-1.00782 -0.52033,0.52077 -1.56319,0.74918 -2.31836,0.50977 -1.19134,-0.37771 -1.205,-0.31073 -0.10742,0.50391 1.10253,0.81832 1.05371,1.09895 -0.37305,2.1875 -1.90263,1.45162 -3,1.60072 -3,0.40625 0,-0.46382 -0.73645,-0.84375 -1.63672,-0.84375 -0.90026,0 -1.87154,-0.37993 -2.1582,-0.84375 -0.28665,-0.46381 -1.25065,-0.8418 -2.14062,-0.8418 -0.89,0 -3.72416,-1.03414 -6.29883,-2.29688 -3.72259,-1.82573 -4.99056,-2.10151 -6.19141,-1.35156 -1.67456,1.04578 -5.80039,0.56354 -7.64258,-0.89258 -0.65474,-0.51753 -1.98255,-0.9414 -2.95117,-0.9414 -1.2198,0 -1.84978,-0.62432 -2.04883,-2.03321 -0.22726,-1.60846 -0.46209,-1.78538 -1.11914,-0.84375 -0.63736,0.91341 -0.92974,0.94527 -1.25781,0.13672 -0.23527,-0.57978 -1.16963,-1.05469 -2.07617,-1.05469 -1.29474,0 -1.59693,0.49863 -1.40625,2.32032 0.20628,1.97072 -0.0802,2.33001 -1.91016,2.40039 -1.18437,0.0456 -3.08208,0.67298 -4.21679,1.39453 -1.13473,0.72156 -3.76126,1.58681 -5.83789,1.92187 -3.40033,0.54863 -3.66462,0.47479 -2.65625,-0.74023 0.61583,-0.74203 2.50455,-1.59673 4.19726,-1.90039 4.46063,-0.80019 5.89092,-1.6856 3.79883,-2.34961 -0.91362,-0.28997 -4.45747,0.42357 -7.875,1.58594 -3.41751,1.16238 -6.88759,2.11328 -7.71094,2.11328 -0.82335,0 -1.80861,0.56017 -2.1914,1.24414 -0.38277,0.68396 -2.20254,1.76517 -4.04297,2.40234 -3.21669,1.11363 -3.34242,1.29795 -3.26172,4.7461 0.0462,1.97288 0.53532,3.86553 1.08789,4.20703 1.24152,0.76731 0.4951,1.40235 -5.60938,4.77344 -2.43457,1.34444 -4.42726,2.88 -4.42773,3.41015 -4.8e-4,0.53015 -0.54605,1.17184 -1.21289,1.42774 -0.66685,0.25589 -1.60704,1.89129 -2.08789,3.63281 -0.71694,2.59654 -0.62682,3.43846 0.5,4.68359 1.27082,1.40421 1.26925,1.51953 -0.0215,1.51953 -0.76762,0 -1.43838,0.66293 -1.49218,1.47461 -0.0889,1.34046 -0.13497,1.33619 -0.4961,-0.0606 -0.22967,-0.88828 -0.89117,-1.34895 -1.5664,-1.08984 -0.64289,0.2467 -1.5478,-0.19977 -2.00977,-0.99219 -0.46199,-0.79241 -0.85113,-1.06148 -0.86523,-0.59766 -0.0141,0.46382 -1.00294,0.84375 -2.19727,0.84375 -1.91614,0 -2.11592,-0.27195 -1.70898,-2.30664 l 0.46093,-2.30468 -3.90234,2.42773 c -3.02666,1.88384 -4.24397,3.33002 -5.42578,6.44336 -1.6147,4.2538 -1.46814,5.4375 0.67969,5.4375 1.03938,0 1.2244,0.62696 0.85546,2.90039 -0.31792,1.95914 -0.0808,3.22354 0.73243,3.89844 1.76631,1.4659 1.48471,4.24926 -0.48243,4.76367 -1.76488,0.46154 -2.35355,1.93164 -0.77343,1.93164 1.4794,0 0.39837,1.9393 -1.21289,2.17578 -1.97292,0.28957 -5.60352,2.71677 -5.60352,3.7461 10e-6,0.45313 0.7707,0.82422 1.71289,0.82422 0.9422,0 1.91138,0.51264 2.15235,1.14062 0.6254,1.62977 -3.1609,7.21336 -4.91993,7.25586 -0.91772,0.0222 -1.47461,0.69406 -1.47461,1.77735 0,0.95813 -0.35135,2.39984 -0.78125,3.20312 -0.52514,0.98124 -0.25685,3.38522 0.81836,7.32422 0.88022,3.22462 1.6115,6.16969 1.625,6.54492 0.0135,0.37524 0.32933,0.49273 0.70313,0.26172 0.62027,-0.38338 5.0238,5.44881 7.50976,9.94727 0.53179,0.96227 1.17021,4.47044 1.48047,7.9707 2.46685,-1.77713 5.46996,-2.82716 8.95899,-2.68945 0.71917,-0.006 1.43069,-0.0875 2.14258,-0.17383 0.18043,-0.52638 0.31054,-0.96157 0.31054,-1.13867 0,-1.08519 3.39861,-2.66845 4.42774,-2.0625 0.34786,0.20482 0.63281,1.23615 0.63281,2.29101 0,0.29879 0.0104,0.57016 0.0312,0.81641 0.71701,0.0622 1.42867,0.14705 2.12891,0.27344 -0.56596,-0.39731 -0.53398,-0.55567 0.16015,-0.56446 0.57977,-0.007 1.05274,-0.78652 1.05274,-1.73242 0,-1.85367 0.56697,-1.5756 4.25781,2.08984 0.97162,0.96494 1.5554,2.18966 1.62305,2.92969 3.6547,1.19569 7.52858,2.94026 6.43945,3.39844 -0.56066,-0.34836 -2.2065,-1.4452 -1.68164,-1.04492 1.64015,1.25082 3.44509,2.28356 5.0332,3.59961 -0.0559,-0.21593 -0.12429,-0.54174 -0.17578,-0.72266 -0.73294,-2.57519 1.40271,-2.11375 2.61328,0.56445 0.45905,1.01559 1.94703,2.06419 3.37109,2.37696 3.33725,0.73298 8.03516,2.99172 8.03516,3.86328 0,0.37792 0.73646,0.6875 1.63672,0.6875 0.90027,0 1.87154,0.37993 2.1582,0.84375 0.28665,0.46382 1.35292,0.84465 2.36914,0.84765 1.01621,0.003 2.93788,0.57308 4.26954,1.26758 1.33163,0.69448 4.02934,1.20321 5.99414,1.12891 2.15593,-0.0815 4.36259,0.41855 5.5664,1.26172 1.09707,0.76842 2.76469,1.36668 3.70508,1.33008 1.36629,-0.0532 1.24381,-0.23724 -0.60938,-0.91407 -3.35399,-1.22499 -2.88699,-1.9318 2.10743,-3.18554 2.43505,-0.61126 4.97206,-1.53663 5.63867,-2.05664 0.97581,-0.76122 1.10543,-0.65693 0.66016,0.53125 -0.3042,0.81168 -0.41824,1.47461 -0.25391,1.4746 0.94928,0 4.60742,-2.34764 4.23633,-2.71874 -0.2449,-0.24491 0.13664,-0.66857 0.84765,-0.94141 0.87135,-0.33436 1.42221,0.11222 1.69141,1.37109 0.97152,4.54297 2.14843,14.32635 2.14844,17.86328 0,3.22881 0.31333,3.98535 1.89843,4.59766 2.34255,0.9049 5.31471,4.1049 6.03907,6.5 0.37966,1.25535 2.11564,2.35388 5.78906,3.66406 2.88582,1.02926 6.66321,2.78313 8.39258,3.89844 3.85088,2.48351 4.54743,2.51305 5.76172,0.24414 0.78605,-1.46877 1.48039,-1.69824 3.92968,-1.30078 1.63598,0.26549 3.61557,1.063 4.39844,1.77148 1.29631,1.17315 1.71967,0.98171 4.74414,-2.14453 1.82654,-1.88801 6.10125,-5.36636 9.5,-7.72851 5.96267,-4.14408 6.16177,-4.39197 5.6582,-7.07618 -0.44855,-2.39105 -0.14544,-3.11725 2.15626,-5.17382 2.2819,-2.03888 2.53908,-2.64887 1.74804,-4.12696 -0.86905,-1.62381 -0.26934,-2.01609 9.375,-6.14062 1.62853,-0.69646 3.11229,-1.23746 4.64649,-1.83008 -0.0192,-0.0359 -0.0413,-0.0754 -0.0606,-0.11133 6.69453,-2.31256 11.99415,-3.43202 14.36914,-2.83593 4.64015,1.1646 12.57574,13.32659 12.99805,19.91992 0.197,3.07581 0.0482,3.26842 -3.83594,4.9707 -3.43812,1.50683 -4.33977,1.61347 -6.03711,0.70508 -1.76448,-0.94431 -2.34618,-0.80088 -5.02734,1.24414 -7.11171,5.42437 -12.30078,15.51901 -12.30078,23.92969 0,4.45737 0.3766,5.50431 3.85742,10.74218 4.58029,6.89232 6.72174,8.1953 17.26367,10.4961 4.36118,0.95185 8.0505,1.85322 8.19922,2.00195 0.14871,0.14871 1.362296,-0.82324 2.697256,-2.1582 1.41513,-1.41514 3.33179,-2.42578 4.59571,-2.42578 4.5806,0 11.68371,-13.05842 11.80273,-21.69727 l 0.0742,-5.34375 3.20898,-0.96289 c 2.79783,-0.84027 3.77109,-0.71623 7.58985,0.96875 2.40924,1.06303 6.46658,2.81403 9.01758,3.89062 4.58341,1.93434 4.65614,2.01932 6.10937,7.2793 0.80883,2.92755 2.2679,9.49762 3.24219,14.59961 2.23188,11.68754 2.57091,12.5814 3.29101,8.66602 0.70936,-3.85698 -0.27584,-11.3385 -2.30859,-17.52149 l -1.52539,-4.63672 2.82031,-3.97461 c 2.58349,-3.64027 3.0442,-3.93154 5.50391,-3.46875 4.20464,0.79109 5.85003,2.67011 5.23047,5.97266 l -0.52539,2.79883 4.47265,-2.49609 c 9.5026,-5.30342 15.51267,-5.17453 19.78125,0.42187 2.47307,3.24238 3.80086,3.31965 4.51758,0.26172 0.2984,-1.27311 1.18384,-2.14863 2.3437504,-2.31641 2.82092,-0.40805 11.1947,8.019 14.78125,14.875 2.96979,5.67703 5.2733696,12.59969 4.46289,13.41016 -0.2407,0.24071 -2.76859,-1.3162 -5.61914,-3.45899 -6.40028,-4.81117 -9.776,-5.16736 -13.51367,-1.42968 -2.0141204,2.01413 -2.4648004,3.17731 -2.4648504,6.36523 0,4.73677 1.471,7.77483 5.4668004,11.2832 3.41859,3.00155 3.14151,2.95599 10.55469,1.75391 6.1090096,-0.99059 8.8133696,-2.89499 9.5839796,-6.74805 0.60817,-3.04083 1.36666,-3.08139 4.72461,-0.25586 4.75733,4.00302 6.32149,8.17976 6.33789,16.92188 0.0142,7.611 -0.0356,7.80357 -2.72656,10.58203 -2.94311,3.03875 -3.41492,4.93417 -1.60351,6.4375 0.86589,0.71864 2.38931,0.31784 6.39062,-1.68164 l 5.25195,-2.625 2.92383,1.57422 c 1.6087,0.86561 4.07814,2.76256 5.48633,4.21484 l 2.56055,2.64063 -1.75586,3.43945 c -0.96519,1.89192 -1.74824,4.30902 -1.74024,5.37109 0.013,1.76947 0.15932,1.70524 1.73828,-0.75976 1.56876,-2.44907 7.51114,-6.16406 9.85938,-6.16406 0.52743,0 2.10216,1.42279 3.5,3.16211 2.4442,3.04126 2.76042,3.16972 8.26172,3.36132 4.14095,0.14423 6.65191,-0.23456 9.09375,-1.37109 l 3.37305,-1.57031 3.54492,3.40625 c 1.29947,1.24833 2.16277,1.99825 2.82812,2.40039 0.60446,-2.23047 1.73749,-4.424 3.98633,-6.83008 0.80047,-1.214 1.50543,-2.26065 1.64258,-2.39453 1.5865,-1.54869 3.80075,-2.28198 5.70117,-3.42383 3.99981,-2.40324 6.20118,-2.74917 7.228524,-1.76172 l 4.14257,-1.59375 c 4.15037,-1.59795 5.37665,-1.77674 6.39258,-0.93359 0.6914,0.57387 1.50083,0.798 1.79883,0.5 0.29801,-0.298 0.0997,-0.54102 -0.44141,-0.54102 -0.54112,0 -0.98437,-0.54774 -0.98437,-1.21679 0,-0.82826 1.1437,-1.30001 3.58398,-1.47657 3.02782,-0.21907 3.62842,-0.56541 3.86524,-2.23828 0.18055,-1.2754 -0.34551,-2.41871 -1.47656,-3.21094 -0.96587,-0.67652 -1.75586,-1.53757 -1.75586,-1.91406 0,-0.37649 1.66001,-2.34665 3.68945,-4.3789 4.17423,-4.18001 5.17252,-7.53379 6.07031,-20.39258 0.42098,-6.02949 0.84964,-7.72707 2.28516,-9.06446 0.97158,-0.90517 2.26477,-1.64648 2.87304,-1.64648 0.60827,0 1.10547,-0.89503 1.10547,-1.99023 0,-1.92359 -0.12733,-1.9636 -3.75781,-1.13282 -2.83629,0.64903 -4.07358,0.6001 -5.03906,-0.20117 -1.78652,-1.48268 -2.4558,-5.92098 -1.33789,-8.86133 0.889,-2.33823 0.73253,-2.64801 -2.89649,-5.75 -4.17904,-3.57214 -4.52857,-4.67683 -2.47656,-7.80859 2.20286,-3.36199 1.01182,-4.82094 -3.39453,-4.16016 -3.50164,0.5251 -3.81225,0.41087 -4.96484,-1.84375 -0.6762,-1.32271 -1.49374,-3.63907 -1.81836,-5.14648 -0.5795,-2.69094 -0.6763,-2.74024 -5.25977,-2.74024 -4.217854,0 -4.923924,-0.27411 -7.312504,-2.8457 -2.06043,-2.21834 -3.01556,-2.69693 -4.33008,-2.16797 -3.97051,1.59771 -7.30023,0.89262 -10.17383,-2.15429 -2.17046,-2.30135 -3.4455,-2.95118 -5.79101,-2.95118 -2.67909,0 -3.00781,-0.24021 -3.00781,-2.19726 l 0,-2.19922 -2.37305,2.53906 c -1.86924,2.00102 -3.36186,2.66216 -7.05078,3.12305 -4.17466,0.52159 -4.80715,0.86686 -5.85156,3.19336 -1.40371,3.12681 -2.38582,3.54761 -4.56641,1.95312 -1.62455,-1.1879 -1.62323,-1.21991 0.0352,-3.07226 0.92147,-1.0293 4.3314,-3.84472 7.57812,-6.25781 8.87491,-6.59621 8.69067,-5.83681 3.36914,-13.87891 -4.46514,-6.74787 -6.70193,-12.22473 -6.1543,-15.06836 0.14887,-0.77301 1.55896,-1.69778 3.21094,-2.10547 3.90873,-0.96465 4.84153,-0.93841 9.0586,0.26367 3.61677,1.03096 27.05638,0.39427 25.95703,-0.70508 -0.2754,-0.2754 -5.00167,-0.75712 -10.50391,-1.07031 -6.4549,-0.36743 -10.96329,-1.04808 -12.70703,-1.91797 -2.23133,-1.11314 -2.52137,-1.1314 -1.66992,-0.10547 1.7481,2.10633 -4.68388,1.6384 -6.81836,-0.49609 -2.0895,-2.0895 -1.72746,-3.76923 0.79297,-3.67383 1.00938,0.0382 1.71779,-0.14982 1.57422,-0.41992 -0.14357,-0.2701 -0.78879,-1.54451 -1.4336,-2.83203 -1.49035,-2.97582 -2.74387,-2.55447 -3.82422,1.28516 -1.21118,4.30461 -2.11718,4.80408 -2.11718,1.16796 0,-1.71608 0.94982,-4.993 2.10937,-7.28125 1.15954,-2.28825 2.10742,-4.73903 2.10742,-5.44726 0,-1.78182 6.05918,-6.00395 10.8125,-7.5332 2.16964,-0.69803 8.30868,-1.8892 13.64258,-2.64649 9.78065,-1.38863 14.807094,-3.02944 19.500004,-6.37109 2.10552,-1.49927 2.4601,-2.21389 2.00977,-4.03711 -1.65956,-6.719 -8.902294,-9.31922 -21.744144,-7.80469 -15.02488,1.77198 -20.87205,0.89827 -23.79102,-3.55664 -2.47795,-3.78183 -1.403,-7.24713 3.36133,-10.83985 2.31641,-1.74677 4.32335,-3.51298 4.46094,-3.92578 0.46801,-1.40402 -2.94437,-1.59363 -6.23633,-0.3457 -1.80467,0.68413 -4.49598,1.43277 -5.98242,1.66406 -2.34351,0.36465 -2.77354,0.14085 -3.23438,-1.69531 -0.57351,-2.28503 0.44118,-4.73871 3.46484,-8.375 1.66845,-2.00651 1.79268,-2.62849 0.96094,-4.83203 -0.73463,-1.94628 -0.69452,-3.45723 0.17774,-6.55078 2.0587,-7.30136 2.01451,-7.38969 -3.73438,-7.42969 -6.78386,-0.0472 -7.35519,-0.49896 -6.73047,-5.31055 1.53914,-11.85433 3.56338,-15.74368 8.67188,-16.6543 0.23496,-0.0419 0.49399,-0.12514 0.74414,-0.1914 a 57.142857,15 0 0 1 -26.21094,-3.49219 c -4.61712,1.61874 -9.91722,4.79167 -19.13281,11.01367 -10.1805096,6.87346 -16.8616096,10.61179 -19.7382796,11.04297 -1.55455,0.23302 -1.74071,-0.40691 -2.3593804,-8.17969 -0.46074,-5.78861 -0.36561,-9.38042 0.30078,-11.45507 1.1702204,-3.64316 0.7962104,-6.25391 -0.89453,-6.25391 z"
       id="path4887" />
    <path
       inkscape:connector-curvature="0"
       style="fill:#c80000;fill-opacity:1"
       d="m -136.33802,709.67869 c -0.0994,-0.006 -0.20082,0.002 -0.30469,0.0215 -0.41547,0.0791 -0.87252,0.36221 -1.42187,0.85937 -0.8395,0.75973 -2.92026,1.38086 -4.62305,1.38086 -1.70279,0 -3.09571,0.40655 -3.09571,0.9043 0,0.49775 -1.50587,2.25654 -3.3457,3.9082 -1.83984,1.65166 -3.76604,4.28067 -4.28125,5.8418 -0.51522,1.56113 -1.47697,2.83789 -2.13672,2.83789 -1.48148,0 -1.56168,1.8225 -0.14453,3.26758 0.84682,0.86352 0.56187,1.47105 -1.45117,3.08984 l -2.50586,2.01563 2.26367,2.36328 c 1.25706,1.3121 2.71703,4.23366 3.28125,6.5664 0.84728,3.50303 1.82088,4.90303 5.85742,8.41797 2.66324,2.31909 4.87677,4.45646 4.91797,4.74805 0.0413,0.29159 -1.0185,0.98332 -2.35547,1.53711 -5.43194,2.24999 -10.15782,10.81053 -6.98828,12.66016 0.77379,0.45154 3.07114,0.83355 5.10352,0.84765 3.56752,0.0247 3.95911,-0.2488 11.38281,-7.89453 7.88036,-8.11606 11.80762,-10.37462 16.14063,-9.28711 1.52701,0.38325 2.36187,-0.50403 5.38086,-5.7168 4.58371,-7.91447 5.78069,-12.25228 4.60156,-16.66992 -0.82224,-3.08055 -0.72191,-3.4805 1.30273,-5.27148 l 2.19141,-1.9375 -3.375,-0.42188 c -3.20756,-0.40095 -3.35895,-0.55261 -3.10547,-3.08789 0.21726,-2.17307 -0.0956,-2.77559 -1.6875,-3.25976 -1.07425,-0.32673 -3.20584,-1.53277 -4.73633,-2.67969 -1.92469,-1.44233 -4.65376,-2.34413 -8.85351,-2.92578 -3.3396,-0.46251 -6.55411,-1.2406 -7.14258,-1.72852 -0.28881,-0.23947 -0.57083,-0.36995 -0.86914,-0.38672 z"
       id="path4152" />
  </g>
</svg>
