<?xml version="1.0" encoding="UTF-8" standalone="no"?>
<!-- Created with Inkscape (http://www.inkscape.org/) -->

<svg
   xmlns:dc="http://purl.org/dc/elements/1.1/"
   xmlns:cc="http://creativecommons.org/ns#"
   xmlns:rdf="http://www.w3.org/1999/02/22-rdf-syntax-ns#"
   xmlns:svg="http://www.w3.org/2000/svg"
   xmlns="http://www.w3.org/2000/svg"
   xmlns:sodipodi="http://sodipodi.sourceforge.net/DTD/sodipodi-0.dtd"
   xmlns:inkscape="http://www.inkscape.org/namespaces/inkscape"
   width="257.95633mm"
   height="240.59779mm"
   viewBox="0 0 914.01848 852.51186"
   id="svg2"
   version="1.1"
   inkscape:version="0.91 r13725"
   sodipodi:docname="blood.svg">
  <defs
     id="defs4" />
  <sodipodi:namedview
     id="base"
     pagecolor="#ffffff"
     bordercolor="#666666"
     borderopacity="1.0"
     inkscape:pageopacity="0.0"
     inkscape:pageshadow="2"
     inkscape:zoom="0.35"
     inkscape:cx="276.95246"
     inkscape:cy="699.31479"
     inkscape:document-units="px"
     inkscape:current-layer="layer1"
     showgrid="false"
     fit-margin-top="0"
     fit-margin-left="0"
     fit-margin-right="0"
     fit-margin-bottom="0"
     inkscape:window-width="1440"
     inkscape:window-height="849"
     inkscape:window-x="0"
     inkscape:window-y="25"
     inkscape:window-maximized="1" />
  <metadata
     id="metadata7">
    <rdf:RDF>
      <cc:Work
         rdf:about="">
        <dc:format>image/svg+xml</dc:format>
        <dc:type
           rdf:resource="http://purl.org/dc/dcmitype/StillImage" />
        <dc:title></dc:title>
      </cc:Work>
    </rdf:RDF>
  </metadata>
  <g
     inkscape:label="Layer 1"
     inkscape:groupmode="layer"
     id="layer1"
     transform="translate(204.20407,-22.521219)">
    <path
       style="fill:#c80000;fill-opacity:1"
       d="m -57.791016,599.89174 c -2.16003,-0.36505 -4.230685,0.63533 -5.814453,2.89649 -1.87279,2.67377 -1.686895,5.22382 0.583985,8.02343 1.06347,1.31108 2.590088,3.42763 3.392578,4.70313 2.94875,4.68683 7.110404,2.2023 11.146484,-6.6543 1.56859,-3.44205 2.63655,-6.81641 2.375,-7.49804 -0.57395,-1.49568 -4.613909,-1.64195 -6.037109,-0.21875 -0.79812,0.79812 -1.553293,0.7049 -3.470703,-0.42774 -0.725615,-0.42863 -1.455771,-0.70253 -2.175782,-0.82422 z"
       id="path4186"
       inkscape:connector-curvature="0" />
    <path
       style="fill:#c80000;fill-opacity:1"
       d="m 110.14258,138.73242 -1.33203,1.90039 c -1.01503,1.44917 -2.03707,1.85349 -4.29883,1.70117 -2.02891,-0.13664 -3.96087,0.47561 -6.109376,1.93555 -1.76777,1.20123 -4.34002,2.13477 -5.88086,2.13477 -2.31418,0 -2.989055,0.48988 -4.359375,3.16211 -2.97047,5.79263 -8.745768,9.48828 -14.830078,9.48828 -3.89161,0 -3.916047,1.80963 -0.05469,4.08789 4.16128,2.45521 4.538915,5.02447 1.734375,11.8125 -1.2735,3.08234 -2.5279,6.14102 -2.78711,6.79687 -0.30117,0.76204 -0.114855,0.97169 0.515625,0.58203 2.1816,-1.34831 0.794033,2.97873 -3.335937,10.4004 -4.94367,8.88387 -4.869347,10.92121 0.470703,12.68359 2.04906,0.67625 3.172627,1.64719 3.523438,3.04492 0.908339,3.61911 4.880106,5.62671 12.029296,6.08203 6.326072,0.40291 8.190069,1.15487 9.78125,5.41797 2.510074,-4.04558 4.26833,-4.83252 14.919929,-0.16211 0.76454,-3.74196 1.13496,-4.24414 3.02148,-4.24414 1.44536,0 2.97606,-0.93545 4.47461,-2.73047 l 2.27734,-2.72851 2.69727,2.88672 c 3.10899,3.32818 4.22039,2.62847 4.24219,-2.66993 0.0169,-4.10253 2.59549,-5.82008 4.82617,-3.21484 0.80528,0.9405 2.13833,1.70898 2.96289,1.70898 1.23807,0 1.5,-0.73821 1.5,-4.24218 0,-5.10611 1.48916,-6.12017 5.08594,-3.46094 1.33919,0.99011 2.63993,1.80078 2.89062,1.80078 1.11221,0 0.29822,-2.29105 -1.30078,-3.66016 -1.16982,-1.00163 -1.5505,-1.97967 -1.14062,-2.92773 0.33856,-0.78311 0.84514,-4.72615 1.125,-8.76172 0.27987,-4.03559 0.97094,-7.79945 1.5371,-8.36523 0.68406,-0.68361 3.93662,-1.01001 9.69727,-0.97461 7.62701,0.0469 8.04953,-0.0222 3.51172,-0.5625 -11.23085,-1.33715 -17.62865,-9.92753 -14.32227,-19.23242 1.07394,-3.0222 1.08887,-3.58399 0.0957,-3.58399 -0.64778,1e-5 -1.41061,0.37992 -1.69727,0.84375 -0.81982,1.32648 -3.4096,0.98673 -4.82422,-0.63281 -0.70897,-0.81168 -1.74431,-2.89935 -2.30273,-4.63867 -0.97384,-3.0332 -2.7361,-4.09794 -3.83594,-2.31836 -1.06294,1.71987 -4.51961,0.84961 -6.24414,-1.57227 -1.2431,-1.74578 -2.64643,-2.53974 -5.05859,-2.86328 -1.83576,-0.24623 -4.65774,-1.45468 -6.27149,-2.68555 l -2.93359,-2.23828 z m 63.35351,37.20117 c -3.3353,-0.007 -6.29733,0.36627 -6.58398,0.83008 -0.68324,1.10551 9.67412,1.10551 11.38477,0 0.88166,-0.56977 -0.57415,-0.82108 -4.80079,-0.83008 z m -5.37695,7.50977 c -1.14929,0.0156 -1.81435,0.1298 -1.57422,0.38086 0.26203,0.27395 2.53772,0.83968 5.0586,1.25781 7.15371,1.18657 9.76473,1.16118 8.52148,-0.082 -0.75629,-0.7563 -8.558,-1.60327 -12.00586,-1.55664 z M 86.701172,208.9668 c 0.977097,0.0586 3.890625,3.01632 3.890625,4.05859 0,0.83817 -1.289736,0.88533 -6.535156,0.23438 -3.35053,-0.41579 -3.480155,-1.27955 -0.421875,-2.8125 1.2755,-0.63933 2.579557,-1.29332 2.898437,-1.45313 0.04649,-0.0233 0.102829,-0.0312 0.167969,-0.0273 z"
       id="path4184"
       inkscape:connector-curvature="0" />
    <path
       style="fill:#c80000;fill-opacity:1"
       d="m 91.36914,512.56557 c -0.25345,-0.23087 -1.61348,0.4089 -4.31055,2.30078 -2.76614,1.94033 -6.10532,4.64935 -7.41992,6.02149 -3.55615,3.71183 -1.53365,3.00362 4.83008,-1.69141 4.66976,-3.44526 7.32282,-6.24608 6.90039,-6.63086 z"
       id="path4182"
       inkscape:connector-curvature="0" />
    <path
       style="fill:#c80000;fill-opacity:1"
       d="m -184.39648,411.38784 c -1.1402,-0.16262 -2.43024,0.54486 -3.51954,1.92968 -1.33912,1.70244 -2.19106,2.06862 -3.8496,1.65235 -1.60779,-0.40353 -2.65784,-0.008 -4.28126,1.61523 -3.95775,3.95775 -2.50917,9.00063 3.29883,11.49024 2.00346,0.85878 3.91227,1.99743 4.24219,2.53125 0.32992,0.53385 1.16092,0.75571 1.84766,0.49218 0.68675,-0.26353 1.61685,-0.47851 2.0664,-0.47851 1.95591,0 3.09784,-5.48462 2.54688,-12.22852 -0.4934,-6.03928 -0.74013,-6.77409 -2.35156,-7.0039 z"
       id="path4180"
       inkscape:connector-curvature="0" />
    <path
       style="fill:#c80000;fill-opacity:1"
       d="m 29.07422,325.76674 1.68555,1.95703 c 0.92764,1.07622 3.91092,3.60677 6.6289,5.62305 2.71797,2.01628 5.16981,3.66602 5.44727,3.66602 1.2412,0 -7.05593,-7.53489 -10.23047,-9.29102 l -3.53125,-1.95508 z"
       id="path4178"
       inkscape:connector-curvature="0" />
    <path
       style="fill:#c80000;fill-opacity:1"
       d="m -140.12695,324.28432 -1.6875,2.14844 c -1.94757,2.47594 -3.77321,2.70288 -6.48047,0.80664 -1.71688,-1.20252 -2.23769,-1.21074 -5.0586,-0.082 -1.96953,0.78803 -4.58707,1.09467 -7.0039,0.82226 -3.75091,-0.42278 -3.87296,-0.36374 -4.3711,2.12696 -0.36692,1.83462 -1.06076,2.64179 -2.44336,2.83789 -1.22116,0.1732 -2.86113,1.73512 -4.46093,4.25 -1.39145,2.18736 -3.57411,4.4153 -4.84961,4.95117 -2.08352,0.87534 -2.31836,1.39656 -2.31836,5.12305 0,6.38736 -3.39215,11.79643 -9.73242,15.51757 -2.32665,1.36552 -0.71361,2.89844 3.04882,2.89844 2.85853,0 3.5739,0.39166 5.00586,2.74024 1.03741,1.70149 1.67183,4.24321 1.67383,6.70117 0.003,3.6245 0.33448,4.26633 3.91602,7.58984 2.15179,1.99676 5.28232,5.3386 6.95703,7.42578 2.21381,2.75906 3.54931,3.72242 4.89258,3.53125 1.01616,-0.14461 2.79335,0.35592 3.94922,1.11328 1.60917,1.05437 2.49678,1.16621 3.78906,0.47461 4.3154,-2.30954 8.54492,0.18854 8.54492,5.04688 0,1.21094 0.25184,2.453 0.55859,2.75976 0.30674,0.30674 1.4965,-0.86471 2.64454,-2.60156 3.51304,-5.31478 4.99456,-6.09579 10.4707,-5.5293 5.39491,0.55808 9.0957,-1.02968 9.0957,-3.90234 0,-2.69182 0.94813,-4.26756 2.57031,-4.26758 0.85064,0 1.7817,0.37994 2.06836,0.84375 0.78309,1.26708 3.79493,1.01447 3.79493,-0.31836 0,-0.63908 -0.5655,-2.51377 -1.25586,-4.16601 -1.11272,-2.66264 -1.11216,-3.14761 0.006,-4.26563 0.86234,-0.86233 2.19348,-1.10995 4.20703,-0.7832 3.54574,0.5754 3.90909,-0.93746 1.25586,-5.23047 -1.44432,-2.33697 -1.51637,-2.87851 -0.49219,-3.72851 0.65907,-0.54698 2.46389,-0.87911 4.00976,-0.73829 3.55608,0.32396 4.07722,-1.21263 0.70704,-2.08593 -1.48321,-0.38434 -2.53516,-1.21435 -2.53516,-2.00196 0,-0.74004 -1.38173,-4.41014 -3.07227,-8.15429 -2.79583,-6.19217 -2.96836,-6.99157 -1.89843,-8.83594 0.72005,-1.24125 3.46644,-2.99329 7.08007,-4.51758 3.24673,-1.36952 6.47225,-3.06967 7.16797,-3.7793 0.750447,-0.76542 -0.27994,-0.49664 -2.53125,0.66211 -10.64199,5.47744 -22.71311,-0.71115 -22.79101,-11.68554 l -0.0234,-3.19727 -2.29492,2.74805 c -1.26302,1.51159 -2.74287,2.74619 -3.28711,2.74218 -0.54425,-0.004 -2.75129,-1.35509 -4.90625,-3 l -3.91992,-2.99023 z m 53.111325,5.04883 c -0.625664,0.14436 -1.616788,0.53254 -2.990234,1.22851 -2.281906,1.15633 -4.646475,2.7017 -5.253907,3.4336 -1.593661,1.92024 -0.213985,1.61347 4.527344,-1.00781 4.188636,-2.31573 5.59379,-4.08739 3.716797,-3.6543 z m 7.220703,7.00586 c -0.376034,-0.0671 -1.165088,-10e-4 -2.400391,0.21875 -3.17873,0.5666 -11.43164,4.2538 -11.43164,5.10742 0,0.63715 0.359405,0.54448 6.90625,-1.78906 5.45814,-1.94549 8.053882,-3.33586 6.925781,-3.53711 z"
       id="path4176"
       inkscape:connector-curvature="0" />
    <path
       style="fill:#c80000;fill-opacity:1"
       d="m 409.81055,318.0187 c 1.51476,-0.0888 2.76998,0.0243 3.38867,0.42968 1.07712,0.70576 1.0411,0.8308 -0.24414,0.8418 -0.83016,0.007 -2.99809,0.77158 -4.81641,1.69922 -3.55117,1.81167 -7.99976,2.22653 -8.86523,0.82617 -0.89519,-1.44845 5.99282,-3.5306 10.53711,-3.79687 z"
       id="path4174"
       inkscape:connector-curvature="0" />
    <path
       style="fill:#c80000;fill-opacity:1"
       d="m -101.67578,270.19252 c -0.1537,-0.4209 -1.0226,1.06581 -2.88477,4.83789 -1.83179,3.71054 -3.55129,7.88394 -3.82226,9.2754 -0.30768,1.58005 0.74805,0.15523 2.81054,-3.79493 1.81629,-3.47863 3.53583,-7.65203 3.82227,-9.27539 0.0971,-0.55009 0.12545,-0.90267 0.0742,-1.04297 z"
       id="path4172"
       inkscape:connector-curvature="0" />
    <path
       style="fill:#c80000;fill-opacity:1"
       d="m -52.248047,238.34682 c 1.76764,0 3.650079,2.15135 2.917969,3.33594 -0.68986,1.11622 -4.683926,1.12106 -6.347656,0.008 -1.09488,-0.73261 -1.045787,-1.01468 0.371093,-2.0957 0.90033,-0.68691 2.276404,-1.24805 3.058594,-1.24805 z"
       id="path4170"
       inkscape:connector-curvature="0" />
    <path
       style="fill:#c80000;fill-opacity:1"
       d="m 45.64453,236.06166 c -0.91177,0.0829 -1.96149,0.27736 -2.92969,0.5625 -3.7498,1.10433 -10.6845,5.09369 -10.6875,6.14844 -0.004,1.65584 5.56209,0.30217 11.08985,-2.69726 4.751,-2.57796 5.79568,-3.45973 4.62695,-3.90821 -0.41517,-0.15931 -1.18784,-0.18839 -2.09961,-0.10547 z"
       id="path4168"
       inkscape:connector-curvature="0" />
    <path
       style="fill:#c80000;fill-opacity:1"
       d="m 97.27734,213.21205 c -2.61527,-0.25449 -4.32968,1.492 -3.22265,3.28321 0.26079,0.42196 1.80729,0.76758 3.43554,0.76758 2.58774,0 2.92696,-0.23794 2.69141,-1.89649 -0.20384,-1.43521 -0.91265,-1.96049 -2.9043,-2.1543 z"
       id="path4166"
       inkscape:connector-curvature="0" />
    <path
       style="fill:#c80000;fill-opacity:1"
       d="m 106.8125,92.651509 c -0.14817,0.07642 -0.35137,0.29862 -0.57617,0.64648 -0.44962,0.69572 -0.81836,1.6436 -0.81836,2.10742 0,0.46382 0.36874,0.27385 0.81836,-0.42187 0.44961,-0.69573 0.8164,-1.64361 0.8164,-2.10742 0,-0.23191 -0.0921,-0.30104 -0.24023,-0.22461 z"
       id="path4164"
       inkscape:connector-curvature="0" />
    <path
       style="fill:#c80000;fill-opacity:1"
       d="m 56.96289,78.962049 c -2.61997,0 -4.69922,2.07729 -4.69922,4.69727 0,1.40037 0.47506,2.04883 1.5,2.04883 2.48083,0 5.24805,-2.47017 5.24805,-4.68555 0,-1.61944 -0.43914,-2.06055 -2.04883,-2.06055 z m 57.19922,2.17383 c -0.15333,0.06807 -0.16101,0.45217 -0.10547,1.18946 0.0702,0.93229 0.61587,1.69531 1.21289,1.69531 1.41313,0 1.37423,-0.67461 -0.12695,-2.17578 -0.5277,-0.52769 -0.82714,-0.77706 -0.98047,-0.70899 z"
       id="path4162"
       inkscape:connector-curvature="0" />
    <path
       style="fill:#c80000;fill-opacity:1"
       d="m 122.16797,71.372209 c 0.90585,0 1.77734,2.07611 1.77734,4.23633 0,0.86319 -0.79608,2.92044 -1.76953,4.57031 -1.91341,3.243 -2.10397,3.39195 -2.82422,2.22656 -0.26239,-0.42454 0.52648,-1.96511 1.75391,-3.42382 1.6701,-1.98481 1.99073,-2.89405 1.27148,-3.61328 -1.13827,-1.13827 -1.28802,-3.9961 -0.20898,-3.9961 z"
       id="path4160"
       inkscape:connector-curvature="0" />
    <path
       style="fill:#c80000;fill-opacity:1"
       d="m 130.38672,70.698379 c 0.18625,0.07111 0.30469,0.23657 0.30469,0.51367 0,0.45285 -0.59951,1.05215 -1.33399,1.33399 -0.82131,0.31517 -1.20736,0.12796 -1.00195,-0.48828 0.31515,-0.94546 1.47249,-1.57269 2.03125,-1.35938 z"
       id="path4158"
       inkscape:connector-curvature="0" />
    <path
       style="fill:#c80000;fill-opacity:1"
       d="m 134.06445,49.264789 c 0,-0.50858 -0.94759,0.17775 -2.10742,1.52539 -1.15982,1.34764 -2.72783,2.45208 -3.48437,2.45508 -0.75652,0.0026 -1.94161,0.85545 -2.63282,1.89648 -1.10919,1.67034 -1.10974,1.89453 -0.006,1.89453 0.87955,0 1.13104,0.62504 0.84766,2.10743 -0.65942,3.44954 1.66592,2.51886 4.20313,-1.68165 1.25878,-2.08399 2.08417,-4.32261 1.83398,-4.9746 -0.25019,-0.65199 -0.0501,-1.436 0.44531,-1.74219 0.49543,-0.3062 0.90039,-0.97188 0.90039,-1.48047 z"
       id="path4156"
       inkscape:connector-curvature="0" />
    <path
       style="fill:#c80000;fill-opacity:1"
       d="m -30.826172,22.523438 c -0.102815,0.0051 -0.208928,0.02024 -0.318359,0.04297 -0.875453,0.181837 -1.957018,0.925371 -3.148438,2.210938 -1.18073,1.274023 -3.713493,2.696816 -5.626953,3.162109 -2.94953,0.717234 -3.601669,1.280931 -4.292969,3.707031 -0.50974,1.78892 -1.793951,3.439555 -3.425781,4.402344 -2.46577,1.454851 -2.667774,1.974378 -3.65039,9.367188 -1.285861,9.67423 -0.66892,12.121298 4.43164,17.574218 5.30878,5.67551 5.092031,6.270369 -2.287109,6.292969 -7.76791,0.02379 -11.819181,1.841808 -27.337891,12.273438 -11.57524,7.78084 -19.871761,12.241893 -21.220703,11.408203 -1.149272,-0.71028 -1.981126,-18.283068 -0.925781,-19.554688 1.179581,-1.4213 0.66568,-6.446404 -0.705078,-6.896484 -1.776166,-0.58319 -4.174806,6.473405 -4.761716,14.009766 -0.3509,4.505668 -1.16867,8.262118 -2.27149,10.423828 -1.59553,3.12751 -1.92347,3.33882 -4.40039,2.83789 -1.47202,-0.29769 -5.27002,-0.910541 -8.43945,-1.363281 -5.63531,-0.80498 -5.88693,-0.949608 -11.38477,-6.548828 -3.09211,-3.14913 -8.2796,-7.282114 -11.52734,-9.183594 -3.24774,-1.90149 -6.62722,-4.255269 -7.50977,-5.230469 -1.99929,-2.2092 -3.55396,-2.256968 -4.68554,-0.142578 -1.30046,2.42993 -1.14128,2.95065 2.11133,6.84375 l 2.98632,3.572266 -1.80468,1.919922 c -3.58627,3.81741 -14.73245,7.092475 -24.19532,7.109375 -1.97123,0.0035 -3.58398,0.385166 -3.58398,0.847656 0,0.46248 1.3301,2.314424 2.95703,4.115234 2.87466,3.18192 2.91704,3.325232 1.47656,5.080079 -0.81525,0.99316 -4.31936,2.95445 -7.78711,4.35937 -3.46775,1.40492 -7.00326,3.18794 -7.85742,3.96094 -1.45361,1.3155 -1.88803,1.28497 -6.76758,-0.46484 -6.9131,-2.47905 -7.32031,-2.42037 -7.32031,1.05273 0,3.25075 1.09727,4.16398 6.13672,5.10938 1.73482,0.32546 4.0984,1.33522 5.25391,2.24414 3.09162,2.43187 2.72381,5.59291 -1.27149,10.91015 -3.10561,4.13318 -3.37305,4.91206 -3.37305,9.81641 0,5.68169 -1.72347,10.25469 -4.9707,13.19141 -2.16486,1.95784 -2.60244,8.93554 -0.56055,8.93554 2.09702,0 2.2192,1.40464 0.47461,5.47461 -1.48752,3.47025 -1.68945,5.80594 -1.68945,19.55859 l 0,15.61915 3.92383,4.33984 c 4.52336,5.0037 7.8203,11.5808 8.10547,16.16601 0.13443,2.16164 0.0754,2.88871 -1.33399,3.70313 a 57.142857,37.142857 0 0 1 26.59766,17.66406 c 3.05406,-0.0233 7.71321,1.07786 11.81445,3.01953 3.37035,1.59564 6.75232,3.086 7.51563,3.3125 1.4345,0.42568 4.63098,12.17725 6.68164,24.56641 1.37325,8.29646 2.47265,8.78052 2.47265,1.08789 0,-4.04872 -0.61871,-8.39346 -1.67578,-11.76562 -2.14395,-6.83947 -2.13603,-6.98626 0.6211,-10.88477 1.95316,-2.76172 2.79824,-3.28169 5.35156,-3.29687 4.09132,-0.0243 6.19271,2.28473 5.39258,5.92773 -0.32453,1.47756 -0.26593,2.53287 0.13086,2.34375 0.39679,-0.18911 3.18831,-1.56194 6.20312,-3.05078 7.28793,-3.59909 12.60421,-3.72588 15.94922,-0.38086 1.27996,1.27995 2.50698,2.86468 2.72656,3.52344 0.59091,1.77272 3.25,0.43537 3.25,-1.63477 0,-4.36359 5.321873,-2.34784 11.271488,4.26953 5.554467,6.1779 12.74845,21.87305 10.02539,21.87305 -0.4196,0 -2.962513,-1.70774 -5.65039,-3.79492 -2.72384,-2.11511 -5.793696,-3.79491 -6.935547,-3.79493 -2.718174,0 -6.762751,2.15008 -7.84375,4.16993 -1.638121,3.06087 -1.015541,8.75547 1.355468,12.41211 3.318901,5.11851 6.164069,6.49119 11.970703,5.77148 7.51301,-0.93121 9.886323,-2.25052 11.21875,-6.24023 l 1.152344,-3.45118 2.673828,1.62696 c 1.47082,0.89496 3.746504,3.45529 5.058594,5.6875 2.14549,3.65005 2.386719,4.82794 2.386719,11.71484 0,7.43642 -0.07867,7.74767 -2.740235,10.78125 -5.394458,6.14845 -2.798704,8.61233 4.953126,4.69922 l 5.080078,-2.56445 3.669922,2.15234 c 2.01897,1.1832 4.446611,3.13671 5.394531,4.3418 1.72113,2.18804 1.72202,2.19628 0.0625,5.44922 -0.914,1.79158 -1.66211,4.11812 -1.66211,5.16992 0,1.73406 0.232793,1.62718 2.507813,-1.13281 1.37989,-1.67405 4.12267,-3.6879 6.09375,-4.47657 l 3.583984,-1.43554 2.972656,3.45703 c 2.935352,3.41173 3.044748,3.4543 8.648438,3.4414 3.27741,-0.008 7.143474,-0.60049 9.152344,-1.40429 l 3.478515,-1.39258 2.8750004,3.13867 c 3.44734,3.76299 5.51167,3.68904 6.3125,-0.22656 0.88118,-4.30854 2.2485644,-5.18544 4.14648435,-2.6582 3.77125005,5.02174 4.26139875,5.35969 5.69921875,3.92187 1.128661,-1.12866 1.1681875,-1.8222 0.2734375,-4.80859 -1.36134,-4.54376 -0.3045308,-5.75199 8.083984,-9.24414 4.70082,-1.95696 6.572907,-2.38726 7.404297,-1.69727 0.8542,0.70892 1.085888,0.57536 0.992188,-0.58008 -0.09666,-1.19207 0.622797,-1.56027 3.460937,-1.76562 1.97122,-0.14262 3.583985,-0.59522 3.583985,-1.00586 0,-0.41064 -0.810482,-2.12038 -1.800782,-3.79883 l -1.798828,-3.05078 3.507813,-3.47266 c 4.16106,-4.11989 5.613475,-8.57666 6.353515,-19.47851 0.27831,-4.09991 0.91452,-8.21674 1.41211,-9.14649 1.17426,-2.19413 6.440281,-4.42133 13.832031,-5.85156 l 5.902344,-1.14258 -4.216797,-0.43164 c -3.20953,-0.32808 -4.135206,-0.73245 -3.878906,-1.69531 1.12012,-4.20818 1.068592,-5.90235 -0.179688,-5.90235 -1.43814,0 -4.796875,3.84506 -4.796875,5.49219 0,1.70793 -1.862262,2.74548 -6.039062,3.36719 -3.62947,0.54025 -4.042921,0.41355 -5.400391,-1.6582 -1.23933,-1.89145 -1.331044,-2.85255 -0.583984,-6.11719 l 0.886718,-3.87305 -3.707031,-3.37304 c -3.88203,-3.53295 -4.562439,-5.57336 -2.443359,-7.33204 1.62551,-1.34901 1.632799,-4.12794 0.01172,-4.75 -0.689931,-0.26475 -2.375411,-0.0904 -3.744141,0.38672 -2.98914,1.04202 -3.71703,0.36786 -5.943359,-5.49609 -1.51738,-3.99662 -1.592701,-4.0558 -5.306641,-4.0957 -3.8234233,-0.0411 -7.9137626,-2.00357 -8.7578126,-4.20313 -0.35645,-0.92887 -1.5635238,-1.07834 -5.4335938,-0.67383 -4.91081,0.51328 -5.0141271,0.47972 -7.9238281,-2.60547 -2.4171895,-2.56295 -3.4441425,-3.07896 -5.6953125,-2.86132 -2.30281,0.22262 -2.787672,-0.0415 -3.013672,-1.63282 -0.31063,-2.18717 -1.430776,-2.4945 -2.160156,-0.59375 -0.66454,1.73175 -5.659518,3.75782 -9.267578,3.75782 -2.46257,0 -3.030003,0.38038 -3.783203,2.54101 -1.08783,3.12053 -3.167612,4.0492 -4.988282,2.22852 -1.25499,-1.25499 -1.2102,-1.52516 0.5625,-3.41211 1.05882,-1.12706 4.508889,-3.87562 7.667969,-6.10938 3.15908,-2.23376 6.124764,-4.67129 6.589844,-5.41601 0.65299,-1.0456 -0.192438,-2.94949 -3.708984,-8.35547 -4.675711,-7.18796 -6.702984,-12.43762 -5.845704,-15.13867 0.60841,-1.91694 6.614989,-2.89091 10.667969,-1.72852 3.32933,0.95483 11.303045,1.04702 20.6406251,0.23633 8.26554,-0.71761 5.7611938,-1.72722 -4.7226562,-1.9043 -3.9424499,-0.0666 -8.5832729,-0.62817 -10.3144529,-1.24609 -1.73119,-0.61792 -2.942546,-0.79114 -2.691407,-0.38477 0.992911,1.60654 -5.580916,0.70423 -7.285156,-1 -2.05495,-2.05496 -1.737746,-3.76449 0.683594,-3.68359 1.66308,0.0556 1.676303,-0.0453 0.382812,-2.75781 -1.427828,-2.99419 -2.963494,-3.26918 -3.365234,-0.60352 -0.59069,3.91931 -1.109489,5.41211 -1.880859,5.41211 -2.12985,0 -0.06297,-8.35085 4.175781,-16.86719 0.34628,-0.69573 3.076776,-2.523 6.066406,-4.06054 4.22556,-2.17318 7.70984,-3.13835 15.6562502,-4.33399 12.36211,-1.86005 17.5543148,-3.49359 21.3906248,-6.73437 l 2.902344,-2.45313 -1.685547,-3.18945 c -3.34475,-6.32402 -6.837388,-7.06932 -27.408203,-5.85352 -11.16098,0.65965 -11.441539,0.63326 -14.324219,-1.3457 -5.88995,-4.04347 -5.571809,-9.08974 0.863282,-13.71289 6.558018,-4.71146 3.635104,-6.37946 -4.947266,-2.82227 -4.4423,1.84123 -4.549544,1.84736 -5.708984,0.26172 -1.80932,-2.47438 -1.445344,-4.19164 1.785156,-8.42383 2.38996,-3.13102 2.800935,-4.19999 2.109375,-5.49218 -1.22514,-2.2892 -1.068766,-4.69219 0.615234,-9.4336 1.80071,-5.069993 0.948054,-5.996566 -4.847656,-5.275386 -6.01641,0.74865 -6.853127,-0.394354 -5.873047,-8.027344 1.11698,-8.69932 2.95045,-11.962689 7.625,-13.574219 2.05149,-0.70725 4.775807,-1.986074 6.054688,-2.841797 1.936758,-1.295918 2.882936,-1.413914 5.660156,-0.708984 3.0221,0.76709 3.451644,0.666808 4.589844,-1.070312 0.690689,-1.05412 2.632093,-2.24319 4.314453,-2.642578 2.7306388,-0.64826 3.2434434,-1.224705 4.7773434,-5.365235 4.53869,-12.25147 4.680017,-14.884714 1.0917968,-20.371094 -1.47634,-2.25729 -1.9029447,-3.838263 -1.5898437,-5.902343 0.42476,-2.80021 0.3764008,-2.848018 -7.1621095,-6.826172 -4.96926,-2.622339 -8.635984,-4.00586 -10.615234,-4.00586 -1.90948,0 -3.201243,-0.464752 -3.507813,-1.263672 -0.322831,-0.841284 -0.875997,-1.238962 -1.595703,-1.203124 z"
       id="path4154"
       inkscape:connector-curvature="0" />
    <path
       style="fill:#c80000;fill-opacity:1"
       d="m 175.33203,404.59375 c -0.1895,5.05467 -0.41928,9.12613 -0.45898,17.125 -0.0607,12.2355 -0.33488,22.46972 -0.60938,22.74414 -0.2745,0.27442 -3.27453,-0.64558 -6.66797,-2.04492 -3.39344,-1.39935 -6.37111,-2.34372 -6.61523,-2.09961 -0.24411,0.24412 0.0522,2.37777 0.6582,4.74219 0.92406,3.60531 0.91569,4.41873 -0.0547,5.03711 -0.63638,0.40554 -5.62596,0.62103 -11.08789,0.47851 l -9.92968,-0.25976 -3.5625,-3.43555 c -1.95915,-1.88955 -4.78928,-4.05251 -6.28907,-4.80664 -1.92862,-0.96976 -3.73962,-3.21759 -6.1875,-7.67774 -1.90359,-3.46844 -3.80735,-6.51976 -4.23046,-6.78125 -1.37844,-0.85193 -0.81438,-1.86997 1.33789,-2.41015 2.87709,-0.7221 2.66526,-2.1836 -0.31641,-2.1836 -3.50866,0 -7.6953,0.94516 -7.69531,1.73633 0,0.37459 0.74062,0.91627 1.64453,1.20313 0.9039,0.28689 1.87833,1.26156 2.16601,2.16797 0.28769,0.90641 1.4094,2.70145 2.49219,3.98828 1.0828,1.28684 3.56826,5.36383 5.52344,9.06054 1.95517,3.6967 5.40603,8.63117 7.66992,10.96485 3.10694,3.20272 4.11719,4.87608 4.11719,6.82617 0,3.1496 -1.52816,4.60172 -7.71485,7.32617 -3.99686,1.76011 -4.85826,2.52747 -5.35156,4.77344 -0.78608,3.57902 -5.11428,8.36639 -9.27344,10.25586 -4.59529,2.08763 -15.612828,2.06251 -24.460933,-0.0547 -3.708541,-0.88737 -6.863719,-1.49177 -7.011719,-1.34375 -0.14802,0.14802 1.747801,0.92975 4.212891,1.73633 7.345763,2.4035 16.111351,5.99869 19.500001,7.99805 l 3.17578,1.87304 -4.91406,4.44727 c -4.01573,3.63403 -6.536131,6.67238 -10.042971,12.10351 -0.10974,0.16996 -2.269287,-0.54921 -4.798828,-1.59765 C 88.0271,505.4379 85.35767,504.81065 84.625,505.0918 c -1.8519,0.71064 -0.786386,3.00508 1.683594,3.625 3.337081,0.83755 2.273842,2.00976 -1.824219,2.00976 -2.42932,0 -6.072586,-0.96106 -9.910156,-2.61523 -3.64816,-1.57251 -8.174713,-2.79624 -11.351563,-3.06836 -4.60362,-0.39435 -5.3453,-0.70028 -5.763672,-2.36719 -0.264099,-1.05227 -0.08013,-2.65981 0.408204,-3.57226 0.70815,-1.32319 0.534998,-1.97817 -0.857422,-3.23829 -2.20054,-1.99147 -4.103516,-5.62417 -4.103516,-7.83593 0,-0.93434 -0.854847,-2.13803 -1.898438,-2.67383 -3.569099,-1.83242 -7.411494,-6.19294 -8.271484,-9.38672 -0.95891,-3.56113 -1.977191,-4.02084 -3.324219,-1.50391 -1.13424,2.11935 -2.825997,2.15579 -4.324218,0.0937 -0.798649,-1.09914 -2.64925,-1.75266 -5.97461,-2.11132 -4.2557,-0.45902 -4.921583,-0.32326 -5.720703,1.16992 -0.64763,1.21009 -1.765947,1.68945 -3.935547,1.68945 -2.27896,0 -3.840065,0.73356 -6.296875,2.95313 -1.79686,1.62337 -3.8164679,2.95117 -4.4863279,2.95117 -0.66984,0 -3.0008506,-0.94984 -5.1816406,-2.10938 -3.87226115,-2.0589 -7.0903981,-2.66741 -8.2050781,-1.55273 -1.02334,1.02334 1.298904,2.81836 3.6464844,2.81836 4.31444,0 4.5021252,1.54191 1.27148432,10.46679 -1.62668982,4.4938 -3.55697352,9.32846 -4.28906252,10.74414 -1.2645401,2.44539 -1.2362011,2.67522 0.5625,4.58985 1.4240389,1.51583 1.8875938,3.00931 1.8710938,6.02734 -0.01979,3.62064 0.3604143,4.42385 3.8964844,8.22852 2.1553601,2.31909 4.7895636,5.63958 5.8535156,7.3789 2.2107176,3.61401 1.8919092,3.46645 4.7246096,2.17579 1.92004,-0.87483 2.446884,-0.71347 4.677734,1.42382 1.38273,1.32475 2.515625,2.90668 2.515625,3.51563 0,1.37948 -0.0164,1.3808 3.732422,-0.18555 1.70233,-0.71129 6.965466,-1.87201 11.697266,-2.57812 4.731789,-0.7061 8.855482,-1.54721 9.164062,-1.86914 0.30859,-0.32193 0.68853,-1.5011 0.84375,-2.6211 0.217,-1.56568 1.0627,-2.25273 3.65625,-2.97461 2.52683,-0.70332 3.441981,-1.42729 3.650391,-2.88086 0.27703,-1.93212 0.319889,-1.93726 9.699219,-1.37304 11.25555,0.67709 20.000929,2.31732 23.630859,4.43164 1.72847,1.00678 3.041905,2.70886 3.765625,4.87695 1.72858,5.17833 2.113627,13.76993 0.810547,18.08789 l -1.144531,3.79492 -4.535157,0.25977 c -4.00601,0.2295 -4.738425,0.009 -6.291015,-1.89649 -1.7201,-2.11062 -1.84735,-2.13255 -5.97461,-1.01953 -9.679482,2.61033 -17.874134,8.61037 -21.521484,15.75977 -1.67168,3.27676 -1.715684,3.93389 -0.777344,11.38867 1.1143,8.85273 1.556853,9.52684 12.251953,18.63672 4.14948,3.53444 5.376038,4.18091 6.617188,3.48633 0.83788,-0.46886 3.280054,-0.65048 5.427734,-0.4043 3.26632,0.3744 4.716043,0.017 8.863281,-2.18555 6.051682,-3.21398 11.431575,-8.44684 13.578125,-13.20703 1.47994,-3.28193 1.802068,-3.5185 4.140621,-3.05078 3.72397,0.74479 6.20427,2.64507 9.2168,7.05859 1.47564,2.1619 3.79866,5.07539 5.16211,6.47657 l 2.47852,2.54883 -3.08204,11.80664 c -1.6953,6.49344 -3.66027,13.64999 -4.36523,15.90429 -1.15969,3.70842 -1.15589,3.99469 0.0332,3.00782 2.85072,-2.36589 5.8193,-10.4395 7.47266,-20.32618 0.43695,-2.61283 1.08568,-3.37546 4.13086,-4.84961 4.63059,-2.24163 5.72094,-2.19911 8.43945,0.32032 2.71127,2.51272 2.81624,4.36765 0.39649,6.94336 l -1.83399,1.95117 6.92188,0 c 4.11529,0 8.09811,0.49086 9.82617,1.21289 3.31828,1.38647 6.3085,5.70522 6.3125,9.11719 0.004,2.76908 1.32249,2.95827 3.87891,0.55664 1.8681,-1.75499 1.88242,-1.75617 3.54101,-0.0977 3.46289,3.46288 5.47289,10.88713 5.52539,20.41211 0.0297,5.3902 -0.37002,9.84471 -1.02344,11.38477 l -1.07421,2.53125 -3.39063,-6.4961 c -2.79851,-5.36136 -3.88023,-6.65652 -6.19336,-7.41992 -3.55588,-1.17354 -8.04429,0.51698 -10.23047,3.85352 -2.04769,3.12516 -1.97529,9.95116 0.15039,14.22851 1.46228,2.94239 2.319,3.55254 7.46289,5.3125 6.63935,2.27163 9.78526,1.98484 12.22071,-1.11133 0.88408,-1.12393 1.85882,-2.04297 2.16601,-2.04297 0.30719,0 1.34032,1.76918 2.29688,3.93165 2.87299,6.49485 0.85765,16.23717 -4.72657,22.84374 -1.27413,1.50743 -2.83412,2.74024 -3.46679,2.74024 -1.93569,0 -5.32569,1.84215 -5.83594,3.17187 -0.95344,2.4846 1.22732,3.57422 7.1582,3.57422 l 5.72071,0 2.20117,3.75782 c 1.2111,2.06656 2.42169,4.85262 2.68945,6.1914 0.4204,2.10203 0.0162,2.80697 -2.96484,5.16797 -3.78028,2.99402 -5.05638,6.2116 -1.55469,3.91992 2.80995,-1.83896 8.28336,-2.41757 10.72852,-1.13281 1.46288,0.76864 2.29274,2.14878 2.7832,4.62891 0.62082,3.13922 1.21841,3.83083 5.36133,6.20117 2.68636,1.53698 6.49335,2.89457 8.98242,3.20117 4.28351,0.52761 4.33023,0.56367 5.22656,4.24805 1.32783,5.45816 3.15752,6.23083 6.38672,2.69531 2.98328,-3.26628 3.97612,-2.82934 4.75391,2.09375 0.86851,5.49716 4.02842,5.80049 4.98633,0.47851 0.88438,-4.91345 1.42202,-5.18945 10.10937,-5.18945 7.71482,0 7.90834,0.0502 9.20313,2.32031 0.99596,1.74623 1.20246,1.86749 0.83593,0.49219 -0.62969,-2.36277 0.5914,-3.08324 2.6211,-1.54687 0.88001,0.66612 2.5,1.22348 3.60156,1.23828 1.7792,0.0238 1.94753,-0.2565 1.49805,-2.50391 -0.73558,-3.67791 0.62927,-3.09682 2.47851,1.05469 0.87805,1.97122 3.37109,5.37261 5.53906,7.55859 2.73536,2.7581 5.66536,7.40407 9.57618,15.17969 3.0996,6.16272 6.16818,11.80291 6.81835,12.53516 0.65765,0.74066 1.18165,3.09259 1.18165,5.29882 0,4.54683 -1.40238,5.68918 -4.4961,3.66211 -1.85289,-1.21407 -2.06837,-1.13492 -4.2207,1.5625 -3.03652,3.80555 -8.12966,5.41786 -10.85742,3.4375 -6.54582,-4.7523 -10.65914,-7.25543 -12.75586,-7.76367 -2.15167,-0.52155 -2.36274,-0.38316 -2.10742,1.37696 0.1947,1.3421 1.75078,2.8145 4.95507,4.68359 2.56956,1.49886 6.45996,4.63521 8.64454,6.9707 3.50892,3.75132 3.97265,4.68692 3.97265,8.01953 0,3.26455 0.25411,3.80781 1.88867,4.04102 2.5967,0.37047 2.74805,2.34351 0.44336,5.79297 -2.52886,3.78498 -6.78014,5.85723 -12.03125,5.86523 -9.15069,0.0131 -14.63522,3.59543 -10.55859,6.89649 2.5873,2.09507 6.53207,1.92227 13.16992,-0.57617 10.22269,-3.84785 15.585,-2.47469 16.85938,4.31835 0.51438,2.74185 0.30368,3.39567 -1.63868,5.06641 -2.21115,1.90195 -2.9255,3.6875 -1.47656,3.6875 1.16136,0 1.93186,2.71268 1.02734,3.61719 -0.44278,0.44278 -0.62643,1.26921 -0.4082,1.83789 0.21823,0.56868 -0.5718,3.60358 -1.7539,6.74414 -2.42625,6.44597 -2.73619,10.16302 -0.90625,10.86523 0.85885,0.32958 1.85426,-0.75016 3.22265,-3.49414 1.08908,-2.1839 2.63492,-4.09575 3.43555,-4.25 2.21856,-0.42744 4.0877,1.55039 3.53711,3.74414 -0.60954,2.42859 -6.11174,11.90861 -8.51172,14.66602 -2.3131,2.65758 -2.96004,4.48607 -2.08594,5.90039 0.98581,1.59509 4.33399,-2.26343 8.47852,-9.77148 3.13067,-5.67138 8.17802,-11.30665 10.12695,-11.30664 2.50492,-10e-6 3.4092,14.47544 1.27734,20.44921 l -1.1289,3.16211 4.96094,0 c 2.72825,0 4.95898,-0.20189 4.95898,-0.44922 0,-0.24733 -0.89313,-2.24002 -1.98633,-4.42773 -1.09319,-2.18771 -2.24903,-5.06051 -2.56836,-6.38477 -0.86393,-3.58264 1.67111,-10.23786 5.20899,-13.67382 4.44872,-4.32054 12.71383,-8.13229 17.79883,-8.20899 4.07591,-0.0615 4.39138,0.11695 11.33398,6.41992 8.05546,7.3133 11.58546,12.32623 13.55273,19.25391 1.26636,4.45943 3.03015,6.41314 4.80469,5.31641 1.24353,-0.76854 0.88321,-3.36995 -0.76758,-5.53125 -0.84485,-1.10614 -2.43201,-4.28937 -3.52734,-7.07227 -1.09535,-2.78291 -2.54091,-5.92009 -3.21094,-6.97266 -1.99932,-3.14078 -0.77706,-7.26556 3.30469,-11.14843 2.533,-2.40959 4.04524,-3.25398 5.17773,-2.89453 0.93077,0.29541 2.2429,-0.0762 3.14063,-0.88868 1.92892,-1.74565 4.64424,-1.09641 17.30273,4.13477 6.49566,2.68436 10.04936,4.73309 13.01368,7.50586 4.63515,4.33565 15.33307,10.06857 18.0625,9.67969 1.27712,-0.18197 1.90128,-0.94925 2.08789,-2.57032 0.21917,-1.90395 -0.65612,-3.17174 -4.95508,-7.16992 -6.75574,-6.28307 -6.95841,-6.388 -13.57422,-7.01367 -4.8664,-0.46022 -6.51789,-1.11045 -12.39258,-4.87891 -3.72772,-2.39123 -7.13319,-4.34765 -7.56641,-4.34765 -0.4332,0 -1.24339,-1.09964 -1.80078,-2.44532 -0.55737,-1.34564 -1.93398,-3.31274 -3.06054,-4.37109 -1.35523,-1.27318 -1.87742,-2.4638 -1.54297,-3.51758 0.29161,-0.91879 -0.0767,-2.23552 -0.8711,-3.11328 -1.27547,-1.40938 -1.26558,-1.74694 0.13477,-4.55859 1.79083,-3.59569 3.84342,-3.89441 9.4043,-1.3711 4.12722,1.87277 6.49011,2.11272 7.33593,0.74414 0.9122,-1.47599 -1.57355,-3.30997 -5.16797,-3.8125 -4.73358,-0.66177 -7.95312,-2.02863 -7.95312,-3.37695 0,-0.72963 0.94161,-1.16211 2.5293,-1.16211 1.39145,0 2.53127,-0.41642 2.53125,-0.92578 0,-0.63433 -1.58461,-0.74354 -5.0293,-0.34375 -4.27551,0.49622 -5.38636,0.32973 -7.41016,-1.11133 -1.3093,-0.93231 -3.65707,-2.02552 -5.21679,-2.42968 -1.75419,-0.45456 -3.10281,-1.45623 -3.53516,-2.625 -0.5815,-1.57193 -0.26008,-2.15559 1.91211,-3.47657 1.43601,-0.8733 3.94507,-1.83697 5.57422,-2.14257 1.62914,-0.30566 4.36254,-1.44167 6.07617,-2.52344 0.5523,-0.34865 1.8284,-0.95867 2.57813,-1.38086 -0.20445,-0.49102 -0.43865,-0.93537 -0.63282,-1.4375 -0.28554,-0.73844 -0.42173,-1.45603 -0.68359,-2.20703 -3.05433,1.41728 -6.50543,3.03694 -7.4668,3.26172 -3.19562,0.74716 -7.51628,-0.99425 -6.98828,-2.81641 4.95754,-17.10857 5.54633,-18.63531 8.38477,-21.75391 l 1.6875,-1.85547 -2.28907,0.17579 c -1.5443,0.1187 -3.33511,1.39969 -5.49414,3.93164 -3.07963,3.61152 -3.29491,3.71375 -5.61718,2.67187 -1.32817,-0.59588 -3.2813,-1.64227 -4.3418,-2.32617 l -1.92969,-1.24414 3.86133,-4.38672 c 4.55942,-5.18178 8.7296,-13.20387 9.30664,-17.90234 0.35103,-2.85817 -0.1919,-2.10946 -3.67969,5.08007 -4.55038,9.37987 -6.18606,11.3377 -8.125,9.72852 -1.38169,-1.1467 -1.51055,-1.08559 -8.35156,3.93359 -4.95486,3.63534 -8.76024,4.80283 -7.83984,2.4043 0.28648,-0.74658 0.0623,-1.06653 -0.57422,-0.82227 -1.62228,0.62253 -3.36117,-12.59785 -2.65235,-20.1621 0.66353,-7.0808 -0.41915,-10.76005 -2.62695,-8.92774 -0.94704,0.78599 -1.18947,2.88594 -1.05078,9.1211 0.0991,4.45446 -0.30276,9.99536 -0.89453,12.31445 -0.59175,2.31909 -1.24474,5.09551 -1.45117,6.16992 -0.59316,3.08746 -2.71758,1.9374 -7.19336,-3.89453 -2.61089,-3.40197 -4.27053,-6.51131 -4.61133,-8.64258 -0.29281,-1.83117 -0.80578,-3.33008 -1.14063,-3.33008 -0.71007,0 1.93523,14.48005 3.28516,17.98242 0.81818,2.12271 0.64912,2.64971 -1.55078,4.84961 -2.65251,2.6525 -3.82067,2.92249 -7.15625,1.6543 -3.12341,-1.18751 -12.34155,-10.86708 -14.08398,-14.78906 -0.82426,-1.85527 -3.0375,-5.43431 -4.91993,-7.95313 -2.48268,-3.32196 -3.42961,-5.40639 -3.44531,-7.58984 -0.0141,-1.96399 -1.03944,-4.60665 -2.95117,-7.60742 -2.96499,-4.65404 -3.62,-6.78711 -2.08789,-6.78711 1.77154,0 7.79342,-6.3861 10.66015,-11.30469 5.47763,-9.39827 6.69944,-10.62109 10.62305,-10.62109 1.91803,0 6.29674,0.78846 9.73047,1.75195 6.36481,1.78595 9.49375,1.75279 4.05273,-0.043 -4.10262,-1.35398 -4.42599,-2.29298 -1.7539,-5.08203 2.2384,-2.3364 2.26907,-4.2168 0.0684,-4.2168 -0.60363,0 -2.54088,0.98079 -4.30469,2.17774 -3.28476,2.2291 -6.8618,2.31117 -10.7168,0.24804 -2.24131,-1.19951 -1.8812,-5.55019 0.74414,-8.99218 2.22768,-2.92064 2.22927,-2.94378 0.83789,-6.82618 -2.03583,-5.68052 -1.81766,-7.30703 1.14258,-8.5332 1.56225,-0.6471 2.5293,-1.66353 2.5293,-2.6582 0,-1.65312 -0.35883,-1.87532 -4.53711,-2.79688 l -2.42969,-0.53515 0.41406,-5.78516 0.41407,-5.7832 -3.31641,-1.4961 c -3.88739,-1.75296 -5.72265,-4.05405 -5.72266,-7.17382 0,-1.93946 -0.49218,-2.36737 -3.64062,-3.16016 -4.27701,-1.07696 -6.46697,-3.21054 -7.23242,-7.04883 -0.41162,-2.06402 -1.25874,-3.08913 -3.30469,-3.99609 -2.47324,-1.09637 -2.69471,-1.47689 -2.18945,-3.77735 0.50888,-2.3169 0.42933,-2.44946 -0.8418,-1.39453 -1.8539,1.53861 -5.98073,1.35733 -9.96094,-0.4375 -3.13684,-1.41452 -3.26648,-1.40425 -5.15625,0.3711 -2.39052,2.24577 -4.44947,2.32792 -5.57617,0.22265 -1.33775,-2.4996 0.49898,-3.36101 10.89844,-5.10937 5.18902,-0.87237 9.66199,-1.81239 9.93945,-2.08985 0.27746,-0.27746 0.0726,-4.19973 -0.45508,-8.71484 -0.89183,-7.63102 -0.6278,-11.47969 1.06641,-15.58398 0.98702,-2.39107 6.89656,-1.0145 10.86133,2.52929 1.79548,1.60482 6.16081,4.23217 9.69922,5.83985 3.53842,1.60767 8.51932,3.8861 11.07031,5.0625 4.20076,1.93719 4.49282,1.97699 3.09375,0.42773 -0.84961,-0.94082 -4.22163,-3.11629 -7.49414,-4.83594 -3.27252,-1.71966 -7.41549,-4.45175 -9.20703,-6.07031 -1.79155,-1.61856 -3.25781,-2.50822 -3.25782,-1.97851 0,1.37375 -4.71346,-1.17998 -5.3789,-2.91407 -1.43981,-3.75209 0.0783,-6.40607 2.35937,-4.125 1.21506,1.21505 1.33204,1.02823 1.33203,-2.10156 0,-4.22809 -1.29436,-4.43703 -4.36132,-0.70508 -1.23981,1.50862 -2.50841,2.48963 -2.81836,2.17969 -1.29827,-1.29829 0.85748,-4.19227 6.57812,-8.83008 l 6.08399,-4.93164 6.74609,0.0547 c 5.63805,0.0458 8.43068,0.63458 16.99414,3.58398 10.06153,3.46535 16.80346,4.39379 21.92578,3.01953 2.1831,-0.58571 2.93532,-3.65548 1.85547,-7.5664 -1.19918,-4.34306 -6.43776,-8.15976 -16.55664,-12.06445 -11.58277,-4.46961 -15.66177,-6.94692 -17.36914,-10.54493 -2.897,-6.10497 -0.55655,-10.13519 6.43164,-11.07422 5.51467,-0.74102 6.68664,-1.33131 5.72656,-2.88476 -0.42262,-0.68382 -2.95698,-1.4498 -5.96679,-1.80469 -6.36264,-0.75021 -7.99647,-2.04474 -6.74219,-5.34375 0.62442,-1.64236 2.12758,-2.8562 5.09375,-4.10937 3.64603,-1.54041 4.20898,-2.09771 4.20898,-4.17578 0,-1.67963 1.13765,-3.61617 3.79492,-6.45704 2.08718,-2.23136 3.79494,-4.51255 3.79493,-5.07031 0,-0.55774 -1.65769,-1.74838 -3.6836,-2.64453 -5.55746,-2.45833 -6.24945,-3.65621 -4.27343,-7.40039 0.898,-1.70155 3.59357,-5.13276 5.99218,-7.625 4.16282,-4.32534 4.50802,-4.50566 7.58985,-3.95703 1.77576,0.31612 4.99866,0.5411 7.16211,0.5 2.99549,-0.0569 4.49036,0.40239 6.26367,1.92773 2.0374,1.75249 2.58198,1.87128 4.35547,0.95117 1.43921,-0.74667 2.86656,-0.81998 4.92382,-0.25195 2.76586,0.7637 3.14761,0.57971 8.41797,-4.07617 7.43302,-6.5664 9.11271,-9.42918 8.95899,-15.27148 -0.0776,-2.95023 0.3755,-5.47483 1.24414,-6.94532 1.31377,-2.22403 1.26915,-2.44838 -1.1543,-5.99414 -1.38447,-2.02561 -3.55407,-5.2605 -4.82226,-7.18945 -1.26819,-1.92894 -3.44903,-3.98007 -4.84571,-4.55859 -1.39669,-0.57854 -2.8777,-1.94219 -3.29101,-3.0293 -0.80829,-2.12592 -2.47126,-2.49185 -5.05078,-1.11133 -1.00675,0.5388 -3.13339,0.60457 -5.63672,0.17383 -3.73562,-0.64277 -4.17831,-0.52556 -6.25586,1.66406 -1.48915,1.56947 -3.08876,2.35742 -4.79102,2.35742 -2.21396,0 -3.13035,0.8162 -6.85547,6.10352 -5.87332,8.33642 -6.61409,11.08869 -4.68945,17.44531 2.23034,7.36635 1.65331,7.96615 -4.66211,4.83594 -4.8602,-2.40894 -5.86199,-2.59249 -13.77344,-2.52149 -4.69221,0.0421 -12.81298,0.69208 -18.04687,1.44336 -14.20335,2.03879 -22.10742,1.79465 -22.10742,-0.68359 0,-2.69209 6.30664,-15.40833 8.52929,-17.19727 1.47616,-1.18812 2.4336,-2.76401 2.4336,-4.00586 0,-4.92685 -5.24236,-0.99037 -11.40625,8.56446 -2.74579,4.25633 -5.52097,7.52296 -7.07422,8.32617 -2.54568,1.31642 -2.58584,1.29992 -9.69141,-3.75 -7.30528,-5.19185 -7.58791,-5.57342 -8.49219,-11.41602 -0.2891,-1.86786 -2.03132,-6.04125 -3.87109,-9.27539 -1.83977,-3.23414 -4.37363,-8.05509 -5.63086,-10.71289 -2.61423,-5.52657 -4.05573,-6.45989 -6.38281,-4.13281 -1.41661,1.41661 -1.51173,2.0162 -0.68945,4.375 2.15244,6.1745 0.50378,8.38477 -6.25391,8.38477 l -2.88086,0 0.44922,-3.58399 c 0.2467,-1.97123 0.52293,-13.69981 0.61523,-26.06445 l 0.0879,-11.72852 c -1.03352,-0.12552 -2.04848,-0.18992 -3.08398,-0.32226 -1.30205,-0.16642 -2.56513,-0.21122 -3.85547,-0.3418 z M 56.701172,472.87109 c -1.57832,-0.0349 -1.558354,0.069 0.304687,1.6211 1.38683,1.15535 3.177074,1.63925 5.902344,1.59375 l 3.912109,-0.0664 -4.216796,-1.55469 c -2.31909,-0.85574 -4.974704,-1.57325 -5.902344,-1.59375 z m 322.671878,8.67774 c -1.22462,-0.12762 -2.65092,0.82074 -3.85743,2.66211 -1.04752,1.59869 -1.81654,1.91598 -3.7207,1.53515 -1.92749,-0.38549 -2.75856,-0.0266 -4.21289,1.82227 -3.43755,4.37015 -2.31149,8.11213 3.29492,10.95312 2.22838,1.12921 4.28993,2.43948 4.58203,2.91211 0.66233,1.07166 0.73559,1.07005 3.30274,-0.0996 1.15828,-0.52775 2.47648,-2.02413 2.92969,-3.32421 1.0553,-3.02723 0.18577,-14.83876 -1.17579,-15.96875 -0.34759,-0.28849 -0.73436,-0.44965 -1.14257,-0.49219 z m -5.18946,54.5 c -0.22305,0.003 -0.4476,0.0219 -0.67187,0.0547 -1.79415,0.26257 -3.52344,1.45389 -3.52344,3.32812 0,0.83219 0.47492,1.70356 1.05469,1.9375 2.96767,1.19747 6.72942,-0.58502 6.38281,-3.02539 -0.22817,-1.60655 -1.68083,-2.31811 -3.24219,-2.29492 z m -170.79687,92.05664 c 0.28889,-0.007 0.59976,0.0236 0.91992,0.0859 1.92101,0.37402 4.18945,1.88669 4.18945,3.16015 0,2.10104 -3.30832,1.85759 -5.42773,-0.39844 -1.84808,-1.96717 -1.88353,-2.16292 -0.4707,-2.70507 0.23326,-0.0895 0.50017,-0.13521 0.78906,-0.14258 z m 82.73437,42.00586 c -6.32821,0 -7.29009,0.42476 -5.35351,2.36133 0.96447,0.96447 16.69726,1.54045 16.69726,0.61132 0,-1.473 -5.72429,-2.97265 -11.34375,-2.97265 z m -23.27148,59.87305 c -0.42262,-10e-6 -0.33586,0.95178 0.19336,2.11328 0.52921,1.16151 1.12531,1.94891 1.32422,1.75 0.59561,-0.59562 -0.6879,-3.86329 -1.51758,-3.86328 z m 12.03125,6.11328 c -1.49106,0.11288 -1.35096,1.0491 0.65234,2.42773 1.1814,0.81301 2.08718,3.16358 3.04688,7.9043 0.75115,3.71054 1.7149,7.41097 2.14258,8.22265 1.25407,2.38009 1.43844,1.7198 0.58203,-2.09179 -0.44068,-1.96173 -0.64322,-4.17418 -0.44922,-4.91602 0.194,-0.74184 -0.16336,-2.05426 -0.79492,-2.91797 -1.87499,-2.56419 -1.44867,-4.62109 0.95898,-4.62109 4.26934,0 1.23273,-2.82911 -4.11328,-3.83203 -0.85076,-0.15961 -1.52837,-0.21341 -2.02539,-0.17578 z m 74.18359,18.45703 c -0.40581,0.0483 -1.05381,0.46115 -1.65429,1.08984 -1.39164,1.45702 -1.36932,1.47936 0.51367,0.51367 1.0833,-0.55557 1.73776,-1.24271 1.45508,-1.52539 -0.0707,-0.0707 -0.17919,-0.0942 -0.31446,-0.0781 z m -6.57422,29.40234 c -0.18228,0 -0.33007,0.5699 -0.33007,1.26563 0,0.69572 0.36714,1.26367 0.8164,1.26367 0.44926,0 0.59705,-0.56795 0.33008,-1.26367 -0.26698,-0.69573 -0.63412,-1.26563 -0.81641,-1.26563 z m 118.1543,35.41797 c -1.42273,0 -4.63867,2.92341 -4.63867,4.2168 0,1.53926 4.13014,0.89299 5.0293,-0.78711 1.2198,-2.27922 1.08974,-3.42969 -0.39063,-3.42969 z m -204.61328,1.78711 c -0.61135,-0.003 -1.25285,0.0457 -1.77734,0.14648 -1.049,0.20171 -0.38848,0.37577 1.46679,0.38477 1.85528,0.009 2.71251,-0.15612 1.90625,-0.36719 -0.40314,-0.10552 -0.98435,-0.16083 -1.5957,-0.16406 z m 77.69531,37.84961 c -0.46381,0 -0.84375,0.37799 -0.84375,0.8418 0,0.46382 0.37994,0.84375 0.84375,0.84375 0.46382,0 0.84375,-0.37993 0.84375,-0.84375 0,-0.46381 -0.37993,-0.8418 -0.84375,-0.8418 z"
       id="path4205"
       inkscape:connector-curvature="0" />
    <path
       style="fill:#c80000;fill-opacity:1"
       d="m 490.12891,386.7832 c -0.80233,-0.0206 -1.49358,0.69185 -2.63477,2.12305 l -1.82226,2.28516 -3.38086,-1.52539 c -2.77419,-1.25098 -3.72244,-1.3422 -5.28516,-0.50586 -1.12872,0.60408 -3.89977,0.87614 -6.80469,0.66601 -4.73857,-0.34276 -4.91124,-0.28275 -5.15429,1.80469 -0.17154,1.47317 -1.07378,2.52043 -2.83985,3.29883 -1.45521,0.6414 -3.57299,2.77108 -4.83789,4.86523 -1.23749,2.04873 -3.20378,4.08817 -4.36914,4.53125 -1.8489,0.70295 -2.11719,1.31212 -2.11719,4.77735 0,5.49763 -2.79427,10.87508 -7.29687,14.04882 -2.01736,1.42195 -3.66797,2.85088 -3.66797,3.17578 0,0.87892 2.34377,1.61526 5.14258,1.61524 3.26579,0 5.80071,4.01994 5.84961,9.27539 0.0335,3.59588 0.40895,4.18183 7.13672,11.17383 4.92239,5.11572 7.70024,7.3789 9.05664,7.3789 1.07606,0 2.79169,0.58638 3.81445,1.30274 1.39377,0.97624 2.27227,1.08208 3.50586,0.42187 4.33015,-2.31741 8.5039,0.24041 8.5039,5.21094 0,3.17091 1.17699,2.9452 3.40039,-0.65234 1.93638,-3.13311 5.26136,-5.80429 6.61133,-5.3086 0.43456,0.15955 0.0921,1.61883 -0.76172,3.24219 -4.57882,8.70554 -5.14335,10.13254 -4.63867,11.72266 0.29571,0.93167 1.87632,2.17746 3.51367,2.76953 2.0364,0.73637 3.33355,1.92986 4.10547,3.77734 1.56707,3.75051 5.55117,5.62369 12.50391,5.87696 4.76294,0.17351 6.04513,0.53697 7.40039,2.09961 4.13605,4.76889 5.40161,19.4169 3.41406,39.53124 -0.61872,6.26154 -1.29359,13.6343 -1.49804,16.38282 -0.20446,2.74851 -1.05386,6.54393 -1.88868,8.43359 -0.83482,1.88966 -1.78113,4.48911 -2.10351,5.77735 -0.32238,1.28822 -1.62131,4.51374 -2.88477,7.16796 -2.13952,4.49455 -2.29687,5.58729 -2.29687,15.91211 0,9.09147 0.24929,11.36606 1.38672,12.64844 2.45204,2.7645 3.99176,13.24114 3.32812,22.64649 -0.74074,10.49782 0.26267,22.71712 2.09375,25.51171 1.36949,2.09011 1.15416,6.28562 -0.48047,9.37891 -0.77115,1.45929 -2.7875,15.12071 -2.7539,18.66016 0.011,1.15954 0.40077,4.76499 0.86523,8.01172 0.65987,4.61283 0.57447,6.97634 -0.38672,10.8125 -1.09189,4.35787 -1.08023,5.64584 0.0996,11.46874 1.91627,9.45714 1.75459,16.96737 -0.45117,20.89454 -1.40804,2.50689 -1.67912,4.03627 -1.29297,7.29687 0.27659,2.3353 0.0452,5.54336 -0.5332,7.39649 -0.8616,2.76067 -1.52671,3.38377 -8.99414,6.36328 0.58655,0.93181 1.11516,1.85474 1.58789,2.76172 3.09312,-1.4919 5.20064,-2.48243 5.32031,-2.48243 0.22868,0 0.37632,1.50558 0.32813,3.34571 -0.10711,4.08487 4.09514,12.98142 6.83007,14.46093 4.86148,2.62992 13.96007,-4.27221 16.66993,-12.64453 2.12985,-6.58036 1.44414,-15.33644 -1.60938,-20.54687 -1.88815,-3.22189 -2.37874,-5.26515 -2.72656,-11.34961 -0.23327,-4.08074 -0.99222,-9.46462 -1.6875,-11.96484 -0.91029,-3.27355 -1.15809,-7.16736 -0.88477,-13.91211 0.20876,-5.15144 0.0458,-10.24173 -0.36133,-11.3125 -2.16188,-5.68617 -2.47211,-54.63828 -0.40625,-64.10157 1.56467,-7.16748 1.70484,-12.04965 0.46289,-16.18554 -2.43401,-8.10569 -3.87117,-34.10785 -2.30664,-41.73828 2.2092,-10.77464 3.10095,-16.8872 3.50586,-24.03321 0.57625,-10.16945 1.10983,-12.09663 3.17383,-11.45312 0.86376,0.2693 2.33017,0.72376 3.25781,1.00976 2.42009,0.74616 2.19433,-1.67839 -0.30859,-3.31836 -2.00415,-1.31317 -4.45415,-8.28571 -3.4707,-9.87695 0.26622,-0.43072 1.03737,-4.11199 1.71289,-8.17969 0.67551,-4.06771 1.8737,-9.38721 2.66406,-11.82226 1.1655,-3.59081 1.79436,-4.42774 3.32227,-4.42774 1.03611,0 2.11763,-0.37993 2.40429,-0.84375 0.28666,-0.46382 -0.23837,-0.84375 -1.16601,-0.84375 -0.92763,0 -1.93125,-0.39476 -2.23047,-0.8789 -0.88171,-1.42664 1.30826,-3.33594 3.82617,-3.33594 1.29372,0 4.27884,-1.34019 6.70313,-3.00781 3.49847,-2.40652 4.61058,-2.80529 5.57617,-2.00391 0.66338,0.55056 1.21431,1.42819 1.22461,1.95117 0.0103,0.52298 0.76299,1.90101 1.67382,3.06055 l 1.65625,2.10742 -1.41601,-3.79492 c -0.77853,-2.08718 -1.87681,-4.49442 -2.44141,-5.34961 -0.81665,-1.23689 -0.78368,-2.1368 0.16211,-4.40039 1.64436,-3.9355 1.44114,-12.55268 -0.42383,-17.95313 -0.85693,-2.48146 -1.37911,-5.19591 -1.16015,-6.0332 0.90297,-3.45294 -2.05233,-7.05344 -8.21485,-10.00976 -5.35264,-2.5678 -6.40733,-2.79347 -10.77929,-2.29883 -4.07945,0.46153 -10.27735,-0.51381 -10.27735,-1.61719 0,-0.14958 1.36093,-2.95219 3.02539,-6.22852 3.85408,-7.58638 3.30729,-9.56276 -0.89453,-3.23437 -1.7678,2.66251 -3.3668,4.83984 -3.55273,4.83984 -0.61425,0 -5.32355,-10.51426 -5.32422,-11.88672 -9.8e-4,-1.98052 2.19909,-3.59619 9.36914,-6.88086 3.53017,-1.6172 6.64145,-3.30107 6.91406,-3.74218 0.27263,-0.44111 -1.37407,0.12349 -3.6582,1.2539 -7.04798,3.488 -14.52689,2.51234 -19.05664,-2.48633 -2.68044,-2.95791 -3.68945,-5.32995 -3.68945,-8.66992 0,-3.68363 -0.80383,-3.80413 -2.73438,-0.41211 -1.75499,3.08358 -3.8178,2.82104 -7.84766,-1 -1.58307,-1.50104 -2.49649,-2.25477 -3.29882,-2.27539 z m 52.92578,4.05469 c -1.07778,0 -9.52735,5.40263 -9.52735,6.0918 0,0.76331 5.33421,-1.31509 8.22071,-3.20313 1.80253,-1.17903 2.57617,-2.88867 1.30664,-2.88867 z m 6.01172,7.61523 c -2.58301,-0.0379 -8.91032,2.31237 -11.32422,4.20704 -1.91553,1.50348 -1.55179,1.46854 3.96875,-0.38282 3.34179,-1.1207 6.75727,-2.43353 7.58984,-2.91796 1.40348,-0.81667 1.38556,-0.88245 -0.23437,-0.90626 z m -27.76758,32.01954 c 0.69573,0 1.26562,0.37994 1.26562,0.84375 0,0.46382 -0.56989,0.84375 -1.26562,0.84375 -0.69573,0 -1.26563,-0.37993 -1.26563,-0.84375 0,-0.46381 0.5699,-0.84375 1.26563,-0.84375 z m 17.99805,5.10742 c 0.48006,0.01 1.0961,0.0849 1.90429,0.19336 1.84535,0.24751 3.9084,0.91034 4.58594,1.47265 1.43022,1.18697 1.62246,5.25901 0.35937,7.61914 -0.89596,1.67411 -1.94144,1.82443 -6.23437,0.89844 -2.93139,-0.63231 -3.93959,-3.34699 -2.81836,-7.59375 0.54278,-2.05585 0.76292,-2.61926 2.20313,-2.58984 z m 10.30468,11.91015 c 0.53471,0.0377 0.92618,0.97905 1.27344,2.83008 0.93044,4.95962 0.016,12.7804 -1.71875,14.69727 -0.85523,0.94502 -2.1606,1.6781 -2.90039,1.6289 -2.14878,-0.14291 -5.98242,-2.43607 -5.98242,-3.57812 0,-0.57497 1.29866,-3.11601 2.88672,-5.64648 1.58807,-2.53049 3.52863,-5.83439 4.3125,-7.3418 0.91627,-1.76201 1.59419,-2.62752 2.1289,-2.58985 z m -9.97851,20.40039 c 0.18881,0.003 0.39478,0.0196 0.61523,0.0527 0.58788,0.0884 1.29096,0.2845 2.11914,0.58398 2.26353,0.8185 2.71199,1.30421 2,2.16211 -0.50482,0.60827 -2.19905,1.10547 -3.76562,1.10547 -2.25725,0 -2.84961,-0.33956 -2.84961,-1.63672 0,-1.55415 0.55916,-2.28614 1.88086,-2.26758 z m -30.58008,10.70118 c 0.5989,0.0591 1.00529,0.55081 1.80078,1.5332 0.88051,1.0874 1.59961,2.31413 1.59961,2.72656 0,0.41243 -0.28493,0.68532 -0.63281,0.60742 -0.34786,-0.078 -2.14865,-0.29357 -4.00391,-0.47851 -4.83783,-0.48224 -5.40324,-1.57195 -1.72461,-3.32617 1.57051,-0.74892 2.36203,-1.12159 2.96094,-1.0625 z"
       id="path4191"
       inkscape:connector-curvature="0" />
    <path
       style="fill:#c80000;fill-opacity:1"
       d="m 567.29492,27.564453 c -2.01357,0 -3.56354,4.436354 -4.40234,12.597656 -0.45798,4.456107 -1.50551,9.161333 -2.51367,11.289063 -1.46482,3.09153 -2.02543,3.575332 -3.66407,3.164062 -1.06369,-0.26697 -4.8819,-0.895154 -8.48632,-1.396484 l -6.55469,-0.912109 -5.53125,-5.738282 c -3.15552,-3.27321 -8.06893,-7.191974 -11.43946,-9.125 -3.24945,-1.863634 -6.62895,-4.184912 -7.50976,-5.158203 -1.53417,-1.695232 -4.70061,-2.456933 -4.72461,-1.136718 -0.006,0.347863 -0.22243,1.418052 -0.48047,2.378906 -0.32749,1.219481 0.46845,2.868019 2.63477,5.460937 l 3.10351,3.714844 -2.76562,2.308594 c -3.74538,3.12678 -8.92537,4.776537 -18.71289,5.960937 -4.52222,0.54724 -8.22266,1.289771 -8.22266,1.650391 0,0.36061 1.31752,2.114104 2.92773,3.896484 l 2.92774,3.242188 -2.32422,2.224609 c -1.27772,1.22414 -4.56898,2.998779 -7.31445,3.94336 -2.74547,0.94458 -5.83925,2.513288 -6.875,3.486328 l -1.88281,1.769531 -5.27735,-1.783203 c -2.90292,-0.98033 -6.6329,-1.78125 -8.28711,-1.78125 -2.16699,0 -4.59738,-1.06797 -8.69726,-3.81836 -3.12969,-2.09955 -6.9203,-4.0534 -8.42383,-4.34375 l -2.73438,-0.529296 1.6875,1.93164 c 0.92764,1.06246 3.01533,2.4855 4.63867,3.16211 1.62336,0.676597 4.84888,2.627817 7.16797,4.335937 6.57063,4.8396 8.10054,5.671012 13.13282,7.132813 8.4307,2.448987 9.61861,6.198458 4.15429,13.111328 -3.11565,3.94161 -3.37304,4.665919 -3.37304,9.505859 0,11.926075 -7.12476,18.161495 -26.33399,23.046875 -9.27447,2.35874 -8.91953,2.49256 2.29883,0.86719 4.63818,-0.67201 11.22971,-1.23335 14.64648,-1.24805 7.00986,-0.0302 6.67173,-0.79139 3.50196,7.91211 -0.99908,2.74324 -2.03864,6.91859 -2.31055,9.27734 -0.27189,2.35874 -0.91103,4.56745 -1.41992,4.90821 -0.50888,0.34076 -2.50617,0.62581 -4.43945,0.63281 -4.33203,0.0159 -6.1836,0.67745 -6.1836,2.21094 0,0.81413 1.06723,1.17382 3.47656,1.17382 2.93841,3e-5 3.32105,0.18905 2.46485,1.22071 -1.62826,1.96193 -7.42538,3.62986 -14.42383,4.17383 -0.13534,-0.26242 -0.25966,-0.52027 -0.40039,-0.78516 -2.39349,0.42084 -4.56478,0.95208 -6.08399,1.6875 -4.43383,2.14639 -6.33292,1.45816 -6.7246,-2.44141 -0.20622,-2.05311 -0.73457,-2.65472 -2.66602,-3.04101 -1.32433,-0.26487 -3.71265,-1.82742 -5.30859,-3.4707 -1.65267,-1.7017 -3.73161,-2.98829 -4.82813,-2.98829 -1.05887,0 -3.39962,-0.44207 -5.20312,-0.98242 -3.99564,-1.19712 -5.01466,-3.87929 -2.95508,-7.78711 4.97298,-9.43568 6.94718,-26.85883 4.33008,-38.220701 -0.66478,-2.88606 -0.99995,-5.792354 -0.74414,-6.458984 0.2846,-0.74163 -0.21193,-1.428188 -1.28125,-1.767578 -0.96118,-0.30507 -1.74805,-1.12064 -1.74805,-1.8125 0,-0.69185 -1.58798,-4.554918 -3.5293,-8.585938 -2.54134,-5.27693 -4.82939,-8.576137 -8.16797,-11.779297 -4.24826,-4.075949 -4.56903,-4.641113 -3.82812,-6.746093 0.85341,-2.42459 0.87385,-2.383083 -4.08203,-8.220703 -1.27551,-1.50244 -2.31836,-3.61238 -2.31836,-4.6875 0,-1.44473 -0.24804,-1.707024 -0.94727,-1.007813 -0.52033,0.520769 -1.56319,0.749176 -2.31836,0.509766 -1.19134,-0.37771 -1.205,-0.310734 -0.10742,0.503906 1.10253,0.81832 1.05371,1.09895 -0.37305,2.1875 -1.90263,1.45162 -3,1.60072 -3,0.40625 0,-0.46382 -0.73645,-0.84375 -1.63672,-0.84375 -0.90026,0 -1.87154,-0.37993 -2.1582,-0.84375 -0.28665,-0.46381 -1.25065,-0.841797 -2.14062,-0.841797 -0.89,0 -3.72416,-1.034136 -6.29883,-2.296875 -3.72259,-1.825731 -4.99056,-2.101512 -6.19141,-1.351562 -1.67456,1.04578 -5.80039,0.563541 -7.64258,-0.892579 -0.65474,-0.51753 -1.98255,-0.941406 -2.95117,-0.941406 -1.2198,0 -1.84978,-0.624314 -2.04883,-2.033203 -0.22726,-1.608461 -0.46209,-1.785381 -1.11914,-0.84375 -0.63736,0.913409 -0.92974,0.945269 -1.25781,0.136719 -0.23527,-0.57978 -1.16963,-1.054688 -2.07617,-1.054688 -1.29474,0 -1.59693,0.498623 -1.40625,2.320313 0.20628,1.97072 -0.0802,2.330011 -1.91016,2.400391 -1.18437,0.0456 -3.08208,0.672981 -4.21679,1.394531 -1.13473,0.72156 -3.76126,1.586815 -5.83789,1.921875 -3.40033,0.54863 -3.66462,0.474785 -2.65625,-0.740235 0.61583,-0.74203 2.50455,-1.59673 4.19726,-1.90039 4.46063,-0.80019 5.89092,-1.6856 3.79883,-2.34961 -0.91362,-0.28997 -4.45747,0.423568 -7.875,1.585938 -3.41751,1.16238 -6.88759,2.113281 -7.71094,2.113281 -0.82335,0 -1.80861,0.560171 -2.1914,1.244141 -0.38277,0.68396 -2.20254,1.765174 -4.04297,2.402343 -3.21669,1.113631 -3.34242,1.297944 -3.26172,4.746094 0.0462,1.97288 0.53532,3.865531 1.08789,4.207032 1.24152,0.76731 0.4951,1.402347 -5.60938,4.773437 -2.43457,1.34444 -4.42726,2.880006 -4.42773,3.410156 -4.8e-4,0.53015 -0.54605,1.171835 -1.21289,1.427735 -0.66685,0.25589 -1.60704,1.891292 -2.08789,3.632812 -0.71694,2.596541 -0.62682,3.438464 0.5,4.683594 1.27082,1.40421 1.26925,1.51953 -0.0215,1.519531 -0.76762,0 -1.43838,0.66293 -1.49218,1.474609 -0.0889,1.34046 -0.13497,1.336187 -0.4961,-0.06055 -0.22967,-0.88828 -0.89117,-1.348954 -1.5664,-1.089844 -0.64289,0.2467 -1.5478,-0.199768 -2.00977,-0.992188 -0.46199,-0.79241 -0.85113,-1.061476 -0.86523,-0.597656 -0.0141,0.46382 -1.00294,0.84375 -2.19727,0.84375 -1.91614,0 -2.11592,-0.271951 -1.70898,-2.30664 l 0.46093,-2.304688 -3.90234,2.427734 c -3.02666,1.88384 -4.24397,3.33002 -5.42578,6.44336 -1.6147,4.253803 -1.46814,5.4375 0.67969,5.4375 1.03938,0 1.2244,0.62696 0.85546,2.90039 -0.31792,1.95914 -0.0808,3.223538 0.73243,3.898438 1.76631,1.4659 1.48471,4.249262 -0.48243,4.763672 -1.76488,0.46154 -2.35355,1.93164 -0.77343,1.93164 1.4794,0 0.39837,1.939302 -1.21289,2.175782 -1.97292,0.28957 -5.60352,2.716768 -5.60352,3.746098 10e-6,0.45313 0.7707,0.82422 1.71289,0.82422 0.9422,0 1.91138,0.51264 2.15235,1.14062 0.6254,1.62977 -3.1609,7.21336 -4.91993,7.25586 -0.91772,0.0222 -1.47461,0.69406 -1.47461,1.77735 0,0.95813 -0.35135,2.39984 -0.78125,3.20312 -0.52514,0.98124 -0.25685,3.38522 0.81836,7.32422 0.88022,3.22462 1.6115,6.16969 1.625,6.54492 0.0135,0.37524 0.32933,0.49273 0.70313,0.26172 0.62027,-0.38338 5.0238,5.44881 7.50976,9.94727 0.53179,0.96227 1.17021,4.47044 1.48047,7.9707 2.46685,-1.77713 5.46996,-2.82716 8.95899,-2.68945 0.71917,-0.006 1.43069,-0.0875 2.14258,-0.17383 0.18043,-0.52638 0.31054,-0.96157 0.31054,-1.13867 0,-1.08519 3.39861,-2.66845 4.42774,-2.0625 0.34786,0.20482 0.63281,1.23615 0.63281,2.29101 0,0.29879 0.0104,0.57016 0.0312,0.81641 0.71701,0.0622 1.42867,0.14705 2.12891,0.27344 -0.56596,-0.39731 -0.53398,-0.55567 0.16015,-0.56446 0.57977,-0.007 1.05274,-0.78652 1.05274,-1.73242 0,-1.85367 0.56697,-1.5756 4.25781,2.08984 0.97162,0.96494 1.5554,2.18966 1.62305,2.92969 3.6547,1.19569 7.52858,2.94026 6.43945,3.39844 -0.56066,-0.34836 -2.2065,-1.4452 -1.68164,-1.04492 1.64015,1.25082 3.44509,2.28356 5.0332,3.59961 -0.0559,-0.21593 -0.12429,-0.54174 -0.17578,-0.72266 -0.73294,-2.57519 1.40271,-2.11375 2.61328,0.56445 0.45905,1.01559 1.94703,2.06419 3.37109,2.37696 3.33725,0.73298 8.03516,2.99172 8.03516,3.86328 0,0.37792 0.73646,0.6875 1.63672,0.6875 0.90027,0 1.87154,0.37993 2.1582,0.84375 0.28665,0.46382 1.35292,0.84465 2.36914,0.84765 1.01621,0.003 2.93788,0.57308 4.26954,1.26758 1.33163,0.69448 4.02934,1.20321 5.99414,1.12891 2.15593,-0.0815 4.36259,0.41855 5.5664,1.26172 1.09707,0.76842 2.76469,1.36668 3.70508,1.33008 1.36629,-0.0532 1.24381,-0.23724 -0.60938,-0.91407 -3.35399,-1.22499 -2.88699,-1.9318 2.10743,-3.18554 2.43505,-0.61126 4.97206,-1.53663 5.63867,-2.05664 0.97581,-0.76122 1.10543,-0.65693 0.66016,0.53125 -0.3042,0.81168 -0.41824,1.47461 -0.25391,1.4746 0.94928,0 4.60742,-2.34764 4.23633,-2.71874 -0.2449,-0.24491 0.13664,-0.66857 0.84765,-0.94141 0.87135,-0.33436 1.42221,0.11222 1.69141,1.37109 0.97152,4.54297 2.14843,14.32635 2.14844,17.86328 0,3.22881 0.31333,3.98535 1.89843,4.59766 2.34255,0.9049 5.31471,4.1049 6.03907,6.5 0.37966,1.25535 2.11564,2.35388 5.78906,3.66406 2.88582,1.02926 6.66321,2.78313 8.39258,3.89844 3.85088,2.48351 4.54743,2.51305 5.76172,0.24414 0.78605,-1.46877 1.48039,-1.69824 3.92968,-1.30078 1.63598,0.26549 3.61557,1.063 4.39844,1.77148 1.29631,1.17315 1.71967,0.98171 4.74414,-2.14453 1.82654,-1.88801 6.10125,-5.36636 9.5,-7.72851 5.96267,-4.14408 6.16177,-4.39197 5.6582,-7.07618 -0.44855,-2.39105 -0.14544,-3.11725 2.15626,-5.17382 2.2819,-2.03888 2.53908,-2.64887 1.74804,-4.12696 -0.86905,-1.62381 -0.26934,-2.01609 9.375,-6.14062 1.62853,-0.69646 3.11229,-1.23746 4.64649,-1.83008 -0.0192,-0.0359 -0.0413,-0.0754 -0.0606,-0.11133 6.69453,-2.31256 11.99415,-3.43202 14.36914,-2.83593 4.64015,1.1646 12.57574,13.32659 12.99805,19.91992 0.197,3.07581 0.0482,3.26842 -3.83594,4.9707 -3.43812,1.50683 -4.33977,1.61347 -6.03711,0.70508 -1.76448,-0.94431 -2.34618,-0.80088 -5.02734,1.24414 -7.11171,5.42437 -12.30078,15.51901 -12.30078,23.92969 0,4.45737 0.3766,5.50431 3.85742,10.74218 4.58029,6.89232 6.72174,8.1953 17.26367,10.4961 4.36118,0.95185 8.0505,1.85322 8.19922,2.00195 0.14871,0.14871 1.3623,-0.82324 2.69726,-2.1582 1.41513,-1.41514 3.33179,-2.42578 4.59571,-2.42578 4.5806,0 11.68371,-13.05842 11.80273,-21.69727 l 0.0742,-5.34375 3.20898,-0.96289 c 2.79783,-0.84027 3.77109,-0.71623 7.58985,0.96875 2.40924,1.06303 6.46658,2.81403 9.01758,3.89062 4.58341,1.93434 4.65614,2.01932 6.10937,7.2793 0.80883,2.92755 2.2679,9.49762 3.24219,14.59961 2.23188,11.68754 2.57091,12.5814 3.29101,8.66602 0.70936,-3.85698 -0.27584,-11.3385 -2.30859,-17.52149 l -1.52539,-4.63672 2.82031,-3.97461 c 2.58349,-3.64027 3.0442,-3.93154 5.50391,-3.46875 4.20464,0.79109 5.85003,2.67011 5.23047,5.97266 l -0.52539,2.79883 4.47265,-2.49609 c 9.5026,-5.30342 15.51267,-5.17453 19.78125,0.42187 2.47307,3.24238 3.80086,3.31965 4.51758,0.26172 0.2984,-1.27311 1.18384,-2.14863 2.34375,-2.31641 2.82092,-0.40805 11.1947,8.019 14.78125,14.875 2.96979,5.67703 5.27337,12.59969 4.46289,13.41016 -0.2407,0.24071 -2.76859,-1.3162 -5.61914,-3.45899 -6.40028,-4.81117 -9.776,-5.16736 -13.51367,-1.42968 -2.01412,2.01413 -2.4648,3.17731 -2.46485,6.36523 0,4.73677 1.471,7.77483 5.4668,11.2832 3.41859,3.00155 3.14151,2.95599 10.55469,1.75391 6.10901,-0.99059 8.81337,-2.89499 9.58398,-6.74805 0.60817,-3.04083 1.36666,-3.08139 4.72461,-0.25586 4.75733,4.00302 6.32149,8.17976 6.33789,16.92188 0.0142,7.611 -0.0356,7.80357 -2.72656,10.58203 -2.94311,3.03875 -3.41492,4.93417 -1.60351,6.4375 0.86589,0.71864 2.38931,0.31784 6.39062,-1.68164 l 5.25195,-2.625 2.92383,1.57422 c 1.6087,0.86561 4.07814,2.76256 5.48633,4.21484 l 2.56055,2.64063 -1.75586,3.43945 c -0.96519,1.89192 -1.74824,4.30902 -1.74024,5.37109 0.013,1.76947 0.15932,1.70524 1.73828,-0.75976 1.56876,-2.44907 7.51114,-6.16406 9.85938,-6.16406 0.52743,0 2.10216,1.42279 3.5,3.16211 2.4442,3.04126 2.76042,3.16972 8.26172,3.36132 4.14095,0.14423 6.65191,-0.23456 9.09375,-1.37109 l 3.37305,-1.57031 3.54492,3.40625 c 1.29947,1.24833 2.16277,1.99825 2.82812,2.40039 0.60446,-2.23047 1.73749,-4.424 3.98633,-6.83008 0.80047,-1.214 1.50543,-2.26065 1.64258,-2.39453 1.5865,-1.54869 3.80075,-2.28198 5.70117,-3.42383 3.99981,-2.40324 6.20118,-2.74917 7.22852,-1.76172 l 4.14257,-1.59375 c 4.15037,-1.59795 5.37665,-1.77674 6.39258,-0.93359 0.6914,0.57387 1.50083,0.798 1.79883,0.5 0.29801,-0.298 0.0997,-0.54102 -0.44141,-0.54102 -0.54112,0 -0.98437,-0.54774 -0.98437,-1.21679 0,-0.82826 1.1437,-1.30001 3.58398,-1.47657 3.02782,-0.21907 3.62842,-0.56541 3.86524,-2.23828 0.18055,-1.2754 -0.34551,-2.41871 -1.47656,-3.21094 -0.96587,-0.67652 -1.75586,-1.53757 -1.75586,-1.91406 0,-0.37649 1.66001,-2.34665 3.68945,-4.3789 4.17423,-4.18001 5.17252,-7.53379 6.07031,-20.39258 0.42098,-6.02949 0.84964,-7.72707 2.28516,-9.06446 0.97158,-0.90517 2.26477,-1.64648 2.87304,-1.64648 0.60827,0 1.10547,-0.89503 1.10547,-1.99023 0,-1.92359 -0.12733,-1.9636 -3.75781,-1.13282 -2.83629,0.64903 -4.07358,0.6001 -5.03906,-0.20117 -1.78652,-1.48268 -2.4558,-5.92098 -1.33789,-8.86133 0.889,-2.33823 0.73253,-2.64801 -2.89649,-5.75 -4.17904,-3.57214 -4.52857,-4.67683 -2.47656,-7.80859 2.20286,-3.36199 1.01182,-4.82094 -3.39453,-4.16016 -3.50164,0.5251 -3.81225,0.41087 -4.96484,-1.84375 -0.6762,-1.32271 -1.49374,-3.63907 -1.81836,-5.14648 -0.5795,-2.69094 -0.6763,-2.74024 -5.25977,-2.74024 -4.21785,0 -4.92392,-0.27411 -7.3125,-2.8457 -2.06043,-2.21834 -3.01556,-2.69693 -4.33008,-2.16797 -3.97051,1.59771 -7.30023,0.89262 -10.17383,-2.15429 -2.17046,-2.30135 -3.4455,-2.95118 -5.79101,-2.95118 -2.67909,0 -3.00781,-0.24021 -3.00781,-2.19726 l 0,-2.19922 -2.37305,2.53906 c -1.86924,2.00102 -3.36186,2.66216 -7.05078,3.12305 -4.17466,0.52159 -4.80715,0.86686 -5.85156,3.19336 -1.40371,3.12681 -2.38582,3.54761 -4.56641,1.95312 -1.62455,-1.1879 -1.62323,-1.21991 0.0352,-3.07226 0.92147,-1.0293 4.3314,-3.84472 7.57812,-6.25781 8.87491,-6.59621 8.69067,-5.83681 3.36914,-13.87891 -4.46514,-6.74787 -6.70193,-12.22473 -6.1543,-15.06836 0.14887,-0.77301 1.55896,-1.69778 3.21094,-2.10547 3.90873,-0.96465 4.84153,-0.93841 9.0586,0.26367 3.61677,1.03096 27.05638,0.39427 25.95703,-0.70508 -0.2754,-0.2754 -5.00167,-0.75712 -10.50391,-1.07031 -6.4549,-0.36743 -10.96329,-1.04808 -12.70703,-1.91797 -2.23133,-1.11314 -2.52137,-1.1314 -1.66992,-0.10547 1.7481,2.10633 -4.68388,1.6384 -6.81836,-0.49609 -2.0895,-2.0895 -1.72746,-3.76923 0.79297,-3.67383 1.00938,0.0382 1.71779,-0.14982 1.57422,-0.41992 -0.14357,-0.2701 -0.78879,-1.54451 -1.4336,-2.83203 -1.49035,-2.97582 -2.74387,-2.55447 -3.82422,1.28516 -1.21118,4.30461 -2.11718,4.80408 -2.11718,1.16796 0,-1.71608 0.94982,-4.993 2.10937,-7.28125 1.15954,-2.28825 2.10742,-4.73903 2.10742,-5.44726 0,-1.78182 6.05918,-6.00395 10.8125,-7.5332 2.16964,-0.69803 8.30868,-1.8892 13.64258,-2.64649 9.78065,-1.38863 14.80709,-3.02944 19.5,-6.37109 2.10552,-1.49927 2.4601,-2.21389 2.00977,-4.03711 -1.65956,-6.719 -8.90229,-9.31922 -21.74414,-7.80469 -15.02488,1.77198 -20.87205,0.89827 -23.79102,-3.556644 -2.47795,-3.78183 -1.403,-7.247124 3.36133,-10.839844 2.31641,-1.74677 4.32335,-3.512981 4.46094,-3.925781 0.46801,-1.40402 -2.94437,-1.593633 -6.23633,-0.345703 -1.80467,0.68413 -4.49598,1.432772 -5.98242,1.664062 -2.34351,0.36465 -2.77354,0.140848 -3.23438,-1.695312 -0.57351,-2.28503 0.44118,-4.73871 3.46484,-8.375 1.66845,-2.00651 1.79268,-2.628491 0.96094,-4.832031 -0.73463,-1.94628 -0.69452,-3.457232 0.17774,-6.550782 2.0587,-7.301358 2.01451,-7.389687 -3.73438,-7.429687 -6.78386,-0.04719 -7.35519,-0.498957 -6.73047,-5.310547 1.53914,-11.854327 3.56338,-15.743681 8.67188,-16.654297 0.23496,-0.04188 0.49399,-0.125144 0.74414,-0.191406 A 57.142857,15 0 0 1 609.11905,31.39648 c -4.61712,1.618744 -9.91722,4.791669 -19.13281,11.013672 -10.18051,6.873457 -16.86161,10.611789 -19.73828,11.042969 -1.55455,0.23302 -1.74071,-0.406909 -2.35938,-8.179687 -0.46074,-5.788616 -0.36561,-9.38042 0.30078,-11.455079 1.17022,-3.643155 0.79621,-6.253906 -0.89453,-6.253906 z"
       id="path4887"
       inkscape:connector-curvature="0" />
    <path
       style="fill:#c80000;fill-opacity:1"
       d="m 708.75977,197.49805 c -1.60004,0.012 -9.90821,4.96943 -9.90821,5.91211 0,1.39205 4.09936,0.92069 7.62305,-0.87696 2.19225,-1.11839 3.33984,-2.27911 3.33984,-3.375 0,-0.91822 -0.4749,-1.66415 -1.05468,-1.66015 z"
       id="path4885"
       inkscape:connector-curvature="0" />
    <path
       style="fill:#c80000;fill-opacity:1"
       d="m 565.33789,230.07227 c -0.67738,-0.29038 -6.20657,11.07001 -6.89062,14.25585 -0.50401,2.34738 -0.40707,2.29577 1.63281,-0.8789 2.46723,-3.83977 5.73484,-12.03377 5.30859,-13.3125 -0.0114,-0.0343 -0.0289,-0.0551 -0.0508,-0.0644 z"
       id="path4883"
       inkscape:connector-curvature="0" />
    <path
       style="fill:#c80000;fill-opacity:1"
       d="m 697.26758,287.05859 c -0.0839,-0.006 -0.14591,0.004 -0.1875,0.0312 -0.49912,0.32188 1.98225,2.93808 5.88086,5.9043 2.89567,2.20313 5.45151,4.00586 5.67968,4.00586 1.62154,0 -6.23697,-7.37539 -10.00976,-9.39453 -0.66465,-0.35571 -1.11143,-0.5281 -1.36328,-0.54688 z"
       id="path4881"
       inkscape:connector-curvature="0" />
    <path
       style="fill:#c80000;fill-opacity:1"
       d="m 678.72461,302.59961 c -0.25413,0.24601 -0.51235,0.50119 -0.77344,0.76562 0.2663,-0.0703 0.53239,-0.14106 0.79883,-0.21093 -0.009,-0.20463 -0.017,-0.35843 -0.0254,-0.55469 z"
       id="path4879"
       inkscape:connector-curvature="0" />
    <path
       style="fill:#c80000;fill-opacity:1"
       d="m 673.14453,310.93359 c 0.0184,0.022 0.30153,0.27004 0.4043,0.36329 0.003,-0.005 0.007,-0.009 0.01,-0.0137 -0.10713,-0.0893 -0.4257,-0.36347 -0.41406,-0.34961 z"
       id="path4877"
       inkscape:connector-curvature="0" />
    <path
       style="fill:#c80000;fill-opacity:1"
       d="m 677.37891,498.0625 c -2.21082,4.47299 0.16118,0.38291 0,0 z"
       id="path4875"
       inkscape:connector-curvature="0" />
    <path
       style="fill:#c80000;fill-opacity:1"
       d="m 662.68164,544.18555 c -0.0394,0.13392 -0.0767,0.28478 -0.11914,0.39648 -0.0163,0.0427 -0.0257,0.0776 -0.041,0.11914 0.1235,0.23558 0.25232,0.45482 0.35547,0.625 0.2239,0.36944 0.45111,0.69037 0.67774,1.03516 0.0179,-0.006 0.0304,-0.0121 0.0488,-0.0176 0.004,-0.20702 0.009,-0.41402 0.0117,-0.62109 -0.37617,-0.63139 -0.64827,-1.07177 -0.93359,-1.53711 z"
       id="path4873"
       inkscape:connector-curvature="0" />
    <path
       style="fill:#c80000;fill-opacity:1"
       d="m 663.60352,546.34375 c -5.2e-4,0.0299 -9.6e-4,0.0599 -0.002,0.0898 0.74802,1.13205 1.48181,2.13391 2.15625,2.9668 -0.63653,-1.10286 -1.32917,-2.31206 -1.81445,-3.13281 -0.11629,0.0241 -0.23854,0.0461 -0.33984,0.0762 z"
       id="path4871"
       inkscape:connector-curvature="0" />
    <path
       style="fill:#c80000;fill-opacity:1"
       d="m 663.60156,546.43359 c -0.0158,-0.0239 -0.0311,-0.0483 -0.0469,-0.0723 -0.31622,0.10008 -0.56092,0.22915 -0.70508,0.40039 -0.17222,0.20457 -0.3018,0.38412 -0.46289,0.58203 0.20308,0.41047 0.52986,0.83436 1.01758,1.35352 0.0532,0.0566 0.0984,0.11795 0.15039,0.17578 0.0263,-0.81261 0.0324,-1.62637 0.0469,-2.43946 z"
       id="path4869"
       inkscape:connector-curvature="0" />
    <path
       style="fill:#c80000;fill-opacity:1"
       d="m 667.75195,555.91016 c 0.3606,0.70471 0.53853,1.31521 0.38086,1.57031 -0.12431,0.20115 -0.088,0.44721 0.0566,0.71289 3.60919,-0.41129 7.12753,-1.23891 9.20899,-1.78125 -3.06797,-0.0114 -6.27773,0.73096 -9.1543,-0.29492 -0.16824,-0.06 -0.32786,-0.13847 -0.49219,-0.20703 z"
       id="path4840"
       inkscape:connector-curvature="0" />
    <path
       style="fill:#c80000;fill-opacity:1"
       d="m 314.35128,56.094867 c 1.0204,0.0215 1.67882,0.508255 1.625,1.453124 -0.21842,3.83465 -1.33071,5.593295 -4.15625,6.578126 -2.91194,1.014939 -3.08567,1.323848 -2.13477,3.761718 0.36503,0.93584 -0.59846,1.661845 -3.63476,2.740235 -5.18146,1.8403 -5.4251,1.830917 -4.35742,-0.164063 0.48013,-0.89715 0.87304,-2.672252 0.87304,-3.945312 0,-2.30352 3.2116,-5.958015 7.98243,-9.083985 1.39891,-0.91659 2.78232,-1.361293 3.80273,-1.339843 z"
       id="path4838"
       inkscape:connector-curvature="0" />
    <path
       style="fill:#c80000;fill-opacity:1"
       d="m 281.113,80.52846 c 0.20453,0 0.37109,0.37993 0.37109,0.84375 0,0.46382 -0.40138,0.8418 -0.89257,0.8418 -0.4912,0 -0.65971,-0.37798 -0.37305,-0.8418 0.28665,-0.46382 0.68999,-0.84375 0.89453,-0.84375 z"
       id="path4836"
       inkscape:connector-curvature="0" />
    <path
       style="fill:#c80000;fill-opacity:1"
       d="m 424.3962,125.72573 c -2.00559,0.0877 -10.05545,1.40018 -10.48828,1.77539 -0.21848,0.1894 0.1575,0.68617 0.83594,1.10547 0.67844,0.4193 2.18425,0.53551 3.34766,0.25781 2.13909,-0.5106 6.7539,-2.62545 6.7539,-3.0957 0,-0.0438 -0.1627,-0.0555 -0.44922,-0.043 z"
       id="path4834"
       inkscape:connector-curvature="0" />
    <path
       style="fill:#c80000;fill-opacity:1"
       d="m 314.92355,226.28432 c 0.15663,-0.35064 -0.3606,0.67857 -0.54102,1.01758 l -0.0645,0.26562 c 0.16969,-0.33831 0.36057,-0.73499 0.60547,-1.2832 z"
       id="path4832"
       inkscape:connector-curvature="0" />
    <path
       style="fill:#c80000;fill-opacity:1"
       d="m 323.29745,153.62572 c -1.4577,1.4744 -3.39896,4.23958 -4.07137,6.12643 -1.19211,3.34525 -3.94864,20.07941 -2.12407,20.89199 1.8572,0.82715 9.68546,-15.70627 10.09421,-19.12838 0.2908,-2.43454 -1.0315,-7.60537 -2.25804,-8.83192 -0.17955,-0.17959 -0.56187,-0.008 -1.05099,0.39636 -0.18345,0.15165 -0.38147,0.3349 -0.58976,0.5455 z"
       id="path4830"
       inkscape:connector-curvature="0"
       sodipodi:nodetypes="cscscccc" />
    <path
       style="fill:#c80000;fill-opacity:1"
       d="m 303.74581,244.67104 c 0.36714,0.8215 0.73055,1.69673 1.0918,2.58789 0.23603,-1.38117 0.0276,-1.98424 -1.0918,-2.58789 z"
       id="path4828"
       inkscape:connector-curvature="0" />
    <path
       style="fill:#c80000;fill-opacity:1"
       d="m 311.76925,257.47768 c -0.14207,0.48299 -0.10667,1.21788 -0.0352,1.83594 -0.0304,-0.5359 -0.01,-1.16931 0.0352,-1.83594 z"
       id="path4826"
       inkscape:connector-curvature="0" />
    <path
       style="fill:#c80000;fill-opacity:1"
       d="m 282.69503,264.84096 c -1.16655,0.0497 -2.37659,0.25134 -3.51953,0.54492 -0.0475,0.56252 -0.10626,1.12484 -0.17578,1.68555 2.25267,1.36581 4.32671,2.4845 5.92773,2.91016 -0.15014,-0.47997 -0.29067,-0.96166 -0.38476,-1.45508 -0.0188,-0.0986 0.33725,0.0536 0.29883,-0.0391 -0.45894,-1.10774 -1.13294,-2.11492 -1.64063,-3.20118 -0.0958,-0.20499 -0.11675,-0.26064 -0.20117,-0.44336 -0.10252,0.002 -0.20143,-0.006 -0.30469,-0.002 z"
       id="path4824"
       inkscape:connector-curvature="0" />
    <path
       style="fill:#c80000;fill-opacity:1"
       d="m 441.88058,266.32338 c -0.0994,-0.006 -0.20082,0.002 -0.30469,0.0215 -0.41547,0.0791 -0.87252,0.36221 -1.42187,0.85937 -0.8395,0.75973 -2.92026,1.38086 -4.62305,1.38086 -1.70279,0 -3.09571,0.40655 -3.09571,0.9043 0,0.49775 -1.50587,2.25654 -3.3457,3.9082 -1.83984,1.65166 -3.76604,4.28067 -4.28125,5.8418 -0.51522,1.56113 -1.47697,2.83789 -2.13672,2.83789 -1.48148,0 -1.56168,1.8225 -0.14453,3.26758 0.84682,0.86352 0.56187,1.47105 -1.45117,3.08984 l -2.50586,2.01563 2.26367,2.36328 c 1.25706,1.3121 2.71703,4.23366 3.28125,6.5664 0.84728,3.50303 1.82088,4.90303 5.85742,8.41797 2.66324,2.31909 4.87677,4.45646 4.91797,4.74805 0.0413,0.29159 -1.0185,0.98332 -2.35547,1.53711 -5.43194,2.24999 -10.15782,10.81053 -6.98828,12.66016 0.77379,0.45154 3.07114,0.83355 5.10352,0.84765 3.56752,0.0247 3.95911,-0.2488 11.38281,-7.89453 7.88036,-8.11606 11.80762,-10.37462 16.14063,-9.28711 1.52701,0.38325 2.36187,-0.50403 5.38086,-5.7168 4.58371,-7.91447 5.78069,-12.25228 4.60156,-16.66992 -0.82224,-3.08055 -0.72191,-3.4805 1.30273,-5.27148 l 2.19141,-1.9375 -3.375,-0.42188 c -3.20756,-0.40095 -3.35895,-0.55261 -3.10547,-3.08789 0.21726,-2.17307 -0.0956,-2.77559 -1.6875,-3.25976 -1.07425,-0.32673 -3.20584,-1.53277 -4.73633,-2.67969 -1.92469,-1.44233 -4.65376,-2.34413 -8.85351,-2.92578 -3.3396,-0.46251 -6.55411,-1.2406 -7.14258,-1.72852 -0.28881,-0.23947 -0.57083,-0.36995 -0.86914,-0.38672 z"
       id="path4152"
       inkscape:connector-curvature="0" />
  </g>
</svg>
