<?xml version="1.0" encoding="UTF-8" standalone="no"?>
<!--?xml version="1.0" standalone="no"?-->

<svg
   xmlns:dc="http://purl.org/dc/elements/1.1/"
   xmlns:cc="http://creativecommons.org/ns#"
   xmlns:rdf="http://www.w3.org/1999/02/22-rdf-syntax-ns#"
   xmlns:svg="http://www.w3.org/2000/svg"
   xmlns="http://www.w3.org/2000/svg"
   xmlns:sodipodi="http://sodipodi.sourceforge.net/DTD/sodipodi-0.dtd"
   xmlns:inkscape="http://www.inkscape.org/namespaces/inkscape"
   version="1.0"
   width="300.000000pt"
   height="291.000000pt"
   viewBox="0 0 300.000000 291.000000"
   preserveAspectRatio="xMidYMid meet"
   id="svg2"
   inkscape:version="0.91 r13725"
   sodipodi:docname="dinosaur-clipart-horror-bite.svg">
  <defs
     id="defs84" />
  <sodipodi:namedview
     pagecolor="#ffffff"
     bordercolor="#666666"
     borderopacity="1"
     objecttolerance="10"
     gridtolerance="10"
     guidetolerance="10"
     inkscape:pageopacity="0"
     inkscape:pageshadow="2"
     inkscape:window-width="1114"
     inkscape:window-height="770"
     id="namedview82"
     showgrid="false"
     inkscape:zoom="5.190378"
     inkscape:cx="331.21161"
     inkscape:cy="295.39135"
     inkscape:window-x="0"
     inkscape:window-y="25"
     inkscape:window-maximized="0"
     inkscape:current-layer="svg2" />
  <metadata
     id="metadata4">
    <rdf:rdf>
      <rdf:description
         dc:title="dinosaur clipart horror"
         dc:publisher="Hiox"
         dc:date="2015-06-29"
         dc:format="image/svg+xml"
         dc:language="en">
        <dc:creator>
          <rdf:bag>
            <rdf:li>svgimages.com</rdf:li>
          </rdf:bag>
        </dc:creator>
      </rdf:description>
    </rdf:rdf>
    <rdf:RDF>
      <cc:Work
         rdf:about="">
        <dc:format>image/svg+xml</dc:format>
        <dc:type
           rdf:resource="http://purl.org/dc/dcmitype/StillImage" />
        <dc:title></dc:title>
      </cc:Work>
    </rdf:RDF>
  </metadata>
  <path
     style="fill:#292929;stroke:none"
     inkscape:connector-curvature="0"
     d="m 238.6,0.9 c -0.4,0.5 -0.2,2.1 0.4,3.6 1.5,4 0.5,4.7 -5.6,3.9 -10,-1.2 -19.6,4.4 -26,15.2 -3.6,6.1 -6.4,18.4 -6.4,28 0,11.8 -1.6,17.9 -6.3,24.6 -6.4,9.1 -12,10.7 -46.5,12.8 -20.8,1.2 -27.8,3.1 -50.5,13.1 -10,4.5 -23.8,10.5 -30.7,13.4 -12.6,5.3 -36.6,13.5 -39.5,13.5 -4.4,0 1,-4.4 14.5,-11.8 4.1,-2.2 9.4,-5.7 11.7,-7.7 4.4,-3.8 5.8,-7.1 2.6,-6.1 -1,0.3 -7.6,2.1 -14.8,4.1 -24.2,6.7 -31.3,10.3 -38.3,19.5 -3.2,4.2 -3.4,4.7 -3,11.5 0.3,5.9 0.8,7.7 3.6,11.7 8.5,12.3 20.4,15.5 50.4,13.3 12.6,-0.9 20.8,0.1 28.5,3.5 3.6,1.6 4.6,2.8 7.1,8.2 1.9,4.1 4.7,8 8,11 l 5.1,4.8 -2.9,5.7 c -1.5,3.2 -4.1,10.2 -5.7,15.7 -2.6,9 -3.2,10.2 -7.2,13.5 C 77,234.2 76,235.5 76,240 c 0,2.4 0.4,5.9 0.9,7.9 3.3,12.7 5.6,37.2 3.6,37.7 -8.2,2.1 -12.5,3.6 -12.5,4.3 0,0.5 9,0.9 20,0.8 l 20.1,-0.1 -0.3,-3 c -0.3,-3.1 -0.3,-3.1 4.5,-3 3.9,0 4.7,-0.3 4.7,-1.8 0,-2.1 1.1,-2.3 2.8,-0.6 1.6,1.6 2.9,-1.9 1.5,-4.1 -1.9,-3 -8.6,-6.1 -13.4,-6.1 -5.5,0 -7.4,-1.6 -5.3,-4.4 2.1,-3 1.7,-5.9 -1.6,-10.4 -3.8,-5.3 -3.9,-9.3 -0.2,-16 2.3,-4.1 4.4,-6.1 12,-11.1 8.7,-5.8 18.4,-14.3 22.8,-20.2 1.3,-1.7 3.3,-2.8 5.9,-3.2 l 4,-0.6 3.7,6.8 c 5.3,9.9 6,17.3 2.3,26.1 -3.4,8.1 -3,12.2 2,19.4 3.5,5.2 3.6,5.3 2.6,11.2 -0.6,4.2 -0.6,6.6 0.2,8.3 1.7,3.5 3.4,3.6 4.2,0.3 0.3,-1.7 1.4,-3.7 2.4,-4.6 1.8,-1.6 2,-1.5 4,1 1.1,1.5 2.1,3 2.1,3.5 0,0.4 0.3,1.4 0.6,2.2 0.4,1.2 -0.6,1.7 -4.5,2.2 -5.2,0.7 -7,1.8 -5,3 1.2,0.8 38.9,1.5 38.9,0.8 0,-0.2 -0.5,-1.3 -1.1,-2.5 -1.4,-2.5 -0.4,-3.5 1.7,-1.7 1.6,1.3 1.7,1.1 1.2,-1.3 -0.4,-1.9 -0.1,-2.5 0.9,-2.1 0.9,0.4 1.3,-0.4 1.3,-2.3 0,-4 -6.3,-9.1 -12.1,-10 -5.5,-0.8 -8.7,-2.4 -12,-6.1 -4.3,-4.6 -5.2,-7.2 -5.7,-16.8 -0.4,-8.6 -0.2,-9.6 4.2,-23 5.1,-15.4 5.6,-20.4 3,-29.6 l -1.6,-5.8 5.7,-6.4 c 6.4,-7.3 14.6,-14.7 25,-22.7 3.9,-2.9 8.9,-7.2 11.3,-9.4 l 4.2,-4 0,4.2 c 0,3.1 -0.5,4.5 -2,5.4 -3.2,2 -2.4,2.8 3,2.7 4.3,-0.1 5.4,-0.6 7.5,-3.1 3.5,-4.2 3.2,-8 -1,-12.7 -4.1,-4.5 -4.2,-5 -1.2,-4.4 1.5,0.3 3.6,-0.6 6.1,-2.6 2.1,-1.7 4.2,-2.9 4.6,-2.6 1.3,0.8 -0.2,5.5 -2.1,6.6 -1.1,0.5 -1.9,1.4 -1.9,1.9 0,1.6 3.1,1.1 6.5,-1 l 3.3,-2.1 -0.5,2.2 c -0.5,1.9 -0.4,2 1.6,1 2.3,-1.3 4.1,-4.9 4.1,-8.2 0,-2.2 -5.2,-7.5 -8.1,-8.2 -1,-0.3 -3,0.1 -4.5,0.9 -1.4,0.8 -2.9,1.4 -3.2,1.4 -0.2,0 -0.2,-2.4 0.1,-5.3 0.6,-4.5 0.3,-5.8 -1.7,-8.7 -2.4,-3.6 -5.6,-15.5 -5.6,-21.1 0,-5.7 3.5,-11.4 8.3,-13.4 2.3,-0.9 5.6,-2.3 7.3,-3 5.1,-2.2 27.48059,-4.757723 34.61321,-3.252492 3.16353,0.601721 7.04804,0.803202 8.7867,0.337328 5.216,-1.397623 6.96648,-10.374736 6.05627,-14.828472 -0.91021,-4.453736 -1.12715,-5.520282 -6.07657,-4.360903 -2.80656,-6.746554 -2.10104,-1.080797 -2.59587,-0.761599 -2.20501,-0.493912 -4.63446,-0.789343 -7.02587,-1.095248 -2.07957,-4.228672 -2.57115,-3.031793 -2.60857,-0.351948 -3.66724,-0.538495 -8.74445,-1.729532 -10.71789,-3.51806 C 249.77686,42.88662 265.03663,41.370683 269,43 c 1,0.5 3.5,1.1 5.4,1.2 2,0.2 3.6,0.6 3.6,1 0,1 4.3,0.6 5.8,-0.5 0.8,-0.7 1.2,-0.4 1.2,0.9 0,1.3 0.3,1.5 1.1,0.7 0.6,-0.6 1.8,-0.9 2.5,-0.6 0.8,0.3 1.4,0 1.4,-0.6 0,-0.6 0.7,-1.1 1.5,-1.1 0.8,0 2.2,-1.5 3.1,-3.3 0.9,-1.7 2.5,-4.3 3.5,-5.6 2.6,-3.3 2.5,-11 -0.1,-14.4 -1.1,-1.4 -3.6,-3.2 -5.5,-3.8 -1.9,-0.7 -3.5,-1.6 -3.5,-2 0,-1.7 -7.2,-3.9 -12.6,-3.7 -8.2,0.1 -16.9,-1.9 -20.3,-4.8 -5.8,-4.8 -16,-8 -17.5,-5.5 z m 13.1,6.7 c 4.8,2.5 9.4,4 15.8,5 9.6,1.6 20.9,4.7 20,5.6 -0.7,0.7 2,5.9 3.7,6.9 1.8,1.2 4.8,1.1 4.8,-0.1 0,-0.6 -0.9,-1 -1.9,-1 -1.1,0 -2.3,-0.5 -2.6,-1 -0.4,-0.6 -0.3,-0.9 0.2,-0.8 2,0.7 1.3,-1.8 -0.8,-2.9 -1.7,-0.9 -1.9,-1.3 -0.7,-1.3 2.4,0 7.5,4.6 8.2,7.5 1.1,4.5 -1.8,9.3 -7.1,11.7 -4.2,1.8 -5.9,2 -15.4,1.5 -8,-0.5 -15.6951,-2.396501 -18.88773,-0.402234 -4.51211,2.865458 -4.46847,2.666285 -5.56847,1.566285 C 251.0438,39.564051 250,38.6 251.2,37.3 c 1.2,-1.3 1.7,-2.3 1.1,-2.3 -0.6,0 -1.6,0.6 -2.3,1.4 -0.6,0.8 -2.8,1.6 -4.8,1.8 -3,0.3 -3.3,0.5 -1.7,1.2 5.7,2.2 11.18343,2.758527 14.52999,5.588812 2.04417,1.833401 4.61614,3.318325 5.65971,3.349284 1.14016,0.0051 3.38376,-0.777603 5.35028,0.76602 4.69379,3.608103 -0.15104,2.077834 7.64894,1.437223 3.6585,-0.2556 16.85864,8.196893 17.4003,8.672917 0.98673,0.977938 -3.19213,7.79168 -5.12398,8.309318 -0.77274,0.207056 -4.97291,-0.01337 -9.3732,-0.594288 -5.97859,-0.67565 -9.66297,-0.516642 -14.20283,0.699808 C 255.82655,70.191402 239.7,63.7 236.9,56.7 c -0.7,-1.8 -2.6,-4.7 -4.3,-6.5 -3.7,-4 -3.8,-7.4 -0.2,-16 2.7,-6.3 3.4,-10.8 1.6,-9.7 -0.5,0.3 -1,1.6 -1,2.8 0,1.2 -1.1,4.6 -2.5,7.5 -3.6,7.8 -3.3,12.3 1,17.1 1.9,2.1 3.5,4.7 3.5,5.7 0,0.9 2.1,3.7 4.6,6.1 2.7,2.5 4,4.3 3.2,4.3 -0.9,0 -2.2,0.7 -2.9,1.6 -1.2,1.5 -1.1,1.6 0.9,1 6.3,-1.8 6.7,-1.8 5.6,-0.7 -1.8,1.9 -8.3,2.6 -8.9,1 -1.9,-5.5 -2.8,-7.3 -3.2,-6.3 -0.2,0.6 0.3,3 1.1,5.3 0.9,2.7 1,4.1 0.3,3.8 -1.1,-0.3 -2.2,-2.1 -3.2,-5.1 -1,-3.3 -1.4,-1.2 -0.5,2.9 0.7,3.2 0.5,4.4 -1.3,6.9 -2.6,3.7 -3.4,12.2 -1.7,19.7 0.6,3 1.3,9.4 1.6,14.4 0.4,7.6 0.1,10 -1.8,15.5 l -2.3,6.5 -4.2,0.3 -4.2,0.3 2.4,-4.3 c 3.3,-6.1 3.9,-10.5 2.1,-15.8 -0.9,-2.5 -1.6,-5.3 -1.6,-6.3 0,-0.9 -0.4,-1.7 -0.9,-1.7 -2,0 -2.1,2 -0.4,4.7 2.6,3.9 2.4,12.9 -0.4,17.3 l -2.2,3.5 0.6,-3.7 c 0.5,-3.7 -0.3,-9.5 -1.3,-8.5 -0.3,0.3 -0.6,3.3 -0.7,6.7 -0.2,5.2 -0.6,6.5 -2.6,8.1 -1.3,1 -1.8,1.9 -1.2,1.9 0.6,0 1.1,0.8 1.1,1.7 0.1,1.7 0.1,1.7 1.1,0 0.8,-1.3 2.4,-1.7 7.5,-1.7 5.9,0 6.8,0.3 9.5,2.9 2.9,2.9 4.2,9.1 1.9,9.1 -0.5,0 -1,-1.1 -1,-2.5 0,-1.4 -0.6,-2.5 -1.3,-2.5 -0.9,0 -1.2,0.9 -0.9,2.9 0.2,1.6 -0.1,3.2 -0.8,3.6 -1.6,1 -2,0.3 -2.2,-4.4 -0.2,-5.1 -2.2,-6.7 -6.5,-5 -9.6,3.8 -10.7,3.1 -11.7,-7.1 -0.9,-8.4 -0.3,-10.5 3.2,-12.5 1.7,-0.9 2.1,-1.4 1.1,-1.5 -2.9,0 -6.8,3.9 -7.1,7.3 -0.4,3.2 -0.4,3.1 -1.6,-1.3 l -1.1,-4.5 0.3,4.8 c 0.2,2.6 1.1,5.6 2,6.6 2.5,2.8 1.9,3.7 -0.9,1.1 -1.4,-1.3 -2.7,-2.1 -3,-1.8 -0.3,0.3 0.9,1.8 2.6,3.3 1.8,1.5 3.4,3.8 3.5,5.2 0.2,1.5 1,3.3 1.9,4.2 1.4,1.4 2,1.4 6.2,-0.1 2.6,-0.9 4.9,-1.5 5.1,-1.3 0.2,0.2 -2.4,2.5 -5.9,5.2 -3.5,2.6 -9.2,7.3 -12.8,10.4 -8.6,7.3 -9.9,7.9 -16.5,7.9 -3.1,0 -5.6,0.4 -5.6,1 0,0.5 2.3,1 5.1,1 3.5,0 4.9,0.4 4.7,1.2 -0.6,1.6 -7.4,3.1 -11.6,2.4 -1.9,-0.3 -3,-0.1 -2.7,0.5 0.4,0.5 2.6,0.9 5.1,0.9 4.8,0 5.2,0.4 2.7,3.2 -1.1,1.3 -3.1,1.8 -6.7,1.8 -3.7,0 -4.7,0.3 -3.6,1 0.8,0.5 2.5,1 3.8,1 1.2,0 2.2,0.2 2.2,0.5 0,1.2 -10.4,13.1 -12.4,14.2 -4.6,2.7 -17.5,7.2 -22.4,7.9 l -5.2,0.7 2,-4.9 c 1.2,-2.6 4.1,-7 6.6,-9.6 7.2,-7.7 8.8,-12.2 9.2,-26.4 0.3,-10 0,-13.6 -1.7,-20.4 -2.4,-8.9 -8.1,-22.2 -8.8,-20.3 -0.2,0.6 0.3,2.5 1.1,4.1 3.2,6.1 6.7,20.8 7.3,30.2 0.9,15.2 -1.7,23.9 -9.8,32.7 -2.2,2.4 -5.1,6.9 -6.5,10 -3.2,7.4 -7.3,13.3 -9.1,13.3 -0.8,0 -2.8,-1.3 -4.4,-2.9 -2.1,-2.1 -2.9,-3.9 -2.9,-6.5 0,-1.9 -0.5,-3.8 -1.2,-4.2 -0.8,-0.5 -0.9,0.5 -0.5,4 0.8,5.3 3,9.2 5.8,10.1 1,0.4 1.9,1 1.9,1.5 0,1.5 -8.9,8.8 -17.4,14.2 -10.2,6.6 -14.6,13 -14.6,21.2 0,4 0.4,5.4 2,6.4 1.1,0.7 2,1.9 2,2.7 0,1.8 -1.2,1.9 -2.9,0.2 -1.1,-1 -1.3,-0.5 -0.8,2.8 0.5,2.7 0.3,3.5 -0.3,2.5 -0.5,-0.8 -1,-2.3 -1,-3.3 0,-0.9 -0.4,-1.7 -1,-1.7 -1.3,0 -1.3,1.2 0,4.4 0.6,1.6 0.6,2.7 0,3.1 -0.6,0.4 -1,1.1 -1,1.6 0,0.6 0.5,0.7 1.1,0.3 0.8,-0.4 0.9,0 0.4,1.5 -0.5,1.7 -0.3,2 1.1,1.4 1.3,-0.5 1.5,-0.2 1,1.5 -0.6,1.7 -0.3,1.9 1.5,1.5 1.8,-0.5 2.1,-0.3 1.6,1 -0.4,1 -0.2,1.7 0.3,1.7 0.6,0 1,-0.5 1,-1 0,-1.2 4,-1.3 5.7,-0.2 0.6,0.4 0.9,1.9 0.6,3.5 -0.6,3.3 -4.1,3.7 -6.7,0.8 -1,-1.1 -2.8,-2.2 -4,-2.5 C 93.5,277.8 92,274 92,267 c 0,-3.3 -0.4,-6 -1,-6 -0.5,0 -1,1.1 -1,2.5 0,1.4 -0.4,2.5 -1,2.5 -0.5,0 -1,0.5 -1,1 0,0.6 0.3,0.9 0.8,0.9 2.2,-0.4 2.3,0.4 0.1,2.7 l -2.4,2.6 2.3,-0.6 c 1.6,-0.5 2.2,-0.3 2.2,0.8 0,0.8 -0.4,1.8 -1,2.1 -1.6,1 -1.2,2.5 0.6,1.8 1.2,-0.4 1.4,0 0.9,2.3 -0.3,1.6 -0.2,2.3 0.1,1.6 0.8,-1.6 3.6,-1.5 5.9,0.2 1.6,1.2 1.7,1.7 0.6,4.5 -1.1,2.5 -1.9,3.1 -4.3,3.1 -3.9,0 -8.5,-2.8 -9.8,-6 -0.6,-1.4 -1,-5 -0.8,-8 0.1,-3 -0.3,-7.8 -1,-10.5 -1.7,-7.8 -3.4,-17.5 -3.9,-22.8 -0.5,-4.5 -0.3,-5 3.2,-8 11.2,-9.6 12.2,-11 14.5,-18.7 3.2,-11.1 4.7,-14.5 9.1,-21.9 2.2,-3.6 4.2,-7.6 4.5,-8.8 0.3,-1.2 -0.5,-5 -1.9,-8.5 -1.4,-3.5 -3.1,-9.5 -3.9,-13.3 l -1.3,-7 -0.5,4.9 c -0.4,4.4 -0.6,4.8 -1.9,3.2 -0.8,-0.9 -2.4,-2.2 -3.5,-2.8 -1.3,-0.7 -0.5,0.7 1.9,3.3 2.4,2.6 5.2,7.4 6.9,11.7 2.6,6.8 2.7,7.4 1.2,9.7 -0.9,1.4 -2.2,2.5 -2.8,2.5 -2.9,0 -10.4,-9.7 -13.2,-17 -2.8,-7.3 -6.7,-13.6 -5.1,-8.1 0.6,2.1 0.5,2.3 -1.1,1.6 -7.8,-3.2 -11.4,-3.7 -22.9,-3.4 -33.3,0.8 -37.6,0.6 -43.6,-2.2 -3.1,-1.5 -7.2,-4.2 -9.1,-6.2 -3.7,-3.6 -6.8,-11 -6.8,-15.9 0,-3.5 2.1,-8.9 4.3,-10.6 1.3,-1.1 1.2,-0.3 -0.5,3.7 -1.2,2.8 -1.9,5.3 -1.6,5.7 1,1 4.3,-1.3 5.7,-3.9 1.5,-2.9 5.4,-5.2 7,-4.3 1.8,1.2 1.3,2.3 -1.4,3 -1.3,0.3 -3,1.6 -3.6,2.8 -1.2,2.3 -1.5,11.4 -0.4,14.8 0.9,2.8 2.8,2 3.6,-1.6 0.8,-3.5 4.1,-9.9 6.5,-12.5 2.9,-3.3 4.2,-2.4 3.7,2.6 -0.4,2.9 0,5.6 1,7.7 0.8,1.8 1.7,4.2 1.9,5.2 0.7,4.3 2.4,2.1 5.1,-6.7 4.5,-14.6 3.9,-13.8 11.5,-16.1 1.9,-0.7 2.2,-0.4 2.2,2.3 0,2.6 1.2,9 2.7,14.1 0.6,2 4.3,-2.4 4.3,-5.2 0,-1.1 1,-3.4 2.2,-5.1 1.2,-1.7 2.7,-5.1 3.4,-7.6 0.9,-3.7 1.7,-4.8 4.3,-5.8 l 3.1,-1.3 -0.1,3.7 c 0,2.1 -0.4,6 -0.8,8.6 -0.4,2.6 -0.5,5 0,5.2 1.8,1.2 3.9,-1.3 10.9,-13 l 7.5,-12.4 6.4,-2.8 c 3.6,-1.5 6.8,-2.9 7.3,-3.1 0.4,-0.2 -1.5,6.1 -4.2,13.9 -4.9,14 -5.3,18.1 -1.5,14.9 1.4,-1.2 1.4,-1 0.5,1.4 -2.3,6.1 -0.2,7.7 3,2.3 2.4,-3.9 2.7,-7.2 0.5,-6.3 -0.8,0.3 -1.5,0.3 -1.5,0.1 0,-0.7 8.3,-13.1 13.4,-20 2.4,-3.3 5.3,-7.9 6.5,-10.2 1.5,-3 3,-4.4 5.6,-5.3 6.9,-2.3 7,-1.4 1.5,9.8 -7.4,15.3 -6.9,15.7 5.2,3.9 4.7,-4.5 10,-10.3 11.8,-13 2.7,-3.8 3.9,-4.7 6.3,-4.7 2.9,0 2.9,0.1 2.2,3.7 -0.4,2.1 -1,6.3 -1.5,9.3 -0.4,3 -1,6.3 -1.5,7.2 -0.5,1.3 -0.3,1.8 0.8,1.8 2.3,0 9.9,-9 13.2,-15.8 2.2,-4.6 3.5,-6.1 5.1,-6.2 2.8,0 4.9,7 3.9,12.8 -0.6,4 0.2,5.7 2.2,4.4 2,-1.3 5.2,-8.9 5.9,-14.1 0.4,-3.1 1.2,-5.1 1.9,-5.1 0.8,0 2,-0.2 2.7,-0.5 0.9,-0.4 3.6,1.6 6.7,4.6 6.3,6.2 7.4,5.6 6.4,-4 -0.7,-7 -0.8,-6.9 5.6,-2.4 l 2.3,1.7 -0.7,-3.4 c -0.4,-1.9 -1.3,-4.2 -2.1,-5.1 -0.8,-0.8 -1.4,-1.9 -1.4,-2.3 0,-0.9 3.2,-0.4 6.3,0.9 2.4,1 2.1,-0.8 -0.7,-4.2 -3.3,-3.9 -2.2,-5.6 3.2,-4.7 5.1,0.8 5.3,-0.2 0.7,-4.6 -2.8,-2.7 -3.5,-4.2 -3.5,-7.1 l 0,-3.8 3.2,1 c 1.8,0.5 3.6,0.9 4,0.9 1.9,0 0.5,-2.7 -3.2,-6.5 -2.7,-2.8 -3.9,-4.7 -3.5,-5.8 0.5,-1.2 1.2,-1.4 3.2,-0.6 5.3,2 5.7,0.2 1.4,-5.8 -3.4,-4.8 -2.9,-6.9 1.4,-5.3 4.2,1.6 5.1,-0.2 2,-3.8 -2.4,-2.8 -2.5,-3.4 -1.2,-5.2 l 1.4,-2 2.6,2 c 3.2,2.5 4.4,1.1 2.6,-3.1 -1,-2.6 -1,-3.3 0.5,-4.7 1.5,-1.6 1.8,-1.5 4,1.2 2.6,3.3 4,2.4 3.4,-2.2 -0.4,-3.8 3.3,-4.4 5,-0.7 1.3,2.8 3.2,2.5 3.2,-0.5 0,-1.4 0.9,-2 3.8,-2.2 3.2,-0.3 3.8,-0.7 4.7,-3.6 C 242,5.5 243,4 243.6,4 c 0.7,0 4.3,1.6 8.1,3.6 z M 52.9,107.9 c -3.9,3 -10.8,7.1 -11.9,7.1 -0.6,0 -1,-1.2 -0.8,-2.6 0.3,-2.3 1.2,-2.9 5.8,-4.4 3,-1 6.3,-1.8 7.4,-1.9 1.6,-0.1 1.6,0.1 -0.5,1.8 z m 182.1,8.9 c -0.1,3.8 -0.7,6.8 -2.1,9.2 -1.1,1.9 -1.7,2.6 -1.3,1.5 0.3,-1.1 0.9,-5.5 1.2,-9.7 0.5,-8.9 2.2,-9.6 2.2,-1 z M 35,116.5 c 0,3.7 -2.5,3.7 -4.3,0 -1.5,-3.1 -1.5,-3.4 0.1,-3.8 2.4,-0.5 4.2,1.1 4.2,3.8 z m -10.2,5.7 c 0.3,4.1 -1.1,5 -2.8,1.8 -1,-1.9 -5.3,-3.7 -7.7,-3.2 -2.1,0.5 -1.4,-0.8 1,-1.8 1.2,-0.5 3.8,-0.8 5.7,-0.7 3.3,0.2 3.5,0.4 3.8,3.9 z m 222.9,3.4 c 3.1,2.3 4.6,6.4 2.3,6.4 -0.5,0 -1,-1.2 -1,-2.6 0,-1.4 -0.4,-2.3 -1,-1.9 -0.5,0.3 -1,1.9 -1,3.6 0,1.9 -0.5,2.9 -1.5,2.9 -1,0 -1.5,-1 -1.5,-3.4 0,-1.9 -0.4,-3.7 -0.8,-4 -0.4,-0.2 -2.8,1.1 -5.1,3 -4.7,3.6 -7.1,4.3 -7.1,1.9 0,-0.8 0.4,-1.5 0.8,-1.5 0.5,0 1.4,-1 2,-2.3 0.6,-1.2 1.1,-1.6 1.1,-0.9 0.1,1 0.9,0.8 2.9,-0.6 2.3,-1.7 4.7,-2.8 6.1,-3.1 0.2,-0.1 1.9,1 3.8,2.5 z M 178,192.2 c 0,1 -0.6,1.8 -1.3,1.8 -0.7,0 -3.1,1.8 -5.2,4 -2.1,2.2 -3.4,4 -2.9,4 0.6,0 2.1,-1.2 3.5,-2.6 3.5,-3.8 6,-4.9 7,-3.3 0.5,0.8 0.9,1.7 0.9,2.1 0,1.2 -6.7,4.8 -9.1,4.8 -2.1,0.1 -2.2,0.2 -0.7,1.1 1.3,0.7 2.8,0.4 5.8,-1.1 3.9,-2 4,-2 4,-0.1 0,2.4 -2.1,4.1 -6.3,5.1 l -3.2,0.8 3.8,0.1 c 2,0.1 3.7,0.6 3.7,1.2 0,0.7 -1.4,5.5 -3.1,10.8 -3.7,11.2 -4.8,22.6 -2.9,30.8 0.9,4.4 2.1,6.5 5.6,9.8 2.4,2.4 4.4,4.9 4.4,5.7 0,0.7 -1.5,-0.2 -3.2,-2.1 -2.6,-3 -3.2,-3.2 -4,-1.8 -0.5,1 -1.6,1.7 -2.4,1.7 -0.8,0 -1.3,0.4 -0.9,0.9 0.3,0.5 0.1,1.2 -0.5,1.6 -1.9,1.2 -1,2.6 1.1,2 2,-0.7 2.1,-0.5 1.5,2.5 -0.5,2.7 -0.4,3.1 0.8,2.1 1.9,-1.6 3,0.3 1.6,2.9 -1.1,2 0.3,3 1.5,1 0.3,-0.6 1.3,-1 2.1,-1 1.1,0 1.3,0.6 0.9,2 -0.6,1.9 -0.6,1.9 2.4,0.2 3.6,-2 5.2,-0.9 4.4,3 -0.5,2.5 -1,2.8 -4.2,2.8 -6.1,-0.1 -8.9,-2 -12.4,-8.4 -3.9,-7 -6.3,-9 -7.8,-6.3 -0.8,1.4 -1.4,1.5 -3,0.7 -1.6,-0.9 -1.8,-1.8 -1.4,-4.3 0.5,-2.7 0,-4.2 -3,-8.5 -5,-7.3 -5.2,-9.7 -2,-18.5 2.1,-5.8 2.6,-8.8 2.3,-13.6 -0.3,-5.7 -0.2,-6 1.7,-5.4 1.4,0.4 0.7,-0.8 -2.3,-4.1 -3.8,-4.1 -6.2,-8.2 -6.2,-10.6 0,-0.4 1.2,-1.1 2.8,-1.5 1.5,-0.3 6.4,-2.4 10.9,-4.5 6.2,-2.9 8.9,-4.8 11,-7.8 2.8,-3.9 4.3,-3.9 4.3,0 z m -76.3,71 c -0.3,0.8 -0.6,0.5 -0.6,-0.6 -0.1,-1.1 0.2,-1.7 0.5,-1.3 0.3,0.3 0.4,1.2 0.1,1.9 z m -1.7,2.3 c 0,0.8 -0.2,1.5 -0.4,1.5 -0.2,0 -0.6,-0.7 -1,-1.5 -0.3,-0.8 -0.1,-1.5 0.4,-1.5 0.6,0 1,0.7 1,1.5 z m 76.6,2 c -0.6,2.4 0.9,3.6 1.6,1.3 0.8,-2.2 2.9,0.3 2.2,2.5 -0.5,1.8 -0.4,2 0.7,0.9 2.2,-2 4.1,-1.5 3.4,1 -0.6,2.1 -0.5,2.2 0.8,0.5 1.6,-2 3,-2.1 5.8,-0.7 1.6,0.9 1.7,1.4 0.7,3 -0.9,1.4 -1.6,1.6 -2.9,0.9 -1,-0.5 -3,-0.9 -4.4,-0.9 -3.8,0 -6,-1.5 -8.6,-5.6 -1.8,-3 -1.9,-3.8 -0.8,-4.5 2.1,-1.3 2.2,-1.1 1.5,1.6 z m 9.8,0.1 c 2.2,0.9 1,2.3 -1.4,1.7 -1.1,-0.3 -1.7,-0.9 -1.4,-1.4 0.6,-1.1 0.8,-1.1 2.8,-0.3 z M 99,269 c 0,0.5 -0.2,1 -0.4,1 -0.3,0 -0.8,-0.5 -1.1,-1 -0.3,-0.6 -0.1,-1 0.4,-1 0.6,0 1.1,0.4 1.1,1 z m 97,1.5 c 0,1.9 -1.7,1.9 -5,0 l -2.5,-1.4 3.8,-0.1 c 2.6,0 3.7,0.4 3.7,1.5 z m 4.6,4.2 c -0.8,0.8 -3.6,-0.5 -3.6,-1.7 0,-0.7 0.6,-0.7 2.1,0 1.1,0.7 1.8,1.4 1.5,1.7 z m -41.3,0.3 c -0.3,1.1 -0.9,2 -1.4,2 -1,0 -1.2,-2.4 -0.2,-3.3 1.3,-1.3 2.1,-0.7 1.6,1.3 z M 113,274.7 c 0,0.5 -0.4,1.4 -0.9,2.1 -0.6,1 -1.3,0.8 -3.2,-0.7 l -2.4,-2 3.3,-0.1 c 1.7,0 3.2,0.3 3.2,0.7 z m 5.1,3.2 2.3,1.8 -3.2,-0.5 c -1.8,-0.2 -3.2,-1 -3.2,-1.8 0,-1.9 1.3,-1.8 4.1,0.5 z m 79.5,-0.4 c 1.8,1.4 1.7,1.4 -1.3,1.5 -2.3,0 -3.3,-0.5 -3.3,-1.5 0,-1.9 2.1,-1.9 4.6,0 z m -85.2,2.5 c 3.5,1.3 3.3,2.8 -0.4,2.2 -1.7,-0.2 -3,-1 -3,-1.8 0,-1.7 0.1,-1.7 3.4,-0.4 z m 82.2,2.5 c 1.8,1.3 1.7,1.4 -1.8,1.5 -2.7,0 -3.8,-0.4 -3.8,-1.5 0,-1.9 3,-1.9 5.6,0 z m -89.3,4.5 c 0.5,0.4 -0.5,1.1 -2.3,1.5 -3.6,0.8 -4.5,0.3 -3.6,-2 0.6,-1.6 4,-1.3 5.9,0.5 z"
     id="node1"
     class="node"
     sodipodi:nodetypes="ccccsccccscccccccccccccccsccsccccsscscccccccccccccccscccsccccsccccccccccsccccscccsccccsccsccscccszcccccccscsscssccccscccccscsscccscccccsscsccccccscsccccsccscsccccccccccccccccccssccccsccsccscsssccccccccccccssccscsccssscccscscssccccccccccccssscccscscscccsscssccccccssccccsssssccccsccccccsccccsccsscccccsccsscccccscccccccccccccccscssccccsccccccccccsccccccscccscccscscccccccsccccsccsccccccccccccccsccsccscccccccccsccscccscccsscsssccsscccccsssscsscccscccscccsccscccccccscccccccccccccscccsccccsscsscccccccccscccccccsscssscccssscscsccsccccscccscccscccscccsccscc" />
  <path
     style="fill:#292929;stroke:none"
     inkscape:connector-curvature="0"
     d="m 246,8.5 c -0.8,0.9 -0.8,1.5 -0.2,1.5 1.2,0 2.6,-1.9 1.9,-2.6 -0.2,-0.2 -1,0.2 -1.7,1.1 z"
     id="node2"
     class="node" />
  <path
     style="fill:#292929;stroke:none"
     inkscape:connector-curvature="0"
     d="m 246.5,13 c -1.4,1.6 -2.6,1.9 -5.6,1.4 -2.6,-0.4 -3.9,-0.3 -3.9,0.5 0,0.6 0.3,1 0.8,1 3.4,-0.6 7.2,0.3 7.2,1.6 0,2.2 4,3.5 6.5,2.2 1.8,-0.9 1.9,-0.9 0.6,0.7 -1.5,1.8 -5.1,1.7 -7.5,-0.3 -2.6,-2.1 -1.8,0.1 1.3,3.9 1.6,1.9 3.3,3.1 3.7,2.7 0.4,-0.4 -0.1,-1.4 -1.2,-2.2 -1.8,-1.4 -1.8,-1.4 0.7,-1.5 1.6,0 3.6,-1.2 5.2,-3 3.1,-3.4 3.3,-4 1.3,-4 -0.7,0 -2.1,-1.1 -3,-2.5 -2,-3 -3.7,-3.2 -6.1,-0.5 z m 6,2.7 1.8,2.8 -2.7,-2.5 -2.7,-2.4 -0.6,2.2 c -0.6,2.5 -2.3,3 -2.3,0.7 0,-1.3 2.5,-3.4 4.1,-3.5 0.4,0 1.5,1.2 2.4,2.7 z"
     id="node3"
     class="node" />
  <path
     style="fill:#292929;stroke:none"
     inkscape:connector-curvature="0"
     d="m 266.5,19.9 c 7.1,2 8.8,3 7.5,4.6 -0.8,1 -3,1.5 -6.1,1.5 -2.6,0 -5.1,0.5 -5.5,1.1 -0.5,0.8 1.1,1 5.5,0.7 4.8,-0.3 6.7,-1 8.9,-3 1.5,-1.4 4.1,-3 5.7,-3.5 2.6,-0.9 2.1,-1 -3.5,-1 -3.6,0 -8.5,-0.2 -11,-0.6 -3.3,-0.5 -3.7,-0.4 -1.5,0.2 z"
     id="node4"
     class="node" />
  <path
     style="fill:#292929;stroke:none"
     inkscape:connector-curvature="0"
     d="m 285.7,22.7 c -0.4,0.3 -0.7,1.1 -0.7,1.7 0,0.6 0.5,0.5 1.2,-0.2 0.6,-0.6 0.9,-1.4 0.7,-1.7 -0.3,-0.3 -0.9,-0.2 -1.2,0.2 z"
     id="node5"
     class="node" />
  <path
     style="fill:#292929;stroke:none"
     inkscape:connector-curvature="0"
     d="m 220,25.1 c 0,1.7 2,4.9 3,4.9 1.4,0 1.2,-3.4 -0.2,-4.8 -1.5,-1.5 -2.8,-1.5 -2.8,-0.1 z"
     id="node6"
     class="node" />
  <path
     style="fill:#292929;stroke:none"
     inkscape:connector-curvature="0"
     d="m 215,37.3 c 0,1.9 4.7,6 5.9,5.2 1.2,-0.7 -0.3,-4.4 -2.3,-5.7 -1.8,-1.2 -3.6,-0.9 -3.6,0.5 z"
     id="node7"
     class="node" />
  <path
     style="fill:#292929;stroke:none"
     inkscape:connector-curvature="0"
     d="m 211,48.3 c 0,1.7 5.4,6.9 6.3,6 1.3,-1.2 0.7,-4 -1.1,-5.6 -2.2,-2 -5.2,-2.2 -5.2,-0.4 z"
     id="node8"
     class="node" />
  <path
     style="fill:#292929;stroke:none"
     inkscape:connector-curvature="0"
     d="m 211.4,60.5 c -0.4,0.9 0.4,2.3 1.7,3.5 2.7,2.2 3.9,2.5 3.9,0.9 0,-3.5 -4.6,-7.1 -5.6,-4.4 z"
     id="node9"
     class="node" />
  <path
     style="fill:#292929;stroke:none"
     inkscape:connector-curvature="0"
     d="m 208,77.8 c 0,2.6 3.7,5.9 5.1,4.5 0.8,-0.8 0.6,-1.8 -0.6,-3.7 -2,-3 -4.5,-3.4 -4.5,-0.8 z"
     id="node10"
     class="node" />
  <path
     style="fill:#292929;stroke:none"
     inkscape:connector-curvature="0"
     d="m 196.6,101.6 c -0.7,1.8 1.9,7.4 3.5,7.4 1.7,0 2.2,-2.9 0.9,-6 -1.3,-3.3 -3.4,-3.9 -4.4,-1.4 z"
     id="node11"
     class="node" />
  <path
     style="fill:#292929;stroke:none"
     inkscape:connector-curvature="0"
     d="m 180,107.9 c 0,4.9 5.1,11.4 7.2,9.3 1,-1 1,-1.7 0,-3.2 -0.6,-1.1 -1.2,-2.6 -1.2,-3.4 0,-1.6 -3.8,-6.6 -5.1,-6.6 -0.5,0 -0.9,1.8 -0.9,3.9 z"
     id="node12"
     class="node" />
  <path
     style="fill:#292929;stroke:none"
     inkscape:connector-curvature="0"
     d="m 164.1,115.3 c -2.1,2.7 0.5,15.7 3,14.2 1.4,-0.9 1.1,-11.9 -0.4,-13.9 -1.2,-1.6 -1.4,-1.6 -2.6,-0.3 z"
     id="node13"
     class="node" />
  <path
     style="fill:#292929;stroke:none"
     inkscape:connector-curvature="0"
     d="m 132.2,121.2 c -2.9,4.7 -3.8,8.8 -2,8.8 1.9,0 5.7,-5.3 6.4,-9 0.9,-4.2 -1.8,-4 -4.4,0.2 z"
     id="node14"
     class="node" />
  <path
     style="fill:#292929;stroke:none"
     inkscape:connector-curvature="0"
     d="m 109.7,123.2 c -1.9,2.9 -3.2,8.8 -2,8.8 1.9,0 7.5,-6.8 7.1,-8.6 -0.5,-2.8 -3.5,-2.9 -5.1,-0.2 z"
     id="node15"
     class="node" />
  <path
     style="fill:#292929;stroke:none"
     inkscape:connector-curvature="0"
     d="m 179.5,126.7 c 1.2,4.8 4,6.9 5.1,3.9 0.7,-1.8 -2.6,-6.5 -4.5,-6.6 -0.9,0 -1.1,0.8 -0.6,2.7 z"
     id="node16"
     class="node" />
  <path
     style="fill:#292929;stroke:none"
     inkscape:connector-curvature="0"
     d="m 121.1,132.6 c -1.2,1.5 -2.1,3 -2.1,3.5 0,0.4 -0.3,1.4 -0.6,2.3 -0.4,1 -0.1,1.6 1,1.6 1.6,0 6.6,-6.6 6.6,-8.7 0,-2.2 -2.8,-1.4 -4.9,1.3 z"
     id="node17"
     class="node" />
  <path
     style="fill:#292929;stroke:none"
     inkscape:connector-curvature="0"
     d="m 71.8,138.4 c -2.9,4.5 -3.8,10.1 -1.5,9.4 1.6,-0.6 5.6,-7.8 5.9,-10.8 0.5,-3.8 -1.5,-3.2 -4.4,1.4 z"
     id="node18"
     class="node" />
  <path
     style="fill:#292929;stroke:none"
     inkscape:connector-curvature="0"
     d="m 170.7,135.6 c -1,1.1 -0.8,7.4 0.2,7.4 1.3,0 2.5,-6 1.4,-7.1 -0.5,-0.5 -1.2,-0.6 -1.6,-0.3 z"
     id="node19"
     class="node" />
  <path
     style="fill:#292929;stroke:none"
     inkscape:connector-curvature="0"
     d="m 132.7,141 c -3,2.8 -4.6,5 -3.7,5 2.3,0 13,-7.1 13,-8.6 0,-2.9 -4.4,-1.2 -9.3,3.6 z"
     id="node20"
     class="node" />
  <path
     style="fill:#292929;stroke:none"
     inkscape:connector-curvature="0"
     d="m 181,138.5 c -1.4,3.6 -1.2,5.5 0.4,5.5 1.5,0 2.6,-2.1 2.6,-5 0,-3 -1.9,-3.3 -3,-0.5 z"
     id="node21"
     class="node" />
  <path
     style="fill:#292929;stroke:none"
     inkscape:connector-curvature="0"
     d="m 6,139.9 c 0,0.5 -0.3,1.6 -0.6,2.5 -0.4,1.1 -0.1,1.6 1,1.6 1,0 1.6,-0.9 1.6,-2.5 0,-1.4 -0.4,-2.5 -1,-2.5 -0.5,0 -1,0.4 -1,0.9 z"
     id="node22"
     class="node" />
  <path
     style="fill:#292929;stroke:none"
     inkscape:connector-curvature="0"
     d="m 58.4,140.1 c -0.4,0.6 -1,2.7 -1.4,4.5 -0.6,2.7 -0.5,3.4 0.7,3.4 1.6,0 4.7,-6.6 3.8,-8 -0.8,-1.3 -2.2,-1.3 -3.1,0.1 z"
     id="node23"
     class="node" />
  <path
     style="fill:#292929;stroke:none"
     inkscape:connector-curvature="0"
     d="m 39.1,143.8 c -1.7,3.3 -1.4,7.4 0.6,7 2.5,-0.5 3.9,-5.6 2,-7.5 -1.3,-1.4 -1.6,-1.3 -2.6,0.5 z"
     id="node24"
     class="node" />
  <path
     style="fill:#292929;stroke:none"
     inkscape:connector-curvature="0"
     d="m 20.2,145.2 c -0.7,0.7 -1.2,2.4 -1.2,4 0,3.4 2.7,2.8 3.6,-0.9 0.8,-2.9 -0.7,-4.8 -2.4,-3.1 z"
     id="node25"
     class="node" />
  <path
     style="fill:#292929;stroke:none"
     inkscape:connector-curvature="0"
     d="m 140.2,146 c -4,2.5 -4.3,4.5 -0.4,3.5 3.5,-0.8 5.9,-3.2 4.6,-4.5 -0.6,-0.6 -2.1,-0.3 -4.2,1 z"
     id="node26"
     class="node" />
  <path
     style="fill:#292929;stroke:none"
     inkscape:connector-curvature="0"
     d="m 137.7,160.7 c -2,1.6 -4.7,3.5 -5.9,4.5 -1.8,1.3 -2,1.9 -1.1,2.9 0.9,0.9 2.3,0.6 6.5,-1.6 6.6,-3.4 8.2,-4.9 7.5,-6.9 -0.9,-2.3 -2.9,-2 -7,1.1 z"
     id="node27"
     class="node" />
  <path
     style="fill:#292929;stroke:none"
     inkscape:connector-curvature="0"
     d="m 127.5,195.5 c 3.2,0.9 5.8,2.4 7.2,4.2 1.3,1.5 2.3,2.2 2.3,1.5 0,-0.8 -1.3,-2.7 -2.9,-4.3 -2.4,-2.4 -3.8,-2.9 -7.3,-2.8 l -4.3,0.1 5,1.3 z"
     id="node28"
     class="node" />
  <path
     style="fill:#292929;stroke:none"
     inkscape:connector-curvature="0"
     d="m 123.7,200.1 c 1,1.7 3,3.7 4.5,4.5 3.1,1.6 6.8,1.8 6.8,0.4 0,-0.6 -1.4,-1 -3,-1 -3,0 -8,-3.7 -8,-6 0,-0.5 -0.5,-1 -1.1,-1 -0.5,0 -0.2,1.4 0.8,3.1 z"
     id="node29"
     class="node" />
  <path
     style="fill:#292929;stroke:none"
     inkscape:connector-curvature="0"
     d="m 100,209.4 c 0,1.5 4.7,5.3 5.4,4.5 0.2,-0.2 -0.9,-1.7 -2.5,-3.2 -2.1,-2 -2.9,-2.4 -2.9,-1.3 z"
     id="node30"
     class="node" />
  <path
     style="fill:#292929;stroke:none"
     inkscape:connector-curvature="0"
     d="m 99,212.7 c 0,1.2 3.8,4.8 4.5,4.1 0.3,-0.2 -0.6,-1.5 -2,-2.8 -1.4,-1.3 -2.5,-1.9 -2.5,-1.3 z"
     id="node31"
     class="node" />
  <path
     style="fill:#292929;stroke:none"
     inkscape:connector-curvature="0"
     d="m 98,217.8 c 0,1.2 1.9,2.6 2.6,1.9 0.2,-0.2 -0.2,-1 -1.1,-1.7 -0.9,-0.8 -1.5,-0.8 -1.5,-0.2 z"
     id="node32"
     class="node" />
  <path
     style="fill:#292929;stroke:none"
     inkscape:connector-curvature="0"
     d="m 80,239.6 c 0,2.1 0.4,3.3 1,2.9 0.6,-0.3 1,-1.9 1,-3.6 0,-1.6 -0.4,-2.9 -1,-2.9 -0.5,0 -1,1.6 -1,3.6 z"
     id="node33"
     class="node" />
  <path
     style="fill:#292929;stroke:none"
     inkscape:connector-curvature="0"
     d="m 82.9,240.9 c -0.3,4.3 -0.2,4.9 0.9,3.4 1.4,-2 1.6,-5.2 0.3,-7.2 -0.6,-0.9 -1,0.3 -1.2,3.8 z"
     id="node34"
     class="node" />
  <path
     style="fill:#292929;stroke:none"
     inkscape:connector-curvature="0"
     d="m 90.8,245.7 c -2.8,0.7 -2.1,2.1 0.7,1.5 1.4,-0.2 2.2,-0.8 1.9,-1.3 -0.3,-0.5 -0.6,-0.8 -0.7,-0.8 -0.1,0.1 -1,0.3 -1.9,0.6 z"
     id="node35"
     class="node" />
  <path
     style="fill:#292929;stroke:none"
     inkscape:connector-curvature="0"
     d="m 90,249 c -1.2,0.8 -0.9,1 1.3,1 1.5,0 2.7,-0.5 2.7,-1 0,-1.3 -2,-1.3 -4,0 z"
     id="node36"
     class="node" />
  <path
     style="fill:#292929;stroke:none"
     inkscape:connector-curvature="0"
     d="m 83.1,252.7 c 0,1.6 0.7,5 1.5,7.8 l 1.3,5 -0.4,-4.9 c -0.3,-2.7 -0.5,-6.2 -0.5,-7.7 0,-1.6 -0.4,-2.9 -1,-2.9 -0.5,0 -1,1.2 -0.9,2.7 z"
     id="node37"
     class="node" />
  <path
     style="fill:#292929;stroke:none"
     inkscape:connector-curvature="0"
     d="m 90,253 c -1.2,0.8 -0.9,1 1.3,1 1.5,0 2.7,-0.5 2.7,-1 0,-1.3 -2,-1.3 -4,0 z"
     id="node38"
     class="node" />
  <path
     style="fill:#292929;stroke:none"
     inkscape:connector-curvature="0"
     d="m 90,257 c -1.2,0.8 -1.2,1 0.5,1 1.1,0 2.7,-0.5 3.5,-1 1.2,-0.8 1.2,-1 -0.5,-1 -1.1,0 -2.7,0.5 -3.5,1 z"
     id="node39"
     class="node" />
  <path
     style="fill:#292929;stroke:none"
     inkscape:connector-curvature="0"
     d="m 160.1,245.8 c -0.1,6.8 2,15.4 3.5,13.9 0.3,-0.3 0,-1.5 -0.6,-2.7 -0.6,-1.2 -1.5,-5.8 -1.9,-10.3 l -0.8,-8.2 -0.2,7.3 z"
     id="node40"
     class="node" />
  <path
     style="fill:#292929;stroke:none"
     inkscape:connector-curvature="0"
     d="m 165,243.9 c 0,0.4 1.1,0.6 2.5,0.3 1.4,-0.2 2.5,-0.6 2.5,-0.8 0,-0.2 -1.1,-0.4 -2.5,-0.4 -1.4,0 -2.5,0.4 -2.5,0.9 z"
     id="node41"
     class="node" />
  <path
     style="fill:#292929;stroke:none"
     inkscape:connector-curvature="0"
     d="m 153.4,246.3 c 0.3,1 0.6,2.8 0.6,3.8 0,1.1 0.5,1.7 1,1.4 1.5,-0.9 1.2,-2.8 -0.6,-5.1 -1.4,-1.7 -1.5,-1.7 -1,-0.1 z"
     id="node42"
     class="node" />
  <path
     style="fill:#292929;stroke:none"
     inkscape:connector-curvature="0"
     d="m 166.4,249.6 c -1.7,1.4 -1.7,1.5 -0.1,1 1,-0.3 2.3,-0.6 2.8,-0.6 0.5,0 0.9,-0.5 0.9,-1 0,-1.4 -1.3,-1.2 -3.6,0.6 z"
     id="node43"
     class="node" />
  <path
     style="fill:#292929;stroke:none"
     inkscape:connector-curvature="0"
     d="m 167.4,254.5 c -1,0.8 -1.4,1.5 -0.8,1.5 0.5,0 1.9,-0.7 3,-1.5 1,-0.8 1.4,-1.5 0.8,-1.5 -0.5,0 -1.9,0.7 -3,1.5 z"
     id="node44"
     class="node" />
  <path
     style="fill:#292929;stroke:none"
     inkscape:connector-curvature="0"
     d="m 169.4,258.4 c -1,0.8 -1.5,1.8 -1.1,2.2 0.4,0.4 1.7,-0.2 3,-1.4 2.4,-2.5 1.2,-3 -1.9,-0.8 z"
     id="node45"
     class="node" />
  <path
     sodipodi:nodetypes="ccsccccccccccccccsccsccccscccccccscscccscccsccccccsccccccccccsccccsscscccccccccccccccscccccssccscccccssccsccccsccccccsccccsssssccccssccccccsscsscccscscscccsssccccccccccccsscscscccsssccscsccssccccccccccccssscsccsccsccccssccccccccccccccccccscsccscccccscsccccccscssccccscccsscsccsccscccscccsccccscscccsccccscccsssccsssssccscccsccccccssccscccscsscsccscscccsccsccssscscscccccsccsscssscssscssscscccsccccsscssssccccccssccccsssscsscscccsscsscsscsssscccsscccssscsscccsssscscscsc"
     inkscape:connector-curvature="0"
     style="fill:#008000;stroke:none"
     d="m 241.5,7.2 c -0.9,2.9 -1.5,3.3 -4.7,3.6 -2.9,0.2 -3.8,0.8 -3.8,2.2 0,3 -1.9,3.3 -3.2,0.5 -1.7,-3.7 -5.4,-3.1 -5,0.7 0.6,4.6 -0.8,5.5 -3.4,2.2 -2.2,-2.7 -2.5,-2.8 -4,-1.2 -1.5,1.4 -1.5,2.1 -0.5,4.7 1.8,4.2 0.6,5.6 -2.6,3.1 l -2.6,-2 -1.4,2 c -1.3,1.8 -1.2,2.4 1.2,5.2 3.1,3.6 2.2,5.4 -2,3.8 -4.3,-1.6 -4.8,0.5 -1.4,5.3 4.3,6 3.9,7.8 -1.4,5.8 -2,-0.8 -2.7,-0.6 -3.2,0.6 -0.4,1.1 0.8,3 3.5,5.8 3.7,3.8 5.1,6.5 3.2,6.5 -0.4,0 -2.2,-0.4 -4,-0.9 l -3.2,-1 0,3.8 c 0,2.9 0.7,4.4 3.5,7.1 4.6,4.4 4.4,5.4 -0.7,4.6 -5.4,-0.9 -6.5,0.8 -3.2,4.7 2.8,3.4 3.1,5.2 0.7,4.2 -3.1,-1.3 -6.3,-1.8 -6.3,-0.9 0,0.4 0.6,1.5 1.4,2.3 0.8,0.9 1.7,3.2 2.1,5.1 l 0.7,3.4 -2.3,-1.7 c -6.4,-4.5 -6.3,-4.6 -5.6,2.4 1,9.6 -0.1,10.2 -6.4,4 -3.1,-3 -5.8,-5 -6.7,-4.6 -0.7,0.3 -1.9,0.5 -2.7,0.5 -0.7,0 -1.5,2 -1.9,5.1 -0.7,5.2 -3.9,12.8 -5.9,14.1 -2,1.3 -2.8,-0.4 -2.2,-4.4 1,-5.8 -1.1,-12.8 -3.9,-12.8 -1.6,0.1 -2.9,1.6 -5.1,6.2 -3.3,6.8 -10.9,15.8 -13.2,15.8 -1.1,0 -1.3,-0.5 -0.8,-1.8 0.5,-0.9 1.1,-4.2 1.5,-7.2 0.5,-3 1.1,-7.2 1.5,-9.3 0.7,-3.6 0.7,-3.7 -2.2,-3.7 -2.4,0 -3.6,0.9 -6.3,4.7 -1.8,2.7 -7.1,8.5 -11.8,13 -12.1,11.8 -12.6,11.4 -5.2,-3.9 5.5,-11.2 5.4,-12.1 -1.5,-9.8 -2.6,0.9 -4.1,2.3 -5.6,5.3 -1.2,2.3 -4.1,6.9 -6.5,10.2 -5.1,6.9 -13.4,19.3 -13.4,20 0,0.2 0.7,0.2 1.5,-0.1 2.2,-0.9 1.9,2.4 -0.5,6.3 -3.2,5.4 -5.3,3.8 -3,-2.3 0.9,-2.4 0.9,-2.6 -0.5,-1.4 -3.8,3.2 -3.4,-0.9 1.5,-14.9 2.7,-7.8 4.6,-14.1 4.2,-13.9 -0.5,0.2 -3.7,1.6 -7.3,3.1 l -6.4,2.8 -7.5,12.4 c -7,11.7 -9.1,14.2 -10.9,13 -0.5,-0.2 -0.4,-2.6 0,-5.2 0.4,-2.6 0.8,-6.5 0.8,-8.6 l 0.1,-3.7 -3.1,1.3 c -2.6,1 -3.4,2.1 -4.3,5.8 -0.7,2.5 -2.2,5.9 -3.4,7.6 -1.2,1.7 -2.2,4 -2.2,5.1 0,2.8 -3.7,7.2 -4.3,5.2 -1.5,-5.1 -2.7,-11.5 -2.7,-14.1 0,-2.7 -0.3,-3 -2.2,-2.3 -7.6,2.3 -7,1.5 -11.5,16.1 -2.7,8.8 -4.4,11 -5.1,6.7 -0.2,-1 -1.1,-3.4 -1.9,-5.2 -1,-2.1 -1.4,-4.8 -1,-7.7 0.5,-5 -0.8,-5.9 -3.7,-2.6 -2.4,2.6 -5.7,9 -6.5,12.5 -0.8,3.6 -2.7,4.4 -3.6,1.6 -1.1,-3.4 -0.8,-12.5 0.4,-14.8 0.6,-1.2 2.3,-2.5 3.6,-2.8 2.7,-0.7 3.2,-1.8 1.4,-3 -1.6,-0.9 -5.5,1.4 -7,4.3 -1.4,2.6 -4.7,4.9 -5.7,3.9 -0.3,-0.4 0.4,-2.9 1.6,-5.7 1.7,-4 1.8,-4.8 0.5,-3.7 -2.2,1.7 -4.3,7.1 -4.3,10.6 0,4.9 3.1,12.3 6.8,15.9 1.9,2 6,4.7 9.1,6.2 6,2.8 10.3,3 43.6,2.2 11.5,-0.3 15.1,0.2 22.9,3.4 1.6,0.7 1.7,0.5 1.1,-1.6 -1.6,-5.5 2.3,0.8 5.1,8.1 2.8,7.3 10.3,17 13.2,17 0.6,0 1.9,-1.1 2.8,-2.5 1.5,-2.3 1.4,-2.9 -1.2,-9.7 -1.7,-4.3 -4.5,-9.1 -6.9,-11.7 -2.4,-2.6 -3.2,-4 -1.9,-3.3 1.1,0.6 2.7,1.9 3.5,2.8 1.3,1.6 1.5,1.2 1.9,-3.2 l 0.5,-4.9 1.3,7 c 0.8,3.8 2.5,9.8 3.9,13.3 1.4,3.5 2.2,7.3 1.9,8.5 -0.3,1.2 -2.3,5.2 -4.5,8.8 -4.4,7.4 -5.9,10.8 -9.1,21.9 -2.3,7.7 -3.3,9.1 -14.5,18.7 -3.5,3 -3.7,3.5 -3.2,8 0.5,5.3 2.2,15 3.9,22.8 0.7,2.7 1.1,7.5 1,10.5 -0.2,3 0.2,6.6 0.8,8 1.3,3.2 5.9,6 9.8,6 2.4,0 3.2,-0.6 4.3,-3.1 1.1,-2.8 1,-3.3 -0.6,-4.5 -2.3,-1.7 -5.1,-1.8 -5.9,-0.2 -0.3,0.7 -0.4,0 -0.1,-1.6 0.5,-2.3 0.3,-2.7 -0.9,-2.3 -1.8,0.7 -2.2,-0.8 -0.6,-1.8 0.6,-0.3 1,-1.3 1,-2.1 0,-1.1 -0.6,-1.3 -2.2,-0.8 l -2.3,0.6 2.4,-2.6 c 2.2,-2.3 2.1,-3.1 -0.1,-2.7 -0.5,0 -0.8,-0.3 -0.8,-0.9 0,-0.5 0.5,-1 1,-1 0.6,0 1,-1.1 1,-2.5 0,-1.4 0.5,-2.5 1,-2.5 0.6,0 1,2.7 1,6 0,7 1.5,10.8 4.6,11.6 1.2,0.3 3,1.4 4,2.5 2.6,2.9 6.1,2.5 6.7,-0.8 0.3,-1.6 0,-3.1 -0.6,-3.5 -1.7,-1.1 -5.7,-1 -5.7,0.2 0,0.5 -0.4,1 -1,1 -0.5,0 -0.7,-0.7 -0.3,-1.7 0.5,-1.3 0.2,-1.5 -1.6,-1 -1.8,0.4 -2.1,0.2 -1.5,-1.5 0.5,-1.7 0.3,-2 -1,-1.5 -1.4,0.6 -1.6,0.3 -1.1,-1.4 0.5,-1.5 0.4,-1.9 -0.4,-1.5 -0.6,0.4 -1.1,0.3 -1.1,-0.3 0,-0.5 0.4,-1.2 1,-1.6 0.6,-0.4 0.6,-1.5 0,-3.1 -1.3,-3.2 -1.3,-4.4 0,-4.4 0.6,0 1,0.8 1,1.7 0,1 0.5,2.5 1,3.3 0.6,1 0.8,0.2 0.3,-2.5 -0.5,-3.3 -0.3,-3.8 0.8,-2.8 1.7,1.7 2.9,1.6 2.9,-0.2 0,-0.8 -0.9,-2 -2,-2.7 -1.6,-1 -2,-2.4 -2,-6.4 0,-8.2 4.4,-14.6 14.6,-21.2 8.5,-5.4 17.4,-12.7 17.4,-14.2 0,-0.5 -0.9,-1.1 -1.9,-1.5 -2.8,-0.9 -5,-4.8 -5.8,-10.1 -0.4,-3.5 -0.3,-4.5 0.5,-4 0.7,0.4 1.2,2.3 1.2,4.2 0,2.6 0.8,4.4 2.9,6.5 1.6,1.6 3.6,2.9 4.4,2.9 1.8,0 5.9,-5.9 9.1,-13.3 1.4,-3.1 4.3,-7.6 6.5,-10 8.1,-8.8 10.7,-17.5 9.8,-32.7 -0.6,-9.4 -4.1,-24.1 -7.3,-30.2 -0.8,-1.6 -1.3,-3.5 -1.1,-4.1 0.7,-1.9 6.4,11.4 8.8,20.3 1.7,6.8 2,10.4 1.7,20.4 -0.4,14.2 -2,18.7 -9.2,26.4 -2.5,2.6 -5.4,7 -6.6,9.6 l -2,4.9 5.2,-0.7 c 4.9,-0.7 17.8,-5.2 22.4,-7.9 2,-1.1 12.4,-13 12.4,-14.2 0,-0.3 -1,-0.5 -2.2,-0.5 -1.3,0 -3,-0.5 -3.8,-1 -1.1,-0.7 -0.1,-1 3.6,-1 3.6,0 5.6,-0.5 6.7,-1.8 2.5,-2.8 2.1,-3.2 -2.7,-3.2 -2.5,0 -4.7,-0.4 -5.1,-0.9 -0.3,-0.6 0.8,-0.8 2.7,-0.5 4.2,0.7 11,-0.8 11.6,-2.4 0.2,-0.8 -1.2,-1.2 -4.7,-1.2 -2.8,0 -5.1,-0.5 -5.1,-1 0,-0.6 2.5,-1 5.6,-1 6.6,0 7.9,-0.6 16.5,-7.9 3.6,-3.1 9.3,-7.8 12.8,-10.4 3.5,-2.7 6.1,-5 5.9,-5.2 -0.2,-0.2 -2.5,0.4 -5.1,1.3 -4.2,1.5 -4.8,1.5 -6.2,0.1 -0.9,-0.9 -1.7,-2.7 -1.9,-4.2 -0.1,-1.4 -1.7,-3.7 -3.5,-5.2 -1.7,-1.5 -2.9,-3 -2.6,-3.3 0.3,-0.3 1.6,0.5 3,1.8 2.8,2.6 3.4,1.7 0.9,-1.1 -0.9,-1 -1.8,-4 -2,-6.6 l -0.3,-4.8 1.1,4.5 c 1.2,4.4 1.2,4.5 1.6,1.3 0.3,-3.4 4.2,-7.3 7.1,-7.3 1,0.1 0.6,0.6 -1.1,1.5 -3.5,2 -4.1,4.1 -3.2,12.5 1,10.2 2.1,10.9 11.7,7.1 4.3,-1.7 6.3,-0.1 6.5,5 0.2,4.7 0.6,5.4 2.2,4.4 0.7,-0.4 1,-2 0.8,-3.6 -0.3,-2 0,-2.9 0.9,-2.9 0.7,0 1.3,1.1 1.3,2.5 0,1.4 0.5,2.5 1,2.5 2.3,0 1,-6.2 -1.9,-9.1 -2.7,-2.6 -3.6,-2.9 -9.5,-2.9 -5.1,0 -6.7,0.4 -7.5,1.7 -1,1.7 -1,1.7 -1.1,0 0,-0.9 -0.5,-1.7 -1.1,-1.7 -0.6,0 -0.1,-0.9 1.2,-1.9 2,-1.6 2.4,-2.9 2.6,-8.1 0.1,-3.4 0.4,-6.4 0.7,-6.7 1,-1 1.8,4.8 1.3,8.5 l -0.6,3.7 2.2,-3.5 c 2.8,-4.4 3,-13.4 0.4,-17.3 -1.7,-2.7 -1.6,-4.7 0.4,-4.7 0.5,0 0.9,0.8 0.9,1.7 0,1 0.7,3.8 1.6,6.3 1.8,5.3 1.2,9.7 -2.1,15.8 l -2.4,4.3 4.2,-0.3 4.2,-0.3 2.3,-6.5 c 1.9,-5.5 2.2,-7.9 1.8,-15.5 -0.3,-5 -1,-11.4 -1.6,-14.4 -1.7,-7.5 -0.9,-16 1.7,-19.7 1.8,-2.5 2,-3.7 1.3,-6.9 -0.9,-4.1 -0.5,-6.2 0.5,-2.9 1,3 2.1,4.8 3.2,5.1 0.7,0.3 0.6,-1.1 -0.3,-3.8 -0.8,-2.3 -1.3,-4.7 -1.1,-5.3 0.4,-1 1.3,0.8 3.2,6.3 0.6,1.6 7.1,0.9 8.9,-1 1.1,-1.1 0.7,-1.1 -5.6,0.7 -2,0.6 -2.1,0.5 -0.9,-1 0.7,-0.9 2,-1.6 2.9,-1.6 0.8,0 -0.5,-1.8 -3.2,-4.3 -2.5,-2.4 -4.6,-5.2 -4.6,-6.1 0,-1 -1.6,-3.6 -3.5,-5.7 -4.3,-4.8 -4.6,-9.3 -1,-17.1 1.4,-2.9 2.5,-6.3 2.5,-7.5 0,-1.2 0.5,-2.5 1,-2.8 1.8,-1.1 1.1,3.4 -1.6,9.7 -3.6,8.6 -3.5,12 0.2,16 1.7,1.8 3.6,4.7 4.3,6.5 1.7,4.1 4.4,6.6 11.6,10.2 4.8,2.5 12.05958,2.02319 16.88921,0.72909 4.53986,-1.21645 8.22424,-1.37545 14.20283,-0.6998 4.40029,0.58091 8.60046,0.80134 9.3732,0.59428 1.93185,-0.51763 6.11071,-7.33138 5.12398,-8.30931 0.67875,-3.559753 -1.04061,-7.646907 -4.44617,-7.790848 -8.96416,0.135954 -18.13853,-1.58372 -20.7572,-2.627555 -1.96652,-1.54363 -4.05599,-0.45268 -5.19615,-0.45776 -1.04357,-0.03096 -3.61554,-1.51588 -5.65971,-3.34928 C 254.68343,42.158527 249.2,41.6 243.5,39.4 c -1.6,-0.7 -1.3,-0.9 1.7,-1.2 2,-0.2 4.2,-1 4.8,-1.8 0.7,-0.8 1.7,-1.4 2.3,-1.4 0.6,0 0.1,1 -1.1,2.3 -1.2,1.3 -1.9,2.7 -1.5,3 9.08608,3.309392 16.06177,-0.495331 26.2,-1.6 9.5,0.5 11.2,0.3 15.4,-1.5 5.3,-2.4 8.2,-7.2 7.1,-11.7 -0.7,-2.9 -5.8,-7.5 -8.2,-7.5 -1.2,0 -1,0.4 0.7,1.3 2.1,1.1 2.8,3.6 0.8,2.9 -0.5,-0.1 -0.6,0.2 -0.2,0.8 0.3,0.5 1.5,1 2.6,1 1,0 1.9,0.4 1.9,1 0,1.2 -3,1.3 -4.8,0.1 -1.7,-1 -4.4,-6.2 -3.7,-6.9 0.9,-0.9 -10.4,-4 -20,-5.6 -6.4,-1 -11,-2.5 -15.8,-5 C 247.9,5.6 244.3,4 243.6,4 243,4 242,5.5 241.5,7.2 Z m 6,1.7 c -0.3,0.6 -1.1,1.1 -1.7,1.1 -0.6,0 -0.6,-0.6 0.2,-1.5 1.4,-1.7 2.6,-1.3 1.5,0.4 z m 5.1,4.6 c 0.9,1.4 2.3,2.5 3,2.5 2,0 1.8,0.6 -1.3,4 -1.6,1.8 -3.6,3 -5.2,3 -2.5,0.1 -2.5,0.1 -0.7,1.5 1.1,0.8 1.6,1.8 1.2,2.2 -0.4,0.4 -2.1,-0.8 -3.7,-2.7 -3.1,-3.8 -3.9,-6 -1.3,-3.9 2.4,2 6,2.1 7.5,0.3 1.3,-1.6 1.2,-1.6 -0.6,-0.7 -2.5,1.3 -6.5,0 -6.5,-2.2 0,-1.3 -3.8,-2.2 -7.2,-1.6 -0.5,0 -0.8,-0.4 -0.8,-1 0,-0.8 1.3,-0.9 3.9,-0.5 3,0.5 4.2,0.2 5.6,-1.4 2.4,-2.7 4.1,-2.5 6.1,0.5 z m 26.4,6.8 c 5.6,0 6.1,0.1 3.5,1 -1.6,0.5 -4.2,2.1 -5.7,3.5 -2.2,2 -4.1,2.7 -8.9,3 -4.4,0.3 -6,0.1 -5.5,-0.7 0.4,-0.6 2.9,-1.1 5.5,-1.1 3.1,0 5.3,-0.5 6.1,-1.5 1.3,-1.6 -0.4,-2.6 -7.5,-4.6 -2.2,-0.6 -1.8,-0.7 1.5,-0.2 2.5,0.4 7.4,0.6 11,0.6 z m 7.2,3.9 c -0.7,0.7 -1.2,0.8 -1.2,0.2 0,-0.6 0.3,-1.4 0.7,-1.7 0.3,-0.4 0.9,-0.5 1.2,-0.2 0.2,0.3 -0.1,1.1 -0.7,1.7 z m -63.4,1 c 1.4,1.4 1.6,4.8 0.2,4.8 -1,0 -3,-3.2 -3,-4.9 0,-1.4 1.3,-1.4 2.8,0.1 z m -4.2,11.6 c 2,1.3 3.5,5 2.3,5.7 -1.2,0.8 -5.9,-3.3 -5.9,-5.2 0,-1.4 1.8,-1.7 3.6,-0.5 z m -2.4,11.9 c 1.8,1.6 2.4,4.4 1.1,5.6 -0.9,0.9 -6.3,-4.3 -6.3,-6 0,-1.8 3,-1.6 5.2,0.4 z M 216,62.1 c 1.2,2.1 1.3,3.9 0.3,3.9 -1.9,-0.1 -5.5,-4.1 -4.9,-5.5 0.7,-1.8 3.3,-0.9 4.6,1.6 z m -3.5,16.5 c 1.2,1.9 1.4,2.9 0.6,3.7 -1.4,1.4 -5.1,-1.9 -5.1,-4.5 0,-2.6 2.5,-2.2 4.5,0.8 z M 201,103 c 1.3,3.1 0.8,6 -0.9,6 -1.6,0 -4.2,-5.6 -3.5,-7.4 1,-2.5 3.1,-1.9 4.4,1.4 z m -17.1,3.6 c 1.2,1.5 2.1,3.3 2.1,4 0,0.8 0.6,2.3 1.2,3.4 1,1.5 1,2.2 0,3.2 -2.1,2.1 -7.2,-4.4 -7.2,-9.3 0,-4.6 1.1,-4.9 3.9,-1.3 z M 168,123.1 c 0,9.4 -3,8.5 -4.4,-1.4 -0.5,-3.3 -0.3,-5.3 0.5,-6.4 2.1,-2.4 3.9,1.2 3.9,7.8 z M 136.6,121 c -0.7,3.7 -4.5,9 -6.4,9 -1,0 -1.2,-0.7 -0.7,-2.8 1.8,-7.2 8.5,-13.1 7.1,-6.2 z m -21.8,2.4 c 0.4,1.8 -5.2,8.6 -7.1,8.6 -1.2,0 0.1,-5.9 2,-8.8 1.6,-2.7 4.6,-2.6 5.1,0.2 z m 68.5,3.2 c 1,1.4 1.6,3.2 1.3,4 -1.1,3 -3.9,0.9 -5.1,-3.9 -0.9,-3.5 1.3,-3.6 3.8,-0.1 z m -57.3,4.7 c 0,2.1 -5,8.7 -6.6,8.7 -1.1,0 -1.4,-0.6 -1,-1.6 0.3,-0.9 0.6,-1.9 0.6,-2.3 0,-0.5 0.9,-2 2.1,-3.5 2.1,-2.7 4.9,-3.5 4.9,-1.3 z M 76.2,137 c -0.3,3 -4.3,10.2 -5.9,10.8 -2.3,0.7 -1.4,-4.9 1.5,-9.4 2.9,-4.6 4.9,-5.2 4.4,-1.4 z m 96.3,2.9 c -0.4,1.7 -1.1,3.1 -1.6,3.1 -1,0 -1.2,-6.3 -0.2,-7.4 1.4,-1.3 2.5,1.3 1.8,4.3 z M 142,137.4 c 0,1.5 -10.7,8.6 -13,8.6 -0.9,0 0.7,-2.2 3.7,-5 4.9,-4.8 9.3,-6.5 9.3,-3.6 z m 42,1.6 c 0,2.9 -1.1,5 -2.6,5 -1.6,0 -1.8,-1.9 -0.4,-5.5 1.1,-2.8 3,-2.5 3,0.5 z M 8,141.5 c 0,1.6 -0.6,2.5 -1.6,2.5 -1.1,0 -1.4,-0.5 -1,-1.6 0.3,-0.9 0.6,-2 0.6,-2.5 0,-0.5 0.5,-0.9 1,-0.9 0.6,0 1,1.1 1,2.5 z M 61.5,140 c 0.9,1.4 -2.2,8 -3.8,8 -1.2,0 -1.3,-0.7 -0.7,-3.4 1.2,-5.2 3,-7.1 4.5,-4.6 z m -19.2,7.7 c -1.3,3.8 -4.3,4.4 -4.3,0.8 0,-1.4 0.5,-3.6 1.1,-4.7 1,-1.8 1.3,-1.9 2.6,-0.5 1.2,1.1 1.3,2.2 0.6,4.4 z m -19.7,0.6 c -0.9,3.7 -3.6,4.3 -3.6,0.9 0,-3.2 1.9,-5.7 3.3,-4.3 0.5,0.5 0.7,2.1 0.3,3.4 z M 144,147.4 c -2,2 -7,3.2 -7,1.7 0,-1.8 6.3,-5.2 7.4,-4.1 0.7,0.7 0.5,1.5 -0.4,2.4 z m 0.7,12.2 c 0.7,2 -0.9,3.5 -7.5,6.9 -4.2,2.2 -5.6,2.5 -6.5,1.6 -0.9,-1 -0.7,-1.6 1.1,-2.9 1.2,-1 3.9,-2.9 5.9,-4.5 4.1,-3.1 6.1,-3.4 7,-1.1 z m -10.6,37.3 c 1.6,1.6 2.9,3.5 2.9,4.3 0,0.7 -1,0 -2.3,-1.5 -1.4,-1.8 -4,-3.3 -7.2,-4.2 l -5,-1.3 4.3,-0.1 c 3.5,-0.1 4.9,0.4 7.3,2.8 z M 124,198 c 0,2.3 5,6 8,6 1.6,0 3,0.4 3,1 0,1.4 -3.7,1.2 -6.8,-0.4 -2.8,-1.5 -7.1,-7.6 -5.3,-7.6 0.6,0 1.1,0.5 1.1,1 z m -18.6,15.9 c -0.7,0.8 -5.4,-3 -5.4,-4.5 0,-1.1 0.8,-0.7 2.9,1.3 1.6,1.5 2.7,3 2.5,3.2 z m -1.9,2.9 c -0.7,0.7 -4.5,-2.9 -4.5,-4.1 0,-0.6 1.1,0 2.5,1.3 1.4,1.3 2.3,2.6 2,2.8 z m -2.9,2.9 c -0.7,0.7 -2.6,-0.7 -2.6,-1.9 0,-0.6 0.6,-0.6 1.5,0.2 0.9,0.7 1.3,1.5 1.1,1.7 z M 82,238.9 c 0,1.7 -0.4,3.3 -1,3.6 -0.6,0.4 -1,-0.8 -1,-2.9 0,-2 0.5,-3.6 1,-3.6 0.6,0 1,1.3 1,2.9 z m 3,1.7 c 0,1.1 -0.6,2.8 -1.2,3.7 -1.1,1.5 -1.2,0.9 -0.9,-3.4 0.2,-3.5 0.6,-4.7 1.2,-3.8 0.5,0.8 0.9,2.3 0.9,3.5 z m 8.4,5.3 c 0.3,0.5 -0.5,1.1 -1.9,1.3 -2.8,0.6 -3.5,-0.8 -0.7,-1.5 0.9,-0.3 1.8,-0.5 1.9,-0.6 0.1,0 0.4,0.3 0.7,0.8 z M 94,249 c 0,0.5 -1.2,1 -2.7,1 -2.2,0 -2.5,-0.2 -1.3,-1 2,-1.3 4,-1.3 4,0 z m -9,3.9 c 0,1.5 0.2,5 0.5,7.7 l 0.4,4.9 -1.3,-5 C 82.9,254.4 82.7,250 84,250 c 0.6,0 1,1.3 1,2.9 z m 9,0.1 c 0,0.5 -1.2,1 -2.7,1 -2.2,0 -2.5,-0.2 -1.3,-1 2,-1.3 4,-1.3 4,0 z m 0,4 c -0.8,0.5 -2.4,1 -3.5,1 -1.7,0 -1.7,-0.2 -0.5,-1 0.8,-0.5 2.4,-1 3.5,-1 1.7,0 1.7,0.2 0.5,1 z"
     id="node48"
     class="node" />
  <path
     inkscape:connector-curvature="0"
     style="fill:#008000;stroke:none"
     d="m 247.8,14.1 c -1,0.5 -1.8,1.7 -1.8,2.4 0,2.3 1.7,1.8 2.3,-0.7 l 0.6,-2.2 2.7,2.4 2.7,2.5 -1.8,-2.8 c -1.9,-3 -2.2,-3.1 -4.7,-1.6 z"
     id="node49"
     class="node" />
  <path
     inkscape:connector-curvature="0"
     style="fill:#008000;stroke:none"
     d="m 46,108 c -4.6,1.5 -5.5,2.1 -5.8,4.4 -0.2,1.4 0.2,2.6 0.8,2.6 1.1,0 8,-4.1 11.9,-7.1 2.1,-1.7 2.1,-1.9 0.5,-1.8 -1.1,0.1 -4.4,0.9 -7.4,1.9 z"
     id="node54"
     class="node" />
  <path
     inkscape:connector-curvature="0"
     style="fill:#008000;stroke:none"
     d="m 232.8,117.8 c -0.3,4.2 -0.9,8.6 -1.2,9.7 -0.4,1.1 0.2,0.4 1.3,-1.5 1.4,-2.4 2,-5.4 2.1,-9.2 0,-8.6 -1.7,-7.9 -2.2,1 z"
     id="node55"
     class="node" />
  <path
     inkscape:connector-curvature="0"
     style="fill:#008000;stroke:none"
     d="m 30.8,112.7 c -1.6,0.4 -1.6,0.7 -0.1,3.8 1.8,3.7 4.3,3.7 4.3,0 0,-2.7 -1.8,-4.3 -4.2,-3.8 z"
     id="node56"
     class="node" />
  <path
     inkscape:connector-curvature="0"
     style="fill:#008000;stroke:none"
     d="m 15.3,119 c -2.4,1 -3.1,2.3 -1,1.8 2.4,-0.5 6.7,1.3 7.7,3.2 1.7,3.2 3.1,2.3 2.8,-1.8 -0.3,-3.5 -0.5,-3.7 -3.8,-3.9 -1.9,-0.1 -4.5,0.2 -5.7,0.7 z"
     id="node57"
     class="node" />
  <path
     inkscape:connector-curvature="0"
     style="fill:#008000;stroke:none"
     d="m 242,123.7 c -0.8,0.3 -2.7,1.5 -4.2,2.5 -2,1.4 -2.8,1.6 -2.9,0.6 0,-0.7 -0.5,-0.3 -1.1,0.9 -0.6,1.3 -1.5,2.3 -2,2.3 -0.4,0 -0.8,0.7 -0.8,1.5 0,2.4 2.4,1.7 7.1,-1.9 2.3,-1.9 4.7,-3.2 5.1,-3 0.4,0.3 0.8,2.1 0.8,4 0,2.4 0.5,3.4 1.5,3.4 1,0 1.5,-1 1.5,-2.9 0,-1.7 0.5,-3.3 1,-3.6 0.6,-0.4 1,0.5 1,1.9 0,1.4 0.5,2.6 1,2.6 2.3,0 0.8,-4.1 -2.3,-6.4 -1.9,-1.5 -3.6,-2.6 -3.8,-2.5 -0.2,0 -1.1,0.3 -1.9,0.6 z"
     id="node58"
     class="node" />
  <path
     inkscape:connector-curvature="0"
     style="fill:#008000;stroke:none"
     d="m 173.7,192.2 c -2.1,3 -4.8,4.9 -11,7.8 -4.5,2.1 -9.4,4.2 -10.9,4.5 -1.6,0.4 -2.8,1.1 -2.8,1.5 0,2.4 2.4,6.5 6.2,10.6 3,3.3 3.7,4.5 2.3,4.1 -1.9,-0.6 -2,-0.3 -1.7,5.4 0.3,4.8 -0.2,7.8 -2.3,13.6 -3.2,8.8 -3,11.2 2,18.5 3,4.3 3.5,5.8 3,8.5 -0.4,2.5 -0.2,3.4 1.4,4.3 1.6,0.8 2.2,0.7 3,-0.7 1.5,-2.7 3.9,-0.7 7.8,6.3 3.5,6.4 6.3,8.3 12.4,8.4 3.2,0 3.7,-0.3 4.2,-2.8 0.8,-3.9 -0.8,-5 -4.4,-3 -3,1.7 -3,1.7 -2.4,-0.2 0.4,-1.4 0.2,-2 -0.9,-2 -0.8,0 -1.8,0.4 -2.1,1 -1.2,2 -2.6,1 -1.5,-1 1.4,-2.6 0.3,-4.5 -1.6,-2.9 -1.2,1 -1.3,0.6 -0.8,-2.1 0.6,-3 0.5,-3.2 -1.5,-2.5 -2.1,0.6 -3,-0.8 -1.1,-2 0.6,-0.4 0.8,-1.1 0.5,-1.6 -0.4,-0.5 0.1,-0.9 0.9,-0.9 0.8,0 1.9,-0.7 2.4,-1.7 0.8,-1.4 1.4,-1.2 4,1.8 1.7,1.9 3.2,2.8 3.2,2.1 0,-0.8 -2,-3.3 -4.4,-5.7 -3.5,-3.3 -4.7,-5.4 -5.6,-9.8 -1.9,-8.2 -0.8,-19.6 2.9,-30.8 1.7,-5.3 3.1,-10.1 3.1,-10.8 0,-0.6 -1.7,-1.1 -3.7,-1.2 l -3.8,-0.1 3.2,-0.8 c 4.2,-1 6.3,-2.7 6.3,-5.1 0,-1.9 -0.1,-1.9 -4,0.1 -3,1.5 -4.5,1.8 -5.8,1.1 -1.5,-0.9 -1.4,-1 0.7,-1.1 2.4,0 9.1,-3.6 9.1,-4.8 0,-0.4 -0.4,-1.3 -0.9,-2.1 -1,-1.6 -3.5,-0.5 -7,3.3 -1.4,1.4 -2.9,2.6 -3.5,2.6 -0.5,0 0.8,-1.8 2.9,-4 2.1,-2.2 4.5,-4 5.2,-4 1.4,0 1.7,-2.8 0.5,-4.6 -0.4,-0.7 -1.7,0.3 -3.5,2.8 z M 163,257 c 0.6,1.2 0.9,2.4 0.6,2.7 -1.5,1.5 -3.6,-7.1 -3.5,-13.9 l 0.2,-7.3 0.8,8.2 c 0.4,4.5 1.3,9.1 1.9,10.3 z m 7,-13.6 c 0,0.2 -1.1,0.6 -2.5,0.8 -1.4,0.3 -2.5,0.1 -2.5,-0.3 0,-0.5 1.1,-0.9 2.5,-0.9 1.4,0 2.5,0.2 2.5,0.4 z m -14,6.2 c 0,0.7 -0.4,1.6 -1,1.9 -0.5,0.3 -1,-0.3 -1,-1.4 0,-1 -0.3,-2.8 -0.6,-3.8 -0.5,-1.6 -0.4,-1.6 1,0.1 0.9,1.1 1.6,2.5 1.6,3.2 z m 14,-0.6 c 0,0.5 -0.4,1 -0.9,1 -0.5,0 -1.8,0.3 -2.8,0.6 -1.6,0.5 -1.6,0.4 0.1,-1 2.3,-1.8 3.6,-2 3.6,-0.6 z m -0.4,5.5 c -1.1,0.8 -2.5,1.5 -3,1.5 -0.6,0 -0.2,-0.7 0.8,-1.5 1.1,-0.8 2.5,-1.5 3,-1.5 0.6,0 0.2,0.7 -0.8,1.5 z m 1.7,4.7 c -1.3,1.2 -2.6,1.8 -3,1.4 -0.4,-0.4 0.1,-1.4 1.1,-2.2 3.1,-2.2 4.3,-1.7 1.9,0.8 z"
     id="node60"
     class="node" />
  <path
     inkscape:connector-curvature="0"
     style="fill:#008000;stroke:none"
     d="m 101.1,262.6 c 0,1.1 0.3,1.4 0.6,0.6 0.3,-0.7 0.2,-1.6 -0.1,-1.9 -0.3,-0.4 -0.6,0.2 -0.5,1.3 z"
     id="node61"
     class="node" />
  <path
     inkscape:connector-curvature="0"
     style="fill:#008000;stroke:none"
     d="m 98.6,265.5 c 0.4,0.8 0.8,1.5 1,1.5 0.2,0 0.4,-0.7 0.4,-1.5 0,-0.8 -0.4,-1.5 -1,-1.5 -0.5,0 -0.7,0.7 -0.4,1.5 z"
     id="node62"
     class="node" />
  <path
     inkscape:connector-curvature="0"
     style="fill:#008000;stroke:none"
     d="m 175.1,265.9 c -1.1,0.7 -1,1.5 0.8,4.5 2.6,4.1 4.8,5.6 8.6,5.6 1.4,0 3.4,0.4 4.4,0.9 1.3,0.7 2,0.5 2.9,-0.9 1,-1.6 0.9,-2.1 -0.7,-3 -2.8,-1.4 -4.2,-1.3 -5.8,0.7 -1.3,1.7 -1.4,1.6 -0.8,-0.5 0.7,-2.5 -1.2,-3 -3.4,-1 -1.1,1.1 -1.2,0.9 -0.7,-0.9 0.7,-2.2 -1.4,-4.7 -2.2,-2.5 -0.7,2.3 -2.2,1.1 -1.6,-1.3 0.7,-2.7 0.6,-2.9 -1.5,-1.6 z"
     id="node63"
     class="node" />
  <path
     inkscape:connector-curvature="0"
     style="fill:#008000;stroke:none"
     d="m 183.6,267.9 c -0.3,0.5 0.3,1.1 1.4,1.4 2.4,0.6 3.6,-0.8 1.4,-1.7 -2,-0.8 -2.2,-0.8 -2.8,0.3 z"
     id="node64"
     class="node" />
  <path
     inkscape:connector-curvature="0"
     style="fill:#008000;stroke:none"
     d="m 97.5,269 c 0.3,0.5 0.8,1 1.1,1 0.2,0 0.4,-0.5 0.4,-1 0,-0.6 -0.5,-1 -1.1,-1 -0.5,0 -0.7,0.4 -0.4,1 z"
     id="node65"
     class="node" />
  <path
     inkscape:connector-curvature="0"
     style="fill:#008000;stroke:none"
     d="m 191,270.5 c 3.3,1.9 5,1.9 5,0 0,-1.1 -1.1,-1.5 -3.7,-1.5 l -3.8,0.1 2.5,1.4 z"
     id="node66"
     class="node" />
  <path
     inkscape:connector-curvature="0"
     style="fill:#008000;stroke:none"
     d="m 197,273 c 0,1.2 2.8,2.5 3.6,1.7 0.3,-0.3 -0.4,-1 -1.5,-1.7 -1.5,-0.7 -2.1,-0.7 -2.1,0 z"
     id="node67"
     class="node" />
  <path
     inkscape:connector-curvature="0"
     style="fill:#008000;stroke:none"
     d="m 157.7,273.7 c -1,0.9 -0.8,3.3 0.2,3.3 0.5,0 1.1,-0.9 1.4,-2 0.5,-2 -0.3,-2.6 -1.6,-1.3 z"
     id="node68"
     class="node" />
  <path
     inkscape:connector-curvature="0"
     style="fill:#008000;stroke:none"
     d="m 108.9,276.1 c 1.9,1.5 2.6,1.7 3.2,0.7 1.5,-2.2 1,-2.8 -2.3,-2.8 l -3.3,0.1 2.4,2 z"
     id="node69"
     class="node" />
  <path
     inkscape:connector-curvature="0"
     style="fill:#008000;stroke:none"
     d="m 114,277.4 c 0,0.8 1.4,1.6 3.2,1.8 l 3.2,0.5 -2.3,-1.8 c -2.8,-2.3 -4.1,-2.4 -4.1,-0.5 z"
     id="node70"
     class="node" />
  <path
     inkscape:connector-curvature="0"
     style="fill:#008000;stroke:none"
     d="m 193,277.5 c 0,1 1,1.5 3.3,1.5 3,-0.1 3.1,-0.1 1.3,-1.5 -2.5,-1.9 -4.6,-1.9 -4.6,0 z"
     id="node71"
     class="node" />
  <path
     inkscape:connector-curvature="0"
     style="fill:#008000;stroke:none"
     d="m 109,280.4 c 0,0.8 1.3,1.6 3,1.8 3.7,0.6 3.9,-0.9 0.4,-2.2 -3.3,-1.3 -3.4,-1.3 -3.4,0.4 z"
     id="node72"
     class="node" />
  <path
     inkscape:connector-curvature="0"
     style="fill:#008000;stroke:none"
     d="m 189,282.5 c 0,1.1 1.1,1.5 3.8,1.5 3.5,-0.1 3.6,-0.2 1.8,-1.5 -2.6,-1.9 -5.6,-1.9 -5.6,0 z"
     id="node73"
     class="node" />
  <path
     inkscape:connector-curvature="0"
     style="fill:#008000;stroke:none"
     d="m 99.4,286.5 c -0.9,2.3 0,2.8 3.6,2 3.3,-0.7 3.1,-1.8 -0.8,-3 -1.6,-0.4 -2.4,-0.2 -2.8,1 z"
     id="node74"
     class="node" />
  <path
     inkscape:connector-curvature="0"
     style="fill:#008000;stroke:none"
     d="m 82.8,290.7 c 1.2,0.2 3.2,0.2 4.5,0 1.2,-0.2 0.2,-0.4 -2.3,-0.4 -2.5,0 -3.5,0.2 -2.2,0.4 z"
     id="node75"
     class="node" />
  <path
     inkscape:connector-curvature="0"
     style="fill:#008000;stroke:none"
     d="m 104.8,290.7 c 0.7,0.3 1.6,0.2 1.9,-0.1 0.4,-0.3 -0.2,-0.6 -1.3,-0.5 -1.1,0 -1.4,0.3 -0.6,0.6 z"
     id="node76"
     class="node" />
</svg>
