<?xml version="1.0" encoding="UTF-8" standalone="no"?>
<!--?xml version="1.0" standalone="no"?-->

<svg
   xmlns:dc="http://purl.org/dc/elements/1.1/"
   xmlns:cc="http://creativecommons.org/ns#"
   xmlns:rdf="http://www.w3.org/1999/02/22-rdf-syntax-ns#"
   xmlns:svg="http://www.w3.org/2000/svg"
   xmlns="http://www.w3.org/2000/svg"
   xmlns:sodipodi="http://sodipodi.sourceforge.net/DTD/sodipodi-0.dtd"
   xmlns:inkscape="http://www.inkscape.org/namespaces/inkscape"
   version="1.0"
   width="300.000000pt"
   height="291.000000pt"
   viewBox="0 0 300.000000 291.000000"
   preserveAspectRatio="xMidYMid meet"
   id="svg2"
   inkscape:version="0.91 r13725"
   sodipodi:docname="dinosaur-clipart-horror.svg">
  <defs
     id="defs84" />
  <sodipodi:namedview
     pagecolor="#ffffff"
     bordercolor="#666666"
     borderopacity="1"
     objecttolerance="10"
     gridtolerance="10"
     guidetolerance="10"
     inkscape:pageopacity="0"
     inkscape:pageshadow="2"
     inkscape:window-width="1114"
     inkscape:window-height="770"
     id="namedview82"
     showgrid="false"
     inkscape:zoom="0.91753787"
     inkscape:cx="123.37214"
     inkscape:cy="209.17686"
     inkscape:window-x="0"
     inkscape:window-y="25"
     inkscape:window-maximized="0"
     inkscape:current-layer="svg2" />
  <metadata
     id="metadata4">
    <rdf:rdf>
      <rdf:description
         dc:title="dinosaur clipart horror"
         dc:publisher="Hiox"
         dc:date="2015-06-29"
         dc:format="image/svg+xml"
         dc:language="en">
        <dc:creator>
          <rdf:bag>
            <rdf:li>svgimages.com</rdf:li>
          </rdf:bag>
        </dc:creator>
      </rdf:description>
    </rdf:rdf>
    <rdf:RDF>
      <cc:Work
         rdf:about="">
        <dc:format>image/svg+xml</dc:format>
        <dc:type
           rdf:resource="http://purl.org/dc/dcmitype/StillImage" />
        <dc:title></dc:title>
      </cc:Work>
    </rdf:RDF>
  </metadata>
  <g
     transform="translate(0.000000,291.000000) scale(0.100000,-0.100000)"
     fill="#292929"
     stroke="none"
     id="g6">
    <path
       class="node"
       id="node1"
       d="M2386 2901 c-4 -5 -2 -21 4 -36 15 -40 5 -47 -56 -39 -100 12 -196 -44 -260 -152 -36 -61 -64 -184 -64 -280 0 -118 -16 -179 -63 -246 -64 -91 -120 -107 -465 -128 -208 -12 -278 -31 -505 -131 -100 -45 -238 -105 -307 -134 -126 -53 -366 -135 -395 -135 -44 0 10 44 145 118 41 22 94 57 117 77 44 38 58 71 26 61 -10 -3 -76 -21 -148 -41 -242 -67 -313 -103 -383 -195 -32 -42 -34 -47 -30 -115 3 -59 8 -77 36 -117 85 -123 204 -155 504 -133 126 9 208 -1 285 -35 36 -16 46 -28 71 -82 19 -41 47 -80 80 -110 l51 -48 -29 -57 c-15 -32 -41 -102 -57 -157 -26 -90 -32 -102 -72 -135 -101 -83 -111 -96 -111 -141 0 -24 4 -59 9 -79 33 -127 56 -372 36 -377 -82 -21 -125 -36 -125 -43 0 -5 90 -9 200 -8 l201 1 -3 30 c-3 31 -3 31 45 30 39 0 47 3 47 18 0 21 11 23 28 6 16 -16 29 19 15 41 -19 30 -86 61 -134 61 -55 0 -74 16 -53 44 21 30 17 59 -16 104 -38 53 -39 93 -2 160 23 41 44 61 120 111 87 58 184 143 228 202 13 17 33 28 59 32 l40 6 37 -68 c53 -99 60 -173 23 -261 -34 -81 -30 -122 20 -194 35 -52 36 -53 26 -112 -6 -42 -6 -66 2 -83 17 -35 34 -36 42 -3 3 17 14 37 24 46 18 16 20 15 40 -10 11 -15 21 -30 21 -35 0 -4 3 -14 6 -22 4 -12 -6 -17 -45 -22 -52 -7 -70 -18 -50 -30 12 -8 389 -15 389 -8 0 2 -5 13 -11 25 -14 25 -4 35 17 17 16 -13 17 -11 12 13 -4 19 -1 25 9 21 9 -4 13 4 13 23 0 40 -63 91 -121 100 -55 8 -87 24 -120 61 -43 46 -52 72 -57 168 -4 86 -2 96 42 230 51 154 56 204 30 296 l-16 58 57 64 c64 73 146 147 250 227 39 29 89 72 113 94 l42 40 0 -42 c0 -31 -5 -45 -20 -54 -32 -20 -24 -28 30 -27 43 1 54 6 75 31 35 42 32 80 -10 127 -41 45 -42 50 -12 44 15 -3 36 6 61 26 21 17 42 29 46 26 13 -8 -2 -55 -21 -66 -11 -5 -19 -14 -19 -19 0 -16 31 -11 65 10 l33 21 -5 -22 c-5 -19 -4 -20 16 -10 23 13 41 49 41 82 0 22 -52 75 -81 82 -10 3 -30 -1 -45 -9 -14 -8 -29 -14 -32 -14 -2 0 -2 24 1 53 6 45 3 58 -17 87 -24 36 -56 155 -56 211 0 57 35 114 83 134 23 9 56 23 73 30 51 22 226 4 291 -29 29 -14 66 -26 84 -26 54 0 126 92 89 115 -7 4 -6 13 1 27 12 22 -3 40 -26 31 -7 -2 -19 3 -27 11 -8 8 -33 18 -54 22 -26 5 -48 18 -69 43 -16 19 -43 48 -58 63 -31 30 -29 55 3 38 10 -5 35 -11 54 -12 20 -2 36 -6 36 -10 0 -10 43 -6 58 5 8 7 12 4 12 -9 0 -13 3 -15 11 -7 6 6 18 9 25 6 8 -3 14 0 14 6 0 6 7 11 15 11 8 0 22 15 31 33 9 17 25 43 35 56 26 33 25 110 -1 144 -11 14 -36 32 -55 38 -19 7 -35 16 -35 20 0 17 -72 39 -126 37 -82 -1 -169 19 -203 48 -58 48 -160 80 -175 55z m131 -67 c48 -25 94 -40 158 -50 96 -16 209 -47 200 -56 -7 -7 20 -59 37 -69 18 -12 48 -11 48 1 0 6 -9 10 -19 10 -11 0 -23 5 -26 10 -4 6 -3 9 2 8 20 -7 13 18 -8 29 -17 9 -19 13 -7 13 24 0 75 -46 82 -75 11 -45 -18 -93 -71 -117 -42 -18 -59 -20 -154 -15 -80 5 -120 3 -156 -8 -51 -16 -95 -19 -106 -8 -4 3 3 17 15 30 12 13 17 23 11 23 -6 0 -16 -6 -23 -14 -6 -8 -28 -16 -48 -18 -30 -3 -33 -5 -17 -12 57 -22 93 -48 118 -84 15 -23 36 -44 46 -47 11 -3 31 -21 46 -41 36 -47 114 -90 191 -104 36 -7 67 -17 71 -23 7 -12 -51 -67 -71 -67 -8 0 -48 13 -89 30 -56 22 -92 30 -139 30 -99 0 -211 63 -239 133 -7 18 -26 47 -43 65 -37 40 -38 74 -2 160 27 63 34 108 16 97 -5 -3 -10 -16 -10 -28 0 -12 -11 -46 -25 -75 -36 -78 -33 -123 10 -171 19 -21 35 -47 35 -57 0 -9 21 -37 46 -61 27 -25 40 -43 32 -43 -9 0 -22 -7 -29 -16 -12 -15 -11 -16 9 -10 63 18 67 18 56 7 -18 -19 -83 -26 -89 -10 -19 55 -28 73 -32 63 -2 -6 3 -30 11 -53 9 -27 10 -41 3 -38 -11 3 -22 21 -32 51 -10 33 -14 12 -5 -29 7 -32 5 -44 -13 -69 -26 -37 -34 -122 -17 -197 6 -30 13 -94 16 -144 4 -76 1 -100 -18 -155 l-23 -65 -42 -3 -42 -3 24 43 c33 61 39 105 21 158 -9 25 -16 53 -16 63 0 9 -4 17 -9 17 -20 0 -21 -20 -4 -47 26 -39 24 -129 -4 -173 l-22 -35 6 37 c5 37 -3 95 -13 85 -3 -3 -6 -33 -7 -67 -2 -52 -6 -65 -26 -81 -13 -10 -18 -19 -12 -19 6 0 11 -8 11 -17 1 -17 1 -17 11 0 8 13 24 17 75 17 59 0 68 -3 95 -29 29 -29 42 -91 19 -91 -5 0 -10 11 -10 25 0 14 -6 25 -13 25 -9 0 -12 -9 -9 -29 2 -16 -1 -32 -8 -36 -16 -10 -20 -3 -22 44 -2 51 -22 67 -65 50 -96 -38 -107 -31 -117 71 -9 84 -3 105 32 125 17 9 21 14 11 15 -29 0 -68 -39 -71 -73 -4 -32 -4 -31 -16 13 l-11 45 3 -48 c2 -26 11 -56 20 -66 25 -28 19 -37 -9 -11 -14 13 -27 21 -30 18 -3 -3 9 -18 26 -33 18 -15 34 -38 35 -52 2 -15 10 -33 19 -42 14 -14 20 -14 62 1 26 9 49 15 51 13 2 -2 -24 -25 -59 -52 -35 -26 -92 -73 -128 -104 -86 -73 -99 -79 -165 -79 -31 0 -56 -4 -56 -10 0 -5 23 -10 51 -10 35 0 49 -4 47 -12 -6 -16 -74 -31 -116 -24 -19 3 -30 1 -27 -5 4 -5 26 -9 51 -9 48 0 52 -4 27 -32 -11 -13 -31 -18 -67 -18 -37 0 -47 -3 -36 -10 8 -5 25 -10 38 -10 12 0 22 -2 22 -5 0 -12 -104 -131 -124 -142 -46 -27 -175 -72 -224 -79 l-52 -7 20 49 c12 26 41 70 66 96 72 77 88 122 92 264 3 100 0 136 -17 204 -24 89 -81 222 -88 203 -2 -6 3 -25 11 -41 32 -61 67 -208 73 -302 9 -152 -17 -239 -98 -327 -22 -24 -51 -69 -65 -100 -32 -74 -73 -133 -91 -133 -8 0 -28 13 -44 29 -21 21 -29 39 -29 65 0 19 -5 38 -12 42 -8 5 -9 -5 -5 -40 8 -53 30 -92 58 -101 10 -4 19 -10 19 -15 0 -15 -89 -88 -174 -142 -102 -66 -146 -130 -146 -212 0 -40 4 -54 20 -64 11 -7 20 -19 20 -27 0 -18 -12 -19 -29 -2 -11 10 -13 5 -8 -28 5 -27 3 -35 -3 -25 -5 8 -10 23 -10 33 0 9 -4 17 -10 17 -13 0 -13 -12 0 -44 6 -16 6 -27 0 -31 -6 -4 -10 -11 -10 -16 0 -6 5 -7 11 -3 8 4 9 0 4 -15 -5 -17 -3 -20 11 -14 13 5 15 2 10 -15 -6 -17 -3 -19 15 -15 18 5 21 3 16 -10 -4 -10 -2 -17 3 -17 6 0 10 5 10 10 0 12 40 13 57 2 6 -4 9 -19 6 -35 -6 -33 -41 -37 -67 -8 -10 11 -28 22 -40 25 -31 8 -46 46 -46 116 0 33 -4 60 -10 60 -5 0 -10 -11 -10 -25 0 -14 -4 -25 -10 -25 -5 0 -10 -5 -10 -10 0 -6 3 -9 8 -9 22 4 23 -4 1 -27 l-24 -26 23 6 c16 5 22 3 22 -8 0 -8 -4 -18 -10 -21 -16 -10 -12 -25 6 -18 12 4 14 0 9 -23 -3 -16 -2 -23 1 -16 8 16 36 15 59 -2 16 -12 17 -17 6 -45 -11 -25 -19 -31 -43 -31 -39 0 -85 28 -98 60 -6 14 -10 50 -8 80 1 30 -3 78 -10 105 -17 78 -34 175 -39 228 -5 45 -3 50 32 80 112 96 122 110 145 187 32 111 47 145 91 219 22 36 42 76 45 88 3 12 -5 50 -19 85 -14 35 -31 95 -39 133 l-13 70 -5 -49 c-4 -44 -6 -48 -19 -32 -8 9 -24 22 -35 28 -13 7 -5 -7 19 -33 24 -26 52 -74 69 -117 26 -68 27 -74 12 -97 -9 -14 -22 -25 -28 -25 -29 0 -104 97 -132 170 -28 73 -67 136 -51 81 6 -21 5 -23 -11 -16 -78 32 -114 37 -229 34 -333 -8 -376 -6 -436 22 -31 15 -72 42 -91 62 -37 36 -68 110 -68 159 0 35 21 89 43 106 13 11 12 3 -5 -37 -12 -28 -19 -53 -16 -57 10 -10 43 13 57 39 15 29 54 52 70 43 18 -12 13 -23 -14 -30 -13 -3 -30 -16 -36 -28 -12 -23 -15 -114 -4 -148 9 -28 28 -20 36 16 8 35 41 99 65 125 29 33 42 24 37 -26 -4 -29 0 -56 10 -77 8 -18 17 -42 19 -52 7 -43 24 -21 51 67 45 146 39 138 115 161 19 7 22 4 22 -23 0 -26 12 -90 27 -141 6 -20 43 24 43 52 0 11 10 34 22 51 12 17 27 51 34 76 9 37 17 48 43 58 l31 13 -1 -37 c0 -21 -4 -60 -8 -86 -4 -26 -5 -50 0 -52 18 -12 39 13 109 130 l75 124 64 28 c36 15 68 29 73 31 4 2 -15 -61 -42 -139 -49 -140 -53 -181 -15 -149 14 12 14 10 5 -14 -23 -61 -2 -77 30 -23 24 39 27 72 5 63 -8 -3 -15 -3 -15 -1 0 7 83 131 134 200 24 33 53 79 65 102 15 30 30 44 56 53 69 23 70 14 15 -98 -74 -153 -69 -157 52 -39 47 45 100 103 118 130 27 38 39 47 63 47 29 0 29 -1 22 -37 -4 -21 -10 -63 -15 -93 -4 -30 -10 -63 -15 -72 -5 -13 -3 -18 8 -18 23 0 99 90 132 158 22 46 35 61 51 62 28 0 49 -70 39 -128 -6 -40 2 -57 22 -44 20 13 52 89 59 141 4 31 12 51 19 51 8 0 20 2 27 5 9 4 36 -16 67 -46 63 -62 74 -56 64 40 -7 70 -8 69 56 24 l23 -17 -7 34 c-4 19 -13 42 -21 51 -8 8 -14 19 -14 23 0 9 32 4 63 -9 24 -10 21 8 -7 42 -33 39 -22 56 32 47 51 -8 53 2 7 46 -28 27 -35 42 -35 71 l0 38 32 -10 c18 -5 36 -9 40 -9 19 0 5 27 -32 65 -27 28 -39 47 -35 58 5 12 12 14 32 6 53 -20 57 -2 14 58 -34 48 -29 69 14 53 42 -16 51 2 20 38 -24 28 -25 34 -12 52 l14 20 26 -20 c32 -25 44 -11 26 31 -10 26 -10 33 5 47 15 16 18 15 40 -12 26 -33 40 -24 34 22 -4 38 33 44 50 7 13 -28 32 -25 32 5 0 14 9 20 38 22 32 3 38 7 47 36 5 17 15 32 21 32 7 0 43 -16 81 -36z m123 -344 c0 -5 -4 -10 -10 -10 -5 0 -10 5 -10 10 0 6 5 10 10 10 6 0 10 -4 10 -10z m-50 -24 c0 -24 -18 -28 -30 -6 -9 17 -8 20 10 20 11 0 20 -6 20 -14z m59 -20 c15 -8 49 -40 75 -70 34 -41 56 -57 81 -62 19 -3 33 -10 30 -14 -7 -11 -78 4 -101 21 -10 8 -20 21 -22 29 -3 18 -81 94 -88 87 -3 -3 14 -23 38 -46 24 -22 37 -41 31 -41 -7 0 -13 5 -13 10 0 6 -8 10 -17 10 -36 0 -78 62 -56 83 9 9 10 9 42 -7z m-2120 -615 c-39 -30 -108 -71 -119 -71 -6 0 -10 12 -8 26 3 23 12 29 58 44 30 10 63 18 74 19 16 1 16 -1 -5 -18z m1821 -89 c-1 -38 -7 -68 -21 -92 -11 -19 -17 -26 -13 -15 3 11 9 55 12 97 5 89 22 96 22 10z m-2000 3 c0 -37 -25 -37 -43 0 -15 31 -15 34 1 38 24 5 42 -11 42 -38z m-102 -57 c3 -41 -11 -50 -28 -18 -10 19 -53 37 -77 32 -21 -5 -14 8 10 18 12 5 38 8 57 7 33 -2 35 -4 38 -39z m2229 -34 c31 -23 46 -64 23 -64 -5 0 -10 12 -10 26 0 14 -4 23 -10 19 -5 -3 -10 -19 -10 -36 0 -19 -5 -29 -15 -29 -10 0 -15 10 -15 34 0 19 -4 37 -8 40 -4 2 -28 -11 -51 -30 -47 -36 -71 -43 -71 -19 0 8 4 15 8 15 5 0 14 10 20 23 6 12 11 16 11 9 1 -10 9 -8 29 6 23 17 47 28 61 31 2 1 19 -10 38 -25z m-697 -666 c0 -10 -6 -18 -13 -18 -7 0 -31 -18 -52 -40 -21 -22 -34 -40 -29 -40 6 0 21 12 35 26 35 38 60 49 70 33 5 -8 9 -17 9 -21 0 -12 -67 -48 -91 -48 -21 -1 -22 -2 -7 -11 13 -7 28 -4 58 11 39 20 40 20 40 1 0 -24 -21 -41 -63 -51 l-32 -8 38 -1 c20 -1 37 -6 37 -12 0 -7 -14 -55 -31 -108 -37 -112 -48 -226 -29 -308 9 -44 21 -65 56 -98 24 -24 44 -49 44 -57 0 -7 -15 2 -32 21 -26 30 -32 32 -40 18 -5 -10 -16 -17 -24 -17 -8 0 -13 -4 -9 -9 3 -5 1 -12 -5 -16 -19 -12 -10 -26 11 -20 20 7 21 5 15 -25 -5 -27 -4 -31 8 -21 19 16 30 -3 16 -29 -11 -20 3 -30 15 -10 3 6 13 10 21 10 11 0 13 -6 9 -20 -6 -19 -6 -19 24 -2 36 20 52 9 44 -30 -5 -25 -10 -28 -42 -28 -61 1 -89 20 -124 84 -39 70 -63 90 -78 63 -8 -14 -14 -15 -30 -7 -16 9 -18 18 -14 43 5 27 0 42 -30 85 -50 73 -52 97 -20 185 21 58 26 88 23 136 -3 57 -2 60 17 54 14 -4 7 8 -23 41 -38 41 -62 82 -62 106 0 4 12 11 28 15 15 3 64 24 109 45 62 29 89 48 110 78 28 39 43 39 43 0z m-763 -710 c-3 -8 -6 -5 -6 6 -1 11 2 17 5 13 3 -3 4 -12 1 -19z m-17 -23 c0 -8 -2 -15 -4 -15 -2 0 -6 7 -10 15 -3 8 -1 15 4 15 6 0 10 -7 10 -15z m766 -20 c-6 -24 9 -36 16 -13 8 22 29 -3 22 -25 -5 -18 -4 -20 7 -9 22 20 41 15 34 -10 -6 -21 -5 -22 8 -5 16 20 30 21 58 7 16 -9 17 -14 7 -30 -9 -14 -16 -16 -29 -9 -10 5 -30 9 -44 9 -38 0 -60 15 -86 56 -18 30 -19 38 -8 45 21 13 22 11 15 -16z m98 -1 c22 -9 10 -23 -14 -17 -11 3 -17 9 -14 14 6 11 8 11 28 3z m-874 -14 c0 -5 -2 -10 -4 -10 -3 0 -8 5 -11 10 -3 6 -1 10 4 10 6 0 11 -4 11 -10z m970 -15 c0 -19 -17 -19 -50 0 l-25 14 38 1 c26 0 37 -4 37 -15z m46 -42 c-8 -8 -36 5 -36 17 0 7 6 7 21 0 11 -7 18 -14 15 -17z m-413 -3 c-3 -11 -9 -20 -14 -20 -10 0 -12 24 -2 33 13 13 21 7 16 -13z m-463 3 c0 -5 -4 -14 -9 -21 -6 -10 -13 -8 -32 7 l-24 20 33 1 c17 0 32 -3 32 -7z m51 -32 l23 -18 -32 5 c-18 2 -32 10 -32 18 0 19 13 18 41 -5z m795 4 c18 -14 17 -14 -13 -15 -23 0 -33 5 -33 15 0 19 21 19 46 0z m-852 -25 c35 -13 33 -28 -4 -22 -17 2 -30 10 -30 18 0 17 1 17 34 4z m822 -25 c18 -13 17 -14 -18 -15 -27 0 -38 4 -38 15 0 19 30 19 56 0z m-893 -45 c5 -4 -5 -11 -23 -15 -36 -8 -45 -3 -36 20 6 16 40 13 59 -5z" />
    <path
       class="node"
       id="node2"
       d="M2460 2825 c-8 -9 -8 -15 -2 -15 12 0 26 19 19 26 -2 2 -10 -2 -17 -11z" />
    <path
       class="node"
       id="node3"
       d="M2465 2780 c-14 -16 -26 -19 -56 -14 -26 4 -39 3 -39 -5 0 -6 3 -10 8 -10 34 6 72 -3 72 -16 0 -22 40 -35 65 -22 18 9 19 9 6 -7 -15 -18 -51 -17 -75 3 -26 21 -18 -1 13 -39 16 -19 33 -31 37 -27 4 4 -1 14 -12 22 -18 14 -18 14 7 15 16 0 36 12 52 30 31 34 33 40 13 40 -7 0 -21 11 -30 25 -20 30 -37 32 -61 5z m60 -27 l18 -28 -27 25 -27 24 -6 -22 c-6 -25 -23 -30 -23 -7 0 13 25 34 41 35 4 0 15 -12 24 -27z" />
    <path
       class="node"
       id="node4"
       d="M2665 2711 c71 -20 88 -30 75 -46 -8 -10 -30 -15 -61 -15 -26 0 -51 -5 -55 -11 -5 -8 11 -10 55 -7 48 3 67 10 89 30 15 14 41 30 57 35 26 9 21 10 -35 10 -36 0 -85 2 -110 6 -33 5 -37 4 -15 -2z" />
    <path
       class="node"
       id="node5"
       d="M2857 2683 c-4 -3 -7 -11 -7 -17 0 -6 5 -5 12 2 6 6 9 14 7 17 -3 3 -9 2 -12 -2z" />
    <path
       class="node"
       id="node6"
       d="M2200 2659 c0 -17 20 -49 30 -49 14 0 12 34 -2 48 -15 15 -28 15 -28 1z" />
    <path
       class="node"
       id="node7"
       d="M2150 2537 c0 -19 47 -60 59 -52 12 7 -3 44 -23 57 -18 12 -36 9 -36 -5z" />
    <path
       class="node"
       id="node8"
       d="M2110 2427 c0 -17 54 -69 63 -60 13 12 7 40 -11 56 -22 20 -52 22 -52 4z" />
    <path
       class="node"
       id="node9"
       d="M2114 2305 c-4 -9 4 -23 17 -35 27 -22 39 -25 39 -9 0 35 -46 71 -56 44z" />
    <path
       class="node"
       id="node10"
       d="M2080 2132 c0 -26 37 -59 51 -45 8 8 6 18 -6 37 -20 30 -45 34 -45 8z" />
    <path
       class="node"
       id="node11"
       d="M1966 1894 c-7 -18 19 -74 35 -74 17 0 22 29 9 60 -13 33 -34 39 -44 14z" />
    <path
       class="node"
       id="node12"
       d="M1800 1831 c0 -49 51 -114 72 -93 10 10 10 17 0 32 -6 11 -12 26 -12 34 0 16 -38 66 -51 66 -5 0 -9 -18 -9 -39z" />
    <path
       class="node"
       id="node13"
       d="M1641 1757 c-21 -27 5 -157 30 -142 14 9 11 119 -4 139 -12 16 -14 16 -26 3z" />
    <path
       class="node"
       id="node14"
       d="M1322 1698 c-29 -47 -38 -88 -20 -88 19 0 57 53 64 90 9 42 -18 40 -44 -2z" />
    <path
       class="node"
       id="node15"
       d="M1097 1678 c-19 -29 -32 -88 -20 -88 19 0 75 68 71 86 -5 28 -35 29 -51 2z" />
    <path
       class="node"
       id="node16"
       d="M1795 1643 c12 -48 40 -69 51 -39 7 18 -26 65 -45 66 -9 0 -11 -8 -6 -27z" />
    <path
       class="node"
       id="node17"
       d="M1211 1584 c-12 -15 -21 -30 -21 -35 0 -4 -3 -14 -6 -23 -4 -10 -1 -16 10 -16 16 0 66 66 66 87 0 22 -28 14 -49 -13z" />
    <path
       class="node"
       id="node18"
       d="M718 1526 c-29 -45 -38 -101 -15 -94 16 6 56 78 59 108 5 38 -15 32 -44 -14z" />
    <path
       class="node"
       id="node19"
       d="M1707 1554 c-10 -11 -8 -74 2 -74 13 0 25 60 14 71 -5 5 -12 6 -16 3z" />
    <path
       class="node"
       id="node20"
       d="M1327 1500 c-30 -28 -46 -50 -37 -50 23 0 130 71 130 86 0 29 -44 12 -93 -36z" />
    <path
       class="node"
       id="node21"
       d="M1810 1525 c-14 -36 -12 -55 4 -55 15 0 26 21 26 50 0 30 -19 33 -30 5z" />
    <path
       class="node"
       id="node22"
       d="M60 1511 c0 -5 -3 -16 -6 -25 -4 -11 -1 -16 10 -16 10 0 16 9 16 25 0 14 -4 25 -10 25 -5 0 -10 -4 -10 -9z" />
    <path
       class="node"
       id="node23"
       d="M584 1509 c-4 -6 -10 -27 -14 -45 -6 -27 -5 -34 7 -34 16 0 47 66 38 80 -8 13 -22 13 -31 -1z" />
    <path
       class="node"
       id="node24"
       d="M391 1472 c-17 -33 -14 -74 6 -70 25 5 39 56 20 75 -13 14 -16 13 -26 -5z" />
    <path
       class="node"
       id="node25"
       d="M202 1458 c-7 -7 -12 -24 -12 -40 0 -34 27 -28 36 9 8 29 -7 48 -24 31z" />
    <path
       class="node"
       id="node26"
       d="M1402 1450 c-40 -25 -43 -45 -4 -35 35 8 59 32 46 45 -6 6 -21 3 -42 -10z" />
    <path
       class="node"
       id="node27"
       d="M1377 1303 c-20 -16 -47 -35 -59 -45 -18 -13 -20 -19 -11 -29 9 -9 23 -6 65 16 66 34 82 49 75 69 -9 23 -29 20 -70 -11z" />
    <path
       class="node"
       id="node28"
       d="M1275 955 c32 -9 58 -24 72 -42 13 -15 23 -22 23 -15 0 8 -13 27 -29 43 -24 24 -38 29 -73 28 l-43 -1 50 -13z" />
    <path
       class="node"
       id="node29"
       d="M1237 909 c10 -17 30 -37 45 -45 31 -16 68 -18 68 -4 0 6 -14 10 -30 10 -30 0 -80 37 -80 60 0 5 -5 10 -11 10 -5 0 -2 -14 8 -31z" />
    <path
       class="node"
       id="node30"
       d="M1000 816 c0 -15 47 -53 54 -45 2 2 -9 17 -25 32 -21 20 -29 24 -29 13z" />
    <path
       class="node"
       id="node31"
       d="M990 783 c0 -12 38 -48 45 -41 3 2 -6 15 -20 28 -14 13 -25 19 -25 13z" />
    <path
       class="node"
       id="node32"
       d="M980 732 c0 -12 19 -26 26 -19 2 2 -2 10 -11 17 -9 8 -15 8 -15 2z" />
    <path
       class="node"
       id="node33"
       d="M800 514 c0 -21 4 -33 10 -29 6 3 10 19 10 36 0 16 -4 29 -10 29 -5 0 -10 -16 -10 -36z" />
    <path
       class="node"
       id="node34"
       d="M829 501 c-3 -43 -2 -49 9 -34 14 20 16 52 3 72 -6 9 -10 -3 -12 -38z" />
    <path
       class="node"
       id="node35"
       d="M908 453 c-28 -7 -21 -21 7 -15 14 2 22 8 19 13 -3 5 -6 8 -7 8 -1 -1 -10 -3 -19 -6z" />
    <path
       class="node"
       id="node36"
       d="M900 420 c-12 -8 -9 -10 13 -10 15 0 27 5 27 10 0 13 -20 13 -40 0z" />
    <path
       class="node"
       id="node37"
       d="M831 383 c0 -16 7 -50 15 -78 l13 -50 -4 49 c-3 27 -5 62 -5 77 0 16 -4 29 -10 29 -5 0 -10 -12 -9 -27z" />
    <path
       class="node"
       id="node38"
       d="M900 380 c-12 -8 -9 -10 13 -10 15 0 27 5 27 10 0 13 -20 13 -40 0z" />
    <path
       class="node"
       id="node39"
       d="M900 340 c-12 -8 -12 -10 5 -10 11 0 27 5 35 10 12 8 12 10 -5 10 -11 0 -27 -5 -35 -10z" />
    <path
       class="node"
       id="node40"
       d="M1601 452 c-1 -68 20 -154 35 -139 3 3 0 15 -6 27 -6 12 -15 58 -19 103 l-8 82 -2 -73z" />
    <path
       class="node"
       id="node41"
       d="M1650 471 c0 -4 11 -6 25 -3 14 2 25 6 25 8 0 2 -11 4 -25 4 -14 0 -25 -4 -25 -9z" />
    <path
       class="node"
       id="node42"
       d="M1534 447 c3 -10 6 -28 6 -38 0 -11 5 -17 10 -14 15 9 12 28 -6 51 -14 17 -15 17 -10 1z" />
    <path
       class="node"
       id="node43"
       d="M1664 414 c-17 -14 -17 -15 -1 -10 10 3 23 6 28 6 5 0 9 5 9 10 0 14 -13 12 -36 -6z" />
    <path
       class="node"
       id="node44"
       d="M1674 365 c-10 -8 -14 -15 -8 -15 5 0 19 7 30 15 10 8 14 15 8 15 -5 0 -19 -7 -30 -15z" />
    <path
       class="node"
       id="node45"
       d="M1694 326 c-10 -8 -15 -18 -11 -22 4 -4 17 2 30 14 24 25 12 30 -19 8z" />
  </g>
  <g
     transform="translate(0.000000,291.000000) scale(0.100000,-0.100000)"
     fill="#FFFFFF"
     stroke="none"
     id="g53"
     style="fill:#008000">
    <path
       class="node"
       id="node48"
       d="M2415 2838 c-9 -29 -15 -33 -47 -36 -29 -2 -38 -8 -38 -22 0 -30 -19 -33 -32 -5 -17 37 -54 31 -50 -7 6 -46 -8 -55 -34 -22 -22 27 -25 28 -40 12 -15 -14 -15 -21 -5 -47 18 -42 6 -56 -26 -31 l-26 20 -14 -20 c-13 -18 -12 -24 12 -52 31 -36 22 -54 -20 -38 -43 16 -48 -5 -14 -53 43 -60 39 -78 -14 -58 -20 8 -27 6 -32 -6 -4 -11 8 -30 35 -58 37 -38 51 -65 32 -65 -4 0 -22 4 -40 9 l-32 10 0 -38 c0 -29 7 -44 35 -71 46 -44 44 -54 -7 -46 -54 9 -65 -8 -32 -47 28 -34 31 -52 7 -42 -31 13 -63 18 -63 9 0 -4 6 -15 14 -23 8 -9 17 -32 21 -51 l7 -34 -23 17 c-64 45 -63 46 -56 -24 10 -96 -1 -102 -64 -40 -31 30 -58 50 -67 46 -7 -3 -19 -5 -27 -5 -7 0 -15 -20 -19 -51 -7 -52 -39 -128 -59 -141 -20 -13 -28 4 -22 44 10 58 -11 128 -39 128 -16 -1 -29 -16 -51 -62 -33 -68 -109 -158 -132 -158 -11 0 -13 5 -8 18 5 9 11 42 15 72 5 30 11 72 15 93 7 36 7 37 -22 37 -24 0 -36 -9 -63 -47 -18 -27 -71 -85 -118 -130 -121 -118 -126 -114 -52 39 55 112 54 121 -15 98 -26 -9 -41 -23 -56 -53 -12 -23 -41 -69 -65 -102 -51 -69 -134 -193 -134 -200 0 -2 7 -2 15 1 22 9 19 -24 -5 -63 -32 -54 -53 -38 -30 23 9 24 9 26 -5 14 -38 -32 -34 9 15 149 27 78 46 141 42 139 -5 -2 -37 -16 -73 -31 l-64 -28 -75 -124 c-70 -117 -91 -142 -109 -130 -5 2 -4 26 0 52 4 26 8 65 8 86 l1 37 -31 -13 c-26 -10 -34 -21 -43 -58 -7 -25 -22 -59 -34 -76 -12 -17 -22 -40 -22 -51 0 -28 -37 -72 -43 -52 -15 51 -27 115 -27 141 0 27 -3 30 -22 23 -76 -23 -70 -15 -115 -161 -27 -88 -44 -110 -51 -67 -2 10 -11 34 -19 52 -10 21 -14 48 -10 77 5 50 -8 59 -37 26 -24 -26 -57 -90 -65 -125 -8 -36 -27 -44 -36 -16 -11 34 -8 125 4 148 6 12 23 25 36 28 27 7 32 18 14 30 -16 9 -55 -14 -70 -43 -14 -26 -47 -49 -57 -39 -3 4 4 29 16 57 17 40 18 48 5 37 -22 -17 -43 -71 -43 -106 0 -49 31 -123 68 -159 19 -20 60 -47 91 -62 60 -28 103 -30 436 -22 115 3 151 -2 229 -34 16 -7 17 -5 11 16 -16 55 23 -8 51 -81 28 -73 103 -170 132 -170 6 0 19 11 28 25 15 23 14 29 -12 97 -17 43 -45 91 -69 117 -24 26 -32 40 -19 33 11 -6 27 -19 35 -28 13 -16 15 -12 19 32 l5 49 13 -70 c8 -38 25 -98 39 -133 14 -35 22 -73 19 -85 -3 -12 -23 -52 -45 -88 -44 -74 -59 -108 -91 -219 -23 -77 -33 -91 -145 -187 -35 -30 -37 -35 -32 -80 5 -53 22 -150 39 -228 7 -27 11 -75 10 -105 -2 -30 2 -66 8 -80 13 -32 59 -60 98 -60 24 0 32 6 43 31 11 28 10 33 -6 45 -23 17 -51 18 -59 2 -3 -7 -4 0 -1 16 5 23 3 27 -9 23 -18 -7 -22 8 -6 18 6 3 10 13 10 21 0 11 -6 13 -22 8 l-23 -6 24 26 c22 23 21 31 -1 27 -5 0 -8 3 -8 9 0 5 5 10 10 10 6 0 10 11 10 25 0 14 5 25 10 25 6 0 10 -27 10 -60 0 -70 15 -108 46 -116 12 -3 30 -14 40 -25 26 -29 61 -25 67 8 3 16 0 31 -6 35 -17 11 -57 10 -57 -2 0 -5 -4 -10 -10 -10 -5 0 -7 7 -3 17 5 13 2 15 -16 10 -18 -4 -21 -2 -15 15 5 17 3 20 -10 15 -14 -6 -16 -3 -11 14 5 15 4 19 -4 15 -6 -4 -11 -3 -11 3 0 5 4 12 10 16 6 4 6 15 0 31 -13 32 -13 44 0 44 6 0 10 -8 10 -17 0 -10 5 -25 10 -33 6 -10 8 -2 3 25 -5 33 -3 38 8 28 17 -17 29 -16 29 2 0 8 -9 20 -20 27 -16 10 -20 24 -20 64 0 82 44 146 146 212 85 54 174 127 174 142 0 5 -9 11 -19 15 -28 9 -50 48 -58 101 -4 35 -3 45 5 40 7 -4 12 -23 12 -42 0 -26 8 -44 29 -65 16 -16 36 -29 44 -29 18 0 59 59 91 133 14 31 43 76 65 100 81 88 107 175 98 327 -6 94 -41 241 -73 302 -8 16 -13 35 -11 41 7 19 64 -114 88 -203 17 -68 20 -104 17 -204 -4 -142 -20 -187 -92 -264 -25 -26 -54 -70 -66 -96 l-20 -49 52 7 c49 7 178 52 224 79 20 11 124 130 124 142 0 3 -10 5 -22 5 -13 0 -30 5 -38 10 -11 7 -1 10 36 10 36 0 56 5 67 18 25 28 21 32 -27 32 -25 0 -47 4 -51 9 -3 6 8 8 27 5 42 -7 110 8 116 24 2 8 -12 12 -47 12 -28 0 -51 5 -51 10 0 6 25 10 56 10 66 0 79 6 165 79 36 31 93 78 128 104 35 27 61 50 59 52 -2 2 -25 -4 -51 -13 -42 -15 -48 -15 -62 -1 -9 9 -17 27 -19 42 -1 14 -17 37 -35 52 -17 15 -29 30 -26 33 3 3 16 -5 30 -18 28 -26 34 -17 9 11 -9 10 -18 40 -20 66 l-3 48 11 -45 c12 -44 12 -45 16 -13 3 34 42 73 71 73 10 -1 6 -6 -11 -15 -35 -20 -41 -41 -32 -125 10 -102 21 -109 117 -71 43 17 63 1 65 -50 2 -47 6 -54 22 -44 7 4 10 20 8 36 -3 20 0 29 9 29 7 0 13 -11 13 -25 0 -14 5 -25 10 -25 23 0 10 62 -19 91 -27 26 -36 29 -95 29 -51 0 -67 -4 -75 -17 -10 -17 -10 -17 -11 0 0 9 -5 17 -11 17 -6 0 -1 9 12 19 20 16 24 29 26 81 1 34 4 64 7 67 10 10 18 -48 13 -85 l-6 -37 22 35 c28 44 30 134 4 173 -17 27 -16 47 4 47 5 0 9 -8 9 -17 0 -10 7 -38 16 -63 18 -53 12 -97 -21 -158 l-24 -43 42 3 42 3 23 65 c19 55 22 79 18 155 -3 50 -10 114 -16 144 -17 75 -9 160 17 197 18 25 20 37 13 69 -9 41 -5 62 5 29 10 -30 21 -48 32 -51 7 -3 6 11 -3 38 -8 23 -13 47 -11 53 4 10 13 -8 32 -63 6 -16 71 -9 89 10 11 11 7 11 -56 -7 -20 -6 -21 -5 -9 10 7 9 20 16 29 16 8 0 -5 18 -32 43 -25 24 -46 52 -46 61 0 10 -16 36 -35 57 -43 48 -46 93 -10 171 14 29 25 63 25 75 0 12 5 25 10 28 18 11 11 -34 -16 -97 -36 -86 -35 -120 2 -160 17 -18 36 -47 43 -65 17 -41 44 -66 116 -102 48 -25 73 -31 123 -31 47 0 83 -8 139 -30 41 -17 81 -30 89 -30 20 0 78 55 71 67 -4 6 -35 16 -71 23 -77 14 -155 57 -191 104 -15 20 -35 38 -46 41 -10 3 -31 24 -46 47 -25 36 -61 62 -118 84 -16 7 -13 9 17 12 20 2 42 10 48 18 7 8 17 14 23 14 6 0 1 -10 -11 -23 -12 -13 -19 -27 -15 -30 11 -11 55 -8 106 8 36 11 76 13 156 8 95 -5 112 -3 154 15 53 24 82 72 71 117 -7 29 -58 75 -82 75 -12 0 -10 -4 7 -13 21 -11 28 -36 8 -29 -5 1 -6 -2 -2 -8 3 -5 15 -10 26 -10 10 0 19 -4 19 -10 0 -12 -30 -13 -48 -1 -17 10 -44 62 -37 69 9 9 -104 40 -200 56 -64 10 -110 25 -158 50 -38 20 -74 36 -81 36 -6 0 -16 -15 -21 -32z m60 -17 c-3 -6 -11 -11 -17 -11 -6 0 -6 6 2 15 14 17 26 13 15 -4z m51 -46 c9 -14 23 -25 30 -25 20 0 18 -6 -13 -40 -16 -18 -36 -30 -52 -30 -25 -1 -25 -1 -7 -15 11 -8 16 -18 12 -22 -4 -4 -21 8 -37 27 -31 38 -39 60 -13 39 24 -20 60 -21 75 -3 13 16 12 16 -6 7 -25 -13 -65 0 -65 22 0 13 -38 22 -72 16 -5 0 -8 4 -8 10 0 8 13 9 39 5 30 -5 42 -2 56 14 24 27 41 25 61 -5z m264 -68 c56 0 61 -1 35 -10 -16 -5 -42 -21 -57 -35 -22 -20 -41 -27 -89 -30 -44 -3 -60 -1 -55 7 4 6 29 11 55 11 31 0 53 5 61 15 13 16 -4 26 -75 46 -22 6 -18 7 15 2 25 -4 74 -6 110 -6z m72 -39 c-7 -7 -12 -8 -12 -2 0 6 3 14 7 17 3 4 9 5 12 2 2 -3 -1 -11 -7 -17z m-634 -10 c14 -14 16 -48 2 -48 -10 0 -30 32 -30 49 0 14 13 14 28 -1z m-42 -116 c20 -13 35 -50 23 -57 -12 -8 -59 33 -59 52 0 14 18 17 36 5z m-24 -119 c18 -16 24 -44 11 -56 -9 -9 -63 43 -63 60 0 18 30 16 52 -4z m-2 -134 c12 -21 13 -39 3 -39 -19 1 -55 41 -49 55 7 18 33 9 46 -16z m-35 -165 c12 -19 14 -29 6 -37 -14 -14 -51 19 -51 45 0 26 25 22 45 -8z m-115 -244 c13 -31 8 -60 -9 -60 -16 0 -42 56 -35 74 10 25 31 19 44 -14z m-171 -36 c12 -15 21 -33 21 -40 0 -8 6 -23 12 -34 10 -15 10 -22 0 -32 -21 -21 -72 44 -72 93 0 46 11 49 39 13z m-159 -165 c0 -94 -30 -85 -44 14 -5 33 -3 53 5 64 21 24 39 -12 39 -78z m-314 21 c-7 -37 -45 -90 -64 -90 -10 0 -12 7 -7 28 18 72 85 131 71 62z m-218 -24 c4 -18 -52 -86 -71 -86 -12 0 1 59 20 88 16 27 46 26 51 -2z m685 -32 c10 -14 16 -32 13 -40 -11 -30 -39 -9 -51 39 -9 35 13 36 38 1z m-573 -47 c0 -21 -50 -87 -66 -87 -11 0 -14 6 -10 16 3 9 6 19 6 23 0 5 9 20 21 35 21 27 49 35 49 13z m-498 -57 c-3 -30 -43 -102 -59 -108 -23 -7 -14 49 15 94 29 46 49 52 44 14z m963 -29 c-4 -17 -11 -31 -16 -31 -10 0 -12 63 -2 74 14 13 25 -13 18 -43z m-305 25 c0 -15 -107 -86 -130 -86 -9 0 7 22 37 50 49 48 93 65 93 36z m420 -16 c0 -29 -11 -50 -26 -50 -16 0 -18 19 -4 55 11 28 30 25 30 -5z m-1760 -25 c0 -16 -6 -25 -16 -25 -11 0 -14 5 -10 16 3 9 6 20 6 25 0 5 5 9 10 9 6 0 10 -11 10 -25z m535 15 c9 -14 -22 -80 -38 -80 -12 0 -13 7 -7 34 12 52 30 71 45 46z m-192 -77 c-13 -38 -43 -44 -43 -8 0 14 5 36 11 47 10 18 13 19 26 5 12 -11 13 -22 6 -44z m-197 -6 c-9 -37 -36 -43 -36 -9 0 32 19 57 33 43 5 -5 7 -21 3 -34z m1214 9 c-20 -20 -70 -32 -70 -17 0 18 63 52 74 41 7 -7 5 -15 -4 -24z m7 -122 c7 -20 -9 -35 -75 -69 -42 -22 -56 -25 -65 -16 -9 10 -7 16 11 29 12 10 39 29 59 45 41 31 61 34 70 11z m-106 -373 c16 -16 29 -35 29 -43 0 -7 -10 0 -23 15 -14 18 -40 33 -72 42 l-50 13 43 1 c35 1 49 -4 73 -28z m-101 -11 c0 -23 50 -60 80 -60 16 0 30 -4 30 -10 0 -14 -37 -12 -68 4 -28 15 -71 76 -53 76 6 0 11 -5 11 -10z m-186 -159 c-7 -8 -54 30 -54 45 0 11 8 7 29 -13 16 -15 27 -30 25 -32z m-19 -29 c-7 -7 -45 29 -45 41 0 6 11 0 25 -13 14 -13 23 -26 20 -28z m-29 -29 c-7 -7 -26 7 -26 19 0 6 6 6 15 -2 9 -7 13 -15 11 -17z m-186 -192 c0 -17 -4 -33 -10 -36 -6 -4 -10 8 -10 29 0 20 5 36 10 36 6 0 10 -13 10 -29z m30 -17 c0 -11 -6 -28 -12 -37 -11 -15 -12 -9 -9 34 2 35 6 47 12 38 5 -8 9 -23 9 -35z m84 -53 c3 -5 -5 -11 -19 -13 -28 -6 -35 8 -7 15 9 3 18 5 19 6 1 0 4 -3 7 -8z m6 -31 c0 -5 -12 -10 -27 -10 -22 0 -25 2 -13 10 20 13 40 13 40 0z m-90 -39 c0 -15 2 -50 5 -77 l4 -49 -13 50 c-17 61 -19 105 -6 105 6 0 10 -13 10 -29z m90 -1 c0 -5 -12 -10 -27 -10 -22 0 -25 2 -13 10 20 13 40 13 40 0z m0 -40 c-8 -5 -24 -10 -35 -10 -17 0 -17 2 -5 10 8 5 24 10 35 10 17 0 17 -2 5 -10z"
       style="fill:#008000" />
    <path
       class="node"
       id="node49"
       d="M2478 2769 c-10 -5 -18 -17 -18 -24 0 -23 17 -18 23 7 l6 22 27 -24 27 -25 -18 28 c-19 30 -22 31 -47 16z"
       style="fill:#008000" />
    <path
       class="node"
       id="node51"
       d="M2620 2490 c0 -5 5 -10 10 -10 6 0 10 5 10 10 0 6 -4 10 -10 10 -5 0 -10 -4 -10 -10z"
       style="fill:#008000" />
    <path
       class="node"
       id="node52"
       d="M2560 2460 c12 -22 30 -18 30 6 0 8 -9 14 -20 14 -18 0 -19 -3 -10 -20z"
       style="fill:#008000" />
    <path
       class="node"
       id="node53"
       d="M2607 2453 c-22 -21 20 -83 56 -83 9 0 17 -4 17 -10 0 -5 6 -10 13 -10 6 0 -7 19 -31 41 -24 23 -41 43 -38 46 7 7 85 -69 88 -87 2 -8 12 -21 22 -29 23 -17 94 -32 101 -21 3 4 -11 11 -30 14 -25 5 -47 21 -81 62 -26 30 -60 62 -75 70 -32 16 -33 16 -42 7z"
       style="fill:#008000" />
    <path
       class="node"
       id="node54"
       d="M460 1830 c-46 -15 -55 -21 -58 -44 -2 -14 2 -26 8 -26 11 0 80 41 119 71 21 17 21 19 5 18 -11 -1 -44 -9 -74 -19z"
       style="fill:#008000" />
    <path
       class="node"
       id="node55"
       d="M2328 1732 c-3 -42 -9 -86 -12 -97 -4 -11 2 -4 13 15 14 24 20 54 21 92 0 86 -17 79 -22 -10z"
       style="fill:#008000" />
    <path
       class="node"
       id="node56"
       d="M308 1783 c-16 -4 -16 -7 -1 -38 18 -37 43 -37 43 0 0 27 -18 43 -42 38z"
       style="fill:#008000" />
    <path
       class="node"
       id="node57"
       d="M153 1720 c-24 -10 -31 -23 -10 -18 24 5 67 -13 77 -32 17 -32 31 -23 28 18 -3 35 -5 37 -38 39 -19 1 -45 -2 -57 -7z"
       style="fill:#008000" />
    <path
       class="node"
       id="node58"
       d="M2420 1673 c-8 -3 -27 -15 -42 -25 -20 -14 -28 -16 -29 -6 0 7 -5 3 -11 -9 -6 -13 -15 -23 -20 -23 -4 0 -8 -7 -8 -15 0 -24 24 -17 71 19 23 19 47 32 51 30 4 -3 8 -21 8 -40 0 -24 5 -34 15 -34 10 0 15 10 15 29 0 17 5 33 10 36 6 4 10 -5 10 -19 0 -14 5 -26 10 -26 23 0 8 41 -23 64 -19 15 -36 26 -38 25 -2 0 -11 -3 -19 -6z"
       style="fill:#008000" />
    <path
       class="node"
       id="node60"
       d="M1737 988 c-21 -30 -48 -49 -110 -78 -45 -21 -94 -42 -109 -45 -16 -4 -28 -11 -28 -15 0 -24 24 -65 62 -106 30 -33 37 -45 23 -41 -19 6 -20 3 -17 -54 3 -48 -2 -78 -23 -136 -32 -88 -30 -112 20 -185 30 -43 35 -58 30 -85 -4 -25 -2 -34 14 -43 16 -8 22 -7 30 7 15 27 39 7 78 -63 35 -64 63 -83 124 -84 32 0 37 3 42 28 8 39 -8 50 -44 30 -30 -17 -30 -17 -24 2 4 14 2 20 -9 20 -8 0 -18 -4 -21 -10 -12 -20 -26 -10 -15 10 14 26 3 45 -16 29 -12 -10 -13 -6 -8 21 6 30 5 32 -15 25 -21 -6 -30 8 -11 20 6 4 8 11 5 16 -4 5 1 9 9 9 8 0 19 7 24 17 8 14 14 12 40 -18 17 -19 32 -28 32 -21 0 8 -20 33 -44 57 -35 33 -47 54 -56 98 -19 82 -8 196 29 308 17 53 31 101 31 108 0 6 -17 11 -37 12 l-38 1 32 8 c42 10 63 27 63 51 0 19 -1 19 -40 -1 -30 -15 -45 -18 -58 -11 -15 9 -14 10 7 11 24 0 91 36 91 48 0 4 -4 13 -9 21 -10 16 -35 5 -70 -33 -14 -14 -29 -26 -35 -26 -5 0 8 18 29 40 21 22 45 40 52 40 14 0 17 28 5 46 -4 7 -17 -3 -35 -28z m-107 -648 c6 -12 9 -24 6 -27 -15 -15 -36 71 -35 139 l2 73 8 -82 c4 -45 13 -91 19 -103z m70 136 c0 -2 -11 -6 -25 -8 -14 -3 -25 -1 -25 3 0 5 11 9 25 9 14 0 25 -2 25 -4z m-140 -62 c0 -7 -4 -16 -10 -19 -5 -3 -10 3 -10 14 0 10 -3 28 -6 38 -5 16 -4 16 10 -1 9 -11 16 -25 16 -32z m140 6 c0 -5 -4 -10 -9 -10 -5 0 -18 -3 -28 -6 -16 -5 -16 -4 1 10 23 18 36 20 36 6z m-4 -55 c-11 -8 -25 -15 -30 -15 -6 0 -2 7 8 15 11 8 25 15 30 15 6 0 2 -7 -8 -15z m17 -47 c-13 -12 -26 -18 -30 -14 -4 4 1 14 11 22 31 22 43 17 19 -8z"
       style="fill:#008000" />
    <path
       class="node"
       id="node61"
       d="M1011 284 c0 -11 3 -14 6 -6 3 7 2 16 -1 19 -3 4 -6 -2 -5 -13z"
       style="fill:#008000" />
    <path
       class="node"
       id="node62"
       d="M986 255 c4 -8 8 -15 10 -15 2 0 4 7 4 15 0 8 -4 15 -10 15 -5 0 -7 -7 -4 -15z"
       style="fill:#008000" />
    <path
       class="node"
       id="node63"
       d="M1751 251 c-11 -7 -10 -15 8 -45 26 -41 48 -56 86 -56 14 0 34 -4 44 -9 13 -7 20 -5 29 9 10 16 9 21 -7 30 -28 14 -42 13 -58 -7 -13 -17 -14 -16 -8 5 7 25 -12 30 -34 10 -11 -11 -12 -9 -7 9 7 22 -14 47 -22 25 -7 -23 -22 -11 -16 13 7 27 6 29 -15 16z"
       style="fill:#008000" />
    <path
       class="node"
       id="node64"
       d="M1836 231 c-3 -5 3 -11 14 -14 24 -6 36 8 14 17 -20 8 -22 8 -28 -3z"
       style="fill:#008000" />
    <path
       class="node"
       id="node65"
       d="M975 220 c3 -5 8 -10 11 -10 2 0 4 5 4 10 0 6 -5 10 -11 10 -5 0 -7 -4 -4 -10z"
       style="fill:#008000" />
    <path
       class="node"
       id="node66"
       d="M1910 205 c33 -19 50 -19 50 0 0 11 -11 15 -37 15 l-38 -1 25 -14z"
       style="fill:#008000" />
    <path
       class="node"
       id="node67"
       d="M1970 180 c0 -12 28 -25 36 -17 3 3 -4 10 -15 17 -15 7 -21 7 -21 0z"
       style="fill:#008000" />
    <path
       class="node"
       id="node68"
       d="M1577 173 c-10 -9 -8 -33 2 -33 5 0 11 9 14 20 5 20 -3 26 -16 13z"
       style="fill:#008000" />
    <path
       class="node"
       id="node69"
       d="M1089 149 c19 -15 26 -17 32 -7 15 22 10 28 -23 28 l-33 -1 24 -20z"
       style="fill:#008000" />
    <path
       class="node"
       id="node70"
       d="M1140 136 c0 -8 14 -16 32 -18 l32 -5 -23 18 c-28 23 -41 24 -41 5z"
       style="fill:#008000" />
    <path
       class="node"
       id="node71"
       d="M1930 135 c0 -10 10 -15 33 -15 30 1 31 1 13 15 -25 19 -46 19 -46 0z"
       style="fill:#008000" />
    <path
       class="node"
       id="node72"
       d="M1090 106 c0 -8 13 -16 30 -18 37 -6 39 9 4 22 -33 13 -34 13 -34 -4z"
       style="fill:#008000" />
    <path
       class="node"
       id="node73"
       d="M1890 85 c0 -11 11 -15 38 -15 35 1 36 2 18 15 -26 19 -56 19 -56 0z"
       style="fill:#008000" />
    <path
       class="node"
       id="node74"
       d="M994 45 c-9 -23 0 -28 36 -20 33 7 31 18 -8 30 -16 4 -24 2 -28 -10z"
       style="fill:#008000" />
    <path
       class="node"
       id="node75"
       d="M828 3 c12 -2 32 -2 45 0 12 2 2 4 -23 4 -25 0 -35 -2 -22 -4z"
       style="fill:#008000" />
    <path
       class="node"
       id="node76"
       d="M1048 3 c7 -3 16 -2 19 1 4 3 -2 6 -13 5 -11 0 -14 -3 -6 -6z"
       style="fill:#008000" />
  </g>
</svg>
