<?xml version="1.0" encoding="UTF-8" standalone="no"?>
<!-- Created with Inkscape (http://www.inkscape.org/) -->

<svg
   xmlns:dc="http://purl.org/dc/elements/1.1/"
   xmlns:cc="http://creativecommons.org/ns#"
   xmlns:rdf="http://www.w3.org/1999/02/22-rdf-syntax-ns#"
   xmlns:svg="http://www.w3.org/2000/svg"
   xmlns="http://www.w3.org/2000/svg"
   xmlns:sodipodi="http://sodipodi.sourceforge.net/DTD/sodipodi-0.dtd"
   xmlns:inkscape="http://www.inkscape.org/namespaces/inkscape"
   width="167.79112mm"
   height="225.16685mm"
   viewBox="0 0 594.53549 797.83531"
   id="svg2"
   version="1.1"
   inkscape:version="0.91 r13725"
   sodipodi:docname="flygdino.svg">
  <defs
     id="defs4" />
  <sodipodi:namedview
     id="base"
     pagecolor="#ffffff"
     bordercolor="#666666"
     borderopacity="1.0"
     inkscape:pageopacity="0.0"
     inkscape:pageshadow="2"
     inkscape:zoom="0.7"
     inkscape:cx="307.54435"
     inkscape:cy="351.6182"
     inkscape:document-units="px"
     inkscape:current-layer="layer1"
     showgrid="false"
     fit-margin-top="0"
     fit-margin-left="0"
     fit-margin-right="0"
     fit-margin-bottom="0"
     inkscape:window-width="1440"
     inkscape:window-height="849"
     inkscape:window-x="0"
     inkscape:window-y="25"
     inkscape:window-maximized="1" />
  <metadata
     id="metadata7">
    <rdf:RDF>
      <cc:Work
         rdf:about="">
        <dc:format>image/svg+xml</dc:format>
        <dc:type
           rdf:resource="http://purl.org/dc/dcmitype/StillImage" />
        <dc:title />
      </cc:Work>
    </rdf:RDF>
  </metadata>
  <g
     inkscape:label="Layer 1"
     inkscape:groupmode="layer"
     id="layer1"
     transform="translate(-18.568612,24.180382)">
    <path
       sodipodi:nodetypes="ccccccscccc"
       inkscape:connector-curvature="0"
       id="path4376"
       d="m 384.76517,547.55545 c 23.15139,-30.1343 54.66058,-53.39097 92.00556,-61.70885 11.46182,-1.17377 30.47356,-17.72389 37.01716,-8.88112 l 20.62043,66.50326 c -39.3468,10.54234 -87.46243,5.65262 -116.63464,38.99492 l -33.25387,28.74479 c -15.45381,3.36948 -26.35308,8.71527 -27.64489,1.56833 -2.49904,-13.82577 18.88282,-50.1796 27.02526,-63.74444 l 0.86504,-1.47686 0,0 z"
       style="opacity:1;fill:#808080;fill-opacity:1;fill-rule:nonzero;stroke:#000000;stroke-width:4.19999981;stroke-linecap:round;stroke-linejoin:round;stroke-miterlimit:4;stroke-dasharray:none;stroke-opacity:1" />
    <path
       style="opacity:1;fill:#808080;fill-opacity:1;fill-rule:nonzero;stroke:#000000;stroke-width:4.19999981;stroke-linecap:round;stroke-linejoin:round;stroke-miterlimit:4;stroke-dasharray:none;stroke-opacity:1"
       d="m 380.74788,545.90051 c 23.15139,-30.13431 54.66058,-53.39097 92.00555,-61.70885 11.46183,-1.17378 30.47356,-17.7239 37.01717,-8.88113 l 20.62043,66.50327 c -28.40298,7.61011 -61.37528,7.17881 -88.49286,18.89193 0.47458,5.03228 -1.52238,10.63335 1.22253,13.80917 35.95073,41.59434 6.03492,13.01893 -3.34844,7.922 1.81692,33.97508 -1.91474,24.97948 -6.55537,11.20201 -9.45481,18.073 -18.94757,35.90728 -3.1086,-9.27354 -2.15092,-6.2749 -4.28192,-11.84734 -5.97981,-13.31635 -3.66534,2.83144 -7.13532,6.06022 -10.37209,9.7597 l -33.25388,28.74479 c -17.62465,4.96584 -26.36296,8.73426 -27.64489,1.56832 -2.47413,-13.83025 18.88282,-50.17959 27.02526,-63.74444 l 0.86505,-1.47685 0,0 z"
       id="rect4358"
       inkscape:connector-curvature="0"
       sodipodi:nodetypes="cccccsccccccscccc" />
    <path
       style="fill:#999999"
       d="m 24.712966,-19.789761 c -0.1911,0.233451 -0.288572,0.557715 -0.22701,0.964958 -6.669419,30.767666 4.359724,61.956732 16.76345,89.589207 15.468624,32.661136 31.872162,65.004016 50.987655,95.699116 7.549908,11.30019 16.668549,21.44752 23.988819,32.94008 17.71971,21.72304 35.58154,43.88594 53.07581,66.04226 23.20494,29.30096 48.34376,56.97515 76.86641,81.10342 19.68712,17.28014 37.87988,37.10158 61.89789,48.52259 30.72051,15.60029 63.11333,27.53416 94.89906,40.69035 28.61761,11.5818 57.89892,23.13882 82.74644,41.82721 12.06947,11.75082 12.22206,29.98795 14.74917,45.52109 1.39064,12.15259 3.97068,25.50513 -1.15755,37.07107 -3.8213,4.67658 -9.8217,-1.11348 -12.20537,-3.02327 -1.4549,19.20995 4.24345,37.82918 9.88014,55.92671 5.191,21.23103 8.19557,43.31657 6.58744,65.17556 -1.29194,16.30352 -7.2639,32.15294 -7.30195,48.38587 1.45136,13.31157 6.51454,28.69954 13.87534,39.73332 3.30833,3.8322 10.11782,4.58752 14.63961,2.86859 9.19689,-21.059 -3.51029,-21.62755 5.64866,-35.45811 2.19988,-4.38612 6.0424,-7.9199 10.56025,-9.81759 -4.46896,-1.52024 -12.93251,-0.41454 -13.32274,-7.05388 -0.43793,-3.00037 3.74111,-4.88377 3.76915,-6.74774 -8.76551,-9.81181 -6.30294,-24.18655 -6.51715,-36.23563 0.59088,-9.48013 0.1525,-19.79827 3.52652,-28.61149 3.13264,-3.37558 7.6881,0.21849 7.45668,4.10844 1.47497,15.40282 3.5103,31.0379 9.49678,45.36664 3.9311,-2.64741 -0.4869,-6.09882 -0.50507,-9.4722 -0.72896,-4.81974 -2.32415,-11.65905 1.87111,-15.00673 5.58996,-2.28572 7.76665,5.24957 8.94821,9.15787 3.94939,13.14923 10.46849,25.94866 11.34825,39.79585 -0.46257,2.06321 -2.19226,4.02642 0.12686,5.55825 1.2035,3.3564 -2.26515,6.59971 -3.16116,8.65224 4.043,1.77826 5.04696,6.96631 3.26462,10.56353 2.40687,4.98035 6.61974,10.92995 2.8782,16.47428 -1.98646,2.76446 -0.81497,7.96141 3.49433,5.96723 8.38648,-3.38866 12.2618,-12.70038 16.35484,-20.02527 5.65353,-12.11167 1.51277,-26.0949 -4.57812,-37.16937 -14.16932,-19.0183 -18.82026,-43.26011 -21.6569,-66.34984 -0.73492,-4.46615 -2.05038,-12.95828 3.78941,-14.2564 l 6.50693,-67.24722 c -0.16213,-0.18796 -0.32031,-0.37884 -0.48267,-0.5666 -9.14874,-13.78787 -4.92833,-31.6915 2.6437,-45.15901 7.55765,-14.66021 15.79193,-29.49321 15.92625,-46.38257 2.31746,-16.77866 12.30893,-31.2136 16.79939,-47.12545 0.25814,-2.35652 0.24993,-6.86568 -2.92044,-4.65182 -6.78139,1.53905 -9.76093,-6.15551 -12.12554,-10.93874 -5.94743,-11.97272 -9.53034,-25.02563 -13.88778,-37.51065 -0.14577,4.1615 -4.31148,9.82127 -8.73388,6.47077 -7.98271,-10.02108 -15.67682,-22.92399 -12.3525,-36.29928 1.49859,-5.48339 2.14786,-12.22872 6.36941,-16.344 2.29001,-1.76172 5.81024,1.68673 6.04278,-2.57593 6.58505,-14.30965 -1.07606,-30.84057 6.68311,-44.83611 2.87433,-6.36305 9.61927,-10.11203 16.38898,-9.9098 2.01134,-4.8729 0.78075,-14.37042 -6.43991,-12.66964 -12.77858,2.15891 -17.04061,16.59842 -20.15043,27.33372 -2.39368,6.7657 -2.75704,14.73703 -6.9567,20.62387 -23.89053,13.99963 -50.4247,27.77553 -78.99984,25.29689 -37.31543,-2.28012 -71.47914,-19.3852 -105.01227,-34.40511 C 342.30482,275.239 310.60456,252.12685 286.42405,222.20816 244.27616,175.22919 199.00503,131.1712 156.15213,84.834651 127.03074,54.106718 98.708037,21.636512 62.109771,-0.35902506 50.382714,-7.393357 39.166723,-15.776167 26.150938,-20.190916 c -0.540375,-0.127685 -1.119501,0.01177 -1.438002,0.401155 z"
       id="path4300"
       inkscape:connector-curvature="0"
       sodipodi:nodetypes="scccccccccccccccccccccccccccccccccccccccccccccccccccccccccccccs" />
    <path
       style="fill:#000000"
       d="m 21.279103,-21.81279 c -1.174673,1.973756 -1.700326,5.157239 -2.078918,9.460289 -2.548158,28.961984 2.234453,49.368601 21.327551,91.010671 16.201533,35.33562 50.557627,97.1036 55.832517,100.38078 0.889334,0.55253 5.095007,6.18681 9.345007,12.52005 4.25,6.33323 11.42809,15.72624 15.95367,20.87283 4.52561,5.14656 18.34274,22.31824 30.70503,38.15894 34.04439,43.6236 54.72147,66.46158 83.27276,91.98397 14.27558,12.76112 32.33705,28.97694 40.13771,36.03355 17.57454,15.89824 41.54331,27.36808 134.45474,64.34806 32.23525,12.83006 62.04474,28.18826 72.16588,37.18059 7.16652,6.36725 9.48998,12.52233 12.92937,34.24565 2.30624,14.56614 3.5117,30.76662 2.67836,36.00058 -1.45499,9.13833 -1.72807,9.32224 -6.83811,4.61111 -3.27919,-3.02321 -6.06433,-3.70702 -7.25958,-1.78316 -3.01978,4.86059 0.57588,36.28305 5.58228,48.78425 6.20596,15.49648 11.794,53.32754 10.51099,71.15882 -0.58465,8.12501 -3.06075,23.55181 -5.50214,34.28219 -3.80154,16.70836 -3.40032,22.30091 2.79041,38.95132 7.4954,20.15945 15.23375,28.06542 26.62572,27.20424 5.96621,-0.45102 6.38268,-1.02631 4.60871,-6.3411 6.7112,-29.20465 -8.89072,-28.1889 12.29076,-38.51017 7.79408,-3.82888 6.20862,-8.43736 -3.3264,-9.66837 -6.88497,-0.88888 -7.28132,-1.46911 -3.46403,-5.09073 2.78405,-2.64132 3.01623,-4.89314 0.65602,-6.35949 -5.49749,-3.41548 -7.19309,-17.52441 -5.2428,-43.62738 0.96501,-12.91582 2.0205,-19.36833 2.34617,-14.33909 1.14371,17.66182 7.91699,47.04553 11.3336,49.16821 1.89897,1.17979 4.86925,-0.1356 6.6002,-2.92172 1.73097,-2.78612 2.13828,-5.69153 0.90544,-6.45746 -1.23283,-0.76594 -2.34773,-5.80134 -2.47772,-11.18984 -0.19134,-7.93172 1.03769,-6.00106 6.45903,10.14069 8.9325,26.5961 9.59107,29.40779 7.62035,32.57982 -0.9273,1.49257 -0.65344,3.3535 0.6092,4.13796 1.26264,0.78445 0.11366,3.49665 -2.55331,6.02691 -3.84645,3.64927 -3.7714,4.80747 0.36074,5.60007 3.32715,0.63819 4.41109,2.28211 3.00276,4.54892 -1.21274,1.952 -0.37356,5.68876 1.86318,8.30401 2.24819,2.62865 2.68362,6.97975 0.9751,9.72974 -4.36199,7.02098 1.79623,13.93501 9.60473,10.78441 8.26589,-3.33505 19.87682,-22.17305 20.76382,-33.6875 0.66487,-8.63122 -5.53713,-28.71714 -9.65758,-31.27709 -1.0724,-0.66627 -5.11799,-8.31423 -8.9922,-16.99618 -5.5117,-12.35155 -11.21607,-42.97446 -10.94712,-52.66228 l -0.31229,-0.25606 7.01673,-66.98338 c -0.15454,-0.11708 -0.32664,-0.0637 -0.51369,0.13844 l 1.31209,-13.93302 c -5.06198,-11.28724 -2.34485,-23.9328 8.20532,-43.25578 8.33764,-15.27062 11.74868,-25.0786 12.54962,-36.08445 0.67034,-9.2112 4.68601,-22.37016 10.28179,-33.69255 6.70444,-13.56562 8.48859,-20.29602 6.612,-24.94701 -2.18886,-5.42492 -3.11129,-5.93486 -6.22595,-3.43577 -2.93889,2.35806 -4.96486,0.0458 -10.31255,-11.78062 -3.65988,-8.09388 -8.08479,-20.39111 -9.83373,-27.32584 -3.16745,-12.55929 -8.46155,-14.58389 -10.48923,-4.01273 -0.90406,4.71317 -2.0077,3.74708 -7.84606,-6.86816 -6.79074,-12.34676 -7.05067,-15.17536 -2.82753,-30.78631 1.36964,-5.06279 2.82339,-7.17225 3.71152,-5.38551 3.66744,7.37807 11.31442,-14.04357 9.78477,-27.41132 -1.86027,-16.25708 4.53986,-29.95388 13.79841,-29.53029 4.91275,0.22475 5.98725,-1.04687 6.90704,-8.17141 1.34582,-10.42426 -6.2353,-15.74351 -16.30458,-11.44035 -9.36808,4.00339 -13.74531,11.03885 -19.37505,31.14495 l -4.4627,15.93973 -17.33498,9.49683 C 498.22874,330.65345 465.28603,327.7818 390.59506,293.74521 346.40374,273.60728 319.61419,254.39894 293.45058,224.09259 282.22292,211.08719 259.49983,186.63774 242.95533,169.75934 226.41083,152.88093 200.50512,125.92292 185.38785,109.85497 103.46918,22.784693 98.430769,18.08131 62.97827,-4.4549684 34.172898,-22.765824 24.803087,-27.734028 21.279078,-21.81277 Z m 7.255376,6.549469 c 0.805212,-1.539483 2.1624,-0.774749 5.128085,1.128035 2.987659,1.916921 15.746754,9.7689042 28.352112,17.4490492 24.240551,14.7690058 52.318294,38.6946338 47.955724,40.8631388 -2.72833,1.356188 1.58297,5.02771 13.21974,11.257519 3.84072,2.056128 6.98008,5.3493 6.97546,7.31831 -0.005,1.968999 2.29486,4.021428 5.11038,4.56149 3.6831,0.706459 3.96,1.558258 0.98842,3.035327 -3.18186,1.58162 -2.3485,2.622384 3.62671,4.536502 4.79716,1.53675 7.10958,3.527228 6.06034,5.216067 -0.93305,1.501818 -0.33331,2.733618 1.33441,2.737519 1.66771,0.0039 6.99501,4.777413 11.83855,10.608675 l 8.80654,10.603539 -10.41618,-8.660376 C 141.54516,82.116101 69.289143,36.296338 64.305842,36.284655 c -7.633588,-0.01795 -9.596854,14.340527 -4.934973,36.096963 5.489276,25.617791 4.676704,32.601852 -2.21093,18.991965 -2.775014,-5.483412 -4.15668,-11.407361 -3.070563,-13.163128 1.085946,-1.755875 -0.270325,-4.660417 -3.012424,-6.454209 -2.742099,-1.793792 -3.767657,-4.523294 -2.279098,-6.065297 1.488569,-1.542073 1.275769,-2.805517 -0.473351,-2.809604 -1.749101,-0.0042 -4.652371,-4.060905 -6.45103,-9.013648 C 40.074769,48.915015 36.797308,43.742285 34.589932,42.370884 30.423565,39.782402 25.228626,17.319497 27.828614,13.1346 c 0.814765,-1.311423 0.758509,-3.9616069 -0.126132,-5.8888768 -0.884639,-1.92726 -1.128625,-8.3106615 -0.540891,-14.1851801 0.453754,-4.5354071 0.746604,-7.1264911 1.372886,-8.3238641 z M 35.83904,3.6942362 32.190524,11.498763 c -2.007228,4.292308 -2.349565,8.269118 -0.758072,8.836892 1.591488,0.567784 3.244045,3.568233 3.670733,6.667758 0.426686,3.099525 2.071504,6.415015 3.654811,7.370675 1.875144,1.13003 2.209611,0.344291 0.956861,-2.254442 -1.058223,-2.195252 -2.36437,-9.489028 -2.901085,-16.207977 z M 63.175854,45.320462 c 0.05151,-0.07076 0.104896,-0.130731 0.163904,-0.178692 1.626171,-1.321672 6.022544,-0.01598 9.83147,2.921162 7.504059,5.786466 10.87262,7.90847 45.178232,28.438536 25.31616,15.150353 63.78091,49.883732 114.69164,103.564162 13.99208,14.75331 33.41424,41.98637 33.27472,46.65816 -0.0717,2.40276 7.43611,18.28468 16.68587,35.29413 9.24975,17.00944 16.50815,32.36166 16.12994,34.11636 -1.05961,4.91604 14.75088,67.19377 17.49059,68.89591 3.29603,2.04775 0.35128,6.27386 -4.36463,6.2628 -2.10381,-0.005 -9.71637,-3.64389 -16.91668,-8.08645 -9.73165,-6.00453 -12.14885,-6.69611 -9.41557,-2.69496 2.82609,4.13703 2.10895,3.98653 -3.10371,-0.65212 -3.73003,-3.31932 -9.93521,-8.59042 -13.78821,-11.71189 -6.86242,-5.55951 -23.97384,-24.25154 -31.18785,-34.0694 -2.55809,-3.48142 -3.6432,-3.73501 -3.64997,-0.85354 -0.005,2.2556 -1.12203,3.40959 -2.48122,2.56515 -1.3592,-0.84445 -2.06993,-3.21577 -1.57991,-5.2699 0.52485,-2.20033 -3.87118,-6.73355 -10.69832,-11.03386 -6.37357,-4.01464 -11.9115,-8.68626 -12.30706,-10.3801 -0.39556,-1.69381 -4.22199,-5.28057 -8.50468,-7.96945 -6.1647,-3.87262 -6.65143,-4.95427 -2.33453,-5.19148 4.27606,-0.23496 4.01865,-0.71333 -1.19597,-2.22382 -4.68139,-1.35603 -8.12419,-5.76371 -11.63306,-14.89583 -2.74075,-7.13327 -5.0028,-11.0079 -5.02785,-8.61 -0.0636,6.07993 -7.12891,1.24286 -8.05963,-5.51774 -0.40558,-2.94616 -4.05087,-8.39079 -8.10063,-12.09875 -4.04978,-3.70796 -8.44491,-9.89273 -9.7669,-13.7433 -2.16711,-6.31196 -2.04368,-6.57854 1.26222,-2.72004 2.27911,2.6601 3.67033,2.87761 3.67573,0.57521 0.005,-2.03718 -1.86027,-4.06376 -4.14483,-4.50197 -5.64116,-1.08205 -19.8312,-16.66629 -22.0886,-24.25896 -1.00731,-3.38807 -5.04091,-8.76364 -8.96295,-11.94696 C 112.89134,168.4089 100.75644,150.4004 90.42788,128.78634 85.845755,119.19758 79.994239,108.8965 77.426037,105.89367 71.365155,98.807174 59.92975,49.778406 63.175854,45.320462 Z m 10.940644,79.142468 c 0.113888,-0.18386 0.287849,-0.30832 0.52489,-0.36371 1.264312,-0.29534 2.825852,1.75212 3.468371,4.55078 0.928745,4.04402 0.456119,4.15441 -2.299709,0.53719 -1.549435,-2.03374 -2.187057,-3.92754 -1.693552,-4.72426 z m 17.100161,27.80262 c 0.07635,-0.32505 0.510464,-0.32409 1.28215,0.0792 1.543401,0.80644 3.900152,4.17612 5.236845,7.48899 2.279026,5.64822 2.114875,5.82761 -2.620536,2.88559 -2.777447,-1.72557 -4.060629,-3.62869 -2.851599,-4.22967 1.20902,-0.60095 1.124868,-2.55875 -0.1868,-4.35151 -0.655844,-0.8964 -0.936437,-1.54753 -0.86006,-1.87258 z m 16.517201,14.14775 c 0.11389,-0.18385 0.28718,-0.31103 0.52426,-0.3664 1.26432,-0.29534 2.82586,1.75212 3.46838,4.55079 0.92873,4.04403 0.45612,4.15441 -2.29971,0.53719 -1.54945,-2.03375 -2.18643,-3.92484 -1.69293,-4.72158 z m 6.31066,10.24628 c 0.21186,-0.34101 1.09935,0.11505 2.78789,1.16412 2.0896,1.29821 4.82223,4.52736 6.07284,7.17599 2.02119,4.28062 1.85166,4.55349 -1.52546,2.45535 -2.08958,-1.29821 -4.82222,-4.52738 -6.07282,-7.176 -1.01059,-2.14031 -1.47431,-3.27846 -1.26245,-3.61946 z m 31.60652,52.78889 c 0.17802,-0.20866 0.73877,-0.24058 1.68484,-0.0731 2.28303,0.40418 4.41184,1.85042 4.73058,3.21495 0.31875,1.36456 -1.54954,1.03375 -4.15129,-0.73503 -1.79694,-1.22165 -2.56078,-2.05908 -2.26413,-2.40688 z m 24.69692,28.16963 c 0.16229,-0.31884 0.80391,-0.16006 1.92482,0.48074 2.13719,1.2216 4.9088,4.38802 6.1594,7.03665 2.77103,5.8686 -1.22673,3.38487 -6.33079,-3.9332 -1.37724,-1.97465 -1.9621,-3.17428 -1.75343,-3.58419 z m 86.11539,-62.04646 c 0.2461,-0.2358 1.90188,1.15782 4.90214,3.88258 4.32016,3.92339 9.9682,10.08752 12.55177,13.69836 5.51362,7.70578 4.60422,6.70935 15.14265,16.59338 4.57468,4.29066 7.79276,8.64532 7.15196,9.67674 -1.44244,2.32172 -0.19578,3.31404 38.39641,30.5645 17.24111,12.17445 32.46528,21.57872 33.82946,20.89801 1.36419,-0.68067 6.69929,2.00663 11.85614,5.97256 5.15686,3.96595 10.59559,6.60473 12.08731,5.86325 1.49172,-0.74151 5.88628,0.97372 9.76471,3.81324 10.18729,7.45846 1.68827,8.17439 -10.72925,0.90366 -5.64897,-3.30757 -10.27328,-4.62562 -10.27725,-2.92908 -0.004,1.69652 -5.00707,-0.59955 -11.11719,-5.10418 -7.8567,-5.79229 -12.13612,-7.41329 -14.61697,-5.5333 -2.3566,1.78582 -5.57251,0.72214 -9.79837,-3.24091 -8.9162,-8.36166 -18.43859,-10.62952 -21.81497,-5.19497 -1.57895,2.54146 -2.16838,6.03392 -1.31021,7.76036 0.85816,1.72644 0.0799,5.52286 -1.72972,8.43559 -4.65665,7.49525 13.41565,77.5669 20.577,79.78328 2.9194,0.90353 7.34644,5.10218 9.83664,9.33044 l 4.52727,7.68736 -9.62527,-5.9363 c -5.29389,-3.26509 -14.41468,-7.932 -20.26845,-10.37119 -8.72331,-3.63489 -9.75211,-4.73308 -5.69643,-6.08678 3.7381,-1.24772 4.45789,-3.10396 2.94104,-7.59103 -6.01023,-17.77905 -14.55502,-52.7286 -13.36146,-54.64973 0.76064,-1.22432 2.22353,0.2932 3.25114,3.37191 1.5656,4.69051 2.03158,4.74807 2.87414,0.35542 0.65879,-3.43419 -0.97013,-5.74267 -4.72087,-6.69475 -4.22691,-1.07295 -5.61867,-4.20245 -5.32003,-11.95549 0.2225,-5.77601 -1.01521,-11.395 -2.75179,-12.4845 -1.73583,-1.09067 -4.00524,-5.27645 -5.04461,-9.30104 -1.03935,-4.02456 -3.20648,-8.62297 -4.81395,-10.22005 -1.60745,-1.59708 -4.65283,-7.04554 -6.76925,-12.10625 -2.11639,-5.0607 -5.21068,-10.04804 -6.87457,-11.08179 -1.6639,-1.03374 -4.08305,-7.21879 -5.37534,-13.74656 -1.29231,-6.52778 -6.46146,-17.66145 -11.48781,-24.74117 -4.48808,-6.32153 -6.50238,-9.31838 -6.18602,-9.62158 z m -45.3266,108.50519 c 0.0847,-0.36973 1.42368,0.32537 4.07967,1.81261 3.13843,1.75738 5.70199,4.79939 5.69739,6.75879 -0.005,1.95944 1.07961,3.56443 2.40761,3.56755 1.32798,0.003 8.38796,5.61136 15.68974,12.46328 7.78429,7.30468 11.50213,12.45507 8.98664,12.44916 -2.35957,-0.006 -5.66369,-2.30225 -7.34176,-5.10395 -1.6781,-2.80172 -4.83902,-5.47998 -7.02478,-5.95094 -2.18577,-0.47095 -4.82626,-3.40771 -5.86718,-6.52626 -1.38287,-4.14305 -2.85009,-5.19406 -5.44855,-3.90243 -2.31682,1.15164 -4.34642,0.13687 -5.82269,-2.91162 -1.24631,-2.57358 -1.04498,-4.10159 0.44761,-3.39631 1.49258,0.70528 0.4315,-1.4006 -2.35821,-4.67965 -2.36087,-2.77496 -3.53021,-4.21051 -3.44549,-4.58023 z m 40.63095,42.40113 c 0.22364,-0.49224 1.25891,-0.5126 3.10133,-0.23232 2.87195,0.43692 8.4381,4.1891 12.3695,8.34025 6.74774,7.12487 6.75013,7.39615 0.0601,4.82926 -3.89776,-1.49553 -9.46287,-5.24939 -12.36847,-8.34191 -2.39657,-2.55075 -3.45001,-3.96241 -3.1625,-4.59528 z m 27.70527,21.59534 c 0.38167,-0.61433 1.83496,-0.40976 3.22802,0.45572 1.39306,0.86548 1.78155,2.78022 0.86499,4.2555 -0.91656,1.47527 -2.36717,1.27009 -3.22532,-0.45635 -0.85817,-1.72644 -1.24935,-3.64055 -0.86769,-4.25487 z m 49.73508,-79.47523 12.53384,7.78703 c 7.13376,4.43208 13.25274,6.63363 14.20114,5.10711 0.91658,-1.4753 2.23387,-1.54451 2.92557,-0.15297 0.6917,1.39154 11.61741,6.05151 24.28129,10.35567 58.11109,19.75047 83.79103,26.77071 96.10676,26.27398 7.31973,-0.29522 14.88871,0.44574 16.82055,1.64596 1.93186,1.20023 11.82981,0.23907 21.99325,-2.13504 22.15666,-5.17562 31.12832,-1.36453 28.88333,12.26749 -0.83148,5.04888 -0.11588,14.57779 1.5923,21.17547 1.70817,6.59768 2.2554,19.51693 1.21519,28.71078 -2.25625,19.94185 -1.6829,18.8303 -11.33929,22.03764 -12.88329,4.27912 -30.95575,-7.75189 -34.51181,-22.97519 -3.27788,-14.03249 -12.05467,-17.77145 -20.55976,-8.75866 -3.54607,3.75774 -7.99808,7.60446 -9.89536,8.54752 -5.37826,2.67343 -50.15526,3.07607 -62.27483,0.56023 -5.98571,-1.24257 -17.09452,-3.12285 -24.68895,-4.17758 -15.41624,-2.14107 -17.71801,-3.11035 -35.58482,-15.00077 -11.83617,-7.87702 -12.66321,-9.35427 -14.03602,-25.07346 -0.80233,-9.18691 -2.74306,-17.50091 -4.31312,-18.47636 -4.54127,-2.8214 -7.52286,-22.78289 -5.34582,-35.79303 z m -40.6559,82.26011 c 1.23008,-1.70198 1.71187,-1.23342 1.27948,1.2456 -0.38173,2.18833 0.74937,3.98278 2.51266,3.9869 1.76328,0.004 2.01492,1.92346 0.55964,4.26584 -2.17353,3.49848 -2.97488,3.27535 -4.48663,-1.25376 -1.01215,-3.03242 -0.95106,-6.74218 0.13485,-8.24458 z m 13.00362,-20.87484 c -0.48608,0.53962 0.0505,3.30895 1.5516,8.54272 1.86097,6.4885 2.43839,6.99354 3.23748,2.82766 0.53495,-2.78896 -0.26166,-6.70104 -1.77106,-8.69286 -1.64309,-2.16827 -2.63998,-3.09723 -3.01802,-2.67752 z m 33.22157,-34.51984 c -0.3108,0.44738 -0.58487,1.20599 -0.78566,2.25276 -0.51355,2.67739 -0.48518,5.14809 0.0623,5.48824 2.05136,1.27447 3.89581,-4.26948 2.41319,-7.25215 -0.55279,-1.11211 -1.17195,-1.23451 -1.68985,-0.48884 z m -36.0588,62.08106 c 0.14181,-0.27506 0.60611,-0.61771 1.39889,-1.01177 4.03155,-2.00399 18.53905,7.54916 16.49246,10.86035 -0.75254,1.21695 1.26483,1.85081 4.4829,1.40782 3.21804,-0.44301 6.00394,-0.0904 6.19069,0.78339 0.70696,3.30847 -17.57865,2.95314 -26.49107,-0.5145 -7.6691,-2.98389 -8.3761,-3.86453 -4.03588,-5.02525 6.61279,-1.76843 9.32145,-5.75453 3.91876,-5.76721 -1.53235,-0.004 -2.19302,-0.27436 -1.95675,-0.73283 z m 23.47652,18.53123 c 0.0181,-0.0405 0.0474,-0.0801 0.089,-0.1172 0.39776,-0.3561 1.86855,-0.55235 4.48966,-0.47579 3.4609,0.101 6.49506,1.04818 6.74204,2.10547 0.24698,1.05727 -1.84478,1.48304 -4.64803,0.94533 -4.62175,-0.8865 -6.94625,-1.8515 -6.67259,-2.45779 z m 19.16168,-2.75146 c 0.075,-0.17494 0.25673,-0.30389 0.55116,-0.37268 1.17779,-0.27511 4.19268,2.28865 6.7001,5.69632 2.50747,3.40771 3.18268,5.4397 1.50046,4.51693 -1.68225,-0.92277 -5.56694,-2.29757 -8.63313,-3.05501 -4.63649,-1.14535 -4.65027,-1.44037 -0.0783,-1.75023 4.5479,-0.3083 4.88065,-0.76321 1.93198,-2.63966 -1.47019,-0.93553 -2.19712,-1.87076 -1.97218,-2.39567 z m 16.02503,9.72151 c 0.30719,-0.36142 1.43258,-0.45038 3.31828,-0.39646 3.3349,0.0954 6.69355,1.44427 7.46489,2.99604 0.77133,1.55175 2.19659,0.26018 3.16569,-2.87112 1.42742,-4.61211 2.61354,-4.79586 6.24728,-0.96577 2.46705,2.60035 4.47148,5.71338 4.45543,6.91844 -0.0614,4.6148 -11.17408,4.03819 -19.10567,-0.99161 -4.29733,-2.72519 -6.05789,-4.08717 -5.5459,-4.68952 z m 70.76128,-85.85329 c 0.17803,-0.20865 0.73877,-0.24058 1.68485,-0.0731 2.28299,0.40418 4.41078,1.85207 4.72955,3.21661 0.31873,1.36455 -1.54854,1.03208 -4.15027,-0.73668 -1.79695,-1.22166 -2.56077,-2.05909 -2.26413,-2.40689 z m -36.50907,68.1131 c -1.29822,2.08958 -1.25599,4.48524 0.0933,5.32356 1.34932,0.8383 2.85937,-0.59295 3.35574,-3.18071 0.49634,-2.58778 0.45415,-4.98343 -0.0933,-5.32358 -0.54748,-0.34013 -2.05753,1.09113 -3.35575,3.18073 z m -5.5806,21.83981 c 0.24805,-0.43072 1.51262,-1.07938 3.67882,-1.82802 3.68801,-1.27457 11.42376,-1.55577 17.19209,-0.62493 7.31479,1.18037 11.32652,3.27234 13.25654,6.91619 2.3857,4.50415 1.87197,4.71665 -3.72367,1.54491 -6.02988,-3.41789 -6.23474,-3.28729 -2.88405,1.81822 2.78623,4.24544 1.98903,4.04603 -3.50427,-0.87339 -5.68093,-5.08744 -8.64679,-5.71146 -14.74607,-3.10489 -4.19903,1.79448 -6.72565,1.80237 -5.61652,0.0172 1.19448,-1.9226 0.24311,-3.27299 -2.33218,-3.31143 -1.0924,-0.0163 -1.51365,-0.21881 -1.32069,-0.55379 z m 8.87765,8.78292 c 0.3459,-0.75284 2.61225,-0.70198 5.50238,0.19249 3.303,1.02225 5.69553,2.35759 5.31666,2.96742 -1.11875,1.80071 -10.32664,-0.56625 -10.84557,-2.78781 -0.0328,-0.14018 -0.0229,-0.26456 0.0265,-0.3721 z m 68.40712,-87.40095 c 0.57964,-0.68298 3.73382,-0.85035 7.65035,-0.34471 4.47601,0.57796 7.82386,1.5559 7.44012,2.17356 -1.09637,1.76471 -14.72854,0.41268 -15.17655,-1.50524 -0.0276,-0.11816 0.003,-0.22602 0.0861,-0.32363 z m -45.86918,94.30054 c 0.3318,-0.53405 3.25167,-0.15002 6.49044,0.85235 3.23877,1.00238 5.24813,2.85567 4.46367,4.11832 -0.78445,1.26264 -3.70702,0.87924 -6.49314,-0.85172 -2.78611,-1.73096 -4.79277,-3.58488 -4.46097,-4.11895 z m 7.47329,-11.33305 c 1.16674,-1.56177 10.29974,-3.35785 22.19505,-4.24007 24.84074,-1.84233 35.73199,-5.51149 41.1493,-13.85985 2.58148,-3.9783 3.44524,-3.1336 7.38035,7.21805 2.45121,6.44806 7.48419,13.60584 11.1836,15.90421 3.69943,2.29839 6.01723,5.31877 5.15175,6.71183 -0.86547,1.39306 -2.78021,1.78156 -4.25549,0.865 -1.47527,-0.91656 -2.68589,-0.0883 -2.69041,1.83964 -0.0113,4.80118 4.48864,7.23102 5.91413,3.19377 0.63546,-1.79975 4.98273,-2.1665 9.66059,-0.81571 10.78727,3.11493 21.36742,1.22202 27.76227,-4.96614 7.87342,-7.61892 12.85027,-2.01468 5.71183,6.43207 -5.21912,6.1757 -5.8495,6.276 -4.87185,0.77638 0.91365,-5.13901 0.2994,-4.86426 -3.29573,1.47048 -2.43041,4.28232 -6.86101,9.83305 -9.84588,12.33544 -4.33942,3.63807 -4.52335,5.71245 -0.91922,10.35095 3.30577,4.2545 6.01192,5.22777 10.15081,3.65071 6.91778,-2.63591 5.32336,0.8781 -2.42863,5.35247 -6.0767,3.50741 -4.36296,6.33072 3.16957,5.22051 2.53275,-0.37334 3.66897,-0.28258 2.52509,0.20295 -2.53027,1.074 3.2215,18.85827 8.12393,25.11849 2.4136,3.08212 6.81848,3.61531 13.87335,1.68203 l 10.33841,-2.83196 -6.69346,10.77365 c -5.40196,8.6949 -7.26995,10.00822 -9.68634,6.81949 -1.71654,-2.26527 -2.99611,-2.47176 -3.00076,-0.4847 -0.004,1.90587 1.63228,4.48617 3.63966,5.73331 2.00737,1.24714 2.50522,4.11007 1.10603,6.36201 -1.98583,3.19635 -3.83557,2.76681 -8.43641,-1.95786 -6.57798,-6.75508 -6.62347,-6.78362 -31.26586,-20.30552 -16.24481,-8.91391 -29.4532,-12.66275 -18.40358,-5.22315 4.52784,3.04854 4.45471,3.14542 -1.61864,2.13531 -6.09277,-1.01333 -6.16536,-0.79419 -1.71102,5.13379 3.16706,4.21484 3.29181,6.18793 0.39294,6.18112 -5.96724,-0.014 -8.51378,-9.61658 -4.3341,-16.34409 1.92357,-3.09617 2.51206,-9.06725 1.30682,-13.26947 -1.20524,-4.20222 -0.82665,-8.31939 0.8413,-9.1485 1.66793,-0.82908 -0.44744,-1.73299 -4.70106,-2.00781 -6.56458,-0.42416 -7.8107,-1.51258 -8.2403,-7.19588 -0.27842,-3.6826 -1.01418,-5.87699 -1.63454,-4.87846 -0.6204,0.99857 -3.44867,-2.07665 -6.28516,-6.83424 -2.8365,-4.7576 -4.42441,-9.82928 -3.53007,-11.2688 0.89436,-1.43954 0.24049,-2.62081 -1.45273,-2.62478 -1.69321,-0.004 -1.68654,-3.72438 0.0159,-8.26785 2.47533,-6.60585 1.89249,-8.63291 -2.91438,-10.1206 -3.30606,-1.02319 -6.50343,-1.06831 -7.10476,-0.10042 -0.60134,0.96791 -5.1091,2.84825 -10.01659,4.17927 -6.53523,1.77244 -10.33583,0.96027 -14.20408,-3.03718 -3.02804,-3.1292 -5.28416,-4.07143 -5.28854,-2.20956 -0.009,3.70453 -8.96172,1.59911 -12.76015,-3.00006 -0.1736,-0.21028 -0.16969,-0.42718 -0.003,-0.65027 z m -11.34891,19.52533 c 0.17801,-0.20866 0.7371,-0.2416 1.68316,-0.0741 2.28295,0.40428 4.41184,1.85041 4.7306,3.21495 0.31874,1.36454 -1.54794,1.03481 -4.14963,-0.73399 -1.79697,-1.22167 -2.56079,-2.05909 -2.26413,-2.40688 z m 11.09795,3.40677 c 0.0454,-0.0469 0.11452,-0.0848 0.20941,-0.11131 4.19974,-1.17056 35.62613,9.8484 45.68801,16.019 16.63036,10.19884 13.67639,14.18768 -4.02483,5.43459 -9.32754,-4.61238 -23.13905,-11.15253 -30.69205,-14.53398 -7.08093,-3.17011 -11.86185,-6.10513 -11.18054,-6.8083 z m 7.45822,-6.2125 c 0.30363,-0.28451 1.73301,-0.4573 4.28041,-0.67935 3.54046,-0.30874 6.17616,-2.00707 5.85531,-3.77312 -0.32087,-1.76604 0.33119,-1.50502 1.44994,0.57892 3.10467,5.7832 0.16048,8.19528 -7.15193,5.86015 -3.35334,-1.07085 -4.82412,-1.62081 -4.43373,-1.9866 z m 70.40893,-96.66311 c 0.91305,-1.52797 6.26382,-4.0773 16.30044,-6.79166 10.31419,-2.78944 19.40474,-5.83031 20.20163,-6.75699 0.79693,-0.92649 2.36829,-0.6809 3.48892,0.54653 1.12352,1.2306 2.70937,-0.42202 3.53741,-3.68408 0.90302,-3.55749 3.42989,-5.87153 6.33803,-5.80476 2.65971,0.0611 6.39159,-1.2137 8.29293,-2.8335 1.90134,-1.61978 3.45295,-1.42948 3.44861,0.42263 -0.004,1.85209 -3.9904,6.19159 -8.85911,9.64428 -10.08751,7.1537 -14.73659,13.20422 -7.53163,9.80222 4.11547,-1.94323 4.41994,-1.62571 2.09976,2.1829 -1.68915,2.77265 -4.62917,3.26792 -7.78253,1.3088 -2.78767,-1.73192 -12.49388,-1.29724 -21.56845,0.96646 -12.97685,3.23712 -19.13991,2.96173 -17.96601,0.99717 z m -52.78103,92.25744 c 0.15757,-0.30005 0.45389,-0.34344 0.88922,-0.073 1.39305,0.86548 3.7047,4.62211 5.13811,8.34741 1.43342,3.72528 1.46724,6.06447 0.0742,5.19899 -1.39307,-0.86549 -3.70573,-4.62047 -5.13915,-8.34575 -0.98546,-2.56115 -1.30903,-4.46758 -0.96236,-5.12767 z M 574.84146,266.11006 c 3.40419,-5.61311 8.76961,-10.50454 11.87239,-9.74967 4.13795,1.00671 1.34827,5.99282 -9.1154,16.30042 -5.15587,5.07897 -6.3913,5.31116 -5.78756,1.08815 0.34127,-2.38709 1.48322,-5.08748 3.03057,-7.6389 z m -88.07765,160.70992 c -1.07915,1.73725 -1.62572,4.10568 -1.39434,6.87802 0.25853,3.09774 2.70867,4.88426 8.15848,5.94707 10.47274,2.04236 15.21361,5.24701 8.30003,5.61192 -4.03245,0.21281 -2.89323,1.30808 4.39706,4.22181 7.29031,2.91372 8.43054,4.00731 4.3981,4.22014 -2.99433,0.15803 -4.32424,1.0286 -2.95619,1.93434 1.36799,0.90583 4.98495,3.98532 8.03707,6.84199 3.05213,2.85666 4.44257,3.50689 3.09072,1.44651 -2.04093,-3.1107 -1.66426,-3.74469 2.22198,-3.73563 5.85191,0.0137 3.39204,-3.20955 -12.34225,-16.17109 -6.09111,-5.0177 -9.95785,-9.6782 -8.59161,-10.35733 1.3663,-0.6792 -0.87672,-2.7387 -4.98517,-4.57798 -6.57671,-2.94426 -6.67523,-3.27258 -0.82243,-2.74366 6.6477,0.60078 6.64844,0.59959 1.18119,-1.90123 -3.61597,-1.65398 -6.89406,-0.51029 -8.69265,2.38511 z m 67.81751,-105.94153 c 1.00945,-1.67235 3.41237,-3.03755 5.34032,-3.03303 4.35201,0.0102 3.80732,0.88695 -2.36033,3.79914 -2.89355,1.36626 -4.08332,1.06056 -2.97999,-0.76611 z m -67.42035,111.52743 c 0.48219,-0.9431 2.55606,-0.76684 5.01962,0.518 6.08902,3.1757 5.85847,4.68662 -0.52735,3.46174 -2.53252,-0.48578 -4.60081,-2.06347 -4.59742,-3.50702 7.5e-4,-0.18046 0.0363,-0.338 0.10515,-0.47272 z m 65.17531,-101.94041 c 1.14781,-1.70461 3.29982,-3.25407 6.41671,-4.5694 4.48647,-1.89327 4.66042,-1.7852 1.56942,0.97506 -1.91257,1.70792 -3.68882,5.70185 -3.94687,8.8769 -0.3623,4.45723 -1.13867,4.8915 -3.4072,1.89788 -1.9246,-2.53975 -2.10786,-4.98879 -0.63206,-7.18044 z m 14.98689,-11.32813 c 0.21125,-0.42927 0.64385,-0.83503 1.29127,-1.15683 1.72644,-0.85817 3.6422,-1.24832 4.25652,-0.86666 0.61431,0.38166 0.40809,1.83392 -0.45739,3.22698 -0.86547,1.39306 -2.78123,1.78321 -4.25652,0.86666 -0.92204,-0.57286 -1.18592,-1.35468 -0.83388,-2.07015 z m -15.42515,34.13239 c 0.27464,-0.50534 0.70613,-0.87548 1.31793,-1.0184 0.85621,-0.2 2.48821,1.51349 3.62767,3.80588 1.34142,2.69869 0.78954,4.16505 -1.56562,4.15953 -2.81331,-0.007 -4.56999,-4.75716 -3.37998,-6.94701 z m 1.94452,12.15542 c 0.64085,-0.8877 1.70223,-1.29113 3.22484,-1.50073 4.46294,-0.61443 6.13778,2.32552 8.85165,15.53844 1.84097,8.96304 5.10123,16.63296 7.24479,17.04412 6.10907,1.17179 4.26774,5.00757 -5.10856,10.64312 -6.48279,3.89643 -8.17755,3.97807 -6.8471,0.32868 1.0428,-2.86025 -0.0817,-5.205 -2.74047,-5.71501 -2.51146,-0.48171 -3.59165,-2.33902 -2.4391,-4.19413 1.13794,-1.83163 0.59891,-9.98123 -1.19797,-18.10916 -1.72132,-7.78616 -2.23039,-11.65866 -1.23666,-13.62413 0.0745,-0.14742 0.15702,-0.28439 0.24846,-0.41128 z m 3.38393,2.24032 c -0.52187,0.89097 -0.98524,2.20314 -1.31613,3.92822 -0.53165,2.77157 0.69953,5.04217 2.73474,5.04695 2.54119,0.006 3.4623,-1.71723 2.94147,-5.50065 -0.69399,-5.04077 -2.79454,-6.14745 -4.36008,-3.47452 z m 21.02417,-22.13004 c -0.27061,0.51933 -0.4278,2.23884 -0.62774,5.24808 -0.27717,4.17201 0.0259,7.91442 0.6734,8.31671 2.68277,1.66675 3.79827,-4.13392 1.88566,-9.808 -1.04778,-3.10837 -1.58341,-4.42449 -1.93132,-3.75679 z m -10.32144,32.87922 c 0.30593,-0.49243 1.95085,1.94373 3.65598,5.41464 1.70512,3.47092 2.45195,7.35263 1.66053,8.62649 -0.79144,1.2739 -2.43638,-1.16226 -3.65599,-5.41463 -1.21963,-4.25239 -1.96647,-8.13406 -1.66052,-8.6265 z m 9.86129,3.15814 c 0.30266,-0.45739 0.83632,-0.90236 1.58184,-1.27294 2.60947,-1.29709 3.75541,-0.2988 4.1225,3.58676 0.27968,2.96014 3.16054,10.64649 6.40267,17.08199 3.2421,6.43554 5.28413,12.68688 4.53561,13.89168 -0.74853,1.20483 -1.60689,11.66678 -1.90574,23.24917 -0.76627,29.69839 -18.0824,59.01859 -30.35328,51.39494 -6.82735,-4.2417 -9.98557,-34.48389 -4.59282,-43.97777 2.29606,-4.04224 1.97019,-4.14856 -2.55453,-0.83287 -2.85297,2.08905 -5.21992,4.78108 -5.2641,5.9822 -0.0442,1.20113 -2.64061,1.39211 -5.7682,0.42414 -5.6069,-1.73533 -5.50781,-1.89211 7.06009,-11.23797 7.23087,-5.37711 15.2848,-14.20243 18.61276,-20.39528 7.92515,-14.74746 15.23627,-12.27041 15.19543,5.14999 -0.0368,15.6688 3.99819,15.93397 4.44491,0.292 0.17863,-6.25495 -1.75645,-13.13187 -4.30165,-15.28232 -2.54523,-2.15038 -4.52421,-8.51442 -4.39839,-14.14212 0.12582,-5.6277 -0.91415,-10.94272 -2.31066,-11.81034 -0.87283,-0.54228 -1.01081,-1.33892 -0.50644,-2.10126 z M 506.0322,513.26553 c 0.63491,-1.03899 1.47544,-0.89634 2.42542,1.01479 0.79682,1.60304 0.22906,3.51959 -1.25997,4.25974 -1.48901,0.74014 -1.5219,4.16354 -0.0751,7.60799 1.44681,3.44444 2.66801,13.24522 2.71354,21.78011 0.0776,14.54582 -0.44973,15.86916 -8.41333,21.10312 -7.7714,5.10765 -8.32651,6.25468 -6.49946,13.47406 1.9699,7.78374 2.03193,7.78611 4.47829,0.14948 1.42797,-4.45762 3.54208,-7.08195 4.9822,-6.18723 1.37589,0.85481 2.95262,-0.79543 3.50328,-3.66619 0.64571,-3.36632 1.61191,-3.99024 2.72294,-1.75506 0.94749,1.90614 -0.91585,6.93246 -4.14217,11.16762 -3.22632,4.23517 -3.98284,5.85061 -1.68037,3.58925 3.37883,-3.31854 4.18695,-3.15649 4.18678,0.84444 -9e-5,2.72638 3.16957,6.92665 7.04504,9.3344 5.41399,3.3636 6.40326,5.83843 4.26842,10.68361 -1.52818,3.46832 -1.43551,9.03982 0.20605,12.38138 1.64156,3.34155 2.0514,7.57914 0.91029,9.41585 -1.14111,1.8367 -0.47269,3.34261 1.48676,3.34723 1.95941,0.005 3.56473,-1.14046 3.568,-2.54528 0.003,-1.4048 2.08175,-3.5596 4.61846,-4.78756 3.99778,-1.93521 4.34021,-1.69992 2.57089,1.76509 -1.12275,2.19861 -3.78036,6.3594 -5.9073,9.24551 -2.12703,2.88606 -4.22673,9.79796 -4.66509,15.35871 -0.43837,5.56075 -1.40878,10.99306 -2.15659,12.07242 -0.7479,1.0793 -1.03778,-2.57837 -0.64454,-8.12634 0.99322,-14.01293 -1.87577,-27.49323 -6.45578,-30.3387 -2.36373,-1.46854 -2.29339,3.16816 0.18121,11.99575 2.2184,7.91364 2.89059,16.22857 1.49274,18.47853 -1.39787,2.24998 -3.00449,3.80364 -3.57032,3.45209 -2.09301,-1.30034 -3.75178,-39.30045 -1.79128,-41.03693 1.11807,-0.99032 -0.0972,-2.20847 -2.70032,-2.70778 -2.60306,-0.49931 -4.72745,-2.65941 -4.72241,-4.80104 0.005,-2.36637 0.71982,-2.46393 1.82121,-0.24814 2.13366,4.29241 9.38714,-0.38035 10.62742,-6.84644 1.07473,-5.60298 -10.40755,-9.62545 -13.4585,-4.71469 -3.0742,4.94817 -4.28438,3.49416 -8.25029,-9.92225 -3.57727,-12.10156 -4.29693,-27.69874 -0.96951,-21.00468 1.85911,3.74012 2.6143,3.21968 9.87517,-6.81255 2.65086,-3.66267 3.84833,-7.26189 2.66293,-7.99834 -1.18536,-0.73645 -0.95377,-3.27246 0.51346,-5.63409 1.46723,-2.36163 1.58902,-9.40245 0.27069,-15.64693 -1.57382,-7.45472 -1.16591,-15.45533 0.23112,-17.74095 z m 11.72028,-8.34269 c 1.31672,-2.09321 3.31607,-1.02018 6.11452,2.64915 2.45413,3.21783 11.55032,9.55253 20.21399,14.07843 14.89064,7.7789 23.52292,17.0624 17.23348,18.53159 -1.57391,0.36765 -3.7026,-1.8539 -4.73105,-4.93516 -2.31923,-6.94837 -4.07718,-4.8316 -2.30119,2.77128 1.52277,6.51878 -2.14928,35.3327 -5.11057,40.09915 -1.11608,1.79642 -3.81066,2.95665 -5.98852,2.57744 -2.36553,-0.41189 -2.22626,0.50006 0.34746,2.26462 5.28177,3.62122 10.03817,-3.22363 12.39914,-17.84043 0.9327,-5.77437 3.60611,-13.57278 5.9405,-17.33018 3.80574,-6.12565 4.29481,-6.17265 4.72632,-0.46441 0.26481,3.50144 -0.99955,7.48709 -2.80825,8.85772 -1.94004,1.47012 -1.41121,3.65761 1.28879,5.33506 3.55974,2.2116 3.4823,3.0995 -0.35036,3.99479 -2.71025,0.63309 -5.54423,2.14358 -6.29843,3.35754 -0.75421,1.21395 1.29597,1.58495 4.55628,0.82337 1.69378,-0.39566 2.98482,11.38209 4.62389,20.10425 -1.96049,8.98506 -3.70249,17.20984 -4.22385,16.30657 -3.11259,-5.39266 -3.79124,-5.71836 -3.783,-1.82376 0.005,2.60953 -0.72922,6.46495 -1.63331,8.56907 -0.90405,2.10412 -1.07863,5.94545 -0.38725,8.53612 0.97156,3.6406 1.39487,3.00281 1.86528,-2.80987 0.33469,-4.13628 1.17832,-7.16628 1.87485,-6.73354 2.15387,1.33816 0.45834,15.39988 -2.5436,21.08926 -1.56669,2.96923 -1.36945,5.95194 0.43928,6.62838 1.80871,0.67645 3.4408,6.42928 3.6275,12.78484 l 0.33945,11.556 -1.68487,-9.82348 c -0.92745,-5.40311 -2.76981,-10.13442 -4.09385,-10.51306 -1.32402,-0.37862 -3.86399,-10.24964 -5.64305,-21.93541 -1.79068,-11.76223 -5.35807,-22.56543 -7.99209,-24.2019 -6.39913,-3.97566 -8.55752,0.39853 -5.69844,11.54817 1.29683,5.05731 1.3865,6.61316 0.19932,3.45793 -1.18719,-3.15522 -3.24647,-5.48335 -4.57663,-5.17264 -1.33016,0.31071 -2.519,-3.58366 -2.6413,-8.65408 -0.12228,-5.07043 -2.01919,-10.33472 -4.21485,-11.69883 -3.21439,-1.99704 -3.48259,-1.16082 -1.38409,4.29299 1.4334,3.72529 1.33214,6.03185 -0.22351,5.12669 -5.05437,-2.94067 -7.31172,-16.08812 -8.9121,-51.92221 -1.05892,-23.70997 -0.76048,-35.99278 1.43411,-39.48145 z m 15.98184,-14.74311 c -0.82538,1.39067 0.24379,2.25082 3.44923,1.80954 2.83342,-0.39007 5.6222,0.75559 6.19955,2.54562 0.57736,1.79001 0.75088,0.23011 0.38573,-3.46695 -0.51925,-5.25768 -1.56134,-6.28895 -4.78849,-4.73172 -2.81607,1.35888 -4.60409,2.76186 -5.24602,3.84351 z m 67.44029,-57.18767 c 0.71304,-1.1477 1.60192,-2.18525 2.49416,-2.83763 1.78449,-1.3048 1.47454,0.47639 -0.68915,3.95904 -2.1637,3.48266 -3.6243,4.55125 -3.24507,2.3734 0.1896,-1.08892 0.72702,-2.34713 1.44006,-3.49481 z m -54.60999,157.68577 c -0.22398,0.41167 -0.31388,0.79352 -0.23965,1.11117 0.26378,1.12926 2.51625,1.0411 5.0059,-0.19644 2.48967,-1.23755 4.31029,-3.17437 4.0465,-4.30364 -0.2638,-1.12927 -2.51625,-1.04113 -5.00591,0.19642 -1.55597,0.77351 -2.85105,1.82074 -3.53903,2.77254 -0.10317,0.14276 -0.19319,0.28271 -0.26793,0.41987 z m -37.40013,90.28422 c 0.79011,-1.11013 2.70921,0.0637 7.14496,2.97432 4.93295,3.23693 7.0922,6.56869 5.85774,9.03593 -1.07556,2.14969 -2.89486,5.71505 -4.04363,7.92234 -1.14868,2.20734 -0.24858,6.77216 1.99979,10.14561 2.24837,3.37345 2.94415,7.34102 1.54571,8.81499 -1.39844,1.47396 -1.52673,3.30992 -0.28471,4.08156 1.24206,0.77166 1.23373,4.60527 -0.0198,8.51837 -1.25352,3.9131 -1.64503,9.83632 -0.868,13.1627 1.2443,5.32639 0.82744,5.93548 -3.49447,5.10648 -2.69913,-0.5177 -5.57407,-2.28312 -6.38957,-3.92373 -1.8658,-3.75358 -2.12892,-29.07332 -0.3524,-33.93008 0.7299,-1.99531 0.85102,-6.0652 0.26914,-9.04179 -0.58199,-2.97666 0.45879,-6.16532 2.3128,-7.08688 1.87228,-0.93068 1.74234,-1.67843 -0.29249,-1.68321 -2.01495,-0.005 -3.75136,-3.66355 -3.85911,-8.12994 -0.0712,-2.95009 -0.0828,-4.80646 0.33043,-5.7133 0.043,-0.0945 0.091,-0.17937 0.14364,-0.25337 z m 34.35997,-45.58996 c 0.5643,-0.71898 1.87921,-0.6559 3.40044,0.28922 4.27079,2.65336 4.14819,3.68426 -0.43817,3.6735 -1.79476,-0.004 -3.25997,-1.34832 -3.25612,-2.9864 0.001,-0.40952 0.10575,-0.73666 0.29385,-0.97632 z m -42.06458,71.73674 c 0.3438,-0.49728 0.69876,-0.81989 1.05014,-0.90195 0.67283,-0.15716 0.75129,3.37599 0.17342,7.85204 -0.57788,4.47605 -2.03297,7.52747 -3.23368,6.78149 -1.70881,-1.06164 -0.26878,-9.67341 1.67125,-13.17872 0.11197,-0.2022 0.22426,-0.38711 0.3388,-0.5529 z m -3.83933,17.56408 c 0.27245,-0.56946 1.04694,0.2037 2.53616,2.1689 1.74146,2.2981 2.53396,5.19616 1.76108,6.44018 -2.02359,3.25712 -3.20617,1.88762 -4.12319,-4.77366 -0.2944,-2.13856 -0.38592,-3.39248 -0.17405,-3.83542 z m 16.67967,0.98819 c -1.10492,1.77677 -0.94218,5.29095 1.26269,7.34231 1.48352,1.38023 1.88252,1.19621 0.88769,-0.40733 -0.99481,-1.60356 -0.51572,-3.558 1.06327,-4.34286 1.57897,-0.78488 1.56867,-2.23535 -0.0227,-3.22404 -1.40888,-0.87531 -2.52799,-0.43414 -3.19094,0.63192 z m 38.63039,-60.51326 c 0.35785,-0.80235 1.45823,0.033 3.7146,2.41129 5.30653,5.59325 5.84,11.70368 0.74501,8.53826 -2.00122,-1.24332 -3.97634,-4.71581 -4.38947,-7.71672 -0.23126,-1.67996 -0.28486,-2.75142 -0.0701,-3.23282 z m 6.21786,15.56226 c 0.19017,-0.1257 0.68802,1.09644 1.60626,3.59163 1.14339,3.10709 3.29526,5.36415 4.78138,5.01702 1.48607,-0.34716 2.27258,0.0616 1.74668,0.90812 -2.44005,3.92745 -7.24474,0.8667 -7.88937,-5.02567 -0.3165,-2.89297 -0.4351,-4.36539 -0.24495,-4.4911 z m -47.81469,82.62048 c 0.86548,-1.39306 2.71249,-1.82593 4.10554,-0.96045 1.39306,0.86548 1.82491,2.71416 0.95943,4.10722 -0.86549,1.39305 -2.71313,1.82323 -4.10619,0.95775 -1.39305,-0.86547 -1.82427,-2.71146 -0.95878,-4.10452 z m 57.60442,-69.01016 c 0.39614,-0.41783 0.95687,1.43687 2.0589,5.1651 1.22632,4.14874 1.16888,9.24759 -0.12574,11.33138 -3.45241,5.55694 -4.01442,4.05622 -3.00815,-8.02663 0.4465,-5.36153 0.67885,-8.05203 1.07499,-8.46985 z m 6.30143,19.39895 c 0.71371,-1.02694 1.20978,0.41687 2.22362,4.2856 0.96458,3.68068 3.63617,13.19706 5.93698,21.14769 2.30082,7.95061 3.6172,15.36622 2.92604,16.4787 -0.69117,1.11249 -1.54078,0.80532 -1.88788,-0.68083 -0.34715,-1.48611 -3.25819,-2.37221 -6.46943,-1.97059 -4.65561,0.5823 -5.05523,0.32807 -1.9745,-1.25201 4.18239,-2.14506 4.68948,-16.86774 0.54763,-15.90025 -3.69112,0.86225 -5.46308,-9.58187 -2.98261,-17.58306 0.74554,-2.40485 1.25191,-3.90909 1.68015,-4.52525 z m 8.57772,-3.09575 c 0.1735,-0.24874 0.35133,-0.33588 0.52547,-0.22769 0.69652,0.43274 1.07142,3.82412 0.83154,7.53662 -0.23994,3.71247 -1.00626,6.39712 -1.70279,5.96438 -0.69653,-0.43274 -1.07041,-3.82578 -0.83052,-7.53828 0.17995,-2.78435 0.65575,-4.98884 1.1763,-5.73503 z"
       id="path4149"
       inkscape:connector-curvature="0"
       sodipodi:nodetypes="ssssssssssssssssssssccssssssssssssssssssssscccccssssssssssssssscccssssssssssssssssccccssscsccssssssccsscsccccssssssssssssssscsscsssssssccssssscsccssccsssscsccssssssssccsscccssccssssccscsscssssssscccssssscsscsssssscsssssssssssssscsssscssssscssssssssssssscssssscccsssscssssscsssccscscsssccccsscccsssscccssssssccccscssssscsssssssssccssscccsscssssscscsssssssssccsssscssccsccscssssssssssssssssssssccccscccccssscccssscsscsssscsscsssssssssssssssssssscsccscsssscssccsscccssssccsssscccsscccsssccssccccssccssscssssscsssssssccssssscssccscsssssssssssssssccsccscssssssssssssssssscssssssssssscssssscsssscsssscccsssssssscsscsssscsssssccssccccsscssssssscccsscccssccccsssccssscssscssssssscscsscsssssssssssssscssssscscscc" />
    <path
       style="opacity:1;fill:#ff0000;fill-opacity:1;fill-rule:nonzero;stroke:none;stroke-width:4.19999981;stroke-linecap:round;stroke-linejoin:round;stroke-miterlimit:4;stroke-dasharray:none;stroke-opacity:1"
       d="m 328.80225,289.74588 -1.26132,8.62543 c -1.65339,13.46255 -1.94096,28.3552 5.65736,40.18065 4.30767,10.6343 2.20408,23.05495 7.98904,33.10778 7.59308,8.41561 18.23787,13.40014 27.79274,19.23765 14.04027,4.79185 29.1115,5.73357 43.67863,8.24268 19.25917,2.38941 38.8984,1.98371 58.1556,0.008 8.78734,-2.1708 12.69513,-13.2567 21.93275,-13.6626 8.14404,1.0384 9.72933,11.14822 12.69862,17.27775 5.65262,14.67446 24.85379,25.22804 39.34506,16.2838 4.78705,-2.59558 3.04836,-9.50992 4.40035,-13.94812 3.17139,-17.75724 -1.7632,-35.43318 -2.28877,-53.09353 0.49789,-5.75774 0.86973,-15.06514 -6.68027,-16.13926 -15.11704,-2.35166 -30.06092,5.67723 -45.05004,3.33571 -12.05096,-2.18356 -24.68351,-1.09032 -36.59547,-4.54339 -30.77883,-7.9092 -61.08889,-17.77945 -90.79834,-29.08541 -3.99306,-0.74698 -7.56889,-5.56242 -11.60451,-4.54927 -4.36774,1.57762 -9.00873,-2.77077 -13.01496,-4.21838 -4.78871,-2.04195 -9.52331,-6.56641 -14.35647,-7.05921 z m 6.3167,26.41004 c 1.69618,-2.17123 1.62428,2.92785 1.46164,3.78 0.36361,3.05133 -3.33186,3.86841 -2.81157,0.36177 0.0374,-1.46926 0.49734,-2.9405 1.34993,-4.14177 z m 57.17276,68.74858 c 0.16434,-0.27779 0.34141,-0.54927 0.52677,-0.81093 1.92931,-3.3401 3.14506,1.05078 1.98297,2.86684 0.28519,3.68568 -4.25103,5.31031 -3.54744,0.63577 0.16335,-0.95612 0.5444,-1.85851 1.03767,-2.6917 z m 185.05179,-3.11315 c 4.33828,8.42957 1.72313,19.45845 7.48802,27.54474 4.5449,7.9841 5.68069,18.89123 1.99941,27.0044 -3.74364,-8.04868 0.0804,-18.46087 -5.55154,-25.8059 -5.27743,-2.57472 -8.5542,4.96816 -11.37578,8.03246 -7.10307,12.33701 -18.77796,20.64642 -29.36173,29.78749 0.24761,3.13877 5.443,3.5987 8.02342,3.05562 3.42637,-2.14804 5.56399,-7.80846 9.72634,-7.80175 -5.53908,12.3932 -3.64195,26.89542 0.0732,39.60163 0.98671,7.44846 10.80934,9.50374 15.62368,4.34224 10.92925,-10.75567 15.95794,-26.39144 17.78594,-41.31134 1.02425,-10.89169 1.64368,-21.8942 2.62208,-32.7443 -2.8012,-11.12561 -8.88268,-21.19342 -11.67689,-32.33851 -1.25309,-2.64045 -4.13664,-1.24785 -5.37616,0.63322 z"
       id="path4307"
       inkscape:connector-curvature="0" />
    <path
       style="opacity:1;fill:#ff0000;fill-opacity:1;fill-rule:nonzero;stroke:none;stroke-width:4.19999981;stroke-linecap:round;stroke-linejoin:round;stroke-miterlimit:4;stroke-dasharray:none;stroke-opacity:1"
       d="m 63.115988,45.86041 c -1.268356,13.277718 4.349459,26.406346 6.86678,39.344816 4.04844,19.326464 17.14909,34.619624 25.045065,52.321834 8.385317,16.89835 20.391317,31.42019 32.698297,45.51765 7.36933,11.78604 15.47922,24.46126 28.25866,30.9424 2.6507,2.70245 0.643,4.41557 -2.64352,4.19148 -1.64748,4.46228 4.79732,8.58093 6.84954,12.27045 6.71161,5.70431 9.01047,14.31364 14.09607,21.03626 2.14065,2.83035 4.38143,-0.91886 4.67806,-1.6398 5.24813,9.12763 8.17908,20.90448 18.86944,25.38149 -1.33041,0.54134 -4.19103,3.248 -1.09214,5.00422 9.56292,6.26955 16.25027,15.98862 26.09795,22.12681 4.6124,3.16855 7.97327,7.84917 8.52067,13.63061 2.16547,-0.29937 4.21558,-7.43372 6.40967,-1.55601 13.73458,16.02684 27.86868,32.53999 45.41699,44.43713 11.19686,1.20648 20.11717,11.8882 31.61654,11.86425 6.17091,-2.09295 -0.4889,-8.14957 -0.64974,-11.89725 -9.92421,-31.45973 -12.44484,-65.63654 -30.0194,-94.3032 C 271.53674,241.94272 264.29256,216.26709 246.78194,196.62702 217.78289,161.96693 185.01893,130.51551 151.01175,100.82217 124.21873,79.471566 94.696597,61.656064 65.041113,44.665117 64.213495,44.570246 63.437747,45.1153 63.115968,45.8604 Z M 301.71878,350.86773 c 4.38456,0.67829 5.68872,9.50752 3.73875,12.7094 -2.31224,-3.52616 -4.05438,-8.51782 -3.73875,-12.7094 z"
       id="path4315"
       inkscape:connector-curvature="0" />
    <path
       style="color:#000000;clip-rule:nonzero;display:inline;overflow:visible;visibility:visible;opacity:1;isolation:auto;mix-blend-mode:normal;color-interpolation:sRGB;color-interpolation-filters:linearRGB;solid-color:#000000;solid-opacity:1;fill:none;fill-opacity:1;fill-rule:evenodd;stroke:#000000;stroke-width:3.25;stroke-linecap:butt;stroke-linejoin:miter;stroke-miterlimit:4;stroke-dasharray:none;stroke-dashoffset:0;stroke-opacity:1;color-rendering:auto;image-rendering:auto;shape-rendering:auto;text-rendering:auto;enable-background:accumulate"
       d="M 425.40836,554.87936 C 413.40421,547.1237 402.34439,538.85938 393.75221,529.26588"
       id="path4370"
       inkscape:connector-curvature="0"
       sodipodi:nodetypes="cc" />
    <path
       style="color:#000000;clip-rule:nonzero;display:inline;overflow:visible;visibility:visible;opacity:1;isolation:auto;mix-blend-mode:normal;color-interpolation:sRGB;color-interpolation-filters:linearRGB;solid-color:#000000;solid-opacity:1;fill:none;fill-opacity:1;fill-rule:evenodd;stroke:#000000;stroke-width:3.25;stroke-linecap:butt;stroke-linejoin:miter;stroke-miterlimit:4;stroke-dasharray:none;stroke-dashoffset:0;stroke-opacity:1;color-rendering:auto;image-rendering:auto;shape-rendering:auto;text-rendering:auto;enable-background:accumulate"
       d="M 434.19985,544.11255 C 418.15004,533.5439 414.28901,532.45985 406.39211,516.13306"
       id="path4372"
       inkscape:connector-curvature="0"
       sodipodi:nodetypes="cc" />
    <path
       style="color:#000000;clip-rule:nonzero;display:inline;overflow:visible;visibility:visible;opacity:1;isolation:auto;mix-blend-mode:normal;color-interpolation:sRGB;color-interpolation-filters:linearRGB;solid-color:#000000;solid-opacity:1;fill:none;fill-opacity:1;fill-rule:evenodd;stroke:#000000;stroke-width:3.25;stroke-linecap:butt;stroke-linejoin:miter;stroke-miterlimit:4;stroke-dasharray:none;stroke-dashoffset:0;stroke-opacity:1;color-rendering:auto;image-rendering:auto;shape-rendering:auto;text-rendering:auto;enable-background:accumulate"
       d="m 453.50468,530.7119 c -2.68565,-13.73315 2.93212,-28.3424 7.59467,-42.85088"
       id="path4374"
       inkscape:connector-curvature="0"
       sodipodi:nodetypes="cc" />
    <ellipse
       style="opacity:1;fill:#ffffff;fill-opacity:1;fill-rule:nonzero;stroke:#000000;stroke-width:6.55003929;stroke-linecap:round;stroke-linejoin:round;stroke-miterlimit:4;stroke-dasharray:none;stroke-opacity:1"
       id="path4378"
       cx="-577.93683"
       cy="529.50177"
       rx="19.067495"
       ry="13.509424"
       transform="matrix(0.02996987,-0.9995508,0.99939276,0.03484399,0,0)" />
    <ellipse
       transform="matrix(0.0506256,-0.9987177,0.99995367,0.00962569,0,0)"
       ry="4.811172"
       rx="7.048594"
       cy="542.43701"
       cx="-600.32397"
       id="ellipse4380"
       style="opacity:1;fill:#000000;fill-opacity:1;fill-rule:nonzero;stroke:#000000;stroke-width:3.25136781;stroke-linecap:round;stroke-linejoin:round;stroke-miterlimit:4;stroke-dasharray:none;stroke-opacity:1" />
  </g>
</svg>
