<?xml version="1.0" encoding="UTF-8" standalone="no"?>
<!-- Created with Inkscape (http://www.inkscape.org/) -->

<svg
   xmlns:dc="http://purl.org/dc/elements/1.1/"
   xmlns:cc="http://creativecommons.org/ns#"
   xmlns:rdf="http://www.w3.org/1999/02/22-rdf-syntax-ns#"
   xmlns:svg="http://www.w3.org/2000/svg"
   xmlns="http://www.w3.org/2000/svg"
   xmlns:sodipodi="http://sodipodi.sourceforge.net/DTD/sodipodi-0.dtd"
   xmlns:inkscape="http://www.inkscape.org/namespaces/inkscape"
   width="210mm"
   height="50mm"
   viewBox="0 0 744.09449 177.16536"
   id="svg4884"
   version="1.1"
   inkscape:version="0.91 r13725"
   sodipodi:docname="foreground.svg">
  <defs
     id="defs4886" />
  <sodipodi:namedview
     id="base"
     pagecolor="#ffffff"
     bordercolor="#666666"
     borderopacity="1.0"
     inkscape:pageopacity="0.0"
     inkscape:pageshadow="2"
     inkscape:zoom="0.7"
     inkscape:cx="420.4196"
     inkscape:cy="245.92033"
     inkscape:document-units="px"
     inkscape:current-layer="layer1"
     showgrid="false"
     inkscape:window-width="1440"
     inkscape:window-height="849"
     inkscape:window-x="0"
     inkscape:window-y="25"
     inkscape:window-maximized="1" />
  <metadata
     id="metadata4889">
    <rdf:RDF>
      <cc:Work
         rdf:about="">
        <dc:format>image/svg+xml</dc:format>
        <dc:type
           rdf:resource="http://purl.org/dc/dcmitype/StillImage" />
        <dc:title></dc:title>
      </cc:Work>
    </rdf:RDF>
  </metadata>
  <g
     inkscape:label="Layer 1"
     inkscape:groupmode="layer"
     id="layer1"
     transform="translate(0,-875.19689)">
    <path
       style="color:#000000;clip-rule:nonzero;display:inline;overflow:visible;visibility:visible;opacity:1;isolation:auto;mix-blend-mode:normal;color-interpolation:sRGB;color-interpolation-filters:linearRGB;solid-color:#000000;solid-opacity:1;fill:#008000;fill-opacity:1;fill-rule:evenodd;stroke:#000000;stroke-width:1.25;stroke-linecap:butt;stroke-linejoin:miter;stroke-miterlimit:4;stroke-dasharray:none;stroke-dashoffset:0;stroke-opacity:1;color-rendering:auto;image-rendering:auto;shape-rendering:auto;text-rendering:auto;enable-background:accumulate"
       d="m -34.285716,992.36223 c 9.944706,-49.14554 48.993742,-65.43274 91.428571,-37.14286 10.83185,7.22124 14.401315,20.1156 22.857143,28.57143 12.421836,12.42184 27.132212,30.9488 45.714282,37.1429 44.31909,14.773 62.28665,-54.28575 97.14286,-54.28575 7.90297,0 18.01582,-1.09978 25.71428,0 22.25092,3.1787 49.61192,29.73987 77.14286,22.85714 25.06568,-6.26642 23.89885,-39.1555 62.85714,-34.28572 44.20251,5.52532 102.54811,61.50583 142.85715,51.42853 24.63826,-6.1595 49.44584,-66.95809 88.57142,-79.99995 23.16317,-7.72106 60.69778,21.9519 77.14286,34.28571 5.51607,4.13705 30.10101,18.47042 37.14286,11.42857 8.24851,-8.24851 16.00082,-24.57019 28.57143,-5.71428 18.45346,27.68019 22.85714,75.79755 22.85714,108.57145 0,10.2873 -3.26354,27.3522 0,37.1428 6.90296,20.7089 8.57432,42.8803 11.42857,65.7143 7.52742,60.2194 14.35074,114.1232 -8.57143,171.4286 -2.47288,6.1822 -6.50351,17.9321 -11.42857,22.8572 -20.06625,20.0662 -44.87933,28.0495 -68.57143,42.8571 -53.0525,33.1578 -108.24761,64.296 -168.57143,82.8571 -24.38517,7.5032 -46.67094,8.6778 -71.42857,11.4286 -28.54915,3.1721 -57.13914,11.4282 -85.71428,14.2857 -69.37973,6.938 -138.98626,5.0922 -208.57143,8.5715 -37.37334,1.8686 -84.612076,-2.1983 -119.999997,2.8571 -29.93298,4.2761 -74.489047,16.9395 -97.142858,-5.7143 -21.371299,-21.3713 -33.210718,-96.775 -42.857142,-125.7143 -16.198523,-48.5955 -27.142603,-98.5701 -37.142863,-148.5714 -4.34352,-21.7176 0.71273,-48.5652 5.71429,-68.5714 5.64991,-22.5997 -2.79095,-48.8363 2.85714,-71.4286 3.20915,-12.8366 5.71429,-26.4502 5.71429,-40"
       id="path5432"
       inkscape:connector-curvature="0" />
    <path
       style="color:#000000;clip-rule:nonzero;display:inline;overflow:visible;visibility:visible;opacity:1;isolation:auto;mix-blend-mode:normal;color-interpolation:sRGB;color-interpolation-filters:linearRGB;solid-color:#000000;solid-opacity:1;fill:none;fill-opacity:1;fill-rule:evenodd;stroke:#000000;stroke-width:1.25;stroke-linecap:butt;stroke-linejoin:miter;stroke-miterlimit:4;stroke-dasharray:none;stroke-dashoffset:0;stroke-opacity:1;color-rendering:auto;image-rendering:auto;shape-rendering:auto;text-rendering:auto;enable-background:accumulate"
       d="m 45.714284,1119.5051 c 3.998318,-7.3848 6.102122,-19.0255 15.714286,-21.4286 16.755625,-4.1889 47.48342,25.6008 64.28571,20 6.21659,-2.0722 7.39705,-7.397 11.42857,-11.4286 3.43418,-3.4341 17.83417,2.6844 22.85714,1.4286 5.1296,-1.2824 10.14432,-9.8557 15.71429,-4.2857"
       id="path5434"
       inkscape:connector-curvature="0" />
    <path
       style="color:#000000;clip-rule:nonzero;display:inline;overflow:visible;visibility:visible;opacity:1;isolation:auto;mix-blend-mode:normal;color-interpolation:sRGB;color-interpolation-filters:linearRGB;solid-color:#000000;solid-opacity:1;fill:none;fill-opacity:1;fill-rule:evenodd;stroke:#000000;stroke-width:1.25;stroke-linecap:butt;stroke-linejoin:miter;stroke-miterlimit:4;stroke-dasharray:none;stroke-dashoffset:0;stroke-opacity:1;color-rendering:auto;image-rendering:auto;shape-rendering:auto;text-rendering:auto;enable-background:accumulate"
       d="m 308.57142,1090.9337 c 20.07783,-6.0711 40.7052,-25.1982 62.85715,-17.1429 19.39615,7.0531 37.84835,20.2668 58.57142,22.8571 15.82179,1.9778 22.62265,-8.5128 34.28572,-11.4285 10.15053,-2.5377 18.23719,0.3951 28.57143,1.4285 6.65991,0.666 11.99921,-0.2144 18.57143,1.4286"
       id="path5436"
       inkscape:connector-curvature="0" />
    <path
       style="color:#000000;clip-rule:nonzero;display:inline;overflow:visible;visibility:visible;opacity:1;isolation:auto;mix-blend-mode:normal;color-interpolation:sRGB;color-interpolation-filters:linearRGB;solid-color:#000000;solid-opacity:1;fill:none;fill-opacity:1;fill-rule:evenodd;stroke:#000000;stroke-width:1.25;stroke-linecap:butt;stroke-linejoin:miter;stroke-miterlimit:4;stroke-dasharray:none;stroke-dashoffset:0;stroke-opacity:1;color-rendering:auto;image-rendering:auto;shape-rendering:auto;text-rendering:auto;enable-background:accumulate"
       d="m 611.42857,1083.7908 c 5.13881,-0.6946 10.58099,0.7333 15.71428,0 11.7514,-1.6788 20.93256,-10.1036 32.85714,-11.4286 40.60067,-4.5112 94.24103,24.3597 131.42858,37.1429 24.71347,8.4953 50.06937,7.1429 75.71428,7.1429"
       id="path5438"
       inkscape:connector-curvature="0" />
  </g>
</svg>
