<?xml version="1.0" encoding="UTF-8" standalone="no"?>
<!-- Created with Inkscape (http://www.inkscape.org/) -->

<svg
   xmlns:dc="http://purl.org/dc/elements/1.1/"
   xmlns:cc="http://creativecommons.org/ns#"
   xmlns:rdf="http://www.w3.org/1999/02/22-rdf-syntax-ns#"
   xmlns:svg="http://www.w3.org/2000/svg"
   xmlns="http://www.w3.org/2000/svg"
   xmlns:sodipodi="http://sodipodi.sourceforge.net/DTD/sodipodi-0.dtd"
   xmlns:inkscape="http://www.inkscape.org/namespaces/inkscape"
   width="200mm"
   height="80mm"
   viewBox="0 0 708.66142 283.46458"
   id="svg4884"
   version="1.1"
   inkscape:version="0.91 r13725"
   sodipodi:docname="Förgrund.svg">
  <defs
     id="defs4886" />
  <sodipodi:namedview
     id="base"
     pagecolor="#ffffff"
     bordercolor="#666666"
     borderopacity="1.0"
     inkscape:pageopacity="0.0"
     inkscape:pageshadow="2"
     inkscape:zoom="0.7"
     inkscape:cx="303.27674"
     inkscape:cy="-36.936813"
     inkscape:document-units="px"
     inkscape:current-layer="layer1"
     showgrid="false"
     inkscape:window-width="1440"
     inkscape:window-height="849"
     inkscape:window-x="0"
     inkscape:window-y="25"
     inkscape:window-maximized="1" />
  <metadata
     id="metadata4889">
    <rdf:RDF>
      <cc:Work
         rdf:about="">
        <dc:format>image/svg+xml</dc:format>
        <dc:type
           rdf:resource="http://purl.org/dc/dcmitype/StillImage" />
        <dc:title></dc:title>
      </cc:Work>
    </rdf:RDF>
  </metadata>
  <g
     inkscape:label="Layer 1"
     inkscape:groupmode="layer"
     id="layer1"
     transform="translate(0,-768.89768)">
    <path
       style="color:#000000;clip-rule:nonzero;display:inline;overflow:visible;visibility:visible;opacity:1;isolation:auto;mix-blend-mode:normal;color-interpolation:sRGB;color-interpolation-filters:linearRGB;solid-color:#000000;solid-opacity:1;fill:#008000;fill-opacity:1;fill-rule:evenodd;stroke:#000000;stroke-width:1.25;stroke-linecap:butt;stroke-linejoin:miter;stroke-miterlimit:4;stroke-dasharray:none;stroke-dashoffset:0;stroke-opacity:1;color-rendering:auto;image-rendering:auto;shape-rendering:auto;text-rendering:auto;enable-background:accumulate"
       d="M 650.71875 140.78711 C 647.44351 140.69058 644.32313 141.07002 641.42773 142.03516 C 602.30215 155.07702 577.49568 215.87559 552.85742 222.03516 C 512.54838 232.1124 454.20251 176.13274 410 170.60742 C 371.04171 165.73764 372.20826 198.62616 347.14258 204.89258 C 319.61164 211.77531 292.25092 185.21386 270 182.03516 C 262.30154 180.93538 252.18813 182.03516 244.28516 182.03516 C 209.42895 182.03516 191.46167 251.09527 147.14258 236.32227 C 128.56051 230.12822 113.84957 211.60153 101.42773 199.17969 C 92.971908 190.72386 89.404116 177.82866 78.572266 170.60742 C 36.137437 142.31754 -2.9127162 158.60446 -12.857422 207.75 L -87.142578 290.60742 C -87.142578 304.15722 -89.648273 317.77082 -92.857422 330.60742 C -97.575528 349.4798 -92.467588 370.8933 -93.949219 390.60742 L 818.22852 390.60742 C 815.57789 368.7839 813.75654 347.59189 807.14258 327.75 C 803.87904 317.9594 807.14258 300.89472 807.14258 290.60742 C 807.14258 257.83352 802.73862 209.71535 784.28516 182.03516 C 771.71455 163.17925 763.96335 179.50149 755.71484 187.75 C 748.67299 194.79185 724.08834 180.45932 718.57227 176.32227 C 704.18282 165.53018 673.64546 141.46282 650.71875 140.78711 z "
       transform="translate(0,768.89768)"
       id="path5432" />
    <path
       style="color:#000000;clip-rule:nonzero;display:inline;overflow:visible;visibility:visible;opacity:1;isolation:auto;mix-blend-mode:normal;color-interpolation:sRGB;color-interpolation-filters:linearRGB;solid-color:#000000;solid-opacity:1;fill:none;fill-opacity:1;fill-rule:evenodd;stroke:#000000;stroke-width:1.25;stroke-linecap:butt;stroke-linejoin:miter;stroke-miterlimit:4;stroke-dasharray:none;stroke-dashoffset:0;stroke-opacity:1;color-rendering:auto;image-rendering:auto;shape-rendering:auto;text-rendering:auto;enable-background:accumulate"
       d="m 67.142858,1103.7908 c 3.998318,-7.3848 6.102122,-19.0255 15.714286,-21.4286 16.755623,-4.1889 47.483426,25.6008 64.285716,20 6.21659,-2.0722 7.39705,-7.397 11.42857,-11.4285 3.43418,-3.4342 17.83417,2.6843 22.85714,1.4285 5.1296,-1.2824 10.14432,-9.8557 15.71429,-4.2857"
       id="path5434"
       inkscape:connector-curvature="0" />
    <path
       style="color:#000000;clip-rule:nonzero;display:inline;overflow:visible;visibility:visible;opacity:1;isolation:auto;mix-blend-mode:normal;color-interpolation:sRGB;color-interpolation-filters:linearRGB;solid-color:#000000;solid-opacity:1;fill:none;fill-opacity:1;fill-rule:evenodd;stroke:#000000;stroke-width:1.25;stroke-linecap:butt;stroke-linejoin:miter;stroke-miterlimit:4;stroke-dasharray:none;stroke-dashoffset:0;stroke-opacity:1;color-rendering:auto;image-rendering:auto;shape-rendering:auto;text-rendering:auto;enable-background:accumulate"
       d="m 330,1075.2194 c 20.07783,-6.071 40.7052,-25.1981 62.85715,-17.1429 19.39615,7.0532 37.84835,20.2668 58.57142,22.8572 15.82179,1.9777 22.62265,-8.5128 34.28572,-11.4286 10.15053,-2.5376 18.23719,0.3951 28.57143,1.4286 6.65991,0.666 11.99921,-0.2145 18.57143,1.4285"
       id="path5436"
       inkscape:connector-curvature="0" />
    <path
       style="color:#000000;clip-rule:nonzero;display:inline;overflow:visible;visibility:visible;opacity:1;isolation:auto;mix-blend-mode:normal;color-interpolation:sRGB;color-interpolation-filters:linearRGB;solid-color:#000000;solid-opacity:1;fill:none;fill-opacity:1;fill-rule:evenodd;stroke:#000000;stroke-width:1.25;stroke-linecap:butt;stroke-linejoin:miter;stroke-miterlimit:4;stroke-dasharray:none;stroke-dashoffset:0;stroke-opacity:1;color-rendering:auto;image-rendering:auto;shape-rendering:auto;text-rendering:auto;enable-background:accumulate"
       d="m 632.85715,1068.0765 c 5.13881,-0.6946 10.58099,0.7333 15.71428,0 11.7514,-1.6788 20.93256,-10.1036 32.85714,-11.4286 40.60067,-4.5111 94.24103,24.3597 131.42858,37.1429 24.71347,8.4953 50.06937,7.1429 75.71428,7.1429"
       id="path5438"
       inkscape:connector-curvature="0" />
  </g>
</svg>
