<?xml version="1.0" encoding="UTF-8" standalone="no"?>
<!-- Created with Inkscape (http://www.inkscape.org/) -->

<svg
   xmlns:dc="http://purl.org/dc/elements/1.1/"
   xmlns:cc="http://creativecommons.org/ns#"
   xmlns:rdf="http://www.w3.org/1999/02/22-rdf-syntax-ns#"
   xmlns:svg="http://www.w3.org/2000/svg"
   xmlns="http://www.w3.org/2000/svg"
   xmlns:sodipodi="http://sodipodi.sourceforge.net/DTD/sodipodi-0.dtd"
   xmlns:inkscape="http://www.inkscape.org/namespaces/inkscape"
   width="111.01953mm"
   height="36.486629mm"
   viewBox="0 0 393.37629 129.28333"
   id="svg2"
   version="1.1"
   inkscape:version="0.91 r13725"
   sodipodi:docname="ground1.svg"
   inkscape:export-filename="/home/mattias/Dropbox/Dokument/Jenny/ground1.svg.png"
   inkscape:export-xdpi="199.79372"
   inkscape:export-ydpi="199.79372">
  <defs
     id="defs4" />
  <sodipodi:namedview
     id="base"
     pagecolor="#ffffff"
     bordercolor="#666666"
     borderopacity="1.0"
     inkscape:pageopacity="0.0"
     inkscape:pageshadow="2"
     inkscape:zoom="2.0718076"
     inkscape:cx="196.68815"
     inkscape:cy="23.333487"
     inkscape:document-units="px"
     inkscape:current-layer="layer1"
     showgrid="false"
     fit-margin-top="0"
     fit-margin-left="0"
     fit-margin-right="0"
     fit-margin-bottom="0"
     inkscape:window-width="1440"
     inkscape:window-height="849"
     inkscape:window-x="0"
     inkscape:window-y="25"
     inkscape:window-maximized="1" />
  <metadata
     id="metadata7">
    <rdf:RDF>
      <cc:Work
         rdf:about="">
        <dc:format>image/svg+xml</dc:format>
        <dc:type
           rdf:resource="http://purl.org/dc/dcmitype/StillImage" />
        <dc:title />
      </cc:Work>
    </rdf:RDF>
  </metadata>
  <g
     inkscape:label="Layer 1"
     inkscape:groupmode="layer"
     id="layer1"
     transform="translate(-163.68065,-498.81712)">
    <path
       style="opacity:1;fill:#109a1f;fill-opacity:1;fill-rule:nonzero;stroke:none;stroke-width:4.19999981;stroke-linecap:round;stroke-linejoin:round;stroke-miterlimit:4;stroke-dasharray:none;stroke-opacity:1"
       d="m 514.77734,498.84961 c -106.4954,1.38199 -213.02334,-0.94071 -319.5039,1.21484 -12.82391,3.36902 -28.43563,10.47388 -30.14258,25.34961 -1.52326,30.84853 -2.60479,62.06642 0.79492,92.74219 5.90738,11.12236 20.50224,10.37299 31.26563,9.48696 115.43515,-0.0253 230.88962,0.5956 346.3125,-0.34438 12.06122,-3.53292 15.16179,-18.46681 12.83789,-29.37305 -1.02512,-26.19436 3.41253,-53.08651 -3.20703,-78.76172 -6.6884,-14.20666 -23.37106,-20.87418 -38.35743,-20.31445 z"
       id="rect4136"
       inkscape:connector-curvature="0" />
    <path
       style="opacity:1;fill:#007e0a;fill-opacity:1;fill-rule:nonzero;stroke:none;stroke-width:4.19999981;stroke-linecap:round;stroke-linejoin:round;stroke-miterlimit:4;stroke-dasharray:none;stroke-opacity:1"
       d="m 237.88946,513.06562 c -14.1223,0.36639 -28.30685,-0.45831 -42.36719,0.53906 -12.14395,1.02606 -13.51976,21.06399 -2.13671,24.19922 24.79741,0.0611 49.75215,1.33485 74.46875,-0.71094 10.33945,-5.75016 5.5902,-25.12217 -6.81934,-23.82802 -7.71267,-0.23428 -15.43012,-0.224 -23.14551,-0.19932 z"
       id="path4161"
       inkscape:connector-curvature="0" />
    <path
       inkscape:connector-curvature="0"
       id="path4173"
       d="m 339.91487,525.18745 c -14.1223,0.36639 -28.30685,-0.45831 -42.36719,0.53906 -12.14395,1.02606 -13.51976,21.06399 -2.13671,24.19922 24.79741,0.0611 49.75215,1.33485 74.46875,-0.71094 10.33945,-5.75016 5.5902,-25.12217 -6.81934,-23.82802 -7.71267,-0.23428 -15.43012,-0.224 -23.14551,-0.19932 z"
       style="opacity:1;fill:#007e0a;fill-opacity:1;fill-rule:nonzero;stroke:none;stroke-width:4.19999981;stroke-linecap:round;stroke-linejoin:round;stroke-miterlimit:4;stroke-dasharray:none;stroke-opacity:1" />
    <path
       style="opacity:1;fill:#007e0a;fill-opacity:1;fill-rule:nonzero;stroke:none;stroke-width:4.19999981;stroke-linecap:round;stroke-linejoin:round;stroke-miterlimit:4;stroke-dasharray:none;stroke-opacity:1"
       d="m 420.28161,509.02501 c -9.09292,0.36639 -18.22591,-0.45831 -27.27893,0.53906 -7.81912,1.02606 -8.70496,21.06399 -1.37577,24.19922 15.96629,0.0611 32.03388,1.33485 47.94814,-0.71094 6.65726,-5.75016 3.59936,-25.12217 -4.39076,-23.82802 -4.96595,-0.23428 -9.93498,-0.224 -14.90268,-0.19932 z"
       id="path4175"
       inkscape:connector-curvature="0" />
    <path
       style="opacity:1;fill:#007e0a;fill-opacity:1;fill-rule:nonzero;stroke:none;stroke-width:4.19999981;stroke-linecap:round;stroke-linejoin:round;stroke-miterlimit:4;stroke-dasharray:none;stroke-opacity:1"
       d="m 503.55958,528.21791 c -14.1223,0.36639 -28.30685,-0.45831 -42.36719,0.53906 -12.14395,1.02606 -13.51976,21.06399 -2.13671,24.19922 24.79741,0.0611 49.75215,1.33485 74.46875,-0.71094 10.33945,-5.75016 5.5902,-25.12217 -6.81934,-23.82802 -7.71267,-0.23428 -15.43012,-0.224 -23.14551,-0.19932 z"
       id="path4177"
       inkscape:connector-curvature="0" />
  </g>
</svg>
