<?xml version="1.0" encoding="UTF-8" standalone="no"?>
<!-- Created with Inkscape (http://www.inkscape.org/) -->

<svg
   xmlns:dc="http://purl.org/dc/elements/1.1/"
   xmlns:cc="http://creativecommons.org/ns#"
   xmlns:rdf="http://www.w3.org/1999/02/22-rdf-syntax-ns#"
   xmlns:svg="http://www.w3.org/2000/svg"
   xmlns="http://www.w3.org/2000/svg"
   xmlns:sodipodi="http://sodipodi.sourceforge.net/DTD/sodipodi-0.dtd"
   xmlns:inkscape="http://www.inkscape.org/namespaces/inkscape"
   width="165.92091mm"
   height="50.745575mm"
   viewBox="0 0 587.90875 179.80715"
   id="svg5541"
   version="1.1"
   inkscape:version="0.91 r13725"
   sodipodi:docname="lava.svg"
   inkscape:export-filename="/home/mattias/Dropbox/Dokument/Jenny/lava.png"
   inkscape:export-xdpi="30.032175"
   inkscape:export-ydpi="30.032175">
  <defs
     id="defs5543" />
  <sodipodi:namedview
     id="base"
     pagecolor="#ffffff"
     bordercolor="#666666"
     borderopacity="1.0"
     inkscape:pageopacity="0.0"
     inkscape:pageshadow="2"
     inkscape:zoom="0.49497475"
     inkscape:cx="258.04498"
     inkscape:cy="60.152171"
     inkscape:document-units="px"
     inkscape:current-layer="layer1"
     showgrid="false"
     inkscape:window-width="1440"
     inkscape:window-height="849"
     inkscape:window-x="0"
     inkscape:window-y="25"
     inkscape:window-maximized="1"
     fit-margin-top="0"
     fit-margin-left="0"
     fit-margin-right="0"
     fit-margin-bottom="0" />
  <metadata
     id="metadata5546">
    <rdf:RDF>
      <cc:Work
         rdf:about="">
        <dc:format>image/svg+xml</dc:format>
        <dc:type
           rdf:resource="http://purl.org/dc/dcmitype/StillImage" />
        <dc:title></dc:title>
      </cc:Work>
    </rdf:RDF>
  </metadata>
  <g
     inkscape:label="Layer 1"
     inkscape:groupmode="layer"
     id="layer1"
     transform="translate(-105.05586,-458.39252)">
    <rect
       style="opacity:1;fill:#800000;fill-opacity:1;fill-rule:nonzero;stroke:none;stroke-width:3.25;stroke-linecap:round;stroke-linejoin:round;stroke-miterlimit:4;stroke-dasharray:none;stroke-opacity:1"
       id="rect6089"
       width="587.90875"
       height="179.80716"
       x="105.05586"
       y="458.39252"
       inkscape:export-xdpi="100"
       inkscape:export-ydpi="100" />
    <path
       style="opacity:1;fill:#ff0000;fill-opacity:1;fill-rule:nonzero;stroke:none;stroke-width:3.25;stroke-linecap:round;stroke-linejoin:round;stroke-miterlimit:4;stroke-dasharray:none;stroke-opacity:1"
       d="m 115.0918,494.89453 c -12.38532,0.97798 -25.53957,-1.44475 -37.40625,2.74805 -10.360687,6.44723 -8.03138,20.37281 -8.052738,30.60742 -0.809686,9.83985 -0.285344,23.38951 10.599608,27.48438 12.99008,4.40631 26.84691,0.54966 40.21679,1.77204 41.61311,-0.24475 83.3599,1.21281 124.88868,-0.7779 11.13919,-3.66528 13.50265,-17.18057 11.85938,-27.36914 0.2808,-10.57971 2.27835,-24.25747 -7.66797,-31.33594 -8.92109,-4.82658 -19.61664,-1.77076 -29.2734,-2.96587 -35.0539,-0.34452 -70.11005,0.13479 -105.1641,-0.16304 z"
       id="rect6091"
       inkscape:connector-curvature="0" />
    <path
       inkscape:connector-curvature="0"
       id="path6127"
       d="m 647.0918,494.89453 c -12.38532,0.97798 -25.53957,-1.44475 -37.40625,2.74805 -10.36069,6.44723 -8.03138,20.37281 -8.05274,30.60742 -0.80968,9.83985 -0.28534,23.38951 10.59961,27.48438 12.99008,4.40631 26.84691,0.54966 40.21679,1.77204 41.61311,-0.24475 83.3599,1.21281 124.88868,-0.7779 11.13919,-3.66528 13.50265,-17.18057 11.85938,-27.36914 0.2808,-10.57971 2.27835,-24.25747 -7.66797,-31.33594 -8.92109,-4.82658 -19.61664,-1.77076 -29.2734,-2.96587 -35.0539,-0.34452 -70.11005,0.13479 -105.1641,-0.16304 z"
       style="opacity:1;fill:#ff0000;fill-opacity:1;fill-rule:nonzero;stroke:none;stroke-width:3.25;stroke-linecap:round;stroke-linejoin:round;stroke-miterlimit:4;stroke-dasharray:none;stroke-opacity:1" />
    <path
       inkscape:connector-curvature="0"
       id="path6129"
       d="m 310.23466,583.46596 c -12.38532,0.52348 -25.53957,-0.77333 -37.40625,1.47094 -10.36069,3.451 -8.03138,10.90491 -8.05274,16.38316 -0.80969,5.26696 -0.28534,12.51965 10.59961,14.7115 12.99008,2.35856 26.84691,0.29422 40.21679,0.94852 41.61311,-0.13101 83.3599,0.64918 124.88868,-0.41639 11.13919,-1.9619 13.50265,-9.1962 11.85938,-14.64981 0.2808,-5.66298 2.27835,-12.98424 -7.66797,-16.77312 -8.92109,-2.58351 -19.61664,-0.94783 -29.2734,-1.58753 -35.0539,-0.18441 -70.11005,0.0721 -105.1641,-0.0873 z"
       style="opacity:1;fill:#ff0000;fill-opacity:1;fill-rule:nonzero;stroke:none;stroke-width:3.25;stroke-linecap:round;stroke-linejoin:round;stroke-miterlimit:4;stroke-dasharray:none;stroke-opacity:1" />
    <path
       style="opacity:1;fill:#ffff00;fill-opacity:1;fill-rule:nonzero;stroke:none;stroke-width:3.25;stroke-linecap:round;stroke-linejoin:round;stroke-miterlimit:4;stroke-dasharray:none;stroke-opacity:1"
       d="m 350.3775,467.03737 c -2.94151,0.17984 -6.06563,-0.26567 -8.88395,0.50532 -2.46066,1.18556 -1.90745,3.74626 -1.91252,5.62825 -0.1923,1.8094 -0.0678,4.30098 2.5174,5.05396 3.08513,0.81026 6.37611,0.10108 9.55144,0.32585 9.88308,-0.045 19.7979,0.22302 29.66094,-0.14304 2.64555,-0.67399 3.20687,-3.15925 2.81659,-5.03277 0.0667,-1.94545 0.54111,-4.46059 -1.82113,-5.76221 -2.11875,-0.88754 -4.65893,-0.32562 -6.9524,-0.54538 -8.32527,-0.0633 -16.65107,0.0248 -24.97637,-0.03 z"
       id="path6131"
       inkscape:connector-curvature="0" />
    <path
       inkscape:connector-curvature="0"
       id="path6133"
       d="m 430.3775,478.46594 c -2.94151,0.17984 -6.06563,-0.26567 -8.88395,0.50532 -2.46066,1.18556 -1.90745,3.74626 -1.91252,5.62825 -0.1923,1.8094 -0.0678,4.30098 2.5174,5.05396 3.08513,0.81026 6.37611,0.10108 9.55144,0.32585 9.88308,-0.045 19.7979,0.22302 29.66094,-0.14304 2.64555,-0.67399 3.20687,-3.15925 2.81659,-5.03277 0.0667,-1.94545 0.54111,-4.46059 -1.82113,-5.76221 -2.11875,-0.88754 -4.65893,-0.32562 -6.9524,-0.54538 -8.32527,-0.0633 -16.65107,0.0248 -24.97637,-0.03 z"
       style="opacity:1;fill:#ffff00;fill-opacity:1;fill-rule:nonzero;stroke:none;stroke-width:3.25;stroke-linecap:round;stroke-linejoin:round;stroke-miterlimit:4;stroke-dasharray:none;stroke-opacity:1" />
    <path
       style="opacity:1;fill:#ffff00;fill-opacity:1;fill-rule:nonzero;stroke:none;stroke-width:3.25;stroke-linecap:round;stroke-linejoin:round;stroke-miterlimit:4;stroke-dasharray:none;stroke-opacity:1"
       d="m 502.52036,468.46594 c -2.94151,0.17984 -6.06563,-0.26567 -8.88395,0.50532 -2.46066,1.18556 -1.90745,3.74626 -1.91252,5.62825 -0.1923,1.8094 -0.0678,4.30098 2.5174,5.05396 3.08513,0.81026 6.37611,0.10108 9.55144,0.32585 9.88308,-0.045 19.7979,0.22302 29.66094,-0.14304 2.64555,-0.67399 3.20687,-3.15925 2.81659,-5.03277 0.0667,-1.94545 0.54111,-4.46059 -1.82113,-5.76221 -2.11875,-0.88754 -4.65893,-0.32562 -6.9524,-0.54538 -8.32527,-0.0633 -16.65107,0.0248 -24.97637,-0.03 z"
       id="path6135"
       inkscape:connector-curvature="0" />
    <path
       inkscape:connector-curvature="0"
       id="path6137"
       d="m 606.80607,474.18023 c -2.94151,0.17984 -6.06563,-0.26567 -8.88395,0.50532 -2.46066,1.18556 -1.90745,3.74626 -1.91252,5.62825 -0.1923,1.8094 -0.0678,4.30098 2.5174,5.05396 3.08513,0.81026 6.37611,0.10108 9.55144,0.32585 9.88308,-0.045 19.7979,0.22302 29.66094,-0.14304 2.64555,-0.67399 3.20687,-3.15925 2.81659,-5.03277 0.0667,-1.94545 0.54111,-4.46059 -1.82113,-5.76221 -2.11875,-0.88754 -4.65893,-0.32562 -6.9524,-0.54538 -8.32527,-0.0633 -16.65107,0.0248 -24.97637,-0.03 z"
       style="opacity:1;fill:#ffff00;fill-opacity:1;fill-rule:nonzero;stroke:none;stroke-width:3.25;stroke-linecap:round;stroke-linejoin:round;stroke-miterlimit:4;stroke-dasharray:none;stroke-opacity:1" />
    <path
       style="opacity:1;fill:#ffff00;fill-opacity:1;fill-rule:nonzero;stroke:none;stroke-width:3.25;stroke-linecap:round;stroke-linejoin:round;stroke-miterlimit:4;stroke-dasharray:none;stroke-opacity:1"
       d="m 246.09178,478.46594 c -2.94151,0.17984 -6.06563,-0.26567 -8.88395,0.50532 -2.46066,1.18556 -1.90745,3.74626 -1.91252,5.62825 -0.1923,1.8094 -0.0678,4.30098 2.5174,5.05396 3.08513,0.81026 6.37611,0.10108 9.55144,0.32585 9.88308,-0.045 19.7979,0.22302 29.66094,-0.14304 2.64555,-0.67399 3.20687,-3.15925 2.81659,-5.03277 0.0667,-1.94545 0.54111,-4.46059 -1.82113,-5.76221 -2.11875,-0.88754 -4.65893,-0.32562 -6.9524,-0.54538 -8.32527,-0.0633 -16.65107,0.0248 -24.97637,-0.03 z"
       id="path6139"
       inkscape:connector-curvature="0" />
    <path
       inkscape:connector-curvature="0"
       id="path6141"
       d="m 189.66321,469.18023 c -2.94151,0.17984 -6.06563,-0.26567 -8.88395,0.50532 -2.46066,1.18556 -1.90745,3.74626 -1.91252,5.62825 -0.1923,1.8094 -0.0678,4.30098 2.5174,5.05396 3.08513,0.81026 6.37611,0.10108 9.55144,0.32585 9.88308,-0.045 19.7979,0.22302 29.66094,-0.14304 2.64555,-0.67399 3.20687,-3.15925 2.81659,-5.03277 0.0667,-1.94545 0.54111,-4.46059 -1.82113,-5.76221 -2.11875,-0.88754 -4.65893,-0.32562 -6.9524,-0.54538 -8.32527,-0.0633 -16.65107,0.0248 -24.97637,-0.03 z"
       style="opacity:1;fill:#ffff00;fill-opacity:1;fill-rule:nonzero;stroke:none;stroke-width:3.25;stroke-linecap:round;stroke-linejoin:round;stroke-miterlimit:4;stroke-dasharray:none;stroke-opacity:1" />
    <path
       style="opacity:1;fill:#ffff00;fill-opacity:1;fill-rule:nonzero;stroke:none;stroke-width:3.25;stroke-linecap:round;stroke-linejoin:round;stroke-miterlimit:4;stroke-dasharray:none;stroke-opacity:1"
       d="m 118.23464,474.18023 c -2.94151,0.17984 -6.06563,-0.26567 -8.88395,0.50532 -2.46066,1.18556 -1.90745,3.74626 -1.91252,5.62825 -0.1923,1.8094 -0.0678,4.30098 2.5174,5.05396 3.08513,0.81026 6.37611,0.10108 9.55144,0.32585 9.88308,-0.045 19.7979,0.22302 29.66094,-0.14304 2.64555,-0.67399 3.20687,-3.15925 2.81659,-5.03277 0.0667,-1.94545 0.54111,-4.46059 -1.82113,-5.76221 -2.11875,-0.88754 -4.65893,-0.32562 -6.9524,-0.54538 -8.32527,-0.0633 -16.65107,0.0248 -24.97637,-0.03 z"
       id="path6143"
       inkscape:connector-curvature="0" />
  </g>
</svg>
