<?xml version="1.0" encoding="UTF-8" standalone="no"?>
<!-- Created with Inkscape (http://www.inkscape.org/) -->

<svg
   xmlns:dc="http://purl.org/dc/elements/1.1/"
   xmlns:cc="http://creativecommons.org/ns#"
   xmlns:rdf="http://www.w3.org/1999/02/22-rdf-syntax-ns#"
   xmlns:svg="http://www.w3.org/2000/svg"
   xmlns="http://www.w3.org/2000/svg"
   xmlns:sodipodi="http://sodipodi.sourceforge.net/DTD/sodipodi-0.dtd"
   xmlns:inkscape="http://www.inkscape.org/namespaces/inkscape"
   width="70.944717mm"
   height="69.424225mm"
   viewBox="0 0 251.37892 245.99135"
   id="svg4382"
   version="1.1"
   inkscape:version="0.91 r13725"
   sodipodi:docname="meteor.svg">
  <defs
     id="defs4384" />
  <sodipodi:namedview
     id="base"
     pagecolor="#ffffff"
     bordercolor="#666666"
     borderopacity="1.0"
     inkscape:pageopacity="0.0"
     inkscape:pageshadow="2"
     inkscape:zoom="0.98994949"
     inkscape:cx="133.94997"
     inkscape:cy="157.26033"
     inkscape:document-units="px"
     inkscape:current-layer="layer1"
     showgrid="false"
     fit-margin-top="0"
     fit-margin-left="0"
     fit-margin-right="0"
     fit-margin-bottom="0"
     inkscape:window-width="1440"
     inkscape:window-height="849"
     inkscape:window-x="0"
     inkscape:window-y="25"
     inkscape:window-maximized="1" />
  <metadata
     id="metadata4387">
    <rdf:RDF>
      <cc:Work
         rdf:about="">
        <dc:format>image/svg+xml</dc:format>
        <dc:type
           rdf:resource="http://purl.org/dc/dcmitype/StillImage" />
        <dc:title></dc:title>
      </cc:Work>
    </rdf:RDF>
  </metadata>
  <g
     inkscape:label="Layer 1"
     inkscape:groupmode="layer"
     id="layer1"
     transform="translate(-267.40622,-148.53465)">
    <path
       style="opacity:1;fill:#999999;fill-opacity:1;fill-rule:nonzero;stroke:#000000;stroke-width:3.25;stroke-linecap:round;stroke-linejoin:round;stroke-miterlimit:4;stroke-dasharray:none;stroke-opacity:1"
       d="m 431.29664,392.901 -53.29355,-10.75584 -46.06683,7.65428 -17.17076,-32.01778 -45.73432,-20.68147 21.25689,-61.69301 -15.43619,-30.71637 38.8021,-38.12806 20.72047,-42.37037 65.91669,0.65018 47.9194,-14.68295 28.59105,65.41821 40.3586,24.95375 -33.08282,52.66392 15.43577,27.80102 -23.01902,36.56279 z"
       id="path4933"
       inkscape:connector-curvature="0" />
    <path
       transform="matrix(0.87999362,0,0,0.85714244,55.52617,50.820546)"
       style="opacity:1;fill:#808080;fill-opacity:1;fill-rule:nonzero;stroke:#808080;stroke-width:3.74211478;stroke-linecap:round;stroke-linejoin:round;stroke-miterlimit:4;stroke-dasharray:none;stroke-opacity:1"
       inkscape:transform-center-x="-3.4509008"
       inkscape:transform-center-y="-4.4311724"
       d="m 406.01707,301.15694 -38.38631,5.18897 -31.55264,14.04161 -11.6824,-10.91043 -37.54307,-17.29615 -5.84705,-30.57431 -3.49687,-19.34594 14.93416,-28.96888 15.89092,-31.94195 26.87233,-2.49389 24.14853,-21.10255 21.27008,32.89825 38.70029,-3.54138 -1.54038,39.56011 19.65637,29.90698 -33.54781,15.46282 z"
       id="path4937"
       inkscape:connector-curvature="0" />
    <path
       transform="matrix(0.77062,0,0,0.59146831,128.4646,179.49022)"
       style="opacity:1;fill:#666666;fill-opacity:1;fill-rule:nonzero;stroke:#808080;stroke-width:4.81390476;stroke-linecap:round;stroke-linejoin:round;stroke-miterlimit:4;stroke-dasharray:none;stroke-opacity:1"
       inkscape:transform-center-x="-3.0219891"
       inkscape:transform-center-y="-3.0577181"
       d="m 406.01707,301.15694 -38.38631,5.18897 -31.55264,14.04161 -11.6824,-10.91043 -37.54307,-17.29615 -5.84705,-30.57431 -3.49687,-19.34594 14.93416,-28.96888 15.89092,-31.94195 26.87233,-2.49389 24.14853,-21.10255 21.27008,32.89825 38.70029,-3.54138 -1.54038,39.56011 19.65637,29.90698 -33.54781,15.46282 z"
       id="path4939"
       inkscape:connector-curvature="0" />
  </g>
</svg>
