<?xml version="1.0" encoding="UTF-8" standalone="no"?>
<!-- Created with Inkscape (http://www.inkscape.org/) -->

<svg
   xmlns:dc="http://purl.org/dc/elements/1.1/"
   xmlns:cc="http://creativecommons.org/ns#"
   xmlns:rdf="http://www.w3.org/1999/02/22-rdf-syntax-ns#"
   xmlns:svg="http://www.w3.org/2000/svg"
   xmlns="http://www.w3.org/2000/svg"
   xmlns:sodipodi="http://sodipodi.sourceforge.net/DTD/sodipodi-0.dtd"
   xmlns:inkscape="http://www.inkscape.org/namespaces/inkscape"
   width="49.34045mm"
   height="66.457672mm"
   viewBox="0 0 174.82837 235.47994"
   id="svg5837"
   version="1.1"
   inkscape:version="0.91 r13725"
   sodipodi:docname="pillis_huvud.svg">
  <defs
     id="defs5839" />
  <sodipodi:namedview
     id="base"
     pagecolor="#ffffff"
     bordercolor="#666666"
     borderopacity="1.0"
     inkscape:pageopacity="0.0"
     inkscape:pageshadow="2"
     inkscape:zoom="0.35"
     inkscape:cx="-526.15724"
     inkscape:cy="-159.40289"
     inkscape:document-units="px"
     inkscape:current-layer="layer1"
     showgrid="false"
     fit-margin-top="0"
     fit-margin-left="0"
     fit-margin-right="0"
     fit-margin-bottom="0"
     inkscape:window-width="1440"
     inkscape:window-height="849"
     inkscape:window-x="0"
     inkscape:window-y="25"
     inkscape:window-maximized="1" />
  <metadata
     id="metadata5842">
    <rdf:RDF>
      <cc:Work
         rdf:about="">
        <dc:format>image/svg+xml</dc:format>
        <dc:type
           rdf:resource="http://purl.org/dc/dcmitype/StillImage" />
        <dc:title></dc:title>
      </cc:Work>
    </rdf:RDF>
  </metadata>
  <g
     inkscape:label="Layer 1"
     inkscape:groupmode="layer"
     id="layer1"
     transform="translate(-218.3001,-137.47937)">
    <g
       id="g5798"
       transform="translate(-321.00075,111.53633)">
      <path
         inkscape:connector-curvature="0"
         id="path5758"
         d="m 665.48047,26.296038 c -6.90091,-0.164507 -13.75025,1.112061 -20.37891,2.9375 -18.07748,2.890493 -30.48122,20.847302 -30.77344,38.353516 3.51627,4.575814 8.85618,-1.901007 12.32422,-3.8125 8.3701,-5.552775 16.06871,4.88765 24.68946,2.693359 6.73774,-4.767549 16.11381,-4.779273 22.63281,0.529297 0.7467,3.524798 10.48463,4.067228 5.75781,4.740235 -13.69911,8.465862 -30.20644,1.175847 -44.78515,6.572265 -6.75928,3.737961 -11.79819,-3.60781 -16.22657,-7.371093 -6.42636,0.114952 -3.80421,8.195702 -1.97851,11.628906 2.65075,4.401743 -3.11208,7.852621 -1.19336,12.210937 11.45253,15.8145 21.39705,37.52367 12.00195,56.59375 -4.77964,2.93657 -5.66414,9.43056 -3.07617,14.17774 13.52836,21.34261 27.17442,43.36168 32.68555,68.28515 1.39036,7.95433 2.32454,15.9586 2.9414,23.99219 14.17967,0.69378 28.3328,1.97926 42.47266,3.34375 -1.7209,-17.65473 -1.59784,-35.50511 0.45898,-53.08594 2.25274,-34.52901 10.21641,-68.88844 8.4043,-103.69727 0.96956,-14.48504 -3.98115,-28.370273 -9.8418,-41.38476 -3.41397,-17.605695 -16.71071,-36.163306 -36.11523,-36.707032 z"
         style="opacity:1;fill:#d8aeb0;fill-opacity:1;fill-rule:nonzero;stroke:none;stroke-width:4.19999981;stroke-linecap:round;stroke-linejoin:round;stroke-miterlimit:4;stroke-dasharray:none;stroke-opacity:1" />
      <path
         inkscape:connector-curvature="0"
         id="path5756"
         d="m 687.56445,69.700335 c -0.37961,0.05138 -2.71694,0.242554 -0.51367,0.01563 0.54918,-0.03473 0.64021,-0.03275 0.51367,-0.01563 z"
         style="opacity:1;fill:#d8aeb0;fill-opacity:1;fill-rule:nonzero;stroke:none;stroke-width:4.19999981;stroke-linecap:round;stroke-linejoin:round;stroke-miterlimit:4;stroke-dasharray:none;stroke-opacity:1" />
      <path
         inkscape:connector-curvature="0"
         id="path5754"
         d="m 691.89844,70.092913 c 0.59234,-0.03264 1.20846,0.07916 1.71484,0.400391 3.2606,2.539903 -2.57439,-0.536984 -1.71484,-0.400391 z"
         style="opacity:1;fill:#d8aeb0;fill-opacity:1;fill-rule:nonzero;stroke:none;stroke-width:4.19999981;stroke-linecap:round;stroke-linejoin:round;stroke-miterlimit:4;stroke-dasharray:none;stroke-opacity:1" />
      <path
         inkscape:connector-curvature="0"
         id="path4139"
         d="m 612.17828,89.329114 c 7.62371,15.857026 19.79039,31.393046 16.78347,50.106486 -0.57521,4.08043 1.36193,12.75559 -5.55811,11.38937 -14.4693,-0.87776 -30.44874,0.94793 -43.7018,-5.82239 -3.92253,-4.44485 6.47461,-3.17799 8.14148,-5.35672 11.52421,-4.99476 24.42453,-8.08363 34.77394,-15.17274 -0.12779,-3.01282 -6.86537,-1.20351 -8.94945,-1.89042 -23.66387,-1.90603 -46.17539,-12.49191 -65.53575,-25.72581 -3.60208,-4.906113 6.67978,-4.221629 9.27942,-5.032908 18.13698,-2.076085 36.6771,-2.926914 54.7668,-2.494868 z"
         style="opacity:1;fill:#ffffff;fill-opacity:1;fill-rule:nonzero;stroke:none;stroke-width:4.19999981;stroke-linecap:round;stroke-linejoin:round;stroke-miterlimit:4;stroke-dasharray:none;stroke-opacity:1" />
      <path
         inkscape:connector-curvature="0"
         id="path4141"
         d="m 663.03969,62.699182 c 1.26547,0.04616 2.73448,-0.134858 3.46732,1.152778 1.70031,2.112274 5.12219,2.008405 6.33175,4.644935 1.04156,2.485851 -0.97592,4.878004 -2.58392,6.570998 -1.66769,1.722091 -3.90838,3.154518 -6.4083,2.857221 -3.46772,-0.172335 -7.04564,-0.49136 -10.27515,-1.844933 -1.00801,-0.696973 -2.35576,-1.622167 -2.37807,-2.963619 0.60073,-1.504813 2.55926,-1.591105 3.89843,-2.02997 1.49086,-0.431675 3.22847,-0.488707 4.55027,-1.274418 -0.57393,-1.702356 -2.64954,-2.657514 -2.8314,-4.508647 0.50404,-1.877533 2.81444,-2.275039 4.48051,-2.520695 0.58021,-0.06642 1.16474,-0.09185 1.74856,-0.08365 z"
         style="opacity:1;fill:#ffffff;fill-opacity:1;fill-rule:nonzero;stroke:none;stroke-width:4.19999981;stroke-linecap:round;stroke-linejoin:round;stroke-miterlimit:4;stroke-dasharray:none;stroke-opacity:1" />
      <path
         inkscape:connector-curvature="0"
         id="path4143"
         d="m 635.54874,62.682991 c 3.796,-0.06941 7.43315,2.113963 9.46176,5.259189 0.76947,1.684806 -0.13436,3.622885 -0.95459,5.122409 -2.47928,3.622798 -7.18666,4.840336 -11.35552,4.935313 -1.41653,0.08954 -3.47156,-0.180875 -3.62743,-1.950174 -0.24967,-1.690657 0.49893,-3.506858 2.10591,-4.245747 1.33219,-0.6806 0.65048,-2.425509 0.72356,-3.584251 -4.1e-4,-1.635664 -0.94319,-3.555771 0.0952,-5.029054 0.94375,-0.804515 2.4139,-0.385438 3.5511,-0.507685 z"
         style="opacity:1;fill:#ffffff;fill-opacity:1;fill-rule:nonzero;stroke:none;stroke-width:4.19999981;stroke-linecap:round;stroke-linejoin:round;stroke-miterlimit:4;stroke-dasharray:none;stroke-opacity:1" />
      <path
         inkscape:connector-curvature="0"
         id="path4206"
         d="m 665.90234,25.950335 c -0.59553,-0.0121 -1.20097,-0.0089 -1.8164,0.0078 -2.27238,0.06171 -4.68887,0.316837 -7.32227,0.742188 -13.96761,2.256069 -30.62166,8.962668 -33.51367,13.496094 -0.49603,0.777566 -1.8768,1.951742 -3.06641,2.609375 -4.4448,2.457151 -8.67188,27.60308 -6.18164,36.771484 0.71839,2.644924 1.14896,4.950228 0.95703,5.123047 -0.19192,0.17282 -9.72666,0.643567 -21.1875,1.044922 -11.46084,0.401356 -23.29789,1.195407 -26.30468,1.765625 -3.00679,0.570229 -5.81441,0.959301 -6.24024,0.865235 -0.42584,-0.09406 -3.2613,0.262333 -6.30078,0.791015 -3.03948,0.528693 -5.99704,0.83034 -6.57226,0.669922 -0.57523,-0.160408 -2.94191,0.611258 -5.25977,1.714844 -4.51036,2.147488 -5.01144,4.343022 -1.43164,6.28125 1.2158,0.658274 5.19443,3.043644 8.8418,5.300784 16.86546,10.43696 44.75361,21.89169 53.41992,21.9414 5.93256,0.034 7.49637,3.48339 2.13672,4.7129 -4.8405,1.1104 -14.50952,5.18442 -15.28516,6.43945 -0.43138,0.69796 -5.40544,2.0915 -11.05273,3.09766 -5.64729,1.00616 -10.44744,2.36577 -10.66602,3.02148 -0.51819,1.55458 2.98535,3.72787 11.84375,7.3457 5.86441,2.39506 10.1058,3.13764 23.09375,4.04688 8.75104,0.61263 16.11014,1.3113 16.35156,1.55273 0.24143,0.24143 0.72882,2.36577 1.08399,4.72071 0.81276,5.38884 5.97644,14.75794 12.17187,22.08593 2.62513,3.10502 4.77149,6.17079 4.77149,6.81446 0,0.64367 0.41325,1.33642 0.91797,1.53906 1.43454,0.57593 7.67534,14.49364 8.52148,19.00391 0.41839,2.23019 1.32963,4.41981 2.02539,4.86718 3.0256,1.94543 7.15329,19.30627 9.52149,40.05078 0.0857,0.75046 0.16501,1.99092 0.24414,3.42774 1.10671,0.0531 2.21389,0.11571 3.32031,0.17578 -1.07852,-12.11814 -3.20077,-24.58096 -5.81836,-32.89258 -6.6259,-21.0391 -11.6829,-31.79389 -20.43945,-43.46289 -7.28465,-9.70753 -11.21698,-17.17258 -11.73047,-22.27148 -0.3268,-3.24512 0.003,-3.85523 2.38476,-4.42969 1.96666,-0.4743 3.20474,-1.9275 4.29492,-5.04102 1.63692,-4.67501 2.21075,-20.64329 0.97071,-27.0332 -0.65676,-3.38436 -8.06607,-19.50036 -9.6543,-21 -0.32189,-0.30395 -1.54288,-2.292286 -2.71289,-4.419924 -1.17001,-2.127637 -2.66077,-4.246634 -3.31445,-4.707031 -0.76479,-0.538652 -0.21737,-1.587991 1.53515,-2.945313 2.3368,-1.80984 2.54889,-2.475781 1.50196,-4.689453 -4.22024,-8.9234 -3.99261,-18.9664 0.24414,-10.773438 1.0424,2.015785 2.66676,4.435387 3.60937,5.376954 2.17431,2.171925 10.03543,1.995511 16.78906,-0.376954 5.56884,-1.956266 12.87928,-2.291863 16.87305,-0.773437 3.88434,1.476823 16.30731,-0.240359 17.94531,-2.480469 0.74093,-1.013275 2.05056,-1.841797 2.91211,-1.841797 0.86153,0 2.64551,-0.755585 3.96485,-1.679687 1.69887,-1.18993 3.70698,-1.472051 6.8789,-0.964844 3.73075,0.596567 4.47852,1.141719 4.47852,3.261719 0,1.747139 -0.77912,2.708539 -2.48633,3.068359 -1.36776,0.288286 -0.7762,0.447541 1.31641,0.353516 3.35153,-0.150581 3.92236,-0.621778 4.77929,-3.951172 1.19519,-4.643588 -0.37271,-5.805474 -8.64648,-6.417969 -4.14538,-0.306888 -6.02676,0.03713 -7.07227,1.296875 -2.06465,2.487756 -3.09999,2.124756 -3.86523,-1.359375 -0.58109,-2.645642 -1.75106,-3.444315 -8.3457,-5.689453 -7.50096,-2.553696 -7.78125,-2.568467 -12.67579,-0.699219 -2.75273,1.051274 -5.0039,2.38229 -5.0039,2.958985 0,2.457648 -3.39727,1.984568 -8.36524,-1.166016 -3.06745,-1.945323 -6.82361,-3.380859 -8.84765,-3.380859 -4.33958,0 -11.24702,2.7613 -14.5586,5.820312 -1.36537,1.261241 -2.74194,2.035397 -3.05859,1.71875 -0.63797,-0.637982 1.15041,-10.360496 3.01367,-16.380859 0.65849,-2.127637 2.43305,-5.495165 3.94336,-7.482422 3.24282,-4.266847 11.67437,-10.201172 14.49219,-10.201172 1.09016,0 4.9192,-1.017764 8.50976,-2.261719 4.22701,-1.464456 9.84082,-2.34253 15.92383,-2.488281 10.40254,-0.24926 16.15392,1.800103 22.98633,8.185546 7.94366,7.423997 9.73038,11.022294 14.63086,29.472657 1.33602,5.030166 3.27229,9.75515 4.30274,10.5 3.02133,2.183995 5.60965,20.005932 5.58398,38.44531 -0.0213,15.29823 -0.57057,21.22249 -3.32617,35.85743 -0.68676,3.64737 -1.39149,9.68111 -1.56641,13.4082 -0.17493,3.72711 -0.64823,7.30767 -1.05078,7.95898 -0.40254,0.65132 -0.96915,6.80421 -1.25977,13.67188 -0.53252,12.58415 -1.75759,24.12716 -3.96484,37.35547 -0.65931,3.95133 -0.94031,10.41587 -0.625,14.36719 0.31531,3.95133 1.07188,14.00478 1.68164,22.33984 0.0205,0.28032 0.0437,0.52321 0.0644,0.80078 1.67903,0.16069 3.35656,0.3253 5.03516,0.48828 -0.4003,-2.78345 -1.08774,-5.98562 -2.03711,-9.22461 -1.97464,-6.73696 -2.31705,-20.06564 -0.73047,-28.43164 0.57245,-3.01853 1.12258,-8.43388 1.22266,-12.0332 0.10002,-3.59933 0.63602,-9.77719 1.18945,-13.72852 0.55343,-3.95133 1.13711,-11.16222 1.29883,-16.02539 0.19591,-5.89104 0.98702,-10.25963 2.36719,-13.08789 1.19819,-2.45534 2.02872,-6.41594 1.9707,-9.39453 -0.0552,-2.83232 0.72619,-8.63144 1.73633,-12.88672 2.86543,-12.07083 2.47412,-45.64701 -0.73438,-63.000001 -1.34877,-7.294755 -3.17578,-15.717007 -4.06054,-18.714843 -0.88474,-2.997846 -1.60938,-6.783596 -1.60938,-8.414063 0,-1.636645 -1.17014,-4.145396 -2.61328,-5.601562 -1.43768,-1.450662 -2.96366,-3.757234 -3.39062,-5.125 -0.42698,-1.367767 -1.16243,-2.486328 -1.63477,-2.486328 -0.47235,0 -3.61297,-2.410344 -6.97852,-5.35547 -9.49234,-8.306525 -16.34245,-11.781408 -25.27539,-11.96289 z m -30.36718,37.212891 c 2.40262,0 4.92664,0.950709 6.80273,2.564453 2.60949,2.244597 2.84813,2.97081 1.91211,5.802734 -1.13275,3.427121 -5.83498,5.819488 -11.67969,5.939454 -2.33877,0.04797 -3.03906,-0.455975 -3.03906,-2.183594 0,-1.23487 0.79819,-2.551539 1.77344,-2.925782 1.38102,-0.529941 1.62217,-1.622726 1.09179,-4.939453 -0.67978,-4.251153 -0.67451,-4.257812 3.13868,-4.257812 z m 27.40429,0.04492 c 1.6632,-0.01245 3.06446,0.301052 3.06446,0.951172 0,0.548433 1.49271,1.518559 3.3164,2.154297 4.25577,1.483575 4.36377,4.822726 0.27735,8.626953 -2.69999,2.513552 -3.69758,2.761374 -8.91993,2.228515 -3.23343,-0.329922 -6.58912,-1.190193 -7.45898,-1.912109 -2.54156,-2.109313 -1.87147,-3.009051 2.83789,-3.804688 4.97937,-0.841263 5.19127,-1.185711 2.53125,-4.125 -1.63068,-1.801883 -1.66769,-2.228698 -0.27539,-3.109375 1.04013,-0.657904 2.96376,-0.997316 4.62695,-1.009765 z m -39.10547,3.554687 c 0.68024,-0.09718 1.2754,0.305339 1.2754,1.28125 0,0.962499 -0.7875,1.75 -1.75,1.75 -0.96251,0 -1.55314,-0.590618 -1.3125,-1.3125 0.34157,-1.024703 1.10687,-1.621573 1.7871,-1.71875 z m -12.3789,21.482422 6.88281,12.246095 c 9.5109,16.92125 11.19336,22.17791 11.19336,34.9668 0,5.75062 -0.4938,11.75548 -1.09766,13.34375 l -1.09765,2.88672 -14.09961,-0.66211 c -7.75472,-0.36424 -16.58748,-0.91393 -19.62695,-1.22266 -5.24073,-0.53232 -17.07095,-4.69687 -17.11133,-6.02344 -0.01,-0.34087 3.08932,-1.54321 6.88867,-2.67187 6.7388,-2.00188 8.22077,-2.57821 13.18555,-5.13086 1.32503,-0.68125 5.67585,-2.37233 9.66992,-3.75781 14.34041,-4.97443 17.63737,-6.89316 16.10351,-9.375 -0.44233,-0.71571 -1.38166,-0.73675 -2.65234,-0.0566 -3.14791,1.68471 -34.26531,-3.83718 -36.58398,-6.49219 -0.98876,-1.13224 -13.26999,-6.71289 -14.77344,-6.71289 -0.80416,0 -2.31052,-0.93602 -3.34766,-2.08203 -1.03713,-1.14603 -3.29238,-2.36512 -5.01172,-2.70899 -1.71934,-0.34386 -3.80748,-1.29105 -4.64062,-2.10351 -0.83315,-0.81248 -3.38055,-2.61712 -5.66016,-4.011724 -2.27961,-1.394591 -4.14453,-2.974872 -4.14453,-3.509766 0,-2.754588 18.51846,-5.347583 44.29102,-6.203125 l 21.63281,-0.71875 z"
         style="fill:#000000" />
    </g>
  </g>
</svg>
