<?xml version="1.0" encoding="UTF-8" standalone="no"?>
<!-- Created with Inkscape (http://www.inkscape.org/) -->

<svg
   xmlns:dc="http://purl.org/dc/elements/1.1/"
   xmlns:cc="http://creativecommons.org/ns#"
   xmlns:rdf="http://www.w3.org/1999/02/22-rdf-syntax-ns#"
   xmlns:svg="http://www.w3.org/2000/svg"
   xmlns="http://www.w3.org/2000/svg"
   xmlns:sodipodi="http://sodipodi.sourceforge.net/DTD/sodipodi-0.dtd"
   xmlns:inkscape="http://www.inkscape.org/namespaces/inkscape"
   width="57.862411mm"
   height="14.615081mm"
   viewBox="0 0 205.02429 51.785719"
   id="svg4188"
   version="1.1"
   inkscape:version="0.91 r13725"
   sodipodi:docname="play_title.svg">
  <defs
     id="defs4190" />
  <sodipodi:namedview
     id="base"
     pagecolor="#ffffff"
     bordercolor="#666666"
     borderopacity="1.0"
     inkscape:pageopacity="0.0"
     inkscape:pageshadow="2"
     inkscape:zoom="2.8"
     inkscape:cx="60.443093"
     inkscape:cy="11.776596"
     inkscape:document-units="px"
     inkscape:current-layer="layer1"
     showgrid="false"
     fit-margin-top="0"
     fit-margin-left="0"
     fit-margin-right="0"
     fit-margin-bottom="0"
     inkscape:window-width="1440"
     inkscape:window-height="849"
     inkscape:window-x="0"
     inkscape:window-y="25"
     inkscape:window-maximized="1" />
  <metadata
     id="metadata4193">
    <rdf:RDF>
      <cc:Work
         rdf:about="">
        <dc:format>image/svg+xml</dc:format>
        <dc:type
           rdf:resource="http://purl.org/dc/dcmitype/StillImage" />
        <dc:title></dc:title>
      </cc:Work>
    </rdf:RDF>
  </metadata>
  <g
     inkscape:label="Layer 1"
     inkscape:groupmode="layer"
     id="layer1"
     transform="translate(-30.350715,-149.14792)">
    <path
       style="opacity:1;fill:#e47272;fill-opacity:1;fill-rule:nonzero;stroke:none;stroke-width:3.25;stroke-linecap:round;stroke-linejoin:round;stroke-miterlimit:4;stroke-dasharray:none;stroke-opacity:1"
       d="m 62.857143,149.14792 135.000007,0 c 55.51813,20.43437 44.21101,37.05016 0,51.78572 l -135.000007,0 c -46.306051,-16.75305 -40.272908,-34.08125 0,-51.78572 z"
       id="rect4755"
       inkscape:connector-curvature="0"
       sodipodi:nodetypes="ccccc" />
    <g
       style="font-style:normal;font-variant:normal;font-weight:normal;font-stretch:normal;font-size:40px;line-height:125%;font-family:'Angeline Vintage';-inkscape-font-specification:'Angeline Vintage';letter-spacing:0px;word-spacing:0px;fill:#ffffff;fill-opacity:1;stroke:none;stroke-width:1px;stroke-linecap:butt;stroke-linejoin:miter;stroke-opacity:1"
       id="flowRoot4736">
      <path
         d="m 101.67484,180.04572 q 0.04,-0.04 0.04,-0.04 0.04,0 0.08,-0.04 0.92,-1.04 1.88,-2.04 0.96,-1.04 1.8,-2.2 0.84,-1.08 1.52,-2.24 0.72,-1.16 1.28,-2.44 0,-0.08 0,-0.08 0.04,-0.04 0.04,-0.08 0.16,-0.24 0.44,-0.16 0.24,0.12 0.2,0.4 -0.08,0.4 -0.2,0.8 -0.12,0.36 -0.24,0.76 -0.24,0.6 -0.56,1.2 -0.28,0.56 -0.64,1.12 -1.24,1.84 -2.84,3.56 -0.76,0.84 -1.52,1.68 -0.72,0.84 -1.48,1.64 -0.64,0.76 -0.96,1.76 -0.12,0.4 -0.32,0.68 -0.199996,0.32 -0.439996,0.64 -0.52,0.56 -1.08,0.96 -0.56,0.44 -1.24,0.76 -1.68,0.8 -3.4,1.16 -1.04,0.2 -2.08,0.12 -1,-0.08 -2,-0.52 -2.84,-1.16 -3.36,-4.08 -0.28,-1.52 0.36,-2.64 0.68,-1.16 2,-1.8 0.52,-0.24 1.16,-0.16 0.52,0.12 0.6,0.48 0,0.36 -0.48,0.6 -0.08,0.04 -0.32,0.04 -0.8,0.12 -1.32,0.72 -1.04,1.24 -0.8,2.8 0,0.2 0.04,0.32 0.08,0.16 0.16,0.32 0.4,0.76 1.08,1.36 0.24,0.2 0.48,0.36 0.28,0.16 0.52,0.36 0.92,0.64 2.04,0.2 0.24,-0.08 0.44,-0.2 0.2,-0.08 0.4,-0.24 1.16,-0.92 1.84,-2.08 0.72,-1.16 1.04,-2.56 0.16,-0.72 0.24,-1.44 0.08,-0.72 0.04,-1.48 -0.04,-1 -0.48,-1.96 -0.4,-0.84 -0.88,-1.64 -0.48,-0.8 -1,-1.6 -0.16,-0.24 -0.32,-0.48 -0.12,-0.24 -0.32,-0.48 -0.76,-1.04 -1,-2.44 -0.2,-0.96 -0.28,-1.92 -0.08,-0.96 0,-1.96 0.16,-1.88 0.84,-3.48 0.68,-1.6 2,-2.92 0.88,-0.84 1.88,-1.4 1.04,-0.56 2.24,-0.76 1.04,-0.2 2.039996,-0.08 1.04,0.12 2.04,0.52 0.84,0.4 1.28,1 0.4,0.52 0.44,1.16 0.08,0.6 -0.44,1.2 -1.2,1.32 -2.8,2.04 -0.96,0.44 -1.919996,0.72 -0.72,0.24 -1.44,0.56 -0.68,0.28 -1.36,0.6 -0.64,0.32 -0.6,1.04 0.08,0.44 0.12,0.92 0.08,0.44 0.2,0.88 0.16,0.68 0.56,1.4 0.52,0.84 1.12,1.6 0.64,0.72 1.36,1.4 0.679996,0.64 1.199996,1.4 0.52,0.72 0.84,1.64 0.36,1.04 0.36,2.12 0,0.56 0,1.12 0,0.56 -0.12,1.12 -0.04,0.16 0,0.4 z m 5.88,-6.48 q 0.08,0 0.08,-0.12 l -0.04,0 q -0.08,0.08 0,0.12 l -0.08,0 0,0.04 q 0.04,0 0.04,-0.04 z m -6.44,8 -0.08,0 q 0,0.04 -0.04,0.08 -0.04,0 0,0.04 0,0.04 0.12,-0.08 l 0,-0.04 q 0.08,0 0.04,-0.04 l 0,-0.04 q -0.04,0.04 -0.04,0.08 z m -3.799996,-0.56 q -0.12,0.08 -0.12,0.2 l 0.08,0.04 q 0.08,-0.04 0.08,-0.2 l 0,-0.04 q 0.08,-0.08 0,-0.24 0,0.16 -0.04,0.24 z m 8.879996,-5.4 q 0.16,0 0.16,-0.08 0.04,-0.08 0.08,-0.24 -0.24,0.24 -0.2,0.32 -0.04,0 -0.08,0.04 l 0.04,0 0,-0.04 z m -9.039996,1.16 q 0.08,-0.08 0.2,0.04 0.08,0 0.12,-0.08 0,-0.08 -0.08,-0.08 -0.08,0.04 -0.16,0.04 -0.04,-0.04 -0.12,0.04 -0.16,0 -0.08,0.12 0.04,0.04 0.08,0.04 0.04,-0.04 0.04,-0.12 z m -7.76,2.72 q 0.16,-0.08 0.12,-0.16 -0.04,0 -0.12,0.08 l -0.2,0 q -0.16,0 -0.12,0.08 0,0.16 0.16,0.08 0.08,0 0.16,-0.08 z m 13.359996,-17.84 q 0.24,0 0.16,-0.2 0,-0.16 -0.12,-0.16 -0.08,0.04 -0.08,0.12 0.04,0.04 0,0.12 0,0.08 0.04,0.12 -0.04,-0.04 -0.08,0 0,0.04 0.04,0.04 0.04,0 0.04,-0.04 z m -8.319996,9.88 q -0.04,-0.04 -0.04,-0.04 0,-0.04 -0.08,-0.04 0,0.04 0,0.04 0.04,0 0.04,0.04 l 0.08,0 q 0,0 0,0.12 -0.08,0.08 0,0.12 0.08,0 0.12,0.04 0.16,0.08 0.16,-0.12 0,-0.16 -0.12,-0.16 -0.08,0 -0.12,0.04 0,0.04 -0.04,-0.04 z m 3.16,-12.2 q 0,-0.2 -0.12,-0.2 -0.08,0 -0.08,0.04 0,0.08 0.2,0.16 0,0.2 0.04,0.2 0.04,0.04 0.16,-0.08 0.2,-0.12 0.12,-0.24 -0.16,-0.16 -0.28,0.12 l -0.04,0 z m 0.08,26.64 q 0.32,-0.04 0.32,-0.32 0,-0.08 -0.04,-0.08 -0.08,0 -0.08,0.04 -0.08,0.08 -0.12,0.16 0,0.12 -0.08,0.2 -0.04,0 -0.04,0.04 l 0,0.04 q 0.04,-0.04 0.04,-0.08 z m -3.04,-0.4 q 0,-0.04 -0.08,-0.04 0,0.04 0.08,0.04 -0.04,0.12 0,0.24 0.08,0.12 0.08,0.24 0.04,-0.12 0.12,-0.16 0.12,0 0.16,-0.08 -0.08,-0.08 -0.16,-0.2 -0.04,-0.12 -0.2,-0.04 z m 4.92,-10.16 q 0.08,0.04 0,0.12 -0.04,0.12 0,0.16 0.08,0.08 0.12,0.08 0.04,-0.04 0.12,-0.16 0.04,-0.2 -0.08,-0.16 -0.12,0.04 -0.16,-0.04 -0.08,-0.2 0.04,-0.24 0.16,-0.08 0.16,-0.16 -0.08,-0.12 -0.16,-0.04 -0.08,0 -0.12,-0.04 -0.04,-0.08 -0.12,0.04 -0.12,0.16 0,0.32 0.08,0.08 0,0.12 -0.24,0 -0.2,-0.24 0,-0.2 0,-0.36 0,-0.16 -0.08,-0.36 0,-0.12 0.08,-0.12 0.08,-0.08 0.08,-0.12 0,0 -0.12,0 -0.2,0.04 -0.16,0.16 0.04,0.12 -0.04,0.2 l -0.12,0 q -0.16,0 -0.16,0.04 -0.04,0.08 0,0.12 0.08,0 0.12,0.04 0.16,0.12 0.08,0.32 -0.08,-0.04 -0.12,-0.08 0,-0.04 -0.08,0 0.04,0.08 -0.04,0.16 -0.04,0.04 0,0.12 0.24,0 0.24,-0.24 0.12,0.08 0.16,0.24 0.08,0.16 0.16,0.24 0.08,0.16 0,0.32 -0.08,0.16 0,0.32 0.08,-0.04 0.04,-0.08 -0.04,-0.08 0.04,-0.08 0.12,-0.04 0.12,0.08 0.16,0.16 0.04,0.28 -0.08,0.08 0,0.12 0.12,0 0.12,-0.08 0,-0.08 0.16,-0.24 0.12,-0.12 0.08,-0.16 -0.04,-0.04 -0.08,-0.08 -0.04,-0.08 -0.12,-0.04 -0.12,0.04 -0.12,0 0,-0.08 -0.08,-0.16 -0.08,-0.08 -0.04,-0.16 0.08,-0.08 0.04,-0.16 0.08,-0.08 0.2,0 z m -2.84,0.96 q -0.16,-0.24 -0.48,0 0.12,0.08 0.24,0.04 0.12,-0.04 0.24,-0.08 0,0.08 0,0.12 0.04,0.04 -0.04,0.12 -0.12,0.08 -0.12,0.24 0.04,0.16 0.16,0.28 -0.04,-0.12 0.04,-0.2 0.08,-0.12 0,-0.24 -0.04,-0.16 0.16,-0.24 0.12,0 0.12,-0.16 0,-0.08 -0.04,-0.08 -0.16,0 -0.2,0.12 0,0 -0.08,0.08 z m 1.64,-1.92 q 0,0.12 0.04,0.12 0.08,0 0.08,-0.04 0,-0.08 -0.04,-0.04 -0.04,0 -0.08,-0.04 -0.04,-0.08 0.04,-0.12 0.08,-0.08 0.04,-0.16 -0.04,-0.04 -0.08,-0.08 0,-0.04 -0.08,0 -0.04,0 -0.2,0.2 -0.12,0.16 -0.16,0.24 l 0,0.08 q 0.16,-0.04 0.16,0.12 0,0.16 0.16,0.12 -0.04,-0.08 -0.04,-0.12 0.04,-0.04 0,-0.12 -0.08,-0.2 0,-0.2 0.08,0 0.16,0.04 z m 1.24,-0.4 q -0.08,-0.2 -0.12,-0.24 -0.04,-0.04 -0.16,0 l 0.24,0.24 q 0.08,0.44 0.519996,0.28 0.16,0 0.16,-0.08 0.04,-0.32 -0.239996,-0.32 -0.24,-0.04 -0.4,0.12 z m -2.24,7.72 q 0.08,0 0.16,0.04 0.08,0.04 0.2,-0.04 -0.08,-0.04 -0.08,-0.12 0.04,-0.12 -0.16,-0.04 -0.08,0.04 -0.08,-0.08 -0.04,-0.2 -0.28,-0.12 -0.08,0 -0.16,0.04 -0.04,0.04 -0.12,0 -0.16,0 -0.28,0 -0.08,-0.04 -0.08,-0.24 0,-0.04 -0.08,-0.04 -0.08,0 -0.08,0.08 -0.08,0.24 0.12,0.32 0.12,0.04 0.24,0.08 0.16,0.04 0.28,-0.04 0.24,-0.16 0.4,0.16 -0.12,0 -0.24,0.04 -0.12,0.04 -0.24,-0.04 -0.12,0 -0.04,0.08 0,0.04 0.04,0.04 0.16,-0.08 0.24,0 0.12,0.08 0.2,0.16 0.12,-0.08 0.04,-0.12 -0.08,-0.08 0,-0.16 z m -1.92,-17.24 -0.08,0 q -0.12,-0.04 -0.16,0 0,0.08 0.08,0.08 0.04,0.04 0.12,0.04 0.12,0.08 0.16,0 0.08,-0.08 0.16,-0.12 0.08,-0.04 0.12,-0.04 0.08,-0.04 0.16,0.08 0.04,0.24 0.28,0.08 0.16,-0.12 0.28,-0.28 -0.2,-0.12 -0.44,-0.08 -0.24,0 -0.44,-0.08 -0.12,-0.12 -0.12,0.08 -0.04,0.08 -0.08,0.12 -0.04,0.04 -0.04,0.12 z m 2.84,-6.28 0.08,0 q 0.12,-0.04 0.24,-0.08 0.12,-0.04 0.2,-0.08 0.16,-0.04 0.2,-0.16 0.04,-0.12 0.2,-0.12 l 0,-0.04 q -0.04,-0.08 -0.04,-0.08 -0.16,0 -0.24,0.08 -0.08,0.2 -0.24,0.12 -0.36,0 -0.36,0.36 -0.08,0 -0.12,-0.04 -0.16,-0.08 -0.32,-0.12 -0.16,-0.04 -0.32,0.12 -0.08,0.04 -0.12,0.04 -0.04,0 -0.12,0.04 -0.2,0 -0.12,0.24 0,0 0,0.12 0,0.24 0.32,0.4 0.2,0.08 0.4,0.08 0.24,-0.04 0.44,-0.08 0.04,0 0.04,-0.04 -0.08,-0.12 0,-0.12 0.12,-0.04 0.12,-0.12 -0.04,-0.12 -0.12,-0.08 -0.08,0 -0.12,-0.08 -0.08,-0.08 0,-0.12 0.12,-0.08 0.04,-0.16 0,-0.04 -0.04,-0.08 z m -5.08,28.16 q 0.04,-0.04 0.04,-0.04 0.04,0 0.08,-0.04 0.28,-0.2 0.48,0 0.04,0.08 0.2,0.08 0.08,-0.08 0.08,-0.12 0,-0.16 -0.08,-0.16 -0.12,0.04 -0.24,-0.04 -0.12,-0.08 -0.28,0 -0.2,0.04 -0.36,0.28 -0.4,0.28 -0.84,0.44 -0.4,0.16 -0.92,0.12 0,0.08 0.08,0.24 0.04,0.2 0.32,0.28 0.24,0 0.48,0.04 0.24,0.04 0.48,0.04 0.24,0 0.28,-0.16 0.04,-0.08 0.08,-0.12 0.08,-0.04 0.16,-0.12 0.08,-0.08 0.04,-0.16 0,-0.04 0.04,-0.12 0,-0.08 -0.08,-0.08 -0.04,0.04 -0.08,0 -0.12,0 -0.12,-0.08 0.16,-0.08 0.16,-0.12 0.04,-0.04 0,-0.16 z m 3.16,-25.6 -0.04,0 q 0,-0.16 -0.24,-0.32 0.08,-0.12 0.24,-0.12 0.2,0.08 0.52,-0.08 0.28,-0.12 0.28,-0.48 0,-0.2 -0.12,-0.28 -0.08,-0.08 -0.16,-0.16 l -0.08,0 q -0.16,-0.12 -0.16,-0.28 0,-0.16 -0.16,-0.08 -0.08,0 -0.08,0.08 0,0.04 -0.08,0 0,-0.08 0,-0.12 0.04,-0.04 -0.04,-0.08 -0.08,0 -0.08,0.16 -0.08,0.08 -0.12,0.04 -0.12,0 -0.12,0 -0.08,0.2 -0.32,0.36 -0.2,0.12 -0.28,0.36 0,0.12 -0.12,0.12 -0.2,0.08 -0.2,0.16 -0.08,0.16 -0.28,0.16 -0.12,0 -0.2,0.04 0,0.12 0,0.12 0.08,0.04 0.12,-0.04 0.08,-0.08 0.16,0.04 -0.12,0.16 -0.2,0.32 -0.04,0.12 -0.12,0.28 -0.04,0.12 -0.2,0.12 -0.08,-0.08 -0.2,-0.04 -0.04,0.08 -0.04,0.2 0.04,0.12 -0.16,0.12 -0.08,0 -0.08,0.08 0,0.04 0.08,0.04 0.2,0.04 0.16,0.12 -0.04,0.08 -0.12,0.12 -0.12,0.08 -0.2,0.2 -0.08,0.12 -0.24,0.2 0.16,0.08 0.32,0.08 0,0.16 0.08,0.2 0.08,0.12 0.28,0.04 0.08,0 0.08,-0.08 -0.04,-0.08 -0.12,-0.08 -0.04,0 -0.08,-0.04 -0.16,-0.08 -0.24,-0.04 0.16,-0.16 0.28,-0.08 0.16,0.04 0.28,-0.12 0.16,-0.28 0.68,-0.36 -0.12,0.2 -0.12,0.28 -0.04,0.08 -0.12,0.08 -0.08,-0.04 -0.16,0.04 0.08,0.16 0.2,0.16 0.12,-0.04 0.2,0 0.16,0 0.12,-0.12 0,-0.12 0.08,-0.24 0.12,-0.12 0.2,-0.08 0.12,0.04 0.24,0 0.12,-0.04 0.24,0.04 0.04,0 0.12,0 0.08,0 0.08,-0.16 0.08,-0.04 0.04,-0.16 0.04,-0.08 -0.04,-0.12 -0.08,-0.04 0,-0.08 0.2,-0.04 0.2,-0.16 0.04,-0.16 0.16,-0.24 0.16,-0.08 0,-0.16 -0.04,-0.04 -0.12,0.04 z m 0.2,3.08 q 0.2,-0.08 0.36,-0.12 0.16,-0.04 0.32,-0.12 0.48,-0.24 0.96,-0.44 0.52,-0.2 1,-0.4 1.759996,-0.8 2.839996,-2.24 0.12,-0.16 0.28,-0.56 0.12,-0.44 -0.08,-0.72 -0.16,-0.28 -0.6,-0.36 -0.08,0 -0.2,0 -0.08,-0.04 -0.16,-0.04 -0.92,0 -1.719996,0.28 -2.44,0.68 -3.08,3.08 -0.2,0.88 0.08,1.64 z m 1.04,7.2 q -0.12,-0.28 -0.2,-0.28 -0.04,-0.04 -0.24,0.08 -0.08,0.04 -0.2,0.08 -0.08,0 0,-0.2 0,-0.08 -0.16,-0.08 -0.12,0 -0.04,0.12 0.08,0.12 0,0.12 -0.08,0 -0.16,0 -0.16,-0.08 -0.32,-0.08 -0.12,0 -0.28,0 -0.32,0 -0.44,0.28 -0.08,0.2 -0.24,0.2 -0.08,0 -0.12,0.08 0,0.04 0.08,0.08 0.08,0.08 0.04,0.16 0,0.04 0.12,0.12 0.08,-0.16 0.12,-0.32 0.04,-0.2 0.24,-0.28 0.12,0.08 0.24,0.16 0.12,0.08 0.2,0.16 0.16,0.16 0.28,0.08 0.12,-0.12 0.24,-0.04 0.2,0.12 0.2,-0.12 0.04,-0.08 0.16,-0.08 0.2,0.08 0.08,-0.12 -0.04,-0.16 0.2,-0.16 0.08,0 0.08,0.04 0.04,0.04 0.12,0 z m 0.72,7.88 q -0.08,-0.08 -0.04,-0.12 0.08,-0.08 0,-0.12 -0.16,-0.04 -0.04,-0.16 0.16,-0.12 0.08,-0.32 0,-0.08 -0.08,-0.08 -0.08,0 -0.08,0.08 0,0.04 0,0.08 0.04,0 0.04,0.04 0,0.12 -0.16,0.12 -0.08,0.08 -0.08,0.04 0,-0.08 0,-0.12 -0.08,-0.04 -0.08,-0.04 -0.04,0 -0.04,0.08 0,0.4 -0.28,0.16 -0.16,-0.04 -0.24,0.04 -0.24,0.32 -0.6,0.36 0.4,0.28 0.68,-0.16 0.04,-0.04 0.12,-0.04 0.08,0.08 0.08,0.12 l 0,0.08 q -0.16,0.16 0.04,0.2 0.08,0.08 0.16,-0.08 0,-0.08 0.08,0 0.36,0.28 0.64,-0.04 0.08,-0.2 0,-0.24 -0.04,-0.04 -0.16,0.08 -0.04,0 -0.04,0.04 z m -2.24,5.6 q 0.08,-0.16 0.04,-0.2 -0.08,-0.08 -0.04,-0.2 0.08,-0.08 -0.04,-0.16 -0.08,-0.08 -0.12,-0.12 -0.04,-0.04 -0.12,-0.12 -0.16,-0.32 -0.4,0 -0.08,0.16 -0.2,0.28 -0.08,0.12 -0.16,0.32 0.16,-0.04 0.28,0 0.12,0.08 0.24,-0.04 0,-0.04 0.04,-0.04 0.04,0 0.04,0.04 0.08,0.2 0.2,0.16 0.16,-0.04 0.24,0.08 z m 6.479996,-26.24 q -0.08,-0.08 -0.12,-0.08 -0.04,0 -0.08,-0.08 -0.16,-0.12 -0.2,-0.12 0,0 -0.2,0.08 -0.24,0.12 -0.4,-0.04 -0.08,0 -0.08,-0.08 0,-0.08 -0.12,-0.08 -0.12,-0.04 -0.04,-0.16 -0.12,0.08 -0.24,0 -0.12,-0.08 -0.24,0 -0.16,0.08 -0.24,0.04 -0.12,-0.12 -0.2,0 0,0.16 0.16,0.16 0.28,0.08 0.4,0.04 0.24,-0.04 0.32,0.12 0.04,0.2 0.2,0.16 0.2,-0.04 0.24,0.16 0.08,-0.08 0.2,0 0.16,0.08 0.24,-0.16 0,-0.08 0.16,0 0.04,0 0.08,0.08 0.04,0.04 0.16,-0.04 z m -2.879996,23.16 q 0.04,-0.08 0.08,-0.16 0.04,-0.12 -0.16,-0.2 0.04,0 0.08,-0.04 0.04,-0.04 0,-0.16 -0.08,-0.08 -0.08,-0.16 0.04,-0.12 0.08,-0.2 0.04,-0.04 0.04,-0.04 0,-0.04 0.04,-0.08 0.08,-0.16 0,-0.24 -0.08,-0.08 -0.24,0 -0.12,0.04 -0.04,0.2 0.04,0.12 0,0.2 -0.12,0.2 -0.12,0.36 0,0.12 -0.16,0.12 -0.16,-0.04 -0.2,0.12 0.08,0.04 0.12,0 0.08,-0.08 0.12,0 0.08,0.16 0.2,0.2 0.16,0 0.24,0.08 z m -4.28,4.92 q -0.08,0.08 -0.2,0.04 -0.12,0 -0.24,0 -0.08,0 -0.12,0.04 0,0.04 -0.08,0.08 -0.12,0.12 0.04,0.2 0.12,0.08 0.24,0.08 0.16,0.04 0.28,0.08 0.12,0.12 0.12,-0.04 0.08,-0.16 0.08,-0.24 -0.04,-0.12 0.12,-0.12 0.2,0 0.12,-0.2 -0.08,-0.12 -0.12,-0.24 -0.04,-0.08 -0.04,-0.2 0,-0.12 -0.08,-0.04 -0.08,0.08 -0.12,0.2 0,0.16 0.08,0.24 0.08,0.12 0.08,0.12 -0.04,0.08 -0.08,0 0,-0.04 -0.08,0 z m -1.6,-22.84 q 0.24,0.12 0.36,0.24 0.2,0.24 0.4,0.04 0.12,-0.08 0.32,0.12 0.08,0.04 0.08,0.08 0.04,0 0.12,0.04 0.12,0.12 0.2,0 0.04,-0.08 -0.08,-0.2 -0.28,-0.12 -0.56,-0.2 -0.24,-0.08 -0.44,-0.24 -0.12,0 -0.12,0.04 -0.08,0.04 -0.16,0.04 -0.04,0 -0.12,0.04 z m 4.48,19.96 q -0.16,-0.12 -0.28,-0.04 -0.2,0.16 -0.4,0.08 -0.32,-0.08 -0.16,0.16 0.08,0.08 -0.08,0.08 -0.12,0 -0.16,0.04 -0.08,0.08 -0.04,0.08 0,0.04 0,0.04 0.04,0.04 0.04,0 0.2,-0.08 0.32,-0.08 0.12,0.04 0.32,0.08 0.08,0.04 0.2,0.04 0.12,0 0.2,-0.16 -0.08,-0.12 -0.2,-0.04 -0.12,0.12 -0.2,0 0.12,-0.16 0.44,-0.28 z m -3,-14.88 q -0.08,-0.04 -0.12,-0.08 0,-0.04 -0.08,-0.12 -0.08,-0.04 -0.16,0.04 -0.08,0.04 -0.16,0.08 -0.2,0.08 -0.32,-0.08 0,-0.04 -0.12,-0.04 -0.04,0.04 0,0.16 0.04,0.08 0.04,0.12 0.04,0.04 0.2,0 0.24,-0.08 0.24,0.24 0,0.12 0.16,0.12 0.08,0 0.12,0 0.08,-0.04 0,-0.12 -0.16,-0.2 -0.04,-0.2 0.16,-0.04 0.24,-0.12 z m 4.08,8.52 q 0,0.12 0.08,0.12 0.08,0.04 0.08,0.04 0.04,-0.04 0.12,-0.04 0.32,-0.08 0.559996,0.16 l 0.08,0 q 0.08,0 0.08,-0.08 -0.08,-0.12 -0.12,-0.24 0,-0.12 -0.12,-0.2 -0.119996,-0.08 -0.159996,-0.04 -0.12,0.08 -0.28,0.12 -0.12,0 -0.24,0.08 -0.08,0.08 -0.08,0.08 z m -1.4,3.32 q 0.04,0.32 0.04,0.4 0.04,0.04 0.2,0.2 -0.04,0 -0.12,0.12 -0.04,0.08 -0.08,-0.12 0,-0.12 -0.12,-0.08 -0.04,0 -0.04,0.12 -0.04,0.08 0.04,0.12 0.08,0 0.12,0.08 -0.08,0.08 -0.16,0.12 -0.08,0 -0.04,0.12 0.28,0 0.48,-0.36 0.08,-0.12 0.12,-0.2 0.04,-0.12 -0.16,-0.2 -0.08,-0.04 -0.08,-0.08 0.04,-0.04 0,-0.08 -0.08,-0.16 -0.2,-0.16 z m 2.519996,-0.56 q 0,0.16 0.08,0.16 0.08,0.04 0.16,0.04 0.12,-0.04 0.2,-0.04 0.04,-0.04 0.04,-0.04 -0.08,-0.08 -0.04,-0.08 0.04,-0.04 0.12,-0.12 0.12,-0.12 -0.08,-0.24 -0.2,-0.08 -0.36,0.04 -0.16,0.08 -0.12,0.28 z m -5.279996,-15 q -0.08,0.08 0,0.16 0.08,0.08 0,0.16 -0.08,0.12 0,0.2 0.2,0.08 0.24,0.16 0.04,0.04 0.08,0.04 0.08,0 0.08,-0.04 -0.04,-0.16 0.04,-0.28 0.08,-0.12 0.12,-0.32 -0.16,0.2 -0.24,0.16 -0.08,-0.04 -0.16,-0.16 -0.12,-0.12 -0.16,-0.08 z m 6.159996,15.88 q -0.24,0.16 -0.44,0.12 -0.2,0 -0.12,0.16 0.04,0.08 0.04,0.16 0.04,0.08 0.16,0.08 0.16,0 0.24,-0.2 0,-0.12 0.08,-0.08 0.16,0 0.04,0.12 0,0.08 0.04,0.08 0.08,0.08 0.08,-0.08 0,0 0,-0.08 0.08,-0.28 -0.12,-0.28 z m -5.479996,-11.48 q 0.2,-0.08 0.12,-0.24 -0.08,-0.24 0,-0.36 0.08,-0.16 -0.08,-0.16 -0.08,-0.04 -0.24,0.04 -0.12,0.08 -0.08,0.16 0,0.08 -0.04,0.24 -0.04,0.12 0.2,0.04 0.08,0 0.04,0.04 0,0.04 0.04,0.08 0,0.04 -0.04,0.08 0,0 0.08,0.08 z m 3.84,12.32 q -0.04,0.12 -0.16,0.24 -0.08,0.08 -0.04,0.2 0.08,0.16 0.16,0.04 0.12,-0.12 0.24,-0.08 0.279996,0 0.359996,-0.28 -0.2,0.08 -0.319996,0 -0.12,-0.08 -0.24,-0.12 z m -5.68,-11.32 q 0.32,-0.12 0.48,-0.28 0.04,-0.04 0.08,0 0.16,0.04 0.4,0.12 0.08,-0.04 0.08,-0.04 0,-0.08 0,-0.08 -0.24,-0.12 -0.44,-0.12 -0.2,-0.04 -0.32,0.12 -0.12,0.12 -0.28,0.28 z m 0.48,2.88 q -0.04,0 -0.04,0.04 0,0.12 0.08,0.2 0.12,0.08 0.24,0.08 0.16,0 0.28,0.08 0.08,0.08 0.2,0 l 0,-0.12 q 0,-0.08 -0.16,-0.08 -0.2,0.04 -0.4,-0.16 -0.04,0 -0.08,-0.04 -0.04,-0.04 -0.12,0 z m 9.199996,-12.92 q -0.2,0.2 -0.4,0.2 -0.24,-0.08 -0.16,0.16 0,0.08 -0.04,0.08 -0.04,0 0,0.08 0.04,-0.16 0.12,-0.12 0.12,0 0.2,0 0.2,-0.04 0.24,-0.08 0.04,-0.08 0.04,-0.32 z m -5.959996,21.72 q 0.08,0.08 0.16,0.08 0.08,0 0.12,0.04 0.08,0.08 0,0.16 -0.04,0.08 0,0.2 0.08,-0.08 0.2,-0.12 0.12,-0.04 0.04,-0.2 -0.04,-0.28 -0.52,-0.16 z m -3.32,-14.6 q 0.04,-0.2 0.32,-0.24 0.2,0 0.2,-0.16 0,-0.12 -0.04,-0.16 -0.08,-0.04 -0.16,0.04 -0.04,0.28 -0.36,0.2 -0.08,-0.04 -0.12,0 -0.04,0.04 0.04,0.12 0,0.16 0.12,0.2 z m 6.799996,10.96 q -0.24,0 -0.32,0.04 -0.12,0.04 -0.12,0.12 0,0.04 0,0.12 0,0.12 0.16,0.12 0.2,0 0.16,-0.08 -0.08,-0.12 0,-0.16 0.08,-0.08 0.12,-0.16 z m -4.359996,-3.8 q 0.16,-0.08 0.28,-0.04 0.04,0.04 0.04,0 0.04,-0.08 0,-0.08 -0.24,-0.08 -0.04,-0.28 0.04,-0.04 0.04,-0.12 0,-0.12 -0.08,-0.12 -0.04,-0.04 -0.12,0.08 -0.04,0.12 -0.04,0.24 0,0.12 -0.16,0.2 -0.12,0.12 0.08,0.12 z m -0.84,8.84 q -0.08,0 -0.08,0.08 -0.08,0.08 0.04,0.08 0.12,0 0.16,0.08 0.08,0.08 0.28,-0.04 0.12,-0.12 0.12,-0.28 -0.04,-0.08 -0.04,-0.08 -0.12,0 -0.12,0.04 0,0.04 -0.16,0.2 -0.08,0.12 -0.12,0.04 0,-0.08 -0.08,-0.12 z m 3.56,-5.76 q -0.08,-0.08 -0.2,0.04 -0.2,0 -0.24,0.08 -0.12,0.12 -0.04,0.24 0.08,0.08 0.08,0.04 0.04,-0.04 0.12,-0.04 0.2,-0.12 0.28,-0.36 z m -0.84,5.32 q -0.04,-0.2 -0.24,-0.2 -0.16,-0.04 -0.24,-0.16 -0.04,-0.08 -0.12,0 -0.04,0.04 -0.08,0.12 0,0.12 0.04,0.12 0.2,-0.08 0.32,0.04 0.12,0.12 0.32,0.08 z m -1.16,-5.28 q -0.08,-0.12 -0.2,-0.2 -0.08,-0.08 -0.12,-0.24 0,0.04 -0.12,-0.08 0,0 -0.12,0 -0.12,0.12 0.04,0.12 0.16,0.08 0.12,0.16 -0.04,0.08 -0.08,0.2 0.16,-0.04 0.24,0 0.12,0.04 0.24,0.04 z m -0.4,-18.52 q -0.04,-0.04 -0.08,-0.04 -0.2,-0.04 -0.12,-0.24 0.04,-0.12 -0.04,-0.12 -0.12,-0.08 -0.2,0.16 -0.08,0.16 0,0.2 0.12,0.04 0.2,0.12 0.16,0.16 0.24,-0.08 z m 1.96,19.32 q 0,0.2 0.2,0.2 0.12,0 0.24,0 0.12,-0.04 0.24,0.04 0.16,0.08 0.16,-0.16 -0.36,0.04 -0.84,-0.08 z m -0.44,-6.12 q -0.04,0.04 -0.04,0.04 -0.04,0.08 0.04,0.24 0.08,0.12 0.16,0.16 0.12,0 0.16,-0.04 0.04,-0.08 -0.08,-0.16 -0.12,0 -0.12,-0.16 -0.08,-0.08 -0.12,-0.08 z m -5.52,-6.2 -0.36,0 q -0.16,0.08 -0.16,0.2 0,0.12 0.04,0.16 0.12,0 0.12,-0.04 0.08,-0.12 0.16,-0.12 0.12,-0.04 0.2,-0.2 z m 6.4,-2.96 q 0.2,0.08 0.32,-0.08 0.119996,-0.16 0.319996,-0.12 -0.2,-0.16 -0.359996,0 -0.12,0.12 -0.28,0.2 z m -2.48,10.44 q 0.08,0.08 0.12,0.08 0.08,-0.04 0.16,-0.08 0.16,-0.08 0.12,0.08 -0.04,0.12 0.08,0.08 0.08,-0.08 0,-0.12 -0.08,-0.04 -0.04,-0.12 0.08,-0.12 0,-0.12 -0.08,-0.04 -0.12,0 -0.08,0.08 -0.16,0.12 -0.08,0 -0.16,0.08 z m -1.4,12.2 q 0.36,0.12 0.36,0 0.08,-0.16 -0.04,-0.24 -0.08,-0.04 -0.2,-0.16 0,0.12 -0.04,0.2 -0.04,0.12 -0.08,0.2 z m -2.52,-16.4 q 0,-0.12 -0.16,-0.12 -0.2,0 -0.2,0.08 0,0.12 0.2,0.2 0.16,0 0.16,-0.16 z m 1.76,0.96 q 0.04,0.08 0.08,0.16 0.08,0.04 0.12,-0.04 0.08,-0.12 0.16,-0.12 0.12,0 0.2,-0.08 -0.32,-0.12 -0.56,0.08 z m 5.239996,10 q 0.2,-0.08 0.2,-0.12 0,-0.04 -0.12,-0.16 l 0,-0.04 q -0.08,-0.08 -0.12,-0.08 -0.08,0.04 -0.08,0.12 0,0.12 0.12,0.12 0.08,0.04 0,0.08 -0.04,0 0,0.08 z m 3.92,-20.48 q 0,-0.2 -0.16,-0.16 -0.08,0 -0.16,0 -0.04,-0.04 -0.08,0.08 -0.04,0.04 0.08,0.12 0.12,0.04 0.2,0.04 0.12,0 0.12,-0.08 z m -1.28,-0.12 q 0,0.04 0,0.08 0.04,0.04 0.04,0.08 l 0,0.04 q 0.08,0.16 0.12,0.16 0.08,-0.04 0.08,-0.16 0,-0.16 -0.04,-0.16 0,-0.04 -0.2,-0.04 z m -15.479996,21.68 q 0.08,0 0.16,-0.12 0.08,-0.16 0.04,-0.24 0,-0.04 -0.08,-0.04 -0.08,0 -0.16,0.12 -0.08,0.08 -0.08,0.16 0,0.08 0.12,0.12 z m 6.72,-9.96 q 0,-0.08 -0.08,-0.2 -0.08,-0.16 -0.12,-0.16 -0.12,0.08 0,0.16 0.12,0.08 0.04,0.16 0,0 0,0.08 0.04,0.04 0.08,0.04 0.08,0 0.08,-0.08 z m 5.92,11.76 q -0.08,-0.08 -0.2,0.04 -0.08,0.08 -0.08,0.16 0.04,0.12 0.12,0.16 0,0.12 0.12,0 0.119996,0 0,-0.12 -0.12,-0.08 0.04,-0.24 z m 0.719996,-5.32 q 0.08,0.08 0.16,0.04 l 0.08,-0.08 q 0.04,-0.08 0.12,-0.08 0.12,0 0.04,-0.12 -0.08,-0.08 -0.16,0 -0.04,0.04 -0.12,0.08 -0.12,0.12 -0.12,0.16 z m -1.399996,-3.16 q 0.2,-0.16 0.2,-0.2 0.04,-0.08 -0.04,-0.24 -0.04,-0.04 -0.12,-0.04 -0.08,0 -0.08,0.08 0,0.24 0.04,0.4 z m -3.88,-12.24 q -0.2,-0.24 -0.48,-0.08 0.12,0.08 0.2,0.12 0.12,0.04 0.28,-0.04 z m 0.32,5.4 q 0,-0.16 -0.16,-0.16 -0.08,0 -0.08,0.16 0,0.16 0.12,0.16 0.12,0 0.12,-0.16 z m 0.48,3.8 q 0.08,0.08 0.04,0.2 0,0.08 0.16,0 0.2,0 0.12,-0.16 -0.04,-0.12 -0.32,-0.04 z m -2,0.32 q 0,-0.12 -0.16,-0.2 -0.16,0 -0.16,0.16 0,0.12 0.16,0.12 0.12,0 0.16,-0.08 z m 5.76,3.48 q 0.08,-0.36 0.04,-0.4 0,-0.08 -0.199984,-0.12 0.08,0.12 0.08,0.24 0,0.12 0.08,0.28 z m -4.88,9.52 q 0.08,0.12 0,0.12 -0.08,0.04 -0.08,0.08 -0.08,0.12 0.08,0.2 0.04,0.04 0.12,-0.04 0.08,-0.08 0.04,-0.16 -0.08,-0.04 -0.16,-0.2 z m 1.84,-0.84 q 0.08,0.12 0.16,0.12 0.08,0.04 0.16,0.08 0.08,0.08 0.08,-0.08 l 0,-0.04 -0.04,-0.04 q -0.08,0 -0.16,-0.08 -0.08,-0.04 -0.2,0.04 z m -8.8,0.92 q 0,-0.08 -0.08,-0.16 -0.2,0 -0.24,0.04 -0.04,0.04 -0.04,0.04 0.04,0.08 0.08,0.04 0.08,0 0.16,0.04 0.12,0 0.12,0 z m 8.48,-10.16 q 0,-0.12 -0.12,-0.12 -0.12,-0.04 -0.2,0.12 0,0.08 0.04,0.08 0.04,0 0.08,0.04 0.12,0.04 0.2,-0.12 z m 0.96,-0.08 q 0.08,0.04 0.12,0.12 0.04,0.04 0.12,0.08 0.04,-0.04 0.04,-0.12 0,-0.08 0.04,-0.08 0.08,-0.04 0,-0.12 -0.12,-0.08 -0.24,0.04 0,0 -0.08,0.08 z m 3.079996,4.24 q 0.16,0.16 0.24,0.16 0.12,0 0.16,-0.08 0,-0.12 -0.12,-0.12 -0.08,0 -0.16,0 -0.04,-0.04 -0.12,0.04 z m -5.719996,-7.76 q 0,-0.08 -0.04,-0.12 -0.04,-0.04 -0.04,-0.12 -0.04,-0.08 -0.16,-0.04 -0.04,0 -0.04,0.16 0.12,0.12 0.28,0.12 z m 5.119996,9.52 q -0.119996,0 -0.239996,0.12 0,0.16 0.04,0.16 0.12,0.04 0.159996,-0.04 0,-0.08 0.04,-0.12 0.08,-0.04 0,-0.12 z m 3.36,-1.96 q -0.08,0 -0.16,0.08 -0.08,0.08 -0.2,0.16 -0.08,0.04 0,0.12 0.08,0.08 0.12,0 0.08,-0.12 0.16,-0.2 0.08,0 0.08,-0.16 z m -10.799996,-11.96 q 0,0.08 0.12,0.2 0.08,0.12 0.16,0.04 0,-0.08 0.04,-0.12 0,-0.12 -0.08,-0.12 -0.12,-0.04 -0.24,0 z m 4.92,18.48 q 0.08,-0.08 0.16,-0.08 0.12,0.04 0.2,-0.12 l -0.04,-0.04 q -0.28,0.08 -0.32,0.24 z m -2.48,-19.52 q 0.04,-0.04 0.08,-0.04 0.04,0 0.04,-0.08 -0.04,-0.08 -0.2,-0.16 -0.12,0 -0.12,0.08 -0.04,0.12 0.04,0.12 0.08,0 0.16,0.08 z m 3.96,13.6 q -0.08,0.04 -0.12,0 -0.04,-0.04 -0.12,-0.04 -0.08,0.04 -0.08,0.12 0,0.16 0.12,0.04 0,-0.04 0.2,-0.12 z m -0.08,4.32 q -0.08,0.04 -0.12,0.08 0,0.08 -0.08,0.08 -0.12,0.04 0,0.16 0.12,0.12 0.12,-0.04 0.04,-0.08 0.08,-0.16 0.08,-0.04 0,-0.12 z m -4.52,2.72 q -0.2,0 -0.12,0.08 0.04,0.08 0.04,0.12 0,0.08 0.08,0.08 0.12,0 0.12,-0.16 0,-0.12 -0.12,-0.12 z m 0.96,-20.4 q 0.16,0 0.16,-0.04 0,-0.12 -0.16,-0.12 -0.12,0 -0.12,0.08 0,0.08 0.12,0.08 z m 4.879996,10.28 q 0.04,-0.04 0.08,0 0.08,0 0.12,-0.08 0,-0.16 -0.12,-0.16 -0.12,0 -0.2,0.16 0,0.08 0.12,0.08 z m -1.479996,0.2 q 0.08,-0.08 0,-0.08 -0.16,-0.16 -0.28,-0.08 -0.04,0.04 -0.04,0.04 0,0.08 0.12,0.12 0.12,0.04 0.2,0.04 l 0,-0.04 z m -1.92,8.56 q 0,-0.12 -0.12,-0.12 -0.08,-0.04 -0.16,0.12 0,0.12 0.12,0.12 0.16,0 0.16,-0.12 z m 9.159996,-9.36 q -0.2,0.12 -0.32,0.4 0.24,-0.08 0.32,-0.4 z m -8.479996,-0.76 q -0.24,0 -0.24,0.04 -0.08,0.08 0.04,0.16 0,0.04 0.08,0 0,0 0.12,-0.2 z m -2.76,-7.64 q 0.2,0 0.2,-0.12 0,-0.12 -0.12,-0.12 -0.16,0 -0.2,0.16 0,0.08 0.12,0.08 z m -1.32,0.92 q 0,0.04 0.2,0.12 0.12,0.12 0.12,-0.08 0.04,-0.08 -0.12,-0.08 -0.04,0 -0.08,0 -0.04,-0.04 -0.12,0.04 z m 5.36,7.68 q -0.28,-0.28 -0.48,0 0.08,0.04 0.2,0.04 0.12,-0.04 0.28,-0.04 z m 1.519996,6.64 q -0.08,-0.04 -0.12,0 -0.16,0.08 -0.16,0.16 0.04,0 0.04,0.04 0,0 0.04,0 0.08,0 0.08,-0.04 0.04,-0.04 0.08,-0.08 0,-0.08 0.04,-0.08 z m 2.36,-2.96 q 0.24,-0.16 0.28,-0.24 -0.04,-0.04 -0.04,-0.04 -0.2,0 -0.24,0.28 z m -3.519996,-0.28 q 0,0.08 0.12,0.08 0.08,0 0.08,-0.12 0,-0.08 -0.12,-0.08 -0.08,0 -0.08,0.12 z m 1.559996,2.44 q -0.16,-0.08 -0.32,-0.04 -0.04,0 -0.04,0.08 0,0.04 0.04,0.08 0.04,0 0.04,-0.04 0.08,-0.04 0.12,0 0.08,0 0.16,-0.08 z m -3.639996,-1.56 q -0.04,0 -0.2,0.08 -0.16,0 -0.04,0.12 0.08,0.08 0.16,0 0.04,-0.04 0.04,-0.08 0,-0.04 0.04,-0.12 z m -2,-10.76 q -0.24,-0.08 -0.36,0 0.24,0.24 0.36,0 z m 8.359996,-10.16 q 0.08,0 0.08,-0.04 0,-0.08 0.08,-0.08 0.12,0 0.12,-0.12 -0.16,-0.08 -0.2,0.04 0,0.12 -0.08,0.2 z m -4.399996,-1.04 q 0.04,0 0.12,-0.08 0.12,0 0.08,-0.12 -0.04,-0.04 -0.12,-0.04 -0.16,0.08 -0.16,0.08 -0.04,0.04 -0.04,0.12 0.04,0.04 0.12,0.04 z m -2.44,26.28 q 0.08,-0.2 -0.08,-0.24 l -0.04,0 q -0.04,0.04 -0.04,0.04 -0.04,0.12 0.16,0.2 z m -0.64,-10.8 q -0.16,0.08 -0.16,0.16 0,0.08 0.04,0.12 0.04,0 0.04,-0.04 0.16,0 0.16,-0.12 0,-0.04 -0.08,-0.12 z m 5.159996,6.88 q 0.04,-0.04 0.08,-0.04 0.04,0 0.04,-0.08 0,-0.08 -0.12,-0.08 -0.12,0 -0.12,0.12 0,0.08 0.12,0.08 z m -4.879996,5.36 q -0.12,0 -0.12,0.08 0,0.12 0.12,0.12 0.12,0 0.12,-0.08 0,-0.12 -0.12,-0.12 z m 4.399996,-5.8 q -0.04,0.2 0,0.36 0.28,-0.16 0,-0.36 z m -2.839996,-6.72 q 0.16,0 0.16,-0.08 0.08,-0.08 -0.08,-0.08 -0.12,0 -0.16,0.12 0,0.04 0.08,0.04 z m -3.44,-2.44 q 0,-0.12 -0.04,-0.12 -0.12,0 -0.12,0.16 -0.08,0.08 0.04,0.08 0.12,0 0.12,-0.12 z m 3.56,6.8 q 0.12,0 0.12,-0.12 0,-0.08 -0.08,-0.08 -0.2,0 -0.12,0.12 0,0.08 0.08,0.08 z m -3.68,8.52 q 0.12,0 0.12,-0.12 0,-0.08 -0.16,-0.08 -0.08,0 -0.08,0.08 0,0.12 0.12,0.12 z m 8.999996,-25.12 0,-0.04 q 0.04,-0.04 0.04,-0.08 0.04,-0.04 -0.08,-0.04 -0.16,0 -0.08,0.12 0,0.04 0.12,0.04 z m -8.159996,1.64 q -0.2,-0.08 -0.28,0 -0.04,0.04 0.04,0.12 0.12,0.08 0.24,-0.12 z m -1.8,3.52 q -0.08,0 -0.08,0.08 0,0.08 0.12,0.08 0.16,0 0.04,-0.12 0,-0.04 -0.08,-0.04 z m 0.16,1.56 q 0,-0.04 -0.08,-0.04 -0.12,0 -0.12,0.12 0,0.04 0.12,0.04 0.12,0 0.08,-0.12 z m -0.12,2.28 q -0.12,0 -0.12,0.08 0,0.08 0.08,0.08 0.04,0.04 0.12,-0.08 0,-0.08 -0.08,-0.08 z m -0.16,0.72 q -0.08,0 -0.08,0.08 0,0.08 0.08,0.16 0.08,0 0.08,-0.08 0,-0.16 -0.08,-0.16 z m 5.6,2.6 q -0.16,-0.08 -0.24,0 l 0,0.12 q 0.08,0.08 0.08,0.04 0.04,-0.08 0.12,-0.08 0,-0.04 0.04,-0.08 z m 0.12,3.84 q -0.12,0.12 -0.12,0.2 0,0.04 0.08,0.04 0.12,-0.12 0.12,-0.16 0,0 -0.08,-0.08 z m 2.279996,-1.04 q 0.08,-0.08 0,-0.24 l -0.12,0 q -0.08,0.08 -0.04,0.12 0.08,0 0.08,0.08 0.04,0.04 0.08,0.04 z m -1.959996,0.28 q -0.08,-0.08 -0.2,-0.12 -0.08,-0.04 -0.16,0.16 0.2,0.08 0.36,-0.04 z m 2.879996,3.68 q 0.08,0 0.16,-0.12 0,-0.08 -0.08,-0.08 -0.08,0.04 -0.16,0.12 0,0.08 0.08,0.08 z m -5.719996,3.48 q 0,-0.12 -0.08,-0.12 -0.12,0 -0.12,0.04 -0.04,0.04 0.08,0.12 0.04,0.04 0.12,-0.04 z m -0.56,-13.8 q 0,-0.08 -0.08,-0.08 -0.08,0 -0.08,0.08 0,0.12 0.08,0.12 0.08,-0.04 0.08,-0.12 z m 4.599996,11.6 q 0.12,0 0.12,-0.12 0,-0.12 -0.12,-0.12 -0.16,0 -0.16,0.12 0,0.12 0.16,0.12 z m -0.32,-5.04 q 0,-0.12 -0.08,-0.12 -0.08,0 -0.119996,0.08 0,0.08 0.08,0.08 0.04,0.04 0.119996,-0.04 z m -0.399996,-18.24 q 0.08,-0.12 0.16,-0.16 0.08,-0.08 0.04,-0.16 -0.04,-0.04 -0.12,-0.04 -0.12,0.04 -0.12,0.12 0.04,0.08 0.04,0.24 z m -1,26.32 q 0.12,0 0.12,-0.08 -0.04,-0.08 -0.12,-0.08 -0.08,0 -0.08,0.08 0,0.08 0.08,0.08 z m 4.559996,-26.2 q -0.08,-0.16 -0.28,-0.08 l 0,0.08 q 0.08,0.04 0.12,0.04 0.08,-0.04 0.16,-0.04 z m -9.359996,10.76 q 0,-0.08 -0.08,-0.08 -0.16,0 -0.08,0.12 0,0.08 0.08,0.08 0.08,-0.08 0.08,-0.12 z m 0.04,-0.96 q -0.08,0 -0.08,0.08 0,0.08 0.08,0.08 0.12,0 0.12,-0.08 0,-0.08 -0.12,-0.08 z m 5.08,13.6 q -0.08,0 -0.08,0.08 0,0.12 0.12,0.12 0.08,0 0.08,-0.08 0,-0.12 -0.12,-0.12 z m -0.76,-5.64 q -0.08,-0.08 -0.12,-0.08 -0.08,0 -0.08,0.12 0,0.04 0.12,0.04 0.08,0 0.08,-0.08 z m -4.92,-13 q 0,-0.12 -0.12,-0.12 -0.08,0 -0.12,0.08 0,0.12 0.12,0.12 0.12,0 0.12,-0.08 z m 3.72,20.32 q 0.12,0.04 0.12,-0.08 0.08,-0.08 -0.04,-0.16 -0.12,0 -0.12,0.12 0,0.12 0.04,0.12 z m 2.24,-3.6 q -0.12,-0.12 -0.08,-0.12 -0.12,0 -0.12,0.12 0,0.08 0.08,0.08 0.04,0 0.12,-0.08 z m -2.08,3.28 q 0.12,-0.12 0,-0.24 -0.08,-0.08 -0.08,0 -0.08,0.08 -0.04,0.12 0.08,0 0.08,0.08 l 0.04,0.04 z m -0.48,0.56 q -0.04,0 -0.04,0.12 0,0.12 0.08,0.04 0.08,0 0.08,-0.08 0,-0.08 -0.12,-0.08 z m 0.04,-0.8 q -0.08,0 -0.08,0.08 0,0.08 0.08,0.08 0.08,0 0.08,-0.08 0,-0.08 -0.08,-0.08 z m 3.04,-25.24 q 0.12,0 0.12,-0.12 -0.04,-0.04 -0.08,-0.04 -0.08,0 -0.08,0.12 0,0.04 0.04,0.04 z m -2.92,19.72 q 0,-0.08 -0.08,-0.08 -0.04,0 -0.04,0.12 l 0,0.04 q 0,0.04 0.04,0.04 0.08,0 0.08,-0.12 z m 2.04,-4.12 q -0.08,0 -0.08,0.08 0,0.08 0.08,0.08 0.12,0 0.12,-0.12 0,-0.04 -0.12,-0.04 z m 0.52,-14.88 q -0.04,-0.08 -0.04,-0.08 -0.12,0 -0.12,0.08 -0.08,0.08 0.04,0.08 0.08,0 0.12,-0.08 z m -0.56,21.6 q -0.08,0 -0.08,0.08 0,0.08 0.12,0.12 0.08,0 0.08,-0.04 0,-0.04 -0.12,-0.16 z m -4.04,-14.84 q 0,-0.08 -0.04,-0.08 -0.04,0 -0.12,0.08 0,0.08 0.04,0.08 0.12,0 0.12,-0.08 z m 5.719996,10.24 q -0.04,-0.04 -0.12,-0.04 -0.08,0 -0.08,0.08 0.04,0.08 0.12,0.08 0.08,0 0.08,-0.12 z m -0.28,-0.28 q 0.12,0 0.12,-0.08 0,-0.08 -0.12,-0.08 -0.08,0 -0.08,0.08 0,0.08 0.08,0.08 z m -3.439996,5.48 q -0.08,0 -0.08,0.08 0,0.08 0.08,0.08 0.12,0 0.08,-0.12 0,-0.04 -0.08,-0.04 z m 2.04,-0.08 q -0.08,-0.08 -0.08,-0.08 -0.12,-0.04 -0.12,0.08 0,0.08 0.08,0.08 0.04,0 0.12,-0.08 z m -0.48,-4.92 q 0.04,0 0.04,-0.08 0.08,-0.08 -0.04,-0.08 -0.12,0 -0.12,0.08 0,0.08 0.12,0.08 z m 2.039996,-13.12 q -0.08,0.04 -0.04,0.08 0.04,0.04 -0.04,0.08 -0.04,0 -0.04,0.04 0,0.04 0.04,0.04 0,0 0,-0.08 0,-0.04 0.04,-0.04 0.04,-0.04 0.04,-0.12 z m -2.919996,22.2 q -0.08,-0.08 -0.12,-0.08 -0.08,0 -0.08,0.04 0.04,0.12 0.12,0.12 0,0 0.08,-0.08 z m -2.76,-21.44 q -0.24,-0.04 -0.32,0.04 0.16,0.04 0.32,-0.04 z m 4.92,20.72 q -0.08,0 -0.2,-0.04 -0.08,0 -0.16,0.08 0,0.08 0.04,0.12 0.08,0.04 0.12,-0.04 0.08,-0.04 0.16,-0.04 0.04,-0.04 0.04,-0.08 z m -0.32,-20.8 q -0.12,-0.08 -0.2,-0.04 -0.04,0.04 -0.12,0.12 0.12,0.04 0.32,-0.08 z m 2.159996,-0.92 q 0.16,0.04 0.16,-0.08 0,-0.08 -0.08,-0.08 -0.12,0 -0.12,0.08 0.04,0.08 0.04,0.08 z m -4.879996,7.36 q 0,-0.12 -0.08,-0.08 -0.04,0 -0.04,0.08 0,0.08 0.08,0.08 0.08,0 0.04,-0.08 z m 0.84,10.8 q 0,-0.08 -0.08,-0.08 -0.12,0 -0.12,0.04 -0.08,0.08 0.04,0.08 0.12,0 0.16,-0.04 z m -3.96,-16.04 q -0.08,0 -0.08,0.08 0,0.08 0.12,0.08 0.08,0 0.04,-0.08 0,-0.08 -0.08,-0.08 z m 5.4,9.4 q -0.08,-0.08 -0.12,-0.08 -0.04,0 -0.04,0.08 0,0.08 0.12,0.08 0.04,-0.04 0.04,-0.08 z m -3.64,-11.2 q -0.04,0.04 -0.04,0.04 0,0.12 0.12,0.12 0.04,0 0.04,0 0,-0.04 -0.12,-0.16 z m 10.239996,13.84 q 0,-0.08 -0.08,-0.08 0,0.04 -0.08,0.12 0,0.12 0.08,0.04 0.08,0 0.08,-0.08 z m -8.839996,-16.08 q -0.08,0 -0.16,0.08 -0.08,0.08 0,0.12 0.04,0.04 0.12,-0.04 0.08,-0.08 0.04,-0.16 z m 3.439996,20.28 q 0.08,0 0.16,-0.12 0,-0.08 -0.08,-0.08 -0.12,0 -0.12,0.12 -0.04,0.08 0.04,0.08 z m -3.879996,-6.08 q -0.2,0 -0.16,0.12 0.04,0.04 0.04,0.04 0.12,0 0.12,-0.16 z m -1.24,10 q 0,-0.12 -0.12,-0.12 -0.08,-0.08 -0.08,0.04 0,0.08 0.16,0.16 0.04,0 0.04,-0.08 z m 0,-18.32 q 0.08,0 0.08,-0.08 0,-0.04 -0.08,-0.12 -0.08,0 -0.08,0.08 0,0.04 0.08,0.12 z m -5.88,20.04 q 0.04,-0.12 -0.04,-0.12 -0.08,0 -0.08,0.04 -0.04,0.08 0.08,0.12 l 0.04,-0.04 z m 5.4,-1.28 q -0.08,-0.04 -0.08,-0.04 -0.12,0.08 -0.12,0.12 0,0.08 0.04,0.04 0.08,0 0.16,-0.12 z m 4,-7.24 q -0.08,-0.04 -0.08,0.04 0,0.08 0.04,0.08 0.08,0 0.08,-0.08 l -0.04,-0.04 z m -1,0.4 q -0.04,0 -0.04,0.04 0,0.08 0.04,0.08 0.04,0.04 0.04,-0.08 0.04,0 0,0 0,-0.04 -0.04,-0.04 z m 3.759996,-1.08 q -0.08,-0.04 -0.08,-0.04 -0.12,-0.04 -0.12,0.04 0,0.08 0.08,0.08 0.08,-0.08 0.12,-0.08 z m -10.479996,9.84 q 0.08,0 0.08,-0.08 -0.04,-0.04 -0.08,-0.04 -0.04,0 -0.04,0.04 0,0.08 0.04,0.08 z m 10.079996,-8.16 q -0.08,0.04 -0.08,0.04 0,0.04 0,0.04 l 0.04,0.04 q 0.08,-0.04 0.08,-0.04 0.08,-0.08 -0.04,-0.08 z m -11.119996,7.68 q -0.08,0 -0.08,0.04 0,0.04 0.04,0.08 0.04,0 0.04,-0.04 0,-0.08 0,-0.08 z m 8.72,-13.76 q -0.08,-0.08 -0.08,-0.08 -0.04,0.04 -0.04,0.04 0,0.12 0.08,0.08 0,-0.04 0.04,-0.04 z m 3.879996,-11.4 q -0.08,0 -0.08,0.04 0.04,0 0,0.04 0,0.12 0.04,0.12 0.08,0 0.08,-0.12 0,-0.08 -0.04,-0.08 z m -4.239996,13.8 q -0.04,-0.04 -0.16,0 l -0.04,0 q -0.04,0.04 0,0.04 0,0.16 0.12,0.04 0.08,0 0.08,-0.08 z m -2.84,-1.36 q 0.12,0 0.08,-0.04 0,-0.12 -0.08,-0.04 -0.04,0 -0.04,0.04 l 0.04,0.04 z m -2.76,-5.08 q 0.04,-0.04 0.04,-0.08 0,-0.08 -0.08,-0.08 -0.08,0 -0.08,0.08 0,0.08 0.12,0.08 z m 4.16,9.04 q -0.04,-0.04 -0.08,-0.04 -0.08,0 -0.08,0.04 0,0.08 0.08,0.08 0.08,0 0.08,-0.08 z m 0.24,4.6 q 0,-0.04 -0.04,-0.04 -0.04,-0.04 -0.12,0.04 0,0.04 0.04,0.04 0.08,0 0.12,-0.04 z m -1.04,-6.88 0.04,0 0,-0.24 -0.04,0 0,0.24 z m -0.36,9.64 q 0.04,-0.08 -0.04,-0.08 -0.12,0 -0.16,0.04 0,0.04 0.08,0.12 0.12,0 0.12,-0.08 z m 0.12,-23.12 -0.04,0.04 q 0,0.08 0.08,0.08 0.04,0 0.04,-0.08 0,-0.04 -0.08,-0.04 z m 5.639996,15.88 q 0.04,0 0.04,-0.04 0,0 0,-0.08 -0.08,-0.08 -0.08,0.04 0,0.04 0.04,0.08 z m -8.559996,-8.04 q 0.04,0 0.04,-0.08 0,-0.08 -0.08,-0.04 -0.04,0 -0.04,0.08 0,0.04 0.08,0.04 z m 0.8,-4.6 q 0.04,-0.04 -0.04,-0.04 l -0.08,0 q -0.08,0.08 0.04,0.08 0.08,0 0.08,-0.04 z m 3.08,-6.64 q 0,-0.04 -0.08,-0.04 -0.08,0.08 -0.04,0.12 l 0.08,0 q 0.04,0 0.04,-0.08 z m -0.2,15.6 q -0.12,0 -0.2,0 -0.08,-0.04 -0.16,0.04 0.16,0.04 0.36,-0.04 z m 4.519996,3.2 q 0.08,0 0.08,-0.12 -0.04,-0.04 -0.08,-0.04 -0.08,0 -0.08,0.12 0.04,0.04 0.08,0.04 z m -6.479996,-7.88 q -0.08,-0.08 -0.12,-0.08 -0.04,0.04 -0.04,0.04 0,0.12 0.12,0.12 0.04,-0.04 0.04,-0.08 z m 12.199996,5.44 q 0,-0.04 -0.04,-0.04 -0.04,0 -0.04,0.04 0,0.04 -0.04,0.04 0,0.08 0.08,0.08 0.04,0 0.04,-0.12 z m -7.519996,7.44 q 0,-0.08 -0.08,-0.08 -0.08,0 -0.08,0.12 0.04,0.04 0.08,0.04 0.08,0 0.08,-0.08 z m -5.76,-18.92 q -0.04,-0.08 -0.12,-0.08 -0.08,0 -0.08,0.12 0,0.04 0.08,0.04 0.04,0 0.12,-0.08 z m -5.08,21.84 q -0.04,0 -0.04,0.04 0,0.08 0.08,0.08 0.04,0 0.08,-0.04 -0.08,-0.08 -0.12,-0.08 z m 5.76,0.2 q -0.04,0 -0.04,-0.04 0,0 -0.08,0.08 0.04,0.04 0.08,0.04 0.04,-0.04 0.04,-0.08 z m -0.88,-16.76 q 0,0.04 0.04,0.04 l 0,-0.04 q 0,-0.04 -0.04,-0.04 -0.04,0 -0.04,0.04 0,0 0.04,0 z m 3.4,1.16 q -0.04,0.04 -0.04,0.08 l 0.04,0 q 0.04,-0.04 0.04,-0.04 -0.04,0 -0.04,-0.04 z m -2.72,0.24 0,-0.04 -0.04,-0.04 0,0.08 q 0,0.04 0.04,0 z m 3.96,10.64 q -0.04,0 -0.04,0 0,-0.04 -0.04,-0.04 -0.08,0.08 -0.04,0.08 0,0.04 0.04,0.04 0.08,0 0.08,-0.08 z m -4.8,-10.16 0.08,0 q -0.04,-0.04 -0.04,-0.04 l -0.04,0 q 0,0.04 0,0.04 z m 1.6,-2.48 q -0.08,-0.08 -0.12,-0.08 0,0.04 -0.04,0.04 0,0 0,0.04 0,0.08 0.08,0.08 0.08,0 0.08,-0.08 z m 5.599996,13.12 q -0.04,-0.04 -0.04,0 -0.04,0.04 0,0.04 0,0.04 0.04,0.04 l 0,-0.08 z m -5.799996,-8.84 q -0.08,0.04 -0.08,0.04 0.08,0.08 0.12,0.08 0.04,0 0.04,0 0.04,-0.04 0,-0.04 0,-0.08 -0.08,-0.08 z m 1.72,14.08 q -0.04,-0.04 -0.04,0 -0.04,0 -0.04,0.04 l 0.04,0 q 0.04,-0.04 0.04,-0.04 z m -0.8,-18.64 q 0,-0.04 -0.04,-0.04 l -0.04,0 0,0.08 q 0.04,0 0.04,0 0,-0.04 0.04,-0.04 z m 4.999996,11.16 q -0.04,0 0,0.04 l 0.04,0 q 0,-0.04 0.04,-0.04 l -0.08,0 z m -4.799996,-5.84 q 0,-0.08 -0.08,-0.08 0,0.04 -0.04,0.04 0,0 0,0.04 0,0.04 0.08,0.04 0.08,0 0.04,-0.04 z m 5.039996,5.48 q -0.08,0 -0.08,0.04 0.04,0.08 0.04,0.08 0.08,-0.04 0.08,-0.04 0,-0.08 -0.04,-0.08 z m -3.719996,-0.56 q -0.04,-0.04 -0.04,-0.04 -0.12,-0.04 -0.12,0.04 0,0.08 0.08,0.08 0.08,0 0.08,-0.08 z m 1.36,-4.48 0,-0.08 -0.04,0 -0.04,0.04 q 0,0.04 0.08,0.04 z m -0.88,6.52 -0.04,0 q -0.04,0.04 -0.04,0.04 l 0.04,0 q 0.04,0 0.04,-0.04 z m -0.72,2.32 q 0,-0.08 -0.08,-0.08 -0.08,0 -0.08,0.04 0.08,0.08 0.12,0.08 0.04,0 0.04,-0.04 z m -3.84,-17.48 q -0.04,-0.04 -0.04,-0.04 l -0.04,0 0,0.08 q 0.04,0 0.08,-0.04 z m 6.8,17.64 0,-0.08 -0.04,0 q -0.04,0 -0.04,0.04 0,0 0.04,0 0,0.04 0.04,0.04 z m -4.8,-17.96 q 0,-0.04 -0.04,-0.04 l -0.04,0 q 0,0 0,0.08 0.04,0 0.04,0 0,-0.04 0.04,-0.04 z m 1.2,18.36 0,0.04 q 0.04,0.04 0.04,0.04 l 0.04,-0.04 q 0,-0.04 -0.08,-0.04 z m 5.799996,-25.12 q 0,-0.04 -0.04,-0.04 l -0.04,0 0,0.04 q 0,0 0.08,0 z m -4.079996,19.56 q -0.04,0.04 -0.04,0.08 0.04,0.04 0.04,0 0.04,0 0.04,-0.04 -0.04,0 -0.04,-0.04 z m 3.199996,-0.36 q -0.08,0 -0.08,0 l -0.04,0.04 0.08,0 q 0.04,0 0.04,-0.04 z m 0.4,-0.24 q -0.12,-0.04 -0.12,0 0,0.08 0.08,0.08 0.04,0 0.04,-0.04 0,-0.04 0,-0.04 z m -2.239996,6.32 q -0.04,0.04 -0.04,0.08 0,0.08 0.04,0.08 0.08,-0.08 0.08,-0.08 0,-0.08 -0.08,-0.08 z m 1.719996,-6.28 q 0,-0.04 0.04,-0.04 -0.04,0 -0.04,0 0,-0.04 -0.04,-0.04 -0.04,0 -0.04,0.04 0,0 0.04,0 0,0.04 0.04,0.04 z m -5.759996,-7.76 q 0,0.04 0.08,0.04 0.04,0.04 0.04,-0.04 0.04,-0.04 -0.04,-0.04 -0.04,0 -0.08,0.04 z m 5.479996,7.72 q 0,-0.04 -0.04,-0.04 -0.04,0 -0.04,0.04 0,0 -0.04,0 0.04,0.04 0.04,0.04 0.04,0 0.08,-0.04 z m -1.799996,6.92 q 0,-0.04 0,-0.04 -0.04,0 -0.08,0.04 l 0.04,0.04 0.04,-0.04 z m 2.319996,-7.2 -0.04,0.04 0,0.04 q 0.04,0 0.04,0 l 0,-0.08 z m -5.759996,-2.12 0.04,0.04 0.04,-0.04 q -0.04,-0.04 -0.04,-0.04 -0.04,0.04 -0.04,0.04 z m 0.24,0.04 0,0.04 q 0.04,0.04 0.04,0.04 0.04,-0.04 0.04,-0.04 -0.04,-0.04 -0.08,-0.04 z m -2.12,-11.68 q 0,-0.08 -0.04,-0.08 -0.08,0 -0.08,0.04 0.04,0.08 0.04,0.08 0.08,0 0.08,-0.04 z m 4.4,13.36 0.04,0 0,-0.08 q -0.08,0 -0.08,0.04 l 0.04,0.04 z m 0.48,8.28 q -0.04,0.04 -0.04,0.08 l 0.08,0 q 0.04,-0.04 0,-0.04 -0.04,0 -0.04,-0.04 z m -2.68,-9.72 0,0.04 q 0.04,0.04 0.04,0.04 0.04,-0.04 0.04,-0.08 l -0.08,0 z m 2.48,1.28 q 0,-0.08 -0.08,-0.08 -0.04,0 -0.04,0.04 0,0.12 0.08,0.12 0.12,0 0.04,-0.08 z m -2.08,-1.16 q 0,-0.04 -0.04,-0.04 -0.04,0 -0.04,0.04 l 0,0.04 q 0.04,0 0.08,-0.04 z m -0.52,9.96 q 0,-0.04 -0.04,-0.04 -0.08,0 -0.08,0.04 0.08,0.08 0.08,0.08 0.04,-0.04 0.04,-0.08 z m 2.76,0.08 -0.04,-0.04 q 0,0.04 -0.04,0.04 0,0 0,0.04 l 0.08,0 0,-0.04 z m -4.08,-22.16 q 0.04,0 0.04,0 l 0,-0.08 -0.04,0.04 0,0.04 z m 5.72,13.04 q 0,0.04 -0.04,0.04 0,0 0,0.04 l 0.08,0 q 0.04,-0.04 0,-0.04 -0.04,-0.04 -0.04,-0.04 z m -0.92,-0.24 q -0.08,0 -0.08,0.08 l 0.04,0.08 q 0.04,-0.04 0.08,-0.04 0.04,0 0.04,-0.08 0,-0.04 -0.08,-0.04 z m -5.2,-13.08 q -0.08,0.16 0.04,0.2 l 0.04,0 q 0.08,-0.08 0.04,-0.08 -0.04,-0.04 -0.08,-0.12 l -0.04,0 z m 6.879996,12.48 q 0,-0.12 -0.08,-0.04 -0.04,0 -0.04,0.04 0,0.04 0.08,0.04 0.04,0 0.04,-0.04 z m -3.799996,5.12 q 0,-0.04 0,-0.04 0.04,0 0.04,-0.04 -0.04,0 -0.04,-0.04 -0.04,0.04 -0.04,0.08 0.04,0.04 0.04,0.04 z m 0.52,-0.48 q -0.04,0 -0.08,-0.04 l 0,0.08 q 0.04,0.04 0.04,0.04 0,-0.04 0.04,-0.08 z m -1.4,-17.56 q -0.04,0.04 -0.04,0.04 l 0.04,0.04 q 0.04,0 0.04,-0.04 l -0.04,-0.04 z m -0.52,0.04 q 0.04,-0.04 0.04,-0.04 0.08,-0.08 -0.04,-0.08 -0.04,0 -0.08,0.04 0,0 0.08,0.08 z m 6.199996,-0.28 q 0,0.08 0,0.08 l 0.04,0 q 0,-0.04 0.04,-0.04 -0.04,0 -0.04,0 0,-0.04 -0.04,-0.04 z m -6.919996,25.2 q 0.04,0 0.04,-0.08 -0.04,-0.04 -0.04,-0.04 -0.08,0 -0.08,0.08 0.04,0.04 0.08,0.04 z m 0.04,-0.8 q -0.04,0 -0.08,0 0,0.04 0.04,0.04 0,0.08 0.08,0.08 0.08,0 0.04,-0.04 0,-0.08 -0.08,-0.08 z m 8.719996,-26.24 q 0.08,0 0.08,-0.08 0,-0.04 -0.04,-0.04 -0.12,0 -0.12,0.08 0,0.04 0.08,0.04 z m -1.12,1.08 q 0,-0.04 -0.08,-0.04 -0.04,0.04 -0.04,0.08 0.08,0 0.08,0 0.04,-0.04 0.04,-0.04 z m -2.24,-3.08 0,0.04 0.04,0.04 0,-0.08 -0.04,0 z m -4.079996,3.08 q -0.08,0 -0.12,0.04 -0.04,0 -0.04,-0.08 0.08,-0.2 -0.04,-0.16 -0.08,0 -0.16,0.04 0,0 -0.08,0.08 -0.08,0 -0.08,0 -0.08,-0.08 -0.04,-0.12 l 0.08,-0.08 q 0.16,-0.2 0.36,-0.16 0.16,0 0.12,0.12 0,0.12 0.04,0.2 0,0.04 -0.04,0.08 0,0 0,0.04 z m -0.96,-0.72 q 0.12,-0.04 0.2,-0.08 0.08,-0.08 0.2,-0.12 0.16,0 0.16,0.08 0.08,0.08 -0.08,0.08 -0.2,0.12 -0.28,0.12 -0.04,0 -0.2,-0.08 z m 0.84,1 q -0.04,0.04 -0.04,0.12 0,0.04 -0.08,0.04 -0.08,0 -0.08,-0.08 0.04,-0.04 0.04,-0.08 0.04,-0.08 0.12,-0.04 0.04,0 0.04,0.04 z m -0.76,-0.76 q 0,0.04 -0.08,0.12 -0.12,0 -0.12,-0.08 0,-0.04 0,-0.04 0.04,-0.04 0.04,-0.08 0.04,0.04 0.08,0.04 0.04,-0.04 0.08,0.04 z m 0.8,-0.36 q -0.04,0.04 -0.08,0.04 -0.08,0 -0.08,-0.08 0,-0.08 0.08,-0.08 0.08,0 0.08,0.12 z m 0.96,-0.2 q -0.12,0.08 -0.24,0 0.12,-0.04 0.24,0 z m 0.04,11.2 q -0.2,0.08 -0.32,0.04 -0.08,-0.08 -0.16,-0.12 0.08,0.08 0.2,0.04 0.12,-0.04 0.28,0.04 z"
         style="fill:#ffffff"
         id="path4745"
         inkscape:connector-curvature="0" />
      <path
         d="m 104.79609,192.60572 q 0.04,-1.16 0.16,-2.36 0.12,-1.16 0.28,-2.36 0.2,-1.52 0.4,-3.08 0.2,-1.52 0.32,-3.08 0.12,-1.48 0.24,-2.92 0.16,-1.44 0.4,-2.88 0.08,-0.44 0.16,-0.84 0.12,-0.4 0.2,-0.84 0.24,-1.32 0.36,-2.64 0.08,-1.16 0.16,-2.32 0.12,-1.2 0.24,-2.36 0,-0.24 0,-0.48 0,-0.24 -0.08,-0.48 -0.12,-0.52 0.44,-0.52 1.12,0 1.84,0.88 0.88,1.12 1.12,2.56 0.12,0.56 0.2,1.08 0.08,0.52 0.2,1.08 0,0.16 0.08,0.16 0.04,0.04 0.2,-0.12 0.24,-0.4 0.48,-0.76 0.28,-0.36 0.52,-0.76 0.16,-0.28 0.36,-0.48 0.2,-0.2 0.4,-0.4 1.48,-1.44 3.36,-0.44 1.12,0.64 1.68,1.6 0.6,0.92 0.52,2.24 -0.04,0.68 -0.08,1.36 -0.04,0.64 -0.12,1.32 -0.08,0.68 0.12,0.92 0.24,0.24 0.92,0.2 0.36,-0.04 0.64,-0.16 0.32,-0.12 0.6,-0.32 0.4,-0.28 0.68,-0.6 0.32,-0.32 0.64,-0.68 0.52,-0.64 0.92,-1.32 0.44,-0.68 0.88,-1.36 0.32,-0.68 1.2,-0.8 0.2,-0.08 0.32,0.04 0.08,0.08 0,0.16 -0.04,0.04 -0.08,0.12 -0.48,1 -1.04,1.92 -0.56,0.92 -1.24,1.8 -0.32,0.4 -0.68,0.76 -0.36,0.32 -0.8,0.64 -0.76,0.56 -1.56,0.8 -0.8,0.2 -1.72,-0.08 -0.32,-0.08 -0.44,0 -0.12,0.08 -0.2,0.4 -0.12,0.6 -0.44,1.08 -0.16,0.24 -0.24,0.52 -0.04,0.24 -0.12,0.48 -0.24,1.04 -0.88,2 -0.24,0.32 -0.48,0.6 -0.24,0.28 -0.44,0.6 -0.36,0.48 -1,0.76 -0.24,0.12 -0.52,0.24 -0.24,0.12 -0.48,0.24 -0.76,0.32 -1.32,-0.08 -0.4,-0.2 -0.8,-0.44 -0.4,-0.24 -0.76,-0.48 -0.24,-0.2 -0.36,-0.16 -0.08,0.04 -0.2,0.32 l 0,0.08 q -0.24,0.92 -0.64,1.8 -0.36,0.92 -0.56,1.88 -0.2,0.96 -0.44,1.88 -0.2,0.96 -0.4,1.88 -0.08,0.36 -0.16,0.72 -0.08,0.4 -0.16,0.76 -0.08,0.36 -0.28,0.64 -0.16,0.32 -0.48,0.52 -0.2,0.12 -0.32,0.24 -0.08,0.16 -0.2,0.36 -0.08,0.2 -0.2,0.4 -0.12,0.24 -0.2,0.44 -0.16,0.28 -0.56,0.28 -0.2,-0.04 -0.28,-0.16 -0.04,-0.08 -0.12,-0.24 -0.12,-0.44 -0.16,-0.88 0,-0.44 0,-0.88 z m 5.52,-14.44 q -0.08,-0.12 -0.12,-0.04 -0.04,0 0.08,0.12 0.08,0.08 0.16,0.08 0.04,-0.04 0.04,-0.12 -0.04,0 -0.08,0 -0.04,-0.04 -0.08,-0.04 z m -2.68,6.84 q 0.16,0.08 0.16,-0.08 0,-0.08 -0.08,-0.08 -0.04,0 -0.08,0.04 -0.08,0 -0.12,-0.04 0,0 -0.08,0 0,-0.08 0,-0.2 0.04,-0.08 -0.12,-0.16 -0.12,-0.04 -0.28,-0.28 0.16,-0.16 0.24,-0.36 0.08,-0.2 0.28,-0.36 0.08,-0.08 0.04,-0.16 -0.04,-0.04 -0.12,0 -0.08,0 -0.16,0 -0.08,0.04 -0.08,-0.12 0,-0.16 0.28,-0.08 0.04,0 0.12,0.08 0.12,0 0.16,-0.04 0.04,-0.08 0,-0.2 -0.08,-0.08 -0.16,-0.16 -0.08,-0.08 -0.2,-0.08 -0.16,0.04 -0.24,0.16 -0.04,0.08 -0.12,0.16 -0.08,-0.2 -0.16,-0.48 -0.04,-0.28 -0.28,-0.48 0.08,0.32 -0.12,0.44 -0.12,0.12 0.04,0.2 0.28,0 0.2,0.16 -0.04,0.12 0,0.2 0,0.08 -0.04,0.12 -0.04,0.04 0.08,0.12 0.32,0.16 0.32,0.32 0.04,0.12 -0.04,0.2 -0.08,0.12 -0.16,0.24 -0.04,0.04 -0.04,0.04 0,0.04 -0.04,0.08 -0.08,0.08 0,0.2 0.16,0.16 0.28,0.24 0.12,0.16 0,0.28 -0.04,0.04 -0.12,0.04 -0.04,0 0.04,0.08 0.08,0.12 0.2,0.08 0.04,0 0.16,-0.12 l 0.24,0 z m 6.76,-15.76 q 0.28,0 0.32,-0.2 0,-0.08 -0.08,-0.08 -0.2,0 -0.28,0.24 -0.08,0.08 -0.04,0.08 0.08,0.08 0.08,-0.04 z m -6.12,0.04 q 0,0.12 -0.04,0.28 -0.04,0.12 0.04,0.16 0.2,0 0.04,-0.12 -0.12,-0.16 0.04,-0.24 0.12,-0.08 0.08,-0.12 -0.08,-0.04 -0.16,0.04 z m 0.16,5.72 q -0.04,0.28 0.2,0.2 0.12,0 0.08,-0.12 -0.04,-0.08 -0.24,-0.08 l -0.04,0 q 0.04,-0.12 -0.04,-0.2 -0.08,-0.08 -0.04,-0.16 0,-0.04 0.04,-0.04 0.08,0 0.12,0.04 0.08,0 0.12,0 0.04,-0.04 -0.04,-0.2 -0.08,-0.08 -0.12,-0.12 0,-0.08 0.08,-0.16 0.12,-0.16 0.32,-0.08 0.16,0.16 0.24,-0.08 0.08,-0.16 0.36,-0.24 0.28,-0.08 0.44,0 0,0.04 0,0.08 0.04,0 0.04,0.04 0.04,0.24 0.16,0.08 0.12,-0.12 0.16,-0.04 0.08,0.04 0.12,0.08 0.12,0.12 0.2,0.2 0.12,0.04 0.28,-0.12 -0.08,-0.08 -0.16,-0.12 -0.08,-0.08 -0.04,-0.16 0.08,-0.28 -0.08,-0.28 -0.12,0 -0.24,-0.04 -0.16,-0.04 -0.28,0 -0.12,0 -0.28,-0.08 -0.44,-0.16 -0.76,0.16 -0.28,0.24 -0.48,0.04 -0.12,-0.04 -0.2,0 -0.12,0.12 -0.04,0.16 0.16,0.08 0.12,0.2 0,0.12 -0.04,0.2 -0.08,0.12 0,0.24 0.08,0.12 -0.04,0.24 -0.32,0.08 -0.12,0.28 0.12,0.12 0.2,0.08 z m 6.92,2.68 q -0.04,-0.08 -0.08,-0.16 0,-0.12 -0.12,-0.08 -0.2,0.08 0,0.28 0,0.12 0.04,0.16 -0.16,0 -0.16,0.12 0,0.12 0.04,0.12 0.08,0 0.16,0.04 0,0.16 -0.08,0.2 -0.16,0.08 -0.04,0.24 0.08,0.12 0.2,0 0.2,-0.16 0.16,-0.2 0,-0.08 -0.24,-0.24 0,-0.16 -0.04,-0.28 0.08,0 0.12,0.08 0.08,0.04 0.16,-0.04 0.08,-0.08 0.04,-0.16 0,-0.08 -0.16,-0.08 z m -6.4,-1.24 q 0,-0.16 0.12,-0.12 0.12,0.04 0.2,-0.08 -0.12,0.04 -0.2,0 -0.08,-0.04 -0.16,0.04 -0.32,0.08 -0.28,0.28 0.04,0.16 0.28,0.08 -0.08,0.08 -0.04,0.24 0.04,0.12 -0.04,0.24 -0.08,0.16 -0.28,0.08 -0.08,0 -0.08,-0.04 0.04,-0.08 0.04,-0.12 0.08,-0.12 0,-0.16 -0.08,-0.08 -0.16,0 -0.08,0.04 -0.2,0.08 -0.08,0.04 -0.2,0.08 -0.08,0 -0.08,0.2 -0.12,0.12 0.08,0.12 0.28,-0.04 0.4,0.28 0.12,0.12 0.12,0.08 0.08,-0.28 0.2,-0.12 0.12,0.12 0.24,0.08 l 0,-0.16 q 0.08,-0.32 0.12,-0.36 0.08,-0.08 0.4,-0.04 0.12,0 0.2,-0.04 0.12,0 0.12,-0.08 0,-0.16 -0.16,-0.16 -0.24,0.08 -0.36,-0.16 -0.12,-0.12 -0.28,-0.12 l 0,-0.12 z m 1.64,0.8 q -0.16,0.04 -0.28,0 l 0,-0.2 q 0,-0.2 -0.2,-0.2 -0.16,0 -0.2,0.16 0,0.24 0.2,0.2 0.08,0 0.12,0.04 0.04,0 0.08,0 0.04,0.16 -0.12,0.16 -0.16,0 -0.16,0.16 0.44,0 0.56,-0.32 0.24,-0.04 0.16,-0.36 0,-0.12 -0.12,0 -0.2,0.08 -0.12,0.16 0.08,0.08 0.08,0.16 l 0,0.04 z m -1.2,-5.52 q 0.16,0.04 0.16,-0.12 0,-0.24 -0.16,-0.16 -0.12,-0.04 -0.32,-0.04 -0.16,0 -0.16,0.12 0,0.12 0.12,0.12 0.24,0 0.36,0.08 z m -1.12,6.36 q 0,-0.24 -0.2,-0.16 -0.28,0.08 -0.08,0.2 0.12,0.16 0.28,-0.08 0.08,0.24 0.12,0.28 0.08,0 0.32,-0.08 0.08,-0.04 0.12,-0.04 0.04,0 0.12,-0.04 0.04,0 0.04,-0.12 0,-0.08 -0.08,-0.08 -0.16,0 -0.32,0.04 -0.16,0 -0.32,0.08 z m 1.48,-9.56 q 0.2,-0.12 0.16,0.08 0,0.16 0.16,0.16 0.16,-0.32 0.16,-0.4 0,-0.12 -0.2,-0.36 -0.2,0.2 -0.24,0.28 0,0.04 -0.04,0.24 -0.04,-0.04 -0.08,-0.04 -0.16,-0.16 -0.2,0 -0.04,0.08 0.16,0.2 0.12,0 0.12,-0.16 z m 0,12.16 q -0.12,-0.08 -0.24,-0.04 -0.12,0.04 -0.2,0.04 -0.08,-0.28 0.08,-0.36 0.16,-0.08 0.2,-0.2 0.04,-0.12 0.16,-0.28 -0.2,0.04 -0.32,0.12 -0.12,0.08 -0.24,0 l 0,-0.04 q 0.08,-0.24 -0.08,-0.28 -0.2,0 -0.24,0.08 0,0.16 0.08,0.16 0.08,0 0.16,0.04 l 0.08,0 q 0,0.2 -0.2,0.2 -0.16,0 -0.08,0.2 0.08,0.24 -0.04,0.24 -0.12,0 -0.2,-0.04 -0.16,-0.08 -0.48,-0.16 0,-0.08 -0.12,-0.08 l -0.08,0 q -0.12,-0.08 -0.04,-0.16 0.08,-0.08 0.16,-0.08 0.12,-0.04 0.16,-0.2 0.2,-0.2 0.2,-0.24 0.04,-0.08 -0.12,-0.32 -0.04,-0.08 -0.08,-0.12 0,-0.08 -0.04,-0.16 -0.24,-0.36 -0.64,-0.36 -0.12,-0.24 0.2,-0.48 -0.08,-0.08 -0.16,-0.04 -0.08,0 -0.12,-0.08 0.04,-0.12 0.12,-0.08 0.12,0 0.12,-0.16 -0.08,-0.2 -0.28,-0.12 -0.2,0.04 -0.32,-0.12 -0.12,-0.12 -0.12,0.08 -0.12,0.2 -0.04,0.32 0.08,0 0.08,-0.08 0.04,-0.12 0.16,-0.04 0.16,0.16 -0.08,0.24 -0.2,0.08 -0.04,0.16 0.08,0.08 0,0.16 -0.08,0.08 -0.08,0.16 -0.08,0 -0.12,0 -0.04,0 -0.04,0.12 0,0.2 -0.04,0.4 0,0.16 -0.04,0.36 -0.08,0.12 0,0.24 -0.04,0.12 0.04,0.16 0.08,0 0.16,0.04 0.28,0.08 0.32,0.2 0.08,0.08 0.08,0.4 -0.32,0.08 -0.44,0.24 0.12,0.04 0.24,0.08 0.16,0 0.24,-0.16 0.08,0 0.12,0.12 0.08,0.08 0.16,-0.12 0.04,-0.24 0.36,-0.24 l 0.08,0 q -0.04,0.32 0,0.36 0.04,0.04 0.32,-0.08 0.16,-0.08 0.32,-0.04 0.16,0 0.32,0.04 -0.2,0.28 0.08,0.36 l 0,0.04 0,0.08 q -0.08,0.04 -0.16,0.08 -0.08,0.04 -0.04,0.16 0.04,0.12 0.12,0.12 0.16,0.04 0.32,-0.16 0.04,-0.08 0.08,-0.16 0.04,-0.08 0.04,-0.16 0,-0.08 0.04,-0.12 0.08,-0.08 0.12,-0.16 0.08,-0.08 0.16,0 0.08,0.04 0.16,0 0.12,-0.08 0.04,-0.28 -0.16,0 -0.2,0.12 0,0.12 -0.12,0.08 z m -2.4,7.36 q -0.08,0.04 -0.24,0.04 -0.12,0 0.08,0.2 0.2,0.2 -0.04,0.36 -0.12,0.08 -0.04,0.16 0.16,0.08 0,0.16 -0.12,0.08 -0.04,0.16 0.32,0.04 0.36,0 0.08,-0.04 0,-0.36 l -0.12,-0.24 q 0.04,0 0.04,-0.04 0.04,0 0.08,0 0.08,0 0.16,0 0.12,0 0.08,-0.16 0,-0.28 -0.24,-0.2 -0.12,0 -0.12,-0.12 0.16,0 0.2,-0.08 0,-0.08 -0.12,-0.04 -0.12,0 -0.04,0.16 z m 1.32,-21.28 q -0.08,-0.04 -0.08,-0.04 -0.04,-0.04 -0.04,-0.08 0.04,-0.04 -0.04,-0.04 0,-0.04 -0.04,0 0,0 0,0.04 0.04,0.04 0.08,0.04 0.04,-0.04 0.08,0 l 0,0.08 q 0.04,0.24 0,0.48 -0.04,0.24 0.2,0.4 0,0.08 -0.12,0.12 -0.12,0.04 -0.04,0.16 0,0.08 0.12,0.08 0.12,-0.04 0.08,-0.12 0,-0.08 0.08,-0.16 0,-0.04 0.08,-0.04 0.08,-0.12 0,-0.24 -0.04,-0.16 0.12,-0.24 0.16,-0.08 0.24,0.04 0.12,0.12 0.28,0.04 0.04,-0.12 -0.04,-0.2 -0.04,-0.12 -0.12,-0.2 -0.2,-0.32 -0.32,-0.32 -0.08,-0.04 -0.4,0.16 -0.04,0.04 -0.12,0.04 z m 6.72,13.08 0.04,0 q -0.08,-0.16 0.08,-0.2 0.24,0 0.24,-0.2 -0.12,-0.12 -0.32,0 -0.16,0.16 -0.2,0.08 -0.04,-0.08 -0.12,-0.24 0.2,0.16 0.32,0.04 0.12,-0.16 0.28,-0.08 -0.16,-0.24 -0.2,-0.24 -0.04,-0.04 -0.24,0.04 -0.24,0.16 -0.32,-0.04 -0.08,-0.2 -0.2,-0.08 -0.12,0.08 -0.04,0.24 0.08,0.08 0.12,0.2 0.08,0.08 -0.08,0.2 0,0 0,0.12 0.16,0.2 0.24,0.44 0.12,0.2 0.32,0.4 0.08,-0.28 0.24,-0.32 0.16,-0.04 0.4,0.04 l -0.12,0.12 q -0.08,0.08 0,0.16 0.08,0.08 0.2,-0.04 0.08,-0.28 0.2,-0.4 0.08,-0.08 -0.08,-0.28 -0.08,-0.2 -0.2,-0.08 -0.08,0.24 -0.24,0.2 -0.16,-0.08 -0.32,-0.08 z m -4.72,1.16 q 0,0.64 0.48,1.12 0.44,0.44 0.76,0.44 0.32,-0.04 0.68,-0.56 0.44,-0.56 0.72,-1.16 0.28,-0.64 0.52,-1.32 0.28,-0.8 0.48,-1.6 0.2,-0.8 0.44,-1.6 0.2,-0.56 -0.28,-0.84 l -0.36,-0.24 q -0.56,-0.44 -0.96,-1 -0.4,-0.6 -0.48,-1.4 -0.04,-0.08 -0.04,-0.12 0,-0.08 -0.04,-0.16 0,-0.12 -0.08,-0.12 -0.08,-0.04 -0.16,0.12 -0.44,0.64 -0.72,1.28 -0.24,0.64 -0.12,1.44 0.04,0.08 0,0.16 0,0.08 0,0.16 0,1.2 -0.24,2.36 -0.2,1.12 -0.44,2.28 -0.08,0.2 -0.12,0.4 -0.04,0.16 -0.04,0.36 z m 5.2,-10.28 q 0,-0.2 -0.04,-0.36 0,-0.16 -0.04,-0.36 -0.16,-0.6 -0.72,-0.28 -0.16,0.12 -0.4,0.36 -0.72,0.76 -0.96,1.96 -0.12,0.76 0.12,1.48 0.28,0.68 0.96,0.96 0.36,0.12 0.44,-0.2 0.08,-0.24 0.12,-0.44 0.04,-0.24 0.12,-0.48 0.12,-0.68 0.2,-1.32 0.12,-0.64 0.2,-1.32 z m 2.16,4.92 q 0,-0.16 -0.08,-0.08 -0.16,0.12 -0.2,0.04 -0.04,-0.08 -0.12,-0.16 -0.12,-0.2 -0.32,-0.24 -0.2,-0.08 -0.4,-0.2 -0.04,-0.08 -0.16,0.04 -0.12,0.08 -0.24,0.16 -0.08,0.04 -0.12,0.04 -0.04,0 -0.12,0.04 -0.12,0.08 -0.24,0.16 -0.08,0.04 -0.08,0.24 0,0.12 0,0.28 0,0.12 -0.12,0.28 -0.04,0.04 0,0.12 0.08,0.04 0.12,0 0.08,-0.08 0.16,-0.04 0.12,0.04 0.2,0 0.12,-0.04 0.08,-0.12 0,-0.12 0,-0.24 0.04,-0.16 0.2,-0.12 0.32,0.04 0.76,0.2 0.12,0.04 0.12,0.2 0.04,0.12 0.2,0.08 0.16,-0.04 0.08,-0.16 -0.04,-0.16 0.12,-0.2 0.16,-0.04 0.16,-0.32 z m -7.72,-6.16 q 0.08,-0.16 0.04,-0.24 -0.04,-0.12 -0.24,0.08 -0.08,0.04 -0.12,0.04 -0.04,-0.04 -0.12,0 -0.16,0 -0.2,0.12 -0.08,0.08 0,0.2 0.04,0.08 0.04,0.04 0.04,-0.04 0.12,-0.08 0.08,-0.08 0.16,-0.04 0.08,0.04 0.08,0.12 -0.04,0.2 0,0.44 0.08,0.2 -0.12,0.4 -0.2,0.2 -0.12,0.44 0.12,0.2 0.12,0.4 -0.04,0.04 -0.08,0.04 0.08,0.04 0.08,0.04 0.12,-0.12 0.24,-0.04 0.12,0.04 0.24,0 0.16,-0.08 0.28,-0.2 0.12,-0.16 0.04,-0.24 -0.12,-0.24 -0.16,-0.52 0,-0.28 -0.12,-0.48 -0.08,-0.12 -0.16,-0.24 -0.04,-0.12 0,-0.28 z m -0.72,9.48 q -0.08,0.04 -0.2,0.12 -0.08,0.08 -0.04,0.08 0.16,0.08 0.16,0.24 0.04,0.12 0.12,0.2 0.08,0.08 0.16,0.04 0.08,-0.08 0.16,-0.08 0.52,0.04 0.4,-0.44 -0.08,-0.16 -0.12,-0.28 -0.04,-0.16 -0.12,-0.36 0,-0.12 -0.16,-0.2 -0.2,0 -0.2,0.04 -0.08,0.08 -0.08,0.16 0.04,0.04 0.12,0.04 0.24,0.08 0.24,0.2 0,0.12 -0.04,0.28 0,0.16 -0.08,0.16 -0.16,0 -0.16,-0.12 -0.04,-0.04 -0.08,-0.08 0,-0.04 -0.08,0 z m -2.76,6.2 q -0.32,-0.08 -0.4,-0.04 -0.04,0.04 -0.12,0.4 0,0 -0.08,0.08 -0.12,0.12 0,0.4 0.08,0.2 0.2,0.28 0.16,0.08 0.28,0.16 0.08,0.08 0.16,0 0.12,-0.04 0.16,-0.12 0.04,-0.12 -0.04,-0.16 -0.08,0 -0.16,-0.04 -0.2,-0.08 -0.2,-0.12 0,-0.04 0.04,-0.28 0,-0.16 0.08,-0.28 0.12,-0.08 0.08,-0.28 z m 1.52,-2.64 q 0.16,-0.08 0.24,-0.2 0.08,-0.16 0.28,-0.2 0.32,-0.12 0.04,-0.28 -0.12,-0.04 -0.12,-0.16 0,-0.2 -0.12,-0.2 -0.12,0 -0.16,0.08 -0.08,0.12 -0.16,0.12 -0.04,-0.04 -0.12,-0.08 -0.2,0 -0.24,0.12 -0.04,0.16 0.16,0.16 0.36,0.04 0.2,0.36 -0.08,0.08 0,0.28 z m 5,-0.36 q -0.24,0.16 -0.2,0.44 0.08,0.28 -0.24,0.16 -0.16,-0.08 -0.24,0.04 -0.04,0.12 -0.12,0.2 -0.12,0.08 -0.04,0.16 0.16,0.12 0.4,0.04 0.08,-0.04 0.12,-0.08 0.08,-0.04 0.16,-0.08 0.12,-0.12 0.32,-0.2 0.32,-0.08 0.08,-0.24 -0.24,-0.16 -0.24,-0.44 z m 2.32,-5.52 q -0.12,0.16 -0.04,0.32 0.08,0.16 -0.04,0.28 -0.12,0.08 -0.08,0.24 0,0.12 0.12,0.2 0.12,0.08 0.04,0.28 -0.04,0.08 -0.08,0.12 0,0.04 0.12,0.08 0.16,0 0.16,-0.16 -0.04,-0.08 0,-0.2 0.08,-0.12 -0.08,-0.2 -0.16,-0.12 0,-0.28 0.04,-0.04 0.12,0.04 0.08,0.16 0.16,0.12 0.12,-0.08 0.04,-0.12 -0.04,-0.04 -0.04,-0.12 0,-0.2 -0.16,-0.28 -0.16,-0.08 -0.24,-0.32 z m -7.92,10.44 q -0.08,0 -0.08,-0.08 0.04,-0.04 -0.04,-0.08 -0.08,0 -0.2,-0.04 -0.08,-0.04 -0.08,0.04 -0.04,0.08 -0.08,0.16 -0.04,0.12 0.04,0.2 0.04,0.04 0.08,0.04 0.04,0.04 0,0.12 -0.04,0.2 0.08,0.2 0.04,0 0.12,-0.04 0.08,-0.2 0.24,-0.28 0.2,-0.08 0.16,-0.28 0,-0.08 0.04,-0.16 0.04,-0.04 -0.04,-0.08 -0.12,-0.04 -0.16,0.04 0,0.08 -0.04,0.16 0,0.04 -0.04,0.08 z m 1.76,-8.84 q 0.08,-0.04 0.08,-0.12 0,-0.08 0.08,-0.16 0.12,-0.08 0.08,-0.2 -0.04,-0.16 0.04,-0.28 0,-0.08 -0.28,-0.16 -0.24,-0.08 -0.32,0 -0.08,0.08 0,0.16 0.04,0.12 0.16,0.16 0.12,0.08 0.16,0.2 0.04,0.08 -0.04,0.12 -0.24,0.12 -0.12,0.16 0.16,0.04 0.16,0.12 z m 5.4,3.72 q -0.2,-0.04 -0.36,-0.08 -0.16,-0.08 -0.32,-0.04 -0.24,0.08 -0.16,0.16 0.08,0.08 0.08,0.24 0.04,0.12 0.16,0.2 0.12,0.08 0.2,0 0.08,-0.08 0.2,-0.16 0.12,-0.08 0.2,-0.32 z m -5.44,-6.56 q 0.2,-0.2 0.44,-0.32 0.28,-0.16 0.2,-0.56 -0.12,0.12 -0.32,0.12 -0.16,-0.04 -0.24,0.12 -0.16,0.2 -0.08,0.64 z m 1.28,0.32 q -0.32,-0.24 -0.48,0.04 -0.08,0.24 0.08,0.24 0.2,-0.08 0.28,0.04 0.12,0.08 0.2,0.2 -0.08,-0.4 0.04,-0.88 0.04,-0.08 0,-0.08 -0.04,0 -0.08,0.04 -0.08,0.08 -0.04,0.16 0.04,0.08 0,0.24 z m -4.4,15.88 q -0.08,-0.08 -0.12,-0.2 0,-0.12 -0.2,-0.12 -0.08,0 -0.16,0 -0.04,0.04 -0.08,-0.04 -0.08,-0.2 -0.16,-0.08 -0.08,0.08 -0.12,0.16 -0.04,0.12 0.04,0.12 0.2,0.04 0.32,0.16 0.12,0.12 0.32,0.12 0.16,0 0.16,-0.12 z m 1.68,-18.6 q -0.12,0.08 -0.12,0.2 0,0.08 -0.08,0.16 -0.24,0.12 -0.04,0.32 0.16,0.24 0.28,0.2 0.2,-0.08 0.04,-0.12 -0.12,-0.04 -0.04,-0.12 0,-0.04 0,-0.04 0.04,0 0.04,-0.04 0.2,-0.2 0.12,-0.32 -0.04,-0.12 -0.2,-0.24 z m -0.48,3.68 q -0.08,0.08 -0.08,0.12 0,0.04 -0.04,0.12 0,0.08 0,0.2 0.04,0.12 0.08,0.16 0.04,0.08 0.04,0.12 0,0.04 0.04,0.08 0,0.12 0.12,0.12 0.12,-0.04 0.12,-0.16 0,-0.48 -0.28,-0.76 z m 0.96,-3.6 q 0.08,-0.08 -0.04,-0.2 -0.08,-0.08 -0.04,-0.12 0.16,-0.16 0.08,-0.24 -0.04,-0.12 -0.12,-0.2 -0.32,0.28 -0.32,0.4 0.04,0.12 0.44,0.36 z m 0.8,5.72 q 0.12,-0.2 0.04,-0.36 0,-0.08 -0.08,-0.12 -0.04,-0.04 -0.08,0.04 -0.08,0.16 -0.2,0.16 -0.12,0 -0.24,0.04 -0.24,0 -0.16,0.2 0.04,0.12 0.2,0.04 0.12,-0.04 0.24,-0.08 0.16,-0.04 0.28,0.08 z m -0.88,-10.04 q 0.12,0.04 0.16,0 0.08,-0.04 0.16,-0.08 0.16,-0.08 0.24,0 0.08,0.28 0.24,0.04 0.08,-0.2 -0.16,-0.28 -0.32,-0.12 -0.64,0.32 z m 9.8,5.28 q -0.24,0.08 -0.32,0.32 -0.04,0.24 -0.28,0.32 0,0.12 0.04,0.12 0.12,0.12 0.12,0 0.16,-0.16 0.32,-0.28 0.2,-0.16 0.12,-0.48 z m -10.92,1.64 q -0.2,0.24 -0.04,0.36 0.16,0.12 0.24,0.28 0.08,0.16 0.16,0.04 0.12,-0.16 0.24,-0.08 l 0.04,-0.04 0,-0.04 q 0,-0.08 -0.08,-0.08 -0.24,0.08 -0.36,-0.04 -0.08,-0.16 -0.16,-0.36 -0.04,0 -0.04,-0.04 z m -1.56,14.32 q 0,0.16 0.08,0.2 0.12,0.04 0.28,-0.16 0.2,-0.16 0.16,-0.28 -0.04,-0.04 -0.08,-0.04 -0.08,-0.08 -0.08,0.04 0,0.08 -0.04,0.12 0,0.08 -0.08,-0.08 -0.08,-0.08 -0.2,-0.04 -0.04,0.04 -0.04,0.24 z m 0.48,-1.44 q -0.08,-0.08 -0.2,-0.16 -0.12,-0.08 0.16,-0.2 0.08,-0.04 0.04,-0.12 0,-0.08 -0.08,-0.12 -0.12,-0.12 -0.24,0 -0.04,0.04 -0.08,0.28 -0.04,0.24 0,0.28 0.2,0.12 0.4,0.04 z m 4.68,-16.8 q -0.16,0.08 -0.12,0.16 0.12,0.24 0.36,0.36 0.08,0.04 0.12,0 0.08,-0.08 0.08,-0.16 0,-0.04 -0.2,-0.2 -0.2,-0.16 -0.24,-0.16 z m -3.76,9.6 q -0.16,-0.08 -0.36,-0.08 -0.12,0.04 -0.12,0.2 0,0.08 0,0.16 0,0.08 0.12,0.12 0.12,0.04 0.2,-0.12 0.08,-0.16 0.16,-0.28 z m 1.28,-10.08 q 0.4,0.04 0.44,0 0.04,-0.08 -0.16,-0.52 -0.2,0.08 -0.2,0.24 0.04,0.16 -0.08,0.28 z m -1.52,20.28 q -0.68,0.12 -0.56,0.52 0.04,0.2 0.16,0.16 0.16,0 0.36,0 -0.2,-0.12 -0.24,-0.2 0,-0.08 0.04,-0.16 0.08,-0.08 0.16,-0.16 0.08,-0.08 0.08,-0.16 z m 11.04,-20.84 q -0.16,0.08 -0.08,0.24 0.08,0.12 -0.12,0.12 l 0,0.08 0,0.04 q 0.12,-0.12 0.16,-0.04 0.08,0.08 0.16,0.08 0.04,0.04 0.12,-0.04 l 0,-0.08 q -0.24,-0.12 -0.2,-0.4 -0.04,-0.04 -0.04,0 z m 0.44,1.72 q 0,-0.12 -0.08,-0.12 -0.08,0 -0.16,0 -0.08,0 -0.16,0 -0.08,0 -0.08,0.12 0,0.12 0.04,0.24 0.08,0.08 0.2,0.04 0.24,0 0.24,-0.28 z m -2.8,3 q -0.2,0.16 -0.2,0.32 0.04,0.16 0,0.32 0,0.2 0.12,0.2 0.08,0 0.08,-0.04 0,-0.04 0.04,-0.08 0.12,-0.2 0.04,-0.36 -0.08,-0.16 -0.08,-0.36 z m -7.64,11.08 q -0.2,-0.04 -0.32,-0.16 -0.08,-0.08 -0.16,-0.2 -0.04,0.12 -0.08,0.24 -0.04,0.12 0.12,0.24 0.2,0.12 0.44,-0.12 z m 9.4,-15.16 q 0,-0.16 -0.04,-0.28 0,-0.12 -0.2,-0.16 -0.16,0 -0.2,0.12 -0.04,0.08 0.12,0.16 0.08,0.04 0.16,0.08 0.08,0.04 0.16,0.08 z m -7.16,0.52 q -0.08,-0.08 -0.16,-0.08 -0.08,0 -0.08,0.04 -0.04,0.16 -0.16,0.2 -0.12,0 -0.16,0.12 0,0.12 0.08,0.12 0.32,0.08 0.28,-0.12 -0.04,-0.16 0.04,-0.16 0.12,-0.04 0.16,-0.12 z m 6.96,0.08 q -0.2,0.04 -0.2,0.16 0.04,0.12 -0.04,0.24 0,0.04 -0.04,0.08 -0.04,0 0.04,0.08 0.2,0.12 0.2,-0.08 0.04,-0.12 0.08,-0.24 0.04,-0.12 -0.04,-0.24 z m -7.56,9.56 q -0.12,0.08 -0.12,0.2 0,0.08 0.12,0.2 0.12,0.08 0.2,0.04 0.12,0 0.12,-0.16 0,-0.08 -0.12,-0.16 -0.12,-0.12 -0.2,-0.12 z m 6.8,-3.28 q -0.08,-0.24 -0.24,-0.24 -0.08,0 -0.16,0.08 -0.08,0.04 -0.04,0.12 0.08,0.24 0.28,0.24 0.16,-0.04 0.16,-0.2 z m -9.68,9.28 q -0.2,0.08 -0.36,0.04 -0.16,-0.04 -0.32,0.04 0.2,0.24 0.28,0.24 0.08,0 0.4,-0.32 z m 2.28,-11.44 q 0.08,0 0.16,-0.08 0.12,-0.12 0.12,-0.2 0,-0.08 -0.08,-0.08 -0.28,-0.08 -0.28,0.2 0,0.12 0.08,0.16 z m -1.88,0.96 q 0.08,-0.12 0.12,-0.24 0.04,-0.16 -0.04,-0.4 -0.16,0.4 -0.08,0.64 z m -0.88,12.48 q 0.08,-0.04 0.08,-0.08 0.04,0 0.12,-0.04 0.16,-0.08 0.16,-0.2 -0.04,-0.08 -0.16,-0.08 -0.12,-0.04 -0.2,0.12 -0.08,0.16 0,0.28 z m 3.24,-18.8 q -0.16,0 -0.16,0.12 -0.08,0.24 0.12,0.24 0.12,0 0.12,-0.12 0,-0.2 -0.08,-0.24 z m -1.48,6 q 0.08,-0.04 0.16,-0.04 0.08,0 0.12,-0.08 0.04,-0.12 0,-0.16 -0.08,-0.08 -0.16,-0.04 -0.08,0.04 -0.16,0.04 -0.16,0 -0.16,0.12 0,0.12 0.04,0.12 0.08,0 0.16,0.04 z m 0.56,4.48 q 0.08,0 0.16,-0.12 0,-0.2 -0.16,-0.2 -0.12,-0.04 -0.12,0.12 0,0.2 0.12,0.2 z m -1.64,5.92 q -0.08,0.04 -0.08,0.16 0,0.08 -0.04,0.12 0,0.04 0.08,0.08 l 0.08,0 q 0.04,0 0.04,-0.16 0,-0.16 -0.08,-0.2 z m 0.08,3.36 q -0.08,0.08 -0.08,0.12 0.04,0.04 0.04,0.08 0,0.2 0.12,0.2 0.16,0 0.16,-0.2 0,-0.12 -0.08,-0.16 -0.08,-0.04 -0.16,-0.04 z m 8.2,-21.92 q 0.12,0.32 0.44,0.16 -0.12,-0.08 -0.24,-0.08 -0.12,-0.04 -0.2,-0.08 z m -6.12,3.4 q -0.2,0.08 -0.2,0.24 0,0.12 0.16,0.12 0.24,0 0.24,-0.16 0.04,-0.12 -0.04,-0.12 -0.08,0 -0.16,-0.08 z m 8.64,-0.08 q 0.08,-0.08 0.04,-0.08 -0.04,-0.04 -0.04,-0.12 -0.04,-0.08 -0.04,-0.12 0,-0.08 -0.12,-0.08 -0.08,0.32 0.16,0.4 z m -0.2,-2.08 q 0.08,0.08 0.08,0.2 0,0.08 0.16,0.08 0.08,0 0.08,-0.08 -0.04,-0.2 -0.32,-0.2 z m 0.88,2.28 q 0.12,-0.32 -0.04,-0.52 -0.12,0.24 0.04,0.52 z m -2,7.44 q 0.2,-0.16 0.12,-0.4 0,-0.16 -0.12,-0.04 -0.08,0.08 -0.08,0.16 0,0.08 0,0.2 l 0.04,0 q 0,0.04 0.04,0.08 z m -9.36,1.48 q -0.16,-0.08 -0.16,-0.08 -0.16,-0.08 -0.2,0 -0.04,0.12 0.12,0.2 0.16,0 0.24,-0.12 z m 2.28,1.52 q 0.24,-0.16 0.32,-0.36 -0.32,0.08 -0.32,0.36 z m -1.76,3.44 q 0.04,-0.12 0.04,-0.2 0.04,-0.08 -0.08,-0.16 -0.12,0 -0.12,0.04 -0.04,0.08 0.08,0.28 0.04,0 0.08,0.04 z m 2.56,-13.4 q 0.04,0.08 0.2,0.08 0.12,-0.04 0.12,-0.16 -0.08,-0.2 -0.2,-0.16 -0.12,0 -0.12,0.24 z m -0.8,-3.32 q 0.16,-0.08 0.16,-0.16 -0.08,-0.12 -0.16,-0.12 -0.12,0 -0.12,0.12 0,0.12 0.12,0.16 z m 0.56,-0.36 q -0.12,0 -0.12,0.08 0,0.28 0.2,0.2 0.08,0 0.08,-0.12 0,-0.2 -0.16,-0.16 z m 4.2,12.88 q 0.24,0.08 0.24,-0.08 0,-0.16 -0.12,-0.16 -0.16,0 -0.16,0.12 0,0.08 0,0.08 0,0.04 0.04,0.04 z m -1.68,-10.48 q -0.12,0.12 -0.08,0.16 0,0.12 0.12,0.12 0.12,-0.04 0.12,-0.16 -0.08,-0.12 -0.16,-0.12 z m 4.8,1.68 q -0.08,-0.16 -0.16,-0.12 -0.12,0 -0.08,0.08 0,0.12 0.16,0.12 0.08,0 0.08,-0.08 z m -0.24,3.68 q -0.08,-0.08 -0.16,-0.04 -0.08,0 -0.08,0.12 0,0.16 0.12,0.08 0.12,0 0.12,-0.16 z m 1.16,-2.76 q 0.2,-0.04 0.2,-0.2 0,-0.08 -0.08,-0.08 -0.2,0.12 -0.2,0.2 0,0.04 0.04,0.04 0.04,0 0.04,0.04 z m -1.32,-3.52 q -0.16,0 -0.16,0.12 0,0.08 0.12,0.12 0.16,0 0.16,-0.12 0,-0.12 -0.12,-0.12 z m -9.36,10.84 q -0.2,0 -0.2,0.12 0,0.12 0.12,0.12 0.16,0 0.16,-0.12 0,-0.12 -0.08,-0.12 z m 0.76,-10.76 q 0.16,0 0.16,-0.16 0,-0.08 -0.08,-0.08 -0.16,0.08 -0.2,0.16 0,0.08 0.12,0.08 z m 5.36,11.52 q 0.16,0 0.16,-0.12 0,-0.12 -0.08,-0.12 -0.08,0 -0.16,0.16 0,0.08 0.08,0.08 z m -5.24,-6 q 0,-0.08 -0.08,-0.08 -0.16,0 -0.16,0.2 0.04,0 0.04,0.04 0.04,0 0.08,0 0.12,-0.04 0.12,-0.16 z m 8.76,-1.92 q -0.04,-0.08 -0.08,-0.04 -0.04,0.04 -0.12,0 -0.12,-0.12 -0.16,0 l 0,0.08 q 0.08,0.12 0.16,0.08 0.08,-0.04 0.12,-0.04 0.04,0 0.08,-0.08 z m -8.84,-2.08 q -0.08,0 -0.12,0 0,-0.04 -0.08,-0.04 -0.12,0 -0.12,0.08 0,0.08 0.12,0.08 0.16,0.08 0.2,-0.12 z m 9.2,1.92 q -0.12,0 -0.12,0.12 0,0.12 0.16,0.12 0.08,-0.04 0.08,-0.16 0,-0.08 -0.12,-0.08 z m -10.88,17.12 q -0.12,0 -0.12,0.12 0,0.12 0.16,0.12 0.12,0 0.12,-0.12 0,-0.2 -0.16,-0.12 z m 10.12,-12.4 q -0.08,-0.08 -0.12,-0.04 -0.16,0 -0.16,0.08 0,0.08 0.16,0.08 0.04,0 0.12,-0.12 z m -10.96,13.48 q 0,-0.08 -0.12,-0.08 -0.12,0 -0.12,0.08 0,0.16 0.12,0.16 0.12,-0.04 0.12,-0.16 z m 8.2,-22.32 q 0.04,-0.04 0.08,-0.04 0.04,-0.04 0.04,-0.12 0,-0.08 -0.12,-0.08 -0.16,0.08 -0.16,0.2 0,0.04 0.16,0.04 z m 1.44,5.52 q 0,-0.12 -0.08,-0.12 -0.12,-0.12 -0.12,0.04 0.04,0.04 0.04,0.08 0,0 0.04,0.04 0.08,0 0.12,-0.04 z m -5.6,1.04 q 0,-0.12 -0.16,-0.12 -0.16,0 -0.16,0.04 -0.04,0.12 0.16,0.2 0.08,0 0.16,-0.12 z m -2.88,8.56 q -0.08,-0.16 -0.16,-0.16 -0.04,0.04 -0.08,0.04 -0.04,0 -0.04,0.08 0,0.12 0.12,0.12 0.12,0 0.16,-0.08 z m 3.4,-8.64 q 0,-0.04 -0.08,-0.04 -0.12,0 -0.12,0.04 -0.04,0.08 0.12,0.08 0.08,0 0.08,-0.08 z m 1.36,-3.96 q -0.12,0 -0.12,0.12 0.04,0.08 0.04,0.08 0.12,0 0.12,-0.08 0.04,-0.04 -0.04,-0.12 z m -3.68,13.56 q -0.08,-0.16 -0.16,-0.12 -0.08,0 -0.08,0.12 0,0.12 0.08,0.12 0.08,0 0.16,-0.12 z m 6.56,-4.52 q 0.08,0 0.08,-0.04 0.12,-0.12 -0.08,-0.12 -0.08,0 -0.08,0.08 -0.04,0.08 0.08,0.08 z m 1.28,-2.56 q 0.12,-0.04 0.12,-0.16 0,-0.08 -0.08,-0.16 -0.16,0 -0.16,0.16 0,0.12 0.12,0.16 z m -7,-8.68 q 0,-0.04 -0.08,-0.12 -0.16,0 -0.16,0.08 -0.08,0.16 0.12,0.16 0.12,0 0.12,-0.12 z m 7.84,0.76 q 0,-0.12 -0.12,-0.12 -0.16,0 -0.04,0.12 0,0.08 0.08,0.12 0.08,0 0.08,-0.12 z m -5.76,1.76 q 0,-0.12 -0.12,-0.08 -0.08,0 -0.08,0.12 0,0.16 0.12,0.08 0.08,0 0.08,-0.12 z m 5.48,0.76 q 0.08,0 0.08,-0.08 0,-0.04 -0.04,-0.04 0,-0.04 0,-0.08 -0.12,0 -0.12,0.12 0,0.08 0.08,0.08 z m -6.76,0.92 q 0,-0.08 -0.08,-0.08 -0.16,0 -0.08,0.12 0.04,0.04 0.08,0.04 0.16,0 0.08,-0.08 z m 7.6,0.32 q 0,-0.12 -0.08,-0.12 -0.08,0 -0.08,0.08 0,0.2 0.12,0.12 0.04,-0.04 0.04,-0.08 z m -1.52,6.2 q 0,-0.12 -0.08,-0.12 -0.12,0.12 -0.12,0.08 -0.04,0.08 0.12,0.08 0.08,0 0.08,-0.04 z m -7.44,3.88 q -0.08,0.08 -0.08,0.12 0,0.16 0.12,0.08 0.04,0 0.04,-0.12 0,-0.08 -0.08,-0.08 z m 9.48,-13.96 q -0.08,-0.16 -0.16,-0.16 -0.08,-0.08 -0.08,0.04 -0.08,0.16 0.12,0.16 0.04,0 0.04,0 0.04,-0.04 0.08,-0.04 z m -9.72,3.96 q 0,-0.08 -0.08,-0.08 -0.08,0 -0.08,0.08 0,0.04 0.08,0.04 0.08,0 0.08,-0.04 z m 0.2,3 q 0,-0.16 -0.08,-0.16 -0.12,0 -0.12,0.08 0,0.08 0.12,0.12 0.04,0.04 0.04,0 0,-0.04 0.04,-0.04 z m -0.52,6.68 q -0.08,-0.16 -0.16,-0.16 -0.08,0 -0.08,0.08 0,0.12 0.12,0.12 0.04,0 0.04,-0.04 0.04,0 0.08,0 z m 9.48,-7.04 q -0.08,0.04 -0.08,0.16 0.04,0.04 0,0.08 0,0.04 0.08,0 0.08,-0.08 0.08,-0.16 0,-0.08 -0.08,-0.08 z m -2,3.96 0,-0.08 q -0.08,0 -0.08,0.04 -0.08,0.08 0,0.08 0.08,-0.04 0.08,-0.04 z m -6.8,-10.04 q -0.2,-0.16 -0.36,0 0.16,0.2 0.36,0 z m 1.68,10.2 0,0.2 0.04,0.04 q 0.04,0 0.04,-0.16 l -0.08,-0.08 z m 8,-9.84 q 0,-0.08 -0.04,-0.08 -0.04,-0.04 -0.04,0.04 l 0,0.08 q 0.04,-0.04 0.08,-0.04 z m -10.68,10.08 q -0.04,0 -0.04,0 0,-0.04 -0.04,-0.04 l 0,0.08 q 0.04,0.04 0.04,0.04 0.04,-0.04 0.04,-0.08 z m -1,10.8 q -0.04,0 -0.04,-0.04 0,0 -0.04,0 0,0.04 -0.04,0.08 0.08,0.04 0.08,0.04 0.04,0 0.04,-0.08 z m 3.08,-22.96 q 0.04,-0.08 -0.04,-0.16 -0.04,0 -0.12,0.08 0,0.08 0.08,0.08 0.08,0 0.08,0 z m -2.88,13.48 q 0.04,0 0.12,-0.08 0,-0.08 -0.08,-0.08 -0.08,-0.04 -0.08,0.04 -0.04,0.04 0.04,0.12 z m 2.6,-0.12 q 0,0.04 -0.04,0.04 0.08,0.04 0.08,0.04 0.12,0 0.04,-0.08 l -0.08,0 z m -0.2,-3.52 q 0.04,-0.08 0.04,-0.08 0,-0.12 -0.08,-0.04 l 0,0.08 q 0.04,0 0.04,0.04 z m -0.96,4.32 q -0.08,-0.08 -0.12,-0.08 -0.08,0 -0.08,0.08 0.08,0.08 0.12,0.08 0.08,-0.08 0.08,-0.08 z m 0.44,0.68 q 0,0.04 -0.04,0.08 0.08,0.04 0.08,0.04 0.04,0 0.04,-0.08 0,-0.04 -0.08,-0.04 z m 1.28,-8.48 q 0,-0.04 -0.04,0 -0.04,0 -0.08,0.04 0,0 0.04,0 0,0 0.08,0.08 l 0,-0.12 z m -0.76,-1.16 q 0,-0.04 -0.04,-0.04 l -0.08,0 q 0.04,0.08 0.04,0.08 0.04,0 0.04,0 0,-0.04 0.04,-0.04 z m -1.16,0.84 q -0.08,0.08 -0.08,0.12 0,0.12 0.08,0.04 0.08,0 0.08,-0.08 0,-0.08 -0.08,-0.08 z m 0.36,9.76 q -0.04,-0.04 -0.08,-0.04 -0.04,0.08 -0.04,0.08 0.04,0 0.04,0 0,0.04 0.04,0.04 0.04,0 0.04,-0.08 z m -1.76,1.68 q -0.08,0 -0.08,0.08 0.08,0.04 0.08,0.04 0.12,0 0.12,-0.08 -0.04,-0.04 -0.12,-0.04 z m 10.12,-13.16 q 0,-0.04 -0.08,-0.04 -0.04,0.04 0,0.08 0.04,0.04 0.04,0.04 0.04,0 0.04,-0.08 z m 1.64,-0.36 q -0.04,-0.08 -0.04,-0.08 -0.08,-0.08 -0.08,0.04 0,0.04 0.04,0.08 0.04,-0.04 0.08,-0.04 z m -1.48,4.52 q -0.04,0.04 -0.04,0.08 0,0.04 0.08,0.04 l 0,-0.08 -0.04,-0.04 z m -8.92,3.08 q 0.08,-0.08 0.04,-0.12 0,-0.08 -0.08,-0.08 -0.04,0 -0.04,0.12 0,0.08 0.08,0.08 z m -1.56,10.92 q 0,-0.08 -0.12,-0.08 -0.12,0 -0.04,0.08 0,0.16 0.12,0.08 0.08,0 0.04,-0.08 z m 11.04,-21.84 -0.04,-0.04 q -0.08,0.08 -0.08,0.08 l 0,0.08 q 0.12,0 0.12,-0.12 z m -1.84,6.76 q 0,-0.12 -0.08,-0.08 -0.04,0.04 -0.04,0.08 0,0.08 0.08,0.08 0.04,0 0.04,-0.08 z m 1.08,-7.16 0,0.04 q 0.04,0 0.04,-0.04 0,-0.04 -0.04,-0.04 l 0,0.04 z m -8.84,9.28 q 0.16,-0.12 0.2,-0.12 0.04,0 0.16,0.12 0.24,0.16 0.12,0.4 0,0.04 -0.12,0.04 -0.08,-0.08 -0.2,-0.08 -0.08,0 -0.16,-0.04 -0.16,0 -0.2,-0.08 -0.04,-0.08 0,-0.08 0.08,-0.04 0.12,-0.12 0.04,0 0.04,0 0,-0.04 0.04,-0.04 z m 0,-0.4 q -0.08,0.08 -0.04,0.16 -0.12,0 -0.16,0.04 -0.4,0.12 -0.4,-0.32 0.16,0.04 0.28,0.12 0.12,0.08 0.32,0 z m 0.32,0.96 q 0.08,0.08 0.16,0.08 0.12,-0.04 0.16,0.08 -0.08,0 -0.16,0.04 -0.04,0 -0.12,-0.04 -0.2,0 -0.04,-0.16 z m 2.08,-8.6 q 0.16,-0.08 0.24,-0.16 0.12,-0.08 0.2,-0.24 0.12,0.32 -0.04,0.48 -0.08,0.08 -0.16,0.04 -0.08,-0.08 -0.24,-0.12 z m 5.36,8.84 q -0.08,0.12 -0.16,0.08 -0.04,-0.04 -0.12,-0.04 0.2,-0.12 0.32,-0.04 l -0.04,0 z"
         style="fill:#ffffff"
         id="path4747"
         inkscape:connector-curvature="0" />
      <path
         d="m 121.78734,177.88572 q 0,-0.08 0,-0.24 0,-0.2 0.04,-0.4 0.32,-2.04 0.96,-3.92 0.68,-1.88 2.08,-3.44 0.52,-0.56 1.04,-1.04 0.52,-0.48 1.16,-0.88 2.04,-1.28 4.44,-0.72 1.24,0.28 1.32,1.64 0,1.04 -0.36,1.92 -0.32,0.88 -0.88,1.68 -0.32,0.44 -0.72,0.84 -0.36,0.4 -0.8,0.76 -0.56,0.52 -1.08,1 -0.52,0.48 -1.04,1.04 -0.12,0.12 -0.28,0.24 -0.12,0.08 -0.28,0.2 -0.48,0.32 -0.48,0.84 0.04,0.44 0,0.84 -0.04,0.4 -0.12,0.84 -0.2,1.04 -0.08,2.04 0.16,1 0.56,1.96 0.16,0.36 0.68,0.44 1.2,0.04 2.28,-0.64 0.64,-0.4 1.12,-0.88 0.52,-0.52 0.96,-1.08 0.88,-1.12 1.56,-2.32 0.68,-1.2 1.28,-2.48 1.16,-2.48 2.16,-5.24 0.16,-0.44 0.28,-0.48 0.16,-0.08 0.6,0 0.32,0.08 0.24,0.44 -0.24,0.64 -0.48,1.28 -0.2,0.64 -0.44,1.28 -0.56,1.52 -1.24,3 -0.68,1.48 -1.48,2.88 -0.56,0.96 -1.2,1.84 -0.6,0.88 -1.4,1.68 -0.72,0.72 -1.6,1.24 -0.92,0.52 -1.84,0.64 -0.36,0.04 -0.72,0.04 -0.32,0.04 -0.68,0.08 -0.32,0.04 -0.64,-0.04 -0.28,-0.08 -0.6,-0.2 -1.16,-0.48 -2.16,-1.28 -0.88,-0.72 -1.32,-1.64 -0.44,-0.96 -0.64,-2 -0.08,-0.4 -0.12,-0.8 -0.04,-0.44 -0.08,-0.96 z m 3.56,-4.2 q -0.08,0.08 -0.12,0 -0.32,-0.32 -0.56,0.08 -0.16,0.24 0.12,0.52 0.12,0.12 0.4,0.12 0.32,0 0.48,-0.16 0.08,-0.08 0.16,-0.16 0.12,-0.12 -0.08,-0.28 -0.08,-0.04 -0.08,-0.2 -0.08,-0.24 -0.24,-0.2 -0.08,0.04 -0.08,0.12 0,0.08 0,0.16 z m 2,1.56 q 0.16,-0.08 0.2,-0.12 0.92,-0.68 1.68,-1.44 0.76,-0.8 1.32,-1.8 0.72,-1.4 0.96,-2.88 0.08,-0.48 -0.2,-0.76 -0.28,-0.28 -0.76,-0.24 -0.4,0.04 -0.76,0.24 -0.68,0.32 -1.28,1.04 -0.36,0.44 -0.6,0.92 -0.24,0.48 -0.24,1.08 0.04,0.2 0,0.4 -0.04,0.16 -0.12,0.36 -0.16,0.6 -0.24,1.24 -0.04,0.6 -0.12,1.2 -0.04,0.2 -0.04,0.4 0.04,0.16 0.2,0.36 z m -3.24,0.76 q 0,0.12 -0.08,0.24 -0.08,0.08 0.08,0.16 0.16,0.08 0.52,-0.2 0.36,-0.32 0.32,-0.48 -0.04,-0.04 -0.04,-0.08 -0.32,-0.24 -0.36,-0.56 0,-0.08 -0.12,-0.08 -0.08,0 -0.12,0.08 -0.12,0.16 0,0.28 0.16,0.12 0.08,0.2 -0.08,0.08 -0.24,0.12 -0.16,0 -0.08,0.24 0.04,0.04 0.04,0.08 z m 0.6,-2.64 q -0.12,-0.16 -0.28,-0.12 -0.12,0 -0.2,-0.12 -0.08,-0.2 0.08,-0.28 0.16,-0.04 0.12,-0.16 -0.08,-0.12 -0.16,-0.08 -0.4,0.08 -0.32,0.48 0.08,0.12 0.04,0.24 0,0.08 0.08,0.24 0.12,-0.08 0.28,-0.08 0.16,-0.04 0.36,-0.12 z m -0.4,8.48 q -0.04,0 -0.12,0.08 -0.12,0.12 0.04,0.2 0.16,0.08 0.24,0.36 0.12,0.24 0.44,0.04 0.04,0 0.16,0.12 0.08,0.2 0.16,0.04 0.04,-0.08 -0.08,-0.16 -0.2,-0.12 -0.4,-0.2 -0.2,-0.12 -0.28,-0.44 -0.08,-0.08 -0.16,-0.04 z m 2.56,-12 q 0,-0.08 -0.12,-0.24 -0.12,-0.2 -0.24,-0.16 -0.32,0 -0.32,0.28 -0.04,0.08 0.12,0.2 0.2,0.12 0.4,0.08 0.16,0 0.16,-0.16 z m -0.8,6.52 q 0,-0.16 -0.04,-0.24 -0.16,-0.24 -0.32,-0.16 -0.28,0.12 0,0.28 0.12,0.16 -0.12,0.24 -0.16,0.08 -0.08,0.2 0.08,0.2 0.24,0.04 0.08,-0.08 0.2,-0.12 0.16,-0.04 0.12,-0.24 z m -0.72,-4.2 q -0.08,-0.2 -0.24,-0.24 -0.12,-0.04 -0.28,-0.12 -0.16,-0.04 -0.24,0.16 -0.08,0.16 0,0.24 0.08,0.08 0.24,0 0.12,-0.12 0.24,0 0.12,0.08 0.28,-0.04 z m -1.28,9 q -0.08,-0.08 -0.08,-0.08 -0.16,-0.08 -0.32,-0.08 -0.16,0 -0.32,-0.08 -0.08,-0.08 -0.12,0 -0.04,0.08 0,0.16 0.08,0.16 0.36,0.24 0.28,0.04 0.4,-0.04 -0.04,0 0.08,-0.12 z m 0.84,0.64 q 0,-0.08 0.04,-0.16 0.04,-0.12 0.28,-0.04 0.04,0.04 0.16,0.04 0.16,0 0.16,-0.16 0,-0.16 -0.2,-0.16 -0.12,0 -0.2,0.08 -0.08,0.04 -0.2,0.08 -0.12,0.08 -0.08,0.2 0.08,0.12 0.04,0.12 z m 0.96,-4.12 0.04,0 q 0.08,0 0.16,0.04 0.08,0.04 0.12,-0.12 l 0,-0.16 q -0.08,-0.16 -0.16,-0.04 -0.08,0.12 -0.16,0.04 -0.08,-0.04 -0.16,0.04 -0.08,0.04 -0.04,0.16 0,0.16 0.2,0.04 z m 0.84,-6.36 q 0,-0.2 -0.16,-0.2 -0.08,0 -0.2,0 -0.12,-0.04 -0.2,0.16 -0.04,0.08 -0.04,0.16 0.04,0.08 0.12,0.08 0.24,0.04 0.48,-0.2 z m -0.64,1.32 q -0.08,-0.16 -0.16,-0.12 -0.28,0.16 -0.28,0.36 -0.08,0.16 0.12,0.16 0.08,0 0.2,-0.16 0.12,-0.16 0.12,-0.24 z m 0.16,0.64 q -0.08,0.08 -0.04,0.16 0.08,0.04 0,0.12 -0.2,0.08 -0.04,0.24 0.12,0.12 0.24,0.08 0.16,-0.12 0.08,-0.32 -0.04,-0.08 -0.24,-0.28 z m -2.28,7.12 q 0.12,0.04 0.16,0 0.08,-0.08 0.16,-0.16 0.12,-0.12 0,-0.24 -0.12,-0.12 -0.16,-0.12 -0.12,0 -0.2,0.16 -0.12,0.16 0.04,0.36 z m -0.04,-5.76 q -0.08,-0.16 -0.2,-0.16 -0.08,0 -0.16,-0.04 -0.08,0 -0.16,-0.04 -0.08,-0.04 -0.12,0.08 -0.04,0.12 0.04,0.16 0.08,0 0.16,0.08 0.12,0.08 0.2,0.04 0.12,-0.08 0.24,-0.12 z m 0.92,4.76 q 0.12,-0.04 0.12,-0.12 0.04,-0.08 0.12,-0.16 0.08,-0.16 -0.04,-0.2 -0.08,-0.04 -0.2,0.08 -0.16,0.24 0,0.4 z m 2.8,-10.8 q 0.08,0 0.12,0.04 0.04,0 0.08,0 0.28,0 0.32,-0.16 0.04,0 0.04,-0.04 0,-0.04 -0.04,-0.04 -0.08,-0.12 -0.2,-0.04 -0.08,0.04 -0.16,0.08 -0.04,0 -0.16,0.16 z m -2,2.44 q 0,-0.12 -0.08,-0.12 -0.12,-0.04 -0.2,0.16 0,0.08 0.08,0.08 0.12,0 0.2,-0.12 z m 0.84,4.52 q 0.12,-0.28 -0.12,-0.4 -0.04,-0.04 -0.12,0 -0.04,0 -0.04,0.04 0,0.16 0.16,0.32 0,0 0.12,0.04 z m -0.96,4.96 q 0.08,-0.08 -0.04,-0.08 -0.08,-0.04 -0.12,0.04 -0.04,0.04 -0.08,0.08 -0.08,0.08 0.04,0.12 0.12,0 0.2,-0.16 z m -0.4,-7.88 q 0,-0.12 -0.08,-0.12 -0.12,-0.04 -0.2,0.12 0,0.12 0.08,0.12 0.08,0.04 0.08,0 0.04,-0.08 0.12,-0.12 z m 0.6,1.92 q -0.2,0.08 -0.16,0.2 0,0.16 0.16,0.16 0.08,0 0.08,-0.2 0,-0.16 -0.08,-0.16 z m 0.96,1.52 q 0.16,-0.08 0.16,-0.16 0,-0.2 -0.16,-0.24 -0.12,-0.04 -0.12,0.12 0,0.08 0,0.16 0,0.08 0.12,0.12 z m -0.32,-1.48 q 0,-0.2 -0.12,-0.2 -0.08,-0.04 -0.08,0.08 0,0.08 -0.04,0.16 0,0.04 0.12,0.08 0,0 0.12,-0.12 z m -0.44,5.24 q 0,-0.16 -0.08,-0.12 -0.08,0 -0.08,0.08 0,0.16 0.12,0.16 0.04,0 0.04,-0.12 z m -0.92,-8.4 q 0,-0.16 -0.12,-0.16 -0.12,-0.04 -0.12,0.12 0,0.12 0.12,0.12 0.12,0 0.12,-0.08 z m 1.08,10.96 q 0,0.08 -0.04,0.12 0,0 0,0.04 0,0.16 0.12,0.08 0.16,0 0.04,-0.12 0,-0.04 -0.12,-0.12 z m -2.72,-4.52 q -0.08,-0.04 -0.08,-0.04 -0.04,0 -0.04,0.08 0,0.04 0.08,0.04 0.04,-0.04 0.04,-0.08 z m 0.92,-3.8 q 0,-0.08 0.04,-0.08 -0.04,-0.04 -0.12,-0.04 -0.04,0 -0.04,0.08 0.08,0 0.12,0.04 z m -0.08,4.64 q -0.08,-0.04 -0.08,-0.04 -0.12,0 -0.04,0.08 0.04,0.04 0.08,0.04 0,-0.04 0,-0.04 0.04,0 0.04,-0.04 z m 1.64,4.56 q -0.08,0.08 -0.04,0.12 0.04,0.04 0.08,0.04 0,-0.04 0,-0.08 0.04,0 0.04,-0.04 -0.04,-0.04 -0.08,-0.04 z m -0.16,-11.6 q -0.12,0 -0.04,0.08 l 0.08,0.04 q 0.04,0 0.04,-0.04 0,-0.04 0.04,-0.04 -0.04,0 -0.08,0 0,-0.04 -0.04,-0.04 z m -2.84,8.68 q 0.08,0 0.12,0 0.08,-0.04 0.08,0.12 -0.12,0.08 -0.16,0.04 0,-0.08 -0.04,-0.16 z m 1.32,-3.16 q -0.04,0.12 -0.2,0.04 -0.12,0 -0.08,-0.08 0.04,-0.08 0.2,-0.08 0.08,0 0.08,0.12 z m 1.2,-3.52 q 0.12,0.08 0.08,0.16 l -0.08,0 q 0,-0.04 -0.04,-0.04 -0.04,-0.04 0.04,-0.12 z"
         style="fill:#ffffff"
         id="path4749"
         inkscape:connector-curvature="0" />
      <path
         d="m 135.18672,177.40572 q 0,-2.24 0.44,-4.68 0.2,-1.12 0.32,-2.2 0.12,-1.12 0.32,-2.24 0.2,-1.24 0.4,-2.44 0.2,-1.24 0.4,-2.48 0.08,-0.44 0.12,-0.84 0.08,-0.4 0.16,-0.84 0.08,-0.72 0.28,-1.36 0.2,-0.68 0.52,-1.36 0.48,-1.16 0.96,-2.28 0.52,-1.12 0.96,-2.28 0.32,-0.84 0.92,-1 0.64,-0.16 1.2,0 0.32,0.08 0.52,0.32 0.2,0.2 0.36,0.48 0.2,0.44 0.28,0.92 0.12,0.44 0.16,0.92 0.12,1.88 -0.2,3.96 -0.32,2.08 -0.8,4.12 -0.44,2 -1.12,4 -0.12,0.4 -0.28,0.8 -0.12,0.4 -0.4,0.76 -0.12,0.24 -0.12,0.48 l 0,0.96 q 0.04,0.76 -0.08,1.52 -0.08,0.72 -0.16,1.48 -0.08,0.64 -0.12,1.28 0,0.6 0.04,1.24 0.08,1.28 0.08,2.52 0.04,1.2 -0.04,2.48 -0.08,0.56 -0.12,1.12 0,0.52 -0.08,1.08 0,0.24 -0.12,0.48 -0.08,0.24 -0.16,0.44 -0.28,0.48 -0.36,0.8 -0.2,0.56 0.24,0.96 0.44,0.36 1,0.52 0.6,0.2 1.28,-0.28 0.6,-0.44 1.12,-1.16 0.56,-0.68 0.96,-1.44 0.4,-0.72 0.76,-1.52 0.8,-1.8 1.44,-3.6 0.68,-1.8 1.24,-3.72 0.32,-1 0.6,-2 0.28,-1 0.6,-2 0.12,-0.36 0.44,-0.76 0.12,-0.08 0.24,-0.12 0.12,-0.08 0.28,0 0.28,0.16 0.28,0.52 0,0.08 -0.08,0.32 -0.8,2.48 -1.64,4.92 -0.8,2.4 -1.72,4.8 -0.4,0.96 -0.8,1.92 -0.4,0.92 -0.88,1.84 -0.2,0.36 -0.4,0.72 -0.16,0.36 -0.44,0.68 -1,1.32 -2.48,1.72 -0.72,0.2 -1.76,-0.04 -1.04,-0.2 -1.72,-1.12 -1.04,-1.48 -1.76,-3.12 -0.68,-1.6 -0.92,-3.4 -0.08,-0.68 -0.12,-1.4 0,-0.72 -0.04,-1.4 z m 4.48,0.08 q 0,-0.16 -0.08,-0.08 -0.08,0.04 -0.08,0.08 0.04,0.04 0.12,0.04 l 0,0.16 q 0,0.12 0.08,0.08 0.04,0 0.04,-0.08 0,-0.16 -0.08,-0.2 z m -3.12,-4.24 q -0.04,0.04 -0.04,0.08 0,0 -0.04,0.04 -0.08,0.04 -0.16,0.04 -0.08,0 -0.12,0.04 -0.08,0.16 -0.16,0.32 -0.04,0.16 -0.04,0.36 0,0.08 0.08,0.08 0.08,0 0.16,0.08 0.08,0.08 0.08,0 0,-0.08 0.04,-0.08 0.08,-0.08 0.24,-0.16 0.28,-0.16 0.08,-0.36 -0.04,-0.08 -0.12,-0.12 -0.08,-0.04 0,-0.16 0.12,0 0.12,-0.16 0.12,0 0.04,-0.16 0,-0.16 -0.12,-0.04 -0.04,0.04 -0.04,0.2 z m 2.4,6.72 q 0.08,-0.08 0.16,0 0.12,0.04 0.2,-0.08 -0.2,-0.12 -0.24,-0.12 -0.04,0 -0.12,0.2 0,0.04 -0.04,0.08 l -0.04,0 q -0.04,0.04 -0.04,0.04 l 0.04,0.04 q 0.04,0 0.04,-0.12 l 0.04,-0.04 z m -0.84,-5.28 q 0.04,0.04 0.04,0.08 0,0 0.04,0.04 l 0.04,-0.04 q 0,-0.08 -0.04,-0.04 -0.04,0 -0.08,-0.04 -0.08,-0.08 0,-0.16 0.12,-0.08 -0.04,-0.16 -0.08,0.08 -0.16,0.12 -0.08,0.04 -0.08,0.16 0.08,0.08 0.12,0.04 0.08,-0.08 0.16,0 z m 1.88,-9.24 q -0.32,0.04 -0.36,0.12 0,0.04 0.16,0.24 0.04,0.08 0.08,0.12 0.04,0.04 0.04,0.12 0.08,0.24 0.24,0.08 0.12,-0.12 0,-0.2 -0.2,-0.2 -0.2,-0.48 0.04,-0.04 0.12,-0.04 0.04,-0.04 0.04,-0.04 -0.04,-0.04 -0.04,-0.04 -0.04,0 -0.04,0.04 0,0.08 -0.04,0.08 z m -0.44,6.96 q -0.04,0.08 -0.12,0.16 -0.08,0.04 -0.08,0.16 0.32,0 0.52,0.16 0.08,-0.36 0.04,-0.4 0,-0.08 -0.32,-0.08 l -0.04,0 q -0.04,-0.2 -0.2,-0.2 -0.12,-0.04 -0.24,0 -0.04,-0.08 0,-0.12 0.04,-0.08 0.04,-0.16 0,-0.04 -0.08,-0.12 -0.12,0 -0.12,0.12 -0.08,0.08 -0.04,0.16 0.08,0.04 0.08,0.12 -0.24,-0.04 -0.28,0 -0.04,0.04 -0.12,0.24 0.24,0.08 0.48,0 0.24,-0.08 0.48,-0.04 z m -0.84,-10.72 q -0.12,-0.08 -0.24,-0.12 -0.12,-0.08 -0.2,0.16 0,0.08 -0.16,0.08 -0.36,0 -0.2,0.36 0.2,0.08 0.28,-0.08 0.04,-0.2 0.2,-0.24 0.2,-0.08 0.36,-0.16 0.08,0.16 0.2,0.2 0.12,0 0.24,-0.04 0.28,-0.04 0.28,-0.36 0,-0.08 0.08,-0.08 0.08,0 0.12,0.04 0.04,0 0.04,-0.08 0.04,-0.08 -0.12,-0.16 -0.08,-0.04 -0.2,-0.04 -0.08,-0.04 -0.16,-0.2 -0.04,-0.2 -0.24,0 -0.04,0.08 -0.08,0.16 0,0.08 -0.12,0 -0.12,-0.04 -0.24,0 -0.12,0.04 -0.24,-0.04 -0.12,-0.12 -0.2,-0.04 -0.12,0.12 -0.04,0.28 0.12,0.16 0.24,0.04 0.08,-0.04 0.24,-0.04 0.2,0 0.28,0.12 0.08,0.08 0,0.12 -0.08,0.04 -0.12,0.12 z m 1.84,-3.12 q 0.12,-0.2 0.08,-0.44 0,-0.24 0.04,-0.44 0.04,-0.36 -0.36,-0.36 -0.08,0 -0.28,0.16 -0.2,0.12 -0.2,0.24 0,0.52 -0.4,0.76 -0.08,0.08 0,0.12 0.28,0.32 -0.16,0.32 -0.12,0 -0.12,0.08 0,0.04 0.08,0.12 0.08,0.08 0.2,0.12 0.12,0.04 0.2,0.08 0.4,0.08 0.4,-0.2 -0.04,-0.28 0.12,-0.32 0.16,-0.08 0.32,-0.16 0.08,0.08 0.12,0.08 0.12,-0.08 -0.04,-0.16 z m 0.24,7.84 q 0.12,-0.12 0.12,-0.2 0.04,-0.12 0.12,-0.2 0.2,-0.64 0.36,-1.24 0.16,-0.64 0.32,-1.28 0.36,-1.44 0.6,-2.88 0.24,-1.48 0.4,-2.96 0.12,-1.16 -0.12,-2.36 -0.08,-0.16 -0.12,-0.28 -0.04,-0.16 -0.16,-0.32 -0.2,-0.28 -0.48,-0.24 -0.24,0.04 -0.32,0.4 -0.04,0.2 -0.08,0.36 0,0.16 0,0.32 -0.04,0.24 -0.04,0.48 0,0.24 -0.04,0.44 -0.08,0.72 -0.12,1.44 -0.04,0.72 -0.08,1.48 -0.08,0.92 -0.12,1.88 -0.04,0.96 -0.08,1.92 -0.08,0.8 -0.12,1.6 0,0.8 -0.04,1.64 z m -3.68,12.56 q 0.24,-0.12 0.24,0.24 0,0.16 0.16,0.08 0.08,-0.08 0.04,-0.12 -0.08,-0.12 -0.12,-0.24 -0.04,-0.12 -0.24,-0.12 -0.12,-0.04 -0.36,-0.2 -0.04,-0.04 -0.04,-0.16 0,-0.08 0.04,-0.04 0.04,0 0.08,0 0.16,0 0.16,-0.12 0,-0.16 -0.2,-0.08 -0.04,0.04 -0.16,0.04 -0.32,0.12 -0.2,0.4 0.04,0.12 0.04,0.32 -0.04,0.12 0.04,0.16 0.08,0.04 0.16,-0.04 0.08,-0.12 0.36,-0.12 z m 1.32,-8.16 q 0,0.08 0.08,0.16 0.12,0.12 0.36,0.12 0.24,-0.04 0.36,-0.16 0.08,-0.08 0.12,-0.08 0.2,0.08 0.2,-0.04 0.04,-0.16 0.16,-0.16 0.08,0 0,-0.16 -0.12,-0.12 -0.16,-0.08 -0.12,0.08 -0.24,0.08 -0.12,-0.04 -0.2,0.16 -0.04,0.08 -0.16,0.16 -0.08,0.04 -0.24,-0.08 -0.12,-0.16 -0.28,0.08 z m 0.4,-3.72 q 0,0.4 0.28,0.52 0.16,0.08 0.2,0 0.12,-0.04 0,-0.16 -0.04,-0.12 0.04,-0.16 0.12,-0.04 0.12,-0.16 -0.04,-0.08 -0.08,-0.04 -0.04,0 -0.12,0 -0.16,0.08 -0.2,-0.04 -0.08,-0.08 -0.12,-0.2 0,-0.16 -0.16,-0.08 -0.12,0.04 0,0.16 0.16,0.08 0.04,0.16 z m -1.88,8.08 q 0.04,-0.2 -0.2,-0.28 -0.12,-0.04 -0.28,0.08 -0.12,0.08 -0.16,0.2 0,0.08 0,0.12 0.04,0.04 -0.08,0.08 -0.16,0.08 -0.04,0.2 0,0.08 0.12,0.08 0.12,-0.04 0.12,-0.16 -0.04,-0.16 0.08,-0.12 0.08,0.04 0.16,-0.04 0.08,-0.12 0.2,-0.04 0.08,0.04 0.08,-0.12 z m 2.68,-10.72 q 0,-0.2 -0.16,-0.2 -0.16,0 -0.16,0.16 0,0.12 0.04,0.24 0.04,0.08 -0.08,0.2 -0.08,0.04 -0.08,0.12 0.04,0.04 0.12,0.04 0.24,0.08 0.24,-0.08 0,-0.24 0.08,-0.48 z m -0.16,17.08 q -0.16,-0.08 -0.28,-0.08 -0.12,-0.04 -0.24,-0.12 -0.2,-0.08 -0.32,0.12 -0.08,0.2 0.08,0.32 0.12,-0.24 0.32,-0.16 0.24,0.08 0.44,-0.08 z m -1.16,-18.12 q -0.04,-0.12 -0.2,-0.12 -0.12,0 0,-0.2 0.08,-0.12 -0.04,-0.12 -0.08,-0.04 -0.16,-0.08 -0.08,-0.16 -0.16,0 -0.08,0.16 0,0.24 0.12,0.08 0.12,0.2 0,0.12 0,0.2 0.16,0.04 0.24,0 0.08,-0.08 0.2,-0.12 z m 2.2,-7.72 q 0,0.16 0.08,0.16 0.04,0 0.08,0.04 0.04,0 0.12,-0.04 0.16,0 0.04,-0.12 -0.16,-0.2 -0.04,-0.36 0.08,-0.08 0,-0.12 -0.08,-0.08 -0.16,-0.12 -0.2,0 -0.12,0.16 0.2,0.24 0,0.4 z m -2.96,15.32 -0.24,0.12 q -0.08,0.08 -0.16,0.2 -0.04,0.08 0.04,0.16 0.08,0.12 0.12,0.04 0.08,-0.08 0.16,-0.16 0.12,-0.08 0.2,-0.2 0.04,-0.08 -0.12,-0.16 z m -0.08,-2.92 q -0.16,-0.24 -0.24,-0.2 -0.12,0.04 -0.2,0.16 -0.08,0.08 -0.16,0.16 -0.08,0.08 0,0.16 0.16,0.16 0.28,0.04 0.08,-0.12 0.16,-0.16 0.08,-0.08 0.16,-0.16 z m 0.2,-2.76 q 0,0.08 -0.04,0.12 -0.04,0 0,0.08 0.08,0.2 0.24,0.16 0.16,-0.08 0.08,-0.2 -0.04,-0.08 -0.08,-0.16 -0.04,-0.08 0,-0.2 0,-0.08 -0.12,-0.08 -0.12,0 -0.12,0.12 0,0.04 0,0.08 0.04,0 0.04,0.08 z m 2.68,-1.48 q 0,-0.2 -0.12,-0.2 -0.24,0 -0.24,0.24 0,0.24 0.16,0.24 0.2,0 0.2,-0.28 z m -2.36,18 q 0.16,0.08 0.24,0.12 0.12,0.04 0.32,0.24 0.04,0.08 0.12,0 0.16,0 0.04,-0.12 -0.04,-0.24 -0.24,-0.32 -0.2,-0.08 -0.48,0.08 z m 1,-4.16 q -0.32,-0.28 -0.56,-0.04 -0.04,0.08 -0.12,0.12 -0.04,0 0.04,0.08 0.04,0.08 0.12,0.16 0.08,0.04 0.16,-0.04 0.24,-0.16 0.36,-0.28 z m -0.52,-17.16 q -0.04,-0.08 0,-0.2 0.04,-0.12 -0.08,-0.12 -0.2,-0.04 -0.2,0.12 0.04,0.12 0.04,0.2 l 0,0.28 q 0,0.08 0.12,0.08 0.04,0 0.12,-0.08 l 0,-0.28 z m 2.32,7.36 q -0.08,0 -0.2,0.04 -0.08,0 -0.16,-0.08 -0.08,-0.08 -0.08,-0.16 0,-0.12 -0.08,-0.2 -0.16,0.24 -0.04,0.32 0.04,0.04 0.24,0.28 0.24,0.24 0.24,0.04 0.04,-0.08 0.08,-0.12 0.04,-0.04 0,-0.12 z m -2.24,9.12 q -0.08,-0.2 -0.24,-0.16 -0.16,0.04 -0.28,0 -0.12,0 -0.12,0.08 0,0.12 0.12,0.12 0.12,0 0.24,0.04 0.12,0 0.28,-0.08 z m 1.16,-16.4 q 0.08,0.16 0.12,0.24 0.08,0.08 0.28,0 0.2,-0.12 0.08,-0.32 -0.12,0 -0.24,0.08 -0.08,0.08 -0.24,0 z m -2.68,13.76 q -0.16,-0.08 -0.24,0 -0.08,0.04 -0.16,0.12 -0.04,0.08 -0.08,0.12 -0.04,0 0,0.08 0.08,0.08 0.16,0.08 0.08,-0.04 0.12,-0.12 0.04,-0.08 0.08,-0.12 0.08,-0.08 0.12,-0.16 z m 0.68,-1.88 q -0.28,0.04 -0.24,0.32 0.04,0.12 0.12,0.16 0.08,0 0.12,0.08 0,0 0.12,0 0.12,-0.12 0,-0.12 -0.2,-0.08 -0.16,-0.2 0.08,-0.12 0.04,-0.24 z m 0.92,-6.72 0,0.32 q 0,0.04 0.2,0.12 0.16,0 0.16,-0.12 0.04,-0.04 -0.08,-0.16 -0.08,-0.04 -0.12,-0.08 -0.04,-0.08 -0.16,-0.08 z m -1.08,8.96 q -0.04,0.12 -0.04,0.2 0.04,0.08 0.08,0.16 0.12,0.12 0.16,0.08 0.12,0 0.2,-0.2 0,-0.12 -0.12,-0.12 -0.08,0 -0.16,-0.04 -0.04,-0.08 -0.12,-0.08 z m 0.4,-5.76 q -0.08,-0.12 -0.16,-0.16 -0.08,-0.04 -0.16,-0.12 -0.16,-0.04 -0.24,0.04 -0.08,0.08 0,0.12 0.08,0.16 0.16,0.12 0.08,-0.04 0.16,0 0.12,0 0.24,0 z m 0.52,0.72 0.04,0 q 0.08,0 0.08,-0.04 l 0,-0.04 -0.04,-0.04 q -0.12,0.08 -0.2,0 -0.04,-0.12 -0.16,-0.08 -0.16,0 -0.16,0.08 -0.04,0.08 0.16,0.16 0.08,0 0.12,-0.04 0.08,-0.08 0.16,0 z m 0.36,15.88 q -0.08,-0.4 -0.4,-0.56 0.08,0.32 0.12,0.36 0.08,0.08 0.28,0.2 z m 0.2,-12.64 q 0.04,0.08 0.08,0.2 0.04,0.12 -0.04,0.2 -0.12,0.12 0.08,0.12 0.12,0 0.16,-0.04 0.04,-0.08 0,-0.16 0,-0.12 0,-0.2 0.04,-0.12 -0.28,-0.12 z m -0.52,3.2 q -0.12,0 -0.16,0.12 -0.08,0.08 -0.04,0.16 0.04,0.08 0.12,0.16 0.04,0.08 0.12,0 0.08,-0.08 0.08,-0.12 0,-0.04 0,-0.12 -0.08,-0.2 -0.12,-0.2 z m 0,-4.68 q 0.36,0 0.44,0 0.08,-0.04 0.16,-0.24 -0.16,0.08 -0.32,0.08 -0.16,-0.04 -0.28,0.16 z m -1.64,10.44 q 0.2,-0.24 0.2,-0.32 0,-0.08 -0.32,-0.16 -0.04,0.16 0.04,0.28 0.12,0.08 0.08,0.2 z m 1.88,-16.56 q -0.24,-0.08 -0.32,-0.04 -0.12,0.12 -0.08,0.2 0.04,0.2 0.2,0.04 0.16,-0.08 0.2,-0.2 z m 1.04,2.64 q 0.04,0.32 0.12,0.2 0.08,-0.12 -0.12,-0.2 z m -0.56,0.96 q -0.08,0.08 0,0.16 0.12,0.04 0.16,0.12 0,0.16 0.12,0.16 0.08,0 0.08,-0.08 0,-0.08 0,-0.12 0.04,-0.08 -0.04,-0.16 -0.08,-0.04 -0.16,-0.08 -0.08,-0.08 -0.16,0 z m -0.16,8.12 q -0.32,-0.16 -0.44,0.12 -0.08,0.08 0.04,0.16 0.04,0.08 0.08,0.08 0.08,-0.04 0.08,-0.12 0,-0.08 0.24,-0.24 z m -3.2,2.16 q 0.16,0.04 0.24,0.12 0.08,0.08 0.2,0.08 0.12,0 0.16,-0.08 0,-0.16 -0.12,-0.2 -0.08,0 -0.2,0 -0.08,0 -0.28,0.08 z m 4.68,-22.2 q -0.16,-0.04 -0.32,-0.04 -0.12,0 -0.2,0.24 0.2,0.04 0.32,0.04 0.12,-0.04 0.2,-0.24 z m -0.48,4.8 q 0,0.08 0.12,0.08 0.2,0 0.24,-0.08 0.04,-0.04 -0.04,-0.12 -0.12,-0.04 -0.24,0 -0.12,0.12 -0.08,0.12 z m 0.48,-6.84 q 0.08,0 0.16,0.08 0.08,0.08 0.16,-0.08 0.08,-0.08 -0.04,-0.16 -0.12,-0.08 -0.16,0.04 -0.04,0.08 -0.12,0.12 z m -0.32,12.04 q 0,-0.08 0,-0.12 0.04,-0.08 -0.04,-0.16 -0.04,-0.04 -0.12,-0.08 -0.04,-0.08 -0.12,0 -0.12,0.08 0.08,0.2 0.04,0.04 0.08,0.12 0.04,0.08 0.12,0.04 z m -2,5.24 q 0,-0.16 -0.08,-0.16 -0.12,0 -0.12,0.16 -0.08,0.12 0.08,0.12 0.12,0.08 0.12,-0.12 l 0,0 z m 1.32,7.44 q -0.04,0.12 -0.04,0.16 0,0.24 0.08,0.28 0.04,0.08 0.12,0 0.08,-0.08 0,-0.12 -0.04,-0.08 -0.08,-0.16 0,-0.08 -0.08,-0.16 z m 0.48,-9.6 q -0.08,-0.08 -0.16,-0.08 -0.04,0 -0.12,0 -0.16,0 -0.08,0.12 0,0.16 0.12,0.08 0.16,0 0.24,-0.12 z m -4.2,6.76 q -0.12,0.2 -0.04,0.48 0,0.16 0.12,0.04 0.16,0 0.04,-0.12 -0.04,-0.08 -0.08,-0.2 0,-0.12 -0.04,-0.2 z m 2.32,-3 q 0.12,-0.04 0.24,-0.04 0.16,0.04 0.16,0 0,-0.08 -0.08,-0.16 -0.08,-0.08 -0.16,0.04 -0.08,0.08 -0.16,0.16 z m 0.64,7.16 q -0.08,-0.08 -0.08,-0.08 -0.24,0 -0.24,0.24 0,0.08 0.08,0.08 0.16,0.04 0.24,-0.24 z m 0.76,2.8 q -0.16,-0.16 -0.2,-0.16 -0.04,0 -0.2,0.12 0.08,0.04 0.16,0.08 0.12,0.04 0.24,-0.04 z m -0.76,-9.52 -0.2,-0.2 q -0.08,-0.08 -0.12,-0.04 -0.16,0.16 0.04,0.16 0.08,0.04 0.12,0.08 0.04,0.04 0.16,0 z m -2.24,7.16 q -0.08,-0.2 -0.24,-0.16 -0.04,0.04 -0.04,0.08 0,0.04 -0.04,0.04 0.16,0.16 0.32,0.04 z m 2,-13.64 q 0.16,0.12 0.32,0 0,-0.08 -0.04,-0.12 -0.08,-0.08 -0.12,0 -0.04,0.04 -0.12,0.08 l -0.04,0.04 0,0 z m 2.36,-0.56 q 0,0.16 0.08,0.08 0.08,0 0.08,-0.16 0.08,-0.08 -0.04,-0.08 -0.12,0 -0.12,0.16 z m -0.32,-8.16 q -0.12,-0.12 -0.24,-0.12 -0.08,0 -0.16,0.04 -0.04,0 -0.04,0.08 0,0.08 0.04,0.08 0.08,-0.04 0.16,-0.04 0.12,0 0.24,-0.04 z m -3.44,10.2 q -0.04,-0.04 -0.04,-0.08 0,-0.04 -0.08,-0.04 -0.12,0 -0.12,0.16 0,0.16 0.12,0.12 0.12,0 0.12,-0.16 z m 2.08,5.04 q -0.12,0.08 -0.24,0.12 -0.08,0 -0.04,0.16 0,0.12 0.16,0.12 0.2,-0.04 0.16,-0.12 -0.04,-0.12 -0.04,-0.28 z m 0.12,-10.68 q 0,-0.2 -0.16,-0.24 -0.08,0 -0.08,0.12 0,0.2 0.12,0.24 0.12,0 0.12,-0.12 z m 0.28,11.96 q 0.04,-0.12 0.08,-0.2 0.04,-0.12 0,-0.24 -0.2,0.08 -0.2,0.12 0,0.04 0.12,0.32 z m 0.12,-18.28 -0.12,-0.12 q -0.16,0.04 -0.16,0.2 0,0.12 0.08,0.12 0.08,0 0.2,-0.2 z m -2.8,24.72 q -0.04,-0.08 -0.2,-0.08 -0.12,0 -0.12,0.16 0.04,0.12 0.2,0.04 0.12,0 0.12,-0.12 z m 0.6,-17.96 q 0.08,-0.08 0.16,-0.08 0.12,0 0.04,-0.12 0,-0.08 -0.12,-0.08 -0.08,0.04 -0.08,0.28 z m 1.64,9.92 q -0.08,-0.16 -0.08,0 -0.08,0.04 -0.16,0.08 -0.04,0 -0.04,0.08 0,0.08 0.04,0.08 0.08,0 0.24,-0.16 0.04,-0.04 0,-0.08 z m -1.76,-4.92 q -0.12,0 -0.12,0.08 0,0.12 0.12,0.12 0.12,0 0.12,-0.08 0,-0.12 -0.12,-0.12 z m 0.44,14.8 q 0,-0.12 -0.08,-0.12 -0.16,0 -0.16,0.12 0,0.04 0.08,0.12 0.16,0 0.16,-0.12 z m -0.96,-15.08 q 0.2,0 0.2,-0.16 0,-0.08 -0.08,-0.08 -0.08,0.04 -0.16,0.04 -0.08,0 -0.08,0.12 0,0.08 0.12,0.08 z m 0.44,15.08 q -0.04,0 -0.04,0.12 0,0.12 0.12,0.12 0.12,0 0.12,-0.12 0,-0.08 -0.2,-0.12 z m 1.12,-12.2 q -0.08,0.04 -0.08,0.16 0,0.12 0.08,0.12 0.08,-0.04 0.08,-0.16 0,-0.12 -0.08,-0.12 z m -2.4,6.64 q 0.08,0 0.08,-0.08 0,-0.12 -0.12,-0.12 -0.08,0 -0.08,0.08 0,0.12 0.12,0.12 z m 1.56,4.8 q 0.2,0.12 0.32,0 -0.16,-0.12 -0.32,0 z m 1.72,-24.88 q -0.04,-0.08 -0.12,-0.08 -0.12,0 -0.12,0.12 0,0.12 0.08,0.08 0.08,0 0.16,-0.12 z m 0.6,4.36 q -0.04,-0.08 -0.12,-0.08 -0.12,0 -0.12,0.16 0,0.08 0.12,0.08 0.04,-0.04 0.12,-0.16 z m -3.88,16.08 q 0,-0.16 -0.16,-0.16 -0.08,0 -0.08,0.12 0,0.16 0.12,0.16 0.12,0 0.12,-0.12 z m 2.04,-0.28 q -0.08,0 -0.08,0.08 0,0.12 0.12,0.12 0.08,0 0.08,-0.04 0,-0.08 -0.12,-0.16 z m -1.44,-7.4 q 0,-0.08 -0.08,-0.08 -0.04,0 -0.12,0.2 l 0.04,0.04 q 0.16,0 0.16,-0.16 z m 1.6,13.16 q 0,-0.08 -0.12,-0.08 -0.12,-0.04 -0.12,0.08 0,0.12 0.12,0.12 0.12,0 0.12,-0.12 z m -0.44,-4.72 q -0.04,-0.08 -0.04,-0.08 -0.04,-0.04 -0.16,0.08 0,0.08 0.04,0.08 0.08,0 0.16,-0.08 z m 1.68,1.04 q -0.08,0 -0.08,0.08 0,0.12 0.12,0.12 0.08,0.08 0.08,-0.04 0,-0.04 -0.12,-0.16 z m -2.2,2.04 q 0.12,-0.12 0.12,-0.16 -0.04,-0.04 -0.08,-0.04 -0.12,0.12 -0.12,0.16 0.04,0 0.08,0.04 z m 1.12,-4.4 q -0.04,0 -0.04,-0.04 l -0.04,-0.04 q -0.16,-0.08 -0.16,0.08 -0.04,0.08 0.08,0.16 0.08,0.04 0.16,-0.16 z m 0.16,-9.6 q 0.16,-0.08 0.12,-0.16 0,-0.12 -0.12,-0.12 -0.16,0 -0.04,0.12 0,0.16 0.04,0.16 z m -0.84,5.24 q -0.08,-0.08 -0.08,-0.08 -0.12,0 -0.12,0.12 0.04,0 0.04,0.04 0.04,0 0.08,0 0.08,0 0.08,-0.08 z m 1.72,-0.08 q -0.16,0.08 -0.16,0.2 0.04,0.04 0.04,0.04 0.08,0 0.08,-0.04 0,-0.08 0.08,-0.12 0,-0.04 -0.04,-0.08 z m -2.72,-3.32 q -0.04,-0.04 -0.12,-0.04 -0.12,0 -0.04,0.08 0.04,0.08 0.08,0.04 0.08,0 0.08,-0.08 z m 0.6,3.72 q 0,-0.08 -0.08,-0.08 -0.08,0 -0.08,0.04 -0.08,0.08 0.04,0.08 0.04,0.04 0.12,-0.04 z m 0.4,-2.32 q -0.08,0 -0.12,0.04 0,0.08 0.08,0.08 0.08,0 0.08,-0.08 0,-0.04 -0.04,-0.04 z m 1.4,8.56 q 0,-0.08 -0.08,-0.08 -0.08,0 -0.08,0.08 0,0.16 0.12,0.08 0,-0.04 0.04,-0.08 z m -1.96,-0.32 q -0.04,-0.08 -0.04,-0.08 -0.08,0 -0.08,0.08 0,0.04 0.04,0.04 0.08,0.08 0.08,-0.04 z m 1.92,-9.88 q 0,-0.12 -0.08,-0.04 l -0.08,0 q -0.08,0.12 0.08,0.12 0.08,0 0.08,-0.08 z m 0.4,-12.4 q 0,-0.08 -0.08,-0.12 -0.08,0 -0.08,0.08 -0.08,0.12 0.04,0.12 0.12,0 0.12,-0.08 z m 0,8.12 q 0,-0.08 -0.08,-0.08 -0.16,0 -0.08,0.12 0.04,0.04 0.08,0.04 0.08,0 0.08,-0.08 z m -2.24,3.68 q -0.16,0.08 -0.16,0.16 0,0.08 0.08,0.08 0.16,-0.08 0.16,-0.16 0,-0.08 -0.08,-0.08 z m 0.68,6.64 q -0.04,-0.04 -0.04,-0.08 0,-0.04 -0.08,-0.04 -0.08,-0.08 -0.08,0.04 -0.08,0.12 0.08,0.12 0.08,0 0.12,-0.04 z m 1.28,-18.2 q 0.24,0.12 0.44,-0.04 -0.28,-0.12 -0.44,0.04 z m 0.96,-2.16 q -0.08,0 -0.08,0.12 0,0.08 0.04,0.08 0.08,0.04 0.08,-0.08 0,-0.08 -0.04,-0.12 z m -1.96,13.08 q -0.04,-0.04 -0.04,-0.04 -0.04,0 -0.04,0.08 0.04,0.04 0.04,0 0.04,-0.04 0.04,-0.04 z m 0.28,-0.08 q -0.04,-0.04 -0.04,0 -0.04,0.04 -0.04,0.04 0,0.04 0.08,0.04 0.04,-0.04 0,-0.08 z m -0.72,-2.72 q 0.04,-0.04 0.04,-0.04 -0.04,-0.04 -0.08,-0.04 -0.04,0.04 -0.04,0.08 0.08,0 0.08,0 z m 0.4,-3.32 q 0.08,-0.08 0.08,-0.12 0,-0.12 -0.08,-0.04 -0.08,0 -0.08,0.08 0.08,0.08 0.08,0.08 z m -0.88,15.6 -0.04,0 q -0.04,0.04 -0.04,0.04 0,0.04 0.08,0.04 0.08,0 0,-0.08 z m 2.36,-1.2 q -0.04,0.04 -0.04,0.04 0.04,0.04 0.04,0.04 0.04,0 0.04,-0.08 -0.04,-0.04 -0.04,0 z m -1.4,-11 q -0.04,0 -0.04,0.04 0,0 0.04,0 0.04,0.04 0.04,0.04 0.04,-0.04 0.04,-0.08 l -0.08,0 z m 0.28,-2.12 q -0.08,0 -0.08,0.08 0,0.12 0.08,0.04 0.08,0 0.08,-0.04 -0.08,-0.08 -0.08,-0.08 z m -2.2,14.72 0,-0.04 -0.04,0 q -0.08,0 -0.08,0.08 0.08,0.08 0.08,0.08 0.08,0 0.04,-0.12 z m 3.12,-16.64 q -0.04,0 -0.08,0.04 0,0 0.04,0 0.04,0.04 0.04,0.04 0.04,0 0.04,-0.08 l -0.04,0 z m -0.68,0.6 q -0.08,0.04 -0.08,0.12 0,0.08 0.08,0.08 0.2,0 0.08,-0.12 0,-0.08 -0.08,-0.08 z m -0.6,16.64 q 0,-0.04 -0.08,-0.04 -0.08,0 -0.08,0.08 0.08,0.08 0.12,0.04 0.08,0 0.04,-0.08 z m 1.64,-19 q 0,-0.08 -0.04,-0.08 0,-0.04 -0.04,0 0,0 0,0.04 l 0,0.04 0.08,0 z m -0.2,16.44 q 0,-0.12 -0.08,-0.04 0,0.04 -0.04,0.04 0.08,0.04 0.08,0.04 0.04,-0.04 0.04,-0.04 z m -1.72,3 q -0.08,0 -0.08,0.08 0,0.08 0.08,0.08 0.04,0.04 0.04,-0.08 0,0 -0.04,-0.08 z m 1.32,-3.36 q -0.04,-0.04 -0.08,-0.04 l 0,0.08 q 0.04,0.04 0.04,0.04 0.04,-0.04 0.04,-0.08 z m -0.8,9.2 q -0.04,0 -0.04,-0.04 0,0 -0.04,0 -0.04,0 -0.04,0.08 l 0.08,0 0.04,-0.04 z m -1.04,-20.24 q -0.04,0 -0.08,0.04 0,0.04 0.04,0.04 l 0.08,0 q 0,-0.04 -0.04,-0.04 0,0 0,-0.04 z m 1.16,10.48 q 0,-0.08 -0.08,-0.12 0,0 -0.08,0.08 0,0.08 0.08,0.08 0.04,0.04 0.04,0 0,-0.04 0.04,-0.04 z m -0.32,-0.04 -0.04,-0.04 q -0.04,0.04 -0.04,0.08 0,0.04 0,0.04 0.04,0 0.04,-0.04 0.04,-0.04 0.04,-0.04 z m -2.16,-0.08 q -0.04,0.04 -0.04,0.08 0,0.12 0.08,0.12 0.12,0 0.08,-0.12 0,-0.08 -0.12,-0.08 z m 4.64,-19.6 -0.04,0 q -0.08,0 -0.04,0.04 l 0.04,0.04 q 0.04,-0.04 0.04,-0.08 z m -1.44,24.84 q -0.04,0 -0.04,0.04 0.08,0.04 0.08,0.04 0,-0.04 0,-0.04 0.04,0 0.04,-0.04 l -0.08,0 z m 1.56,-26.6 q -0.08,0 -0.08,0.12 0,0.08 0.12,0.08 0.04,0 0.04,-0.16 0,-0.08 -0.08,-0.04 z m -4.16,21.24 q -0.08,-0.04 -0.08,-0.04 -0.04,0 -0.04,0.08 l 0.08,0 q 0,-0.04 0.04,-0.04 z m 1.36,-4.2 q 0,-0.04 -0.08,-0.04 -0.08,0 -0.08,0.08 0.04,0.08 0.08,0.04 0.08,0 0.08,-0.08 z m 0.64,11.24 0,0.04 q -0.04,0.04 -0.04,0.08 0.04,0 0.08,-0.04 l 0.04,-0.04 q -0.04,-0.04 -0.08,-0.04 z m -0.72,-7.32 q 0,-0.04 -0.04,-0.04 -0.04,0 -0.04,0.04 l 0,0.04 q 0.08,0.08 0.08,-0.04 z m 0.4,7.76 q 0,-0.04 -0.04,-0.04 -0.04,0 -0.08,0.04 0.04,0.04 0.04,0.04 0.04,0 0.08,-0.04 z m 0.68,0.08 q 0.04,0 0.08,0.04 l 0,-0.08 q -0.04,-0.04 -0.04,-0.04 -0.04,0 -0.04,0.08 z m 0.6,-22.24 q -0.04,-0.04 -0.04,-0.08 -0.04,0 -0.08,0.04 -0.04,0 -0.08,0 0,0.04 0,0.04 l 0.04,0.04 q 0.12,0 0.16,-0.04 z"
         style="fill:#ffffff"
         id="path4751"
         inkscape:connector-curvature="0" />
      <path
         d="m 158.88234,174.72572 q -0.08,0.48 -0.04,1 0.08,0.48 0.32,1 0.12,0.2 0.12,0.44 0,0.44 -0.04,0.88 0,0.44 -0.12,0.88 -0.28,0.96 -0.4,1.92 -0.08,0.96 -0.16,1.92 -0.04,0.32 -0.08,0.64 0,0.32 -0.04,0.64 0,0.12 -0.04,0.24 0,0.12 0.08,0.2 0.12,0.08 0.24,0 0.12,-0.04 0.24,-0.12 0.28,-0.16 0.48,-0.36 0.24,-0.2 0.44,-0.44 0.6,-0.68 1.12,-1.56 0.56,-0.92 1.04,-1.88 0.48,-0.96 0.96,-1.92 0.68,-1.44 1.4,-2.88 0.76,-1.44 1.4,-2.96 0.08,-0.24 0.16,-0.48 0.12,-0.24 0.24,-0.48 0.08,-0.24 0.36,-0.32 0.32,-0.08 0.52,0.08 0.12,0.12 0.04,0.4 -0.32,0.72 -0.56,1.48 -0.2,0.76 -0.56,1.48 -0.72,1.36 -1.32,2.76 -0.6,1.36 -1.24,2.76 -0.44,0.92 -0.96,1.84 -0.48,0.92 -1.12,1.72 -0.92,1.2 -2.2,2.12 -0.36,0.28 -0.84,0.32 -0.44,0.04 -0.88,-0.08 -0.44,-0.12 -0.8,-0.4 -0.36,-0.24 -0.52,-0.6 -0.2,-0.48 -0.4,-1 -0.2,-0.48 -0.32,-1 -0.04,-0.12 -0.08,-0.2 0,-0.12 -0.04,-0.24 -0.12,-0.28 -0.32,-0.08 -0.44,0.32 -0.88,0.64 -0.44,0.28 -0.88,0.6 -2.04,1.2 -4.24,0.36 -1.48,-0.52 -2.04,-2 -0.28,-0.72 -0.4,-1.44 -0.12,-0.76 -0.2,-1.52 -0.36,-3 0.6,-5.52 0.96,-2.56 2.96,-4.76 0.76,-0.84 1.64,-1.32 1.48,-0.76 2.88,-0.08 0.64,0.24 1.08,0.64 0.8,0.52 1.08,1.32 0.12,0.32 0.24,0.64 0.12,0.28 0.32,0.56 0.16,0.32 0.04,0.48 -0.16,0.2 -0.52,0.12 -0.76,-0.2 -1.12,-0.88 -0.16,-0.2 -0.32,-0.4 -0.12,-0.24 -0.2,-0.48 -0.16,-0.32 -0.48,-0.48 -0.28,-0.2 -0.6,-0.2 -0.32,0 -0.64,0.2 -0.28,0.16 -0.44,0.56 -0.04,0.12 -0.2,0.44 -0.44,0.8 -0.8,1.64 -0.36,0.84 -0.48,1.76 -0.12,0.84 -0.4,1.68 -0.28,0.8 -0.56,1.6 -0.76,2.24 0.36,4.48 0.44,0.88 1.08,1 0.68,0.08 1.28,-0.64 0.92,-1.16 1.64,-2.4 0.72,-1.28 0.96,-2.8 0.08,-0.52 0.24,-1 0.2,-0.52 0.36,-1.04 0.28,-0.72 0.32,-1.32 0,-0.48 0.52,-0.6 l 0.04,0 q 0.76,-0.08 1.12,0.08 0.36,0.16 0.52,1.08 0.04,0.32 0.04,0.64 0,0.28 0,0.64 z m -1.48,9.36 q 0.28,0.08 0.32,-0.08 0.08,-0.2 0.16,-0.44 0.08,-0.2 0.12,-0.4 0,-0.08 -0.04,-0.2 0,-0.16 -0.16,-0.24 -0.16,0 -0.2,0.04 -0.16,0.12 -0.08,0.24 0.12,0.12 0.12,0.2 -0.44,0.08 -0.48,0.2 -0.04,0.16 0.2,0.52 0.04,0.04 0.04,0.08 0,0.04 0.04,0.08 -0.2,0.04 -0.28,0.12 -0.08,0.12 -0.2,0.2 -0.08,0.08 -0.2,0.04 -0.12,0 -0.04,0.2 0.04,0.08 0.16,0.04 0.12,0 0.2,0.04 0.36,0 0.36,-0.32 -0.04,-0.12 -0.04,-0.32 z m -7,-13.24 q 0,-0.24 0.08,-0.28 0.12,0 0.2,0.16 0,0.04 0.08,0.12 0.16,0.08 0.24,0 0.08,-0.08 0,-0.16 -0.08,-0.2 -0.12,-0.36 -0.04,-0.2 -0.32,-0.28 -0.16,-0.04 -0.2,-0.2 -0.04,-0.16 0.08,-0.28 0.16,-0.08 0.2,-0.32 0,-0.12 0.16,-0.12 0.16,0 0.08,-0.2 l -0.04,-0.04 q -0.16,0.04 -0.16,0.16 0,0.12 -0.08,0.2 -0.32,0.32 -0.36,0.44 -0.04,0.08 0.04,0.4 0.04,0.12 -0.08,0.24 -0.08,0.12 -0.12,0.24 -0.04,0.08 -0.08,0.2 -0.08,0.24 0.08,0.24 0.28,0.08 0.44,0.24 0.08,0.08 0.16,0.04 0.08,-0.04 0.08,-0.12 0.08,-0.2 -0.16,-0.12 -0.24,0 -0.2,-0.2 z m 7.76,4.44 q 0.04,-0.44 -0.04,-0.52 -0.04,-0.12 -0.32,-0.24 -0.16,-0.08 -0.28,0 -0.08,0.08 -0.16,0.12 -0.32,0.04 -0.4,0.12 -0.08,0.04 -0.16,0.24 -0.04,0.28 0.2,0.28 l 1.16,0 z m -1.28,2.52 q 0.32,0.12 0.52,0.32 0.08,0.12 0.16,0.08 0.2,-0.16 0.36,-0.12 0.2,0 0.4,0 0.28,-0.04 0.24,-0.28 -0.04,-0.12 0,-0.28 0.08,-0.16 -0.08,-0.24 -0.2,-0.12 -0.28,0.04 -0.04,0.16 -0.12,0.28 -0.16,0.16 -0.24,0.2 -0.04,0 -0.24,-0.2 -0.08,-0.08 -0.16,-0.12 -0.08,-0.04 -0.2,0.08 -0.08,0.08 -0.2,0.08 -0.08,0 -0.16,0.16 z m -7.44,0 q -0.24,0.08 -0.32,0.24 -0.04,0.16 -0.16,0.24 -0.16,0.12 -0.32,0.08 -0.16,-0.04 -0.36,0 -0.16,0 -0.08,0.16 0.08,0.08 0.16,0.2 0.08,0.08 0.24,0.04 0.04,-0.04 0.08,-0.04 0.04,-0.04 0.08,-0.08 0.44,-0.16 0.44,0.32 0,0.12 0.12,0.12 0.08,0 0.08,-0.12 0.04,-0.28 0.04,-0.56 0.04,-0.28 0,-0.6 z m -1.56,4.4 q 0.16,0.08 0.24,0 0.12,-0.08 0.28,-0.04 0.24,0.08 0.28,0.04 0.08,-0.08 0.04,-0.36 -0.04,-0.16 -0.08,-0.28 -0.04,-0.12 -0.24,-0.08 -0.16,0 -0.28,-0.12 -0.12,-0.08 -0.16,-0.04 -0.16,0.08 -0.08,0.2 0.16,0.36 0,0.68 z m 9.92,-3 q -0.28,0.2 -0.28,0.28 0,0.04 0.2,0.24 l 0.24,0.24 q 0.08,0.12 -0.04,0.24 -0.32,0.24 -0.32,0.4 0.04,0.12 0.4,0.32 0.36,-0.92 -0.2,-1.72 z m -5.68,4.12 q 0.32,0 0.52,-0.12 0.24,-0.16 0.44,-0.32 0.28,-0.08 0.12,-0.28 -0.04,-0.04 -0.04,-0.08 0,-0.08 -0.08,-0.08 -0.16,0 -0.24,0.2 0,0.2 -0.16,0.2 -0.2,0 -0.32,0.16 -0.12,0.16 -0.24,0.32 z m -1.44,-0.96 q 0,-0.08 0,-0.16 0.04,-0.08 -0.08,-0.12 -0.2,-0.04 -0.28,0.24 -0.16,0.2 0.04,0.4 0.04,0.12 0.2,0.04 0.16,-0.04 0.12,-0.12 0,-0.12 0,-0.2 l 0,-0.08 z m 3.96,-1.52 q -0.04,-0.04 -0.16,0.08 0,0.08 0.08,0.28 0.12,0.16 0.16,0.12 0.24,-0.08 0.24,-0.2 0,-0.16 -0.12,-0.2 -0.12,-0.04 -0.2,-0.08 z m -6.72,-7.84 q -0.08,0 -0.2,0.12 -0.08,0.12 -0.08,0.24 0,0.16 0.24,0.16 0.12,0 0.2,-0.12 0.08,-0.12 0.04,-0.24 0,-0.16 -0.2,-0.16 z m -0.08,7.72 q -0.32,0 -0.32,0.24 0.04,0.16 0.2,0.16 0.12,0 0.24,-0.08 0.16,-0.12 0.12,-0.2 -0.04,-0.12 -0.24,-0.12 z m 10.04,-7.4 q 0,-0.2 -0.16,-0.24 -0.24,0 -0.24,0.2 -0.08,0.2 0.12,0.2 0.24,0.04 0.28,-0.16 z m -8.52,3 q -0.2,0 -0.2,0.2 0,0.2 0.16,0.2 0.24,0 0.24,-0.2 0,-0.2 -0.2,-0.2 z m 7.12,0.52 q 0.08,-0.12 0.2,-0.2 0.12,-0.08 0.04,-0.28 l -0.04,-0.04 q -0.04,0 -0.04,-0.04 -0.36,0.2 -0.24,0.48 0,0.04 0.08,0.08 z m -6.44,6.12 q -0.12,0.12 -0.12,0.28 0.04,0.08 0.04,0.16 0,0.08 0.12,0.04 0.28,-0.08 0.24,-0.28 -0.08,-0.2 -0.28,-0.2 z m 7.88,-1.2 q 0.16,-0.28 -0.12,-0.48 -0.12,0 -0.16,0.08 -0.08,0.16 0,0.24 0.12,0.08 0.2,0.16 l 0.08,0 z m -4.76,-13.84 q 0,-0.2 -0.16,-0.2 -0.24,0 -0.28,0.16 0,0.2 0.16,0.24 0.24,0 0.28,-0.2 z m -3.8,14.28 q 0.04,0.2 0.24,0.2 0.2,-0.08 0.16,-0.24 0,-0.16 -0.24,-0.16 -0.16,0 -0.16,0.2 z m 4.4,0.16 q 0.28,-0.04 0.4,-0.32 0,-0.08 -0.08,-0.16 -0.16,-0.08 -0.16,0.08 0,0.08 -0.08,0.2 -0.08,0.08 -0.08,0.2 z m -2.4,-12.8 q 0,-0.08 -0.04,-0.12 -0.04,-0.04 -0.08,0 -0.28,0.08 -0.24,0.28 0,0.08 0.16,0.08 0.2,0 0.2,-0.24 z m -1.56,12.24 q 0.2,0.08 0.4,-0.12 0,-0.12 -0.08,-0.16 -0.16,-0.08 -0.2,0.04 -0.04,0.08 -0.12,0.16 l 0,0.08 z m -2.28,-6.6 q 0,-0.16 -0.16,-0.16 -0.2,0 -0.08,0.2 0,0.16 0.12,0.16 0.12,0 0.12,-0.2 z m 0.84,7.68 q 0.2,-0.12 0.24,-0.28 0.04,-0.04 0,-0.08 -0.04,-0.04 -0.12,-0.04 -0.24,0 -0.24,0.16 0,0.2 0.12,0.24 z m 1.24,-7.08 q 0,-0.2 -0.24,-0.28 -0.12,0 -0.12,0.12 -0.08,0.24 0.16,0.24 0.16,0.08 0.2,-0.08 z m 7.88,4.88 q 0,-0.12 -0.16,-0.12 -0.16,0 -0.16,0.08 -0.04,0.16 0.16,0.16 0.16,0 0.16,-0.12 z m -0.04,-1.76 q 0,-0.24 -0.16,-0.24 -0.16,0 -0.16,0.2 0,0.2 0.2,0.2 0.12,0 0.12,-0.16 z m -8.4,1.68 q -0.16,0 -0.16,0.12 0,0.12 0.2,0.12 0.12,0 0.12,-0.08 0.04,-0.08 -0.16,-0.16 z m -0.16,-4.44 q -0.08,-0.16 -0.16,-0.16 -0.12,0 -0.12,0.2 0,0.16 0.16,0.16 0.12,-0.04 0.12,-0.2 z m 0.52,4.16 q -0.04,0.04 -0.04,0.2 0,0.12 0.12,0.12 0.12,0 0.12,-0.24 0,-0.12 -0.2,-0.08 z m 6.48,-0.84 q -0.08,-0.08 -0.12,-0.08 -0.08,0 -0.08,0.08 -0.08,0.12 0.12,0.12 0.08,0 0.08,-0.12 z m 1.2,-3.64 q 0,-0.08 -0.08,-0.08 -0.12,0 -0.12,0.08 0,0.12 0.12,0.12 0.08,0 0.08,-0.12 z m -4.88,-7.32 q 0,-0.08 -0.12,-0.08 -0.08,0 -0.08,0.08 0,0.12 0.12,0.12 0.08,-0.08 0.08,-0.12 z m 4.24,14.8 q 0,0.08 0.08,0.08 0.12,0 0.12,-0.08 0,-0.16 -0.12,-0.12 -0.08,0 -0.08,0.12 z m 0.64,-3.76 q 0,-0.12 -0.08,-0.16 -0.08,0 -0.12,0.08 0,0.12 0.08,0.12 0.04,0 0.04,0 0.04,-0.04 0.08,-0.04 z m 0.88,-1.24 q -0.12,0 -0.12,0.08 0,0.04 0.08,0.12 0.12,0 0.12,-0.12 0,-0.08 -0.08,-0.08 z m -7.16,-6.2 q 0.08,-0.04 0.08,-0.16 0.04,-0.12 -0.04,-0.12 -0.16,0.08 -0.12,0.2 0,0.08 0.08,0.08 z m 1.32,-3.08 q -0.08,-0.12 -0.12,-0.12 -0.2,0 -0.08,0.12 0,0.08 0.12,0.08 0.08,0 0.08,-0.08 z m -2.28,5.68 q -0.08,0 -0.12,0.08 0,0.08 0.08,0.08 0.12,0.08 0.12,-0.08 0,-0.08 -0.08,-0.08 z m 7.92,7.44 q 0,-0.12 -0.08,-0.12 -0.04,0 -0.12,0.08 0,0.12 0.12,0.12 0.08,0 0.08,-0.08 z m -9.52,-4.28 q 0,0.08 0.08,0.08 0.12,0.08 0.12,-0.04 0,-0.12 -0.12,-0.12 -0.08,0 -0.08,0.08 z m 2.92,5.68 q 0.08,0 0.08,-0.08 0,-0.12 -0.08,-0.12 -0.12,0 -0.12,0.12 0,0.08 0.12,0.08 z m -3.16,-7.36 q 0.08,-0.08 -0.08,-0.08 -0.08,-0.08 -0.08,0.08 -0.08,0.08 0.08,0.08 0.08,0.08 0.08,-0.08 z m 2.16,-2.12 q 0,-0.16 -0.08,-0.08 -0.16,0 -0.08,0.08 0,0.16 0.08,0.08 0.16,0 0.08,-0.08 z m 6.56,4.6 q 0.08,-0.08 0.08,-0.12 0,-0.08 -0.08,-0.08 -0.12,0.04 -0.08,0.12 0,0.08 0.08,0.08 z m 0,-0.88 q 0,-0.12 -0.08,-0.12 -0.04,0 -0.12,0.08 0,0.08 0.08,0.08 0.04,0.04 0.12,-0.04 z m -7.6,-6.04 q 0.04,0 0.04,0.04 l -0.08,0 -0.04,0 q 0.08,-0.04 0.08,-0.04 z m -0.64,10.08 q 0,0.12 -0.16,0.2 -0.08,0 -0.08,-0.16 0,-0.16 0.12,-0.16 0.12,0 0.12,0.12 z m 1.2,-8.88 q 0,-0.2 -0.24,-0.28 -0.12,0 -0.12,0.12 -0.08,0.24 0.16,0.24 0.16,0.08 0.2,-0.08 z"
         style="fill:#ffffff"
         id="path4753"
         inkscape:connector-curvature="0" />
    </g>
  </g>
</svg>
