<?xml version="1.0" encoding="UTF-8" standalone="no"?>
<!-- Created with Inkscape (http://www.inkscape.org/) -->

<svg
   xmlns:dc="http://purl.org/dc/elements/1.1/"
   xmlns:cc="http://creativecommons.org/ns#"
   xmlns:rdf="http://www.w3.org/1999/02/22-rdf-syntax-ns#"
   xmlns:svg="http://www.w3.org/2000/svg"
   xmlns="http://www.w3.org/2000/svg"
   xmlns:sodipodi="http://sodipodi.sourceforge.net/DTD/sodipodi-0.dtd"
   xmlns:inkscape="http://www.inkscape.org/namespaces/inkscape"
   width="88.137337mm"
   height="119.82836mm"
   viewBox="0 0 312.29765 424.58868"
   id="svg4254"
   version="1.1"
   inkscape:version="0.91 r13725"
   sodipodi:docname="ram.svg">
  <defs
     id="defs4256" />
  <sodipodi:namedview
     id="base"
     pagecolor="#ffffff"
     bordercolor="#666666"
     borderopacity="1.0"
     inkscape:pageopacity="0.0"
     inkscape:pageshadow="2"
     inkscape:zoom="0.98994949"
     inkscape:cx="97.882242"
     inkscape:cy="247.76831"
     inkscape:document-units="px"
     inkscape:current-layer="layer1"
     showgrid="false"
     fit-margin-top="0"
     fit-margin-left="0"
     fit-margin-right="0"
     fit-margin-bottom="0"
     inkscape:window-width="1440"
     inkscape:window-height="849"
     inkscape:window-x="0"
     inkscape:window-y="25"
     inkscape:window-maximized="1" />
  <metadata
     id="metadata4259">
    <rdf:RDF>
      <cc:Work
         rdf:about="">
        <dc:format>image/svg+xml</dc:format>
        <dc:type
           rdf:resource="http://purl.org/dc/dcmitype/StillImage" />
        <dc:title></dc:title>
      </cc:Work>
    </rdf:RDF>
  </metadata>
  <g
     inkscape:label="Layer 1"
     inkscape:groupmode="layer"
     id="layer1"
     transform="translate(-96.894535,-60.311768)">
    <path
       style="opacity:1;fill:#808000;fill-opacity:1;fill-rule:nonzero;stroke:#000000;stroke-width:4.19999981;stroke-linecap:round;stroke-linejoin:round;stroke-miterlimit:4;stroke-dasharray:none;stroke-opacity:1"
       d="m 383.35195,62.412008 a 23.738585,23.233509 0 0 0 -23.73828,23.23437 23.738585,23.233509 0 0 0 0.20312,2.86719 l -214.41211,0 a 23.233507,23.738586 0 0 0 -23.17578,-22.06055 23.233507,23.738586 0 0 0 -23.234365,23.73828 23.233507,23.738586 0 0 0 23.234365,23.738282 23.233507,23.738586 0 0 0 0.27735,-0.01 l 0,368.88086 262.85546,0 0,-374.01953 a 23.738585,23.233509 0 0 0 21.73047,-23.134772 23.738585,23.233509 0 0 0 -23.74023,-23.23437 z m -242.94141,52.529292 225.26563,0 0,342.44141 -225.26563,0 0,-342.44141 z"
       id="rect4802"
       inkscape:connector-curvature="0" />
  </g>
</svg>
