<?xml version="1.0" encoding="UTF-8" standalone="no"?>
<!-- Created with Inkscape (http://www.inkscape.org/) -->

<svg
   xmlns:dc="http://purl.org/dc/elements/1.1/"
   xmlns:cc="http://creativecommons.org/ns#"
   xmlns:rdf="http://www.w3.org/1999/02/22-rdf-syntax-ns#"
   xmlns:svg="http://www.w3.org/2000/svg"
   xmlns="http://www.w3.org/2000/svg"
   xmlns:sodipodi="http://sodipodi.sourceforge.net/DTD/sodipodi-0.dtd"
   xmlns:inkscape="http://www.inkscape.org/namespaces/inkscape"
   width="133.91058mm"
   height="126.50381mm"
   viewBox="0 0 474.48632 448.24183"
   id="svg2"
   version="1.1"
   inkscape:version="0.91 r13725"
   sodipodi:docname="smoke6.svg">
  <defs
     id="defs4" />
  <sodipodi:namedview
     id="base"
     pagecolor="#ffffff"
     bordercolor="#666666"
     borderopacity="1.0"
     inkscape:pageopacity="0.0"
     inkscape:pageshadow="2"
     inkscape:zoom="0.7"
     inkscape:cx="275.44954"
     inkscape:cy="123.11636"
     inkscape:document-units="px"
     inkscape:current-layer="layer1"
     showgrid="false"
     fit-margin-top="0"
     fit-margin-left="0"
     fit-margin-right="0"
     fit-margin-bottom="0"
     inkscape:window-width="1440"
     inkscape:window-height="849"
     inkscape:window-x="0"
     inkscape:window-y="25"
     inkscape:window-maximized="1" />
  <metadata
     id="metadata7">
    <rdf:RDF>
      <cc:Work
         rdf:about="">
        <dc:format>image/svg+xml</dc:format>
        <dc:type
           rdf:resource="http://purl.org/dc/dcmitype/StillImage" />
        <dc:title></dc:title>
      </cc:Work>
    </rdf:RDF>
  </metadata>
  <g
     inkscape:label="Layer 1"
     inkscape:groupmode="layer"
     id="layer1"
     transform="translate(8.6546031,-2.0082664)">
    <path
       style="opacity:1;fill:#808080;fill-opacity:1;fill-rule:nonzero;stroke:#000000;stroke-width:4.19999981;stroke-linecap:round;stroke-linejoin:round;stroke-miterlimit:4;stroke-dasharray:none;stroke-opacity:1"
       d="m 302.65039,16.978516 c -18.37079,6.837318 -32.95878,23.534291 -6.91336,29.501369 15.69098,16.687578 27.06279,63.435975 56.53899,36.033657 C 349.39231,57.430933 331.24753,23.59469 302.65039,16.978516 l 0,0 z M 156.25586,33.886719 c -29.98156,-5.49372 -40.13229,52.776187 -2.95299,42.871047 25.58081,-1.799011 56.98197,19.060066 71.49706,-13.148155 -11.25148,-12.396929 -43.02543,-27.921953 -65.5643,-29.71089 -0.99251,-0.05286 -1.98655,-0.008 -2.97977,-0.012 z m 241.37695,75.013671 c 13.71988,23.35419 -1.1893,69.76763 13.78855,81.80653 12.2991,-24.68544 21.55006,-59.26337 -4.99453,-78.674 l -4.34015,-2.25856 -4.45387,-0.87397 0,0 z M 97.939453,131.39844 C 71.491998,132.08965 58.187296,190.0287 79.671634,187.60913 104.24635,175.78928 122.78401,156.46367 97.939453,131.39844 Z M 66.169922,254.5625 c -26.552459,5.84645 -48.788345,38.92148 -39.000146,64.94226 16.29012,27.67231 51.617965,25.27429 57.120601,-7.77958 C 112.91858,287.60206 90.34161,268.02543 66.169922,254.5625 Z M 167.33203,394.16211 c -28.33171,16.1421 47.53444,33.77656 17.87449,7.50134 -5.02594,-3.95541 -11.10949,-8.2057 -17.87449,-7.50134 z m 134.9707,11.66406 c -18.35919,27.62993 70.58581,15.14284 26.37239,3.70615 -8.7063,-1.55156 -17.48294,-3.76896 -26.37239,-3.70615 z"
       id="path4136"
       inkscape:connector-curvature="0" />
  </g>
</svg>
