<?xml version="1.0" encoding="UTF-8" standalone="no"?>
<!-- Created with Inkscape (http://www.inkscape.org/) -->

<svg
   xmlns:dc="http://purl.org/dc/elements/1.1/"
   xmlns:cc="http://creativecommons.org/ns#"
   xmlns:rdf="http://www.w3.org/1999/02/22-rdf-syntax-ns#"
   xmlns:svg="http://www.w3.org/2000/svg"
   xmlns="http://www.w3.org/2000/svg"
   xmlns:sodipodi="http://sodipodi.sourceforge.net/DTD/sodipodi-0.dtd"
   xmlns:inkscape="http://www.inkscape.org/namespaces/inkscape"
   width="600"
   height="600"
   viewBox="0 0 600 600.00004"
   id="svg2"
   version="1.1"
   inkscape:version="0.91 r13725"
   sodipodi:docname="Text.svg">
  <defs
     id="defs4" />
  <sodipodi:namedview
     id="base"
     pagecolor="#7b7b7b"
     bordercolor="#666666"
     borderopacity="1.0"
     inkscape:pageopacity="0"
     inkscape:pageshadow="2"
     inkscape:zoom="0.7"
     inkscape:cx="197.35252"
     inkscape:cy="442.33964"
     inkscape:document-units="px"
     inkscape:current-layer="layer1"
     showgrid="false"
     inkscape:window-width="1440"
     inkscape:window-height="849"
     inkscape:window-x="0"
     inkscape:window-y="25"
     inkscape:window-maximized="1"
     units="px" />
  <metadata
     id="metadata7">
    <rdf:RDF>
      <cc:Work
         rdf:about="">
        <dc:format>image/svg+xml</dc:format>
        <dc:type
           rdf:resource="http://purl.org/dc/dcmitype/StillImage" />
        <dc:title />
      </cc:Work>
    </rdf:RDF>
  </metadata>
  <g
     inkscape:label="Layer 1"
     inkscape:groupmode="layer"
     id="layer1"
     transform="translate(0,-452.36225)">
    <circle
       style="opacity:1;fill:none;fill-opacity:1;fill-rule:nonzero;stroke:none;stroke-width:1;stroke-linecap:round;stroke-linejoin:round;stroke-miterlimit:4;stroke-dasharray:none;stroke-opacity:1"
       id="path4833"
       cx="300"
       cy="752.3623"
       r="250.00003" />
    <g
       style="font-style:normal;font-variant:normal;font-weight:normal;font-stretch:normal;font-size:40px;line-height:125%;font-family:'Latin Modern Mono Prop';-inkscape-font-specification:'Latin Modern Mono Prop';letter-spacing:0px;word-spacing:0px;fill:#ffffff;fill-opacity:1;stroke:none;stroke-width:1px;stroke-linecap:butt;stroke-linejoin:miter;stroke-opacity:1"
       id="text4843">
      <path
         d="m 572.64728,772.43329 c 1.19897,0.0496 1.24198,-0.98949 1.26679,-1.58897 l 0.2994,-7.23381 c 0.0248,-0.59949 0.0678,-1.6386 -1.13115,-1.68822 -1.23894,-0.0513 -1.28195,0.98783 -1.30676,1.58732 l -0.13564,3.27719 -16.38597,-0.67819 c -3.3971,-0.14061 -3.46129,-3.42607 -3.42986,-4.18542 0.0132,-0.31973 0.0926,-2.23809 1.17972,-3.35409 0.19321,0.16814 0.38642,0.33627 1.02587,0.36274 0.95918,0.0397 1.78993,-0.68657 1.83128,-1.68571 0.038,-0.91922 -0.52505,-1.82328 -1.80396,-1.87621 -2.51784,-0.10421 -4.50541,2.45579 -4.67082,6.45237 -0.14722,3.55695 1.87695,6.8835 5.51384,7.03403 l 16.62576,0.68812 -0.0496,1.19897 c -0.0265,0.63946 -0.0678,1.6386 1.17112,1.68988 z"
         style="fill:#ffffff"
         id="path4854" />
      <path
         d="m 551.53719,791.24931 c 1.11192,0.13428 1.25099,-1.01736 1.27976,-1.25562 0.0767,-0.63539 0.0453,-1.04209 -0.7154,-1.41598 -1.81024,-1.02442 -2.0566,-2.98812 -1.90314,-4.25888 0.35966,-2.97837 2.84456,-5.53893 6.16804,-5.70166 l -1.3811,11.43691 c -0.1007,0.83395 -0.19182,1.58846 1.27751,1.7659 4.72567,0.57066 8.73534,-1.60432 9.32518,-6.48883 0.56587,-4.68596 -3.04352,-8.82856 -7.8089,-9.40402 -4.92423,-0.59464 -9.37013,2.85725 -9.97436,7.8609 -0.60903,5.04336 2.69991,7.3366 3.73241,7.46128 z m 5.97951,-2.13855 1.22764,-10.16615 c 2.91123,0.91562 4.7378,3.47305 4.4213,6.09401 -0.23977,1.98558 -1.52029,4.24838 -5.64894,4.07214 z"
         style="fill:#ffffff"
         id="path4856" />
      <path
         d="m 543.74927,814.31156 c 1.21417,0.25174 1.40908,-0.68826 1.53901,-1.31493 l 0.43853,-2.11502 9.0084,1.86782 c 4.23003,0.87706 6.22188,-1.24269 6.88779,-4.45438 0.47102,-2.27169 0.0546,-4.40057 -1.03873,-6.22044 1.44918,0.30048 1.99751,0.41417 2.32235,-1.15251 l 0.67404,-3.25085 c 0.12994,-0.62668 0.32484,-1.56668 -0.88934,-1.81843 -1.17501,-0.24363 -1.37803,0.73554 -1.49984,1.32305 l -0.43854,2.11501 -12.10258,-2.50937 0.43853,-2.11502 c 0.12993,-0.62667 0.32484,-1.56668 -0.88934,-1.81842 -1.17501,-0.24363 -1.37803,0.73554 -1.49985,1.32304 l -1.43741,6.93256 c -0.12181,0.5875 -0.32483,1.56667 0.85018,1.8103 1.21417,0.25175 1.40907,-0.68826 1.53901,-1.31493 l 0.43853,-2.11501 6.89338,1.42929 c 4.11253,0.8527 4.74581,4.49717 4.29916,6.65135 -0.56847,2.74168 -2.02864,2.88829 -4.22199,2.43351 l -8.7734,-1.81909 0.43853,-2.11501 c 0.12181,-0.58751 0.32484,-1.56668 -0.85017,-1.81031 -1.21418,-0.25175 -1.40908,0.68826 -1.53901,1.31493 l -1.43741,6.93255 c -0.12182,0.5875 -0.32484,1.56668 0.85017,1.81031 z"
         style="fill:#ffffff"
         id="path4858" />
      <path
         d="m 536.94238,836.7866 c 1.18601,0.36192 1.4662,-0.55629 1.65299,-1.16842 l 0.63043,-2.06595 8.79943,2.68514 c 4.13191,1.26085 6.30955,-0.66753 7.26686,-3.80472 0.67712,-2.21899 0.45742,-4.37708 -0.46457,-6.28944 1.41556,0.43196 1.95118,0.59541 2.41816,-0.93493 l 0.96899,-3.17545 c 0.18679,-0.61213 0.46698,-1.53033 -0.71903,-1.89224 -1.14775,-0.35024 -1.43962,0.60622 -1.61474,1.1801 l -0.63042,2.06595 -11.82185,-3.60744 0.63043,-2.06595 c 0.18679,-0.61213 0.46698,-1.53034 -0.71903,-1.89225 -1.14775,-0.35023 -1.43961,0.60623 -1.61473,1.1801 l -2.0664,6.77174 c -0.17512,0.57387 -0.46698,1.53033 0.68077,1.88057 1.18601,0.36191 1.4662,-0.55629 1.65299,-1.16842 l 0.63043,-2.06596 6.73348,2.05472 c 4.01713,1.22583 4.3139,4.91299 3.6718,7.0172 -0.81721,2.67809 -2.28468,2.69032 -4.42715,2.03655 l -8.56988,-2.6151 0.63043,-2.06596 c 0.17511,-0.57387 0.46698,-1.53033 -0.68077,-1.88057 -1.18601,-0.36191 -1.4662,0.55629 -1.653,1.16843 l -2.06639,6.77173 c -0.17512,0.57388 -0.46698,1.53034 0.68077,1.88057 z"
         style="fill:#ffffff"
         id="path4860" />
      <path
         d="m 542.80681,861.60563 c 1.14895,0.46637 1.51001,-0.42315 1.75072,-1.01616 l 2.12121,-5.2259 c 0.24071,-0.59301 0.60177,-1.48253 -0.54719,-1.94889 -1.11189,-0.45132 -1.488,0.47525 -1.71366,1.0312 l -0.61681,1.51959 -9.68168,-8.16046 2.68099,0.0953 10.25022,0.0595 -0.57168,1.4084 c -0.22566,0.55595 -0.60176,1.48253 0.51013,1.93385 1.14896,0.46637 1.51002,-0.42315 1.75072,-1.01616 l 2.10618,-5.18884 c 0.22566,-0.55594 0.6168,-1.51958 -0.49509,-1.97091 -1.14896,-0.46636 -1.5401,0.49728 -1.76577,1.05322 l -0.6168,1.51959 -15.98502,0.0302 c -0.71705,-0.67958 -0.79118,-0.70967 -1.96694,-1.74812 -0.74714,-0.60546 -3.36509,-2.87684 -2.10138,-5.99014 0.0602,-0.14826 0.22566,-0.55595 0.41097,-0.48073 0.11119,0.0451 0.26642,0.19448 0.56293,0.31483 1.03776,0.42124 1.93166,-0.0793 2.27767,-0.93177 0.40619,-1.00071 -0.005,-1.90157 -0.96884,-2.29272 -1.59371,-0.6469 -3.64094,0.24891 -4.5135,2.39857 -1.38405,3.40981 0.7745,6.91932 2.75649,8.63038 l 14.45776,12.55976 -0.60176,1.48252 c -0.22567,0.55595 -0.60177,1.48253 0.51013,1.93385 z"
         style="fill:#ffffff"
         id="path4862" />
      <path
         d="m 512.36031,887.03258 c 1.03704,0.60378 1.54019,-0.26042 1.84208,-0.77894 0.76478,-1.31359 1.08419,-1.5442 1.40359,-1.77481 l 7.46669,4.34721 c 2.52347,1.46919 6.46497,1.21828 9.24235,-3.55211 0.84529,-1.45185 2.85788,-4.90865 0.33442,-6.37785 -1.03704,-0.60377 -2.01278,-0.19986 -2.4958,0.62977 -0.34214,0.58766 -0.51973,1.68768 0.70459,2.44679 0.27654,0.161 0.29098,0.2157 0.0381,0.80904 -0.20694,0.43494 -0.46858,0.88432 -0.71009,1.29914 -1.46919,2.52346 -3.5471,3.62796 -6.00142,2.19902 3.51896,-6.28262 3.8517,-11.2266 0.70601,-13.05806 -2.41976,-1.40881 -5.90004,-0.51909 -7.85226,2.83401 -1.32831,2.28149 -1.64325,4.41241 -1.5443,5.67344 -1.40499,0.10771 -2.35398,1.49919 -3.2194,2.98561 -0.5434,0.93334 -0.98617,1.69383 0.0854,2.31774 z m 6.88128,-3.63075 c -0.76049,-0.44277 -1.55556,-0.90567 -1.39287,-2.61609 0.15132,-1.53189 0.99661,-2.98375 1.13749,-3.22572 1.20756,-2.07408 3.20235,-2.71783 4.51593,-1.95304 1.52099,0.88554 1.6301,3.95762 -1.35684,9.48543 l -2.90371,-1.69058 z m 16.50749,4.24174 c 0.82963,0.48303 1.95808,0.21431 2.46123,-0.64989 0.56353,-0.9679 0.13073,-2.05302 -0.62977,-2.49579 -0.8642,-0.50315 -1.9782,-0.17974 -2.46123,0.64989 -0.56352,0.9679 -0.16529,2.0329 0.62977,2.49579 z m -3.36103,5.77286 c 0.82963,0.48302 1.95808,0.21431 2.46123,-0.64989 0.56352,-0.96791 0.13073,-2.05303 -0.62977,-2.4958 -0.8642,-0.50315 -1.9782,-0.17974 -2.46123,0.6499 -0.56352,0.9679 -0.16529,2.03289 0.62977,2.49579 z"
         style="fill:#ffffff"
         id="path4864" />
      <path
         d="m 514.83362,907.69881 c 0.92398,0.63298 2.61111,0.57662 3.74144,-1.07334 1.17553,-1.71595 1.24442,-3.65669 0.76764,-5.43789 1.38597,0.94947 1.81496,1.24336 2.71922,-0.0766 l 1.87634,-2.73893 c 0.3617,-0.52799 0.90426,-1.31997 -0.11872,-2.02077 -0.98997,-0.6782 -1.55513,0.14678 -1.89423,0.64177 l -1.22075,1.78196 -10.19675,-6.98541 1.22075,-1.78196 c 0.3617,-0.52799 0.90426,-1.31997 -0.11871,-2.02077 -0.98998,-0.67819 -1.55514,0.14679 -1.89424,0.64177 l -4.54391,6.63284 c -0.33909,0.49499 -0.90426,1.31997 0.0857,1.99816 1.02297,0.7008 1.56553,-0.0912 1.92723,-0.61916 l 1.76331,-2.57394 4.1909,2.87103 c 2.90393,1.98937 5.03741,5.24492 3.5937,7.98932 -1.23318,-0.74784 -2.07455,-0.0151 -2.36843,0.41388 -0.49735,0.72599 -0.42149,1.74767 0.46949,2.35805 z"
         style="fill:#ffffff"
         id="path4866" />
      <path
         d="m 484.86898,927.25867 c 0.83755,0.74358 1.60769,-0.12389 1.76702,-0.30336 0.4249,-0.47861 0.63064,-0.83084 0.21829,-1.57136 -0.90468,-1.87295 0.0111,-3.62743 0.86087,-4.58463 1.99173,-2.24345 5.49251,-2.9332 8.31712,-1.17436 l -7.64822,8.61482 c -0.55768,0.62817 -1.06225,1.19651 0.0445,2.17909 3.55959,3.1602 8.09418,3.65571 11.36061,-0.0235 3.13364,-3.52968 2.52574,-8.99038 -1.06377,-12.17714 -3.70916,-3.29298 -9.32949,-2.98727 -12.67558,0.78171 -3.37266,3.7989 -1.95859,7.5683 -1.18086,8.25877 z m 6.13308,1.6472 6.79842,-7.65761 c 1.87166,2.4105 1.91676,5.55291 0.16404,7.52714 -1.32782,1.49563 -3.66901,2.62647 -6.96246,0.13047 z"
         style="fill:#ffffff"
         id="path4868" />
      <path
         d="m 465.34441,941.79034 c 0.85535,0.89776 1.5504,0.23555 2.01376,-0.20592 l 1.56384,-1.48996 6.34615,6.66081 c 2.97992,3.12769 5.82394,2.51747 8.19867,0.25493 1.67968,-1.60033 2.54825,-3.58809 2.68438,-5.70674 1.02091,1.07153 1.40719,1.47697 2.5656,0.37329 l 2.40368,-2.29013 c 0.46336,-0.44147 1.1584,-1.10368 0.30305,-2.00144 -0.82776,-0.8688 -1.55176,-0.179 -1.98616,0.23487 l -1.56384,1.48997 -8.52591,-8.94866 1.56384,-1.48996 c 0.46337,-0.44147 1.15841,-1.10368 0.30306,-2.00144 -0.82776,-0.8688 -1.55176,-0.17901 -1.98616,0.23487 l -5.12593,4.88378 c -0.43441,0.41387 -1.15841,1.10367 -0.33065,1.97247 0.85535,0.89777 1.55039,0.23556 2.01375,-0.20591 l 1.56385,-1.48997 4.85618,5.09697 c 2.89715,3.04081 1.34471,6.39836 -0.24809,7.91592 -2.02721,1.93143 -3.31148,1.22134 -4.85663,-0.40042 l -6.1806,-6.48706 1.56385,-1.48996 c 0.4344,-0.41388 1.1584,-1.10368 0.33064,-1.97248 -0.85535,-0.89776 -1.55039,-0.23555 -2.01375,0.20592 l -5.12593,4.88377 c -0.4344,0.41388 -1.1584,1.10368 -0.33065,1.97248 z"
         style="fill:#ffffff"
         id="path4870" />
      <path
         d="m 435.33054,964.30961 c 0.71294,1.01455 1.4984,0.4626 2.02204,0.0946 l 1.76728,-1.2419 7.56638,10.76734 c 0.71294,1.01455 1.13928,1.20384 2.25202,0.4219 l 8.21459,-5.77252 1.05792,1.50547 c 0.45996,0.65454 0.89692,1.27637 -0.15831,3.04455 -0.8624,1.48602 -2.11578,2.41568 -2.80306,2.89864 -0.13091,0.092 -1.86546,1.31089 -2.07244,1.01634 -0.069,-0.0982 -0.0593,-0.15391 -0.22026,-0.383 -0.64394,-0.91637 -1.72219,-0.98978 -2.47492,-0.46082 -0.78546,0.55196 -1.08177,1.59128 -0.41482,2.54038 1.83984,2.6182 5.53805,0.0194 6.35624,-0.55554 2.81456,-1.97784 6.55255,-6.12013 4.18375,-9.49106 l -1.1959,-1.70183 1.37455,-0.96592 c 0.52364,-0.36797 1.34183,-0.94292 0.62889,-1.95747 -0.68994,-0.98182 -1.50813,-0.40687 -1.99904,-0.0619 l -1.40728,0.98892 -7.10641,-10.11279 1.76728,-1.2419 c 0.52364,-0.36797 1.3091,-0.91992 0.59616,-1.93448 -0.68994,-0.98182 -1.50813,-0.40687 -1.99904,-0.0619 l -5.79277,4.07067 c -0.49091,0.34497 -1.3091,0.91992 -0.61915,1.90174 0.71294,1.01456 1.4984,0.4626 2.02204,0.0946 l 1.76728,-1.24189 7.10641,10.11279 -7.2655,5.10557 -7.10641,-10.11279 1.76728,-1.2419 c 0.49092,-0.34497 1.3091,-0.91992 0.61916,-1.90174 -0.71294,-1.01456 -1.4984,-0.4626 -2.02204,-0.0946 l -5.79276,4.07066 c -0.49091,0.34497 -1.3091,0.91992 -0.61916,1.90175 z"
         style="fill:#ffffff"
         id="path4872" />
      <path
         d="m 414.97901,976.02958 c 0.61524,1.0766 1.44874,0.60028 2.00441,0.28274 l 1.87537,-1.07172 4.56473,7.98769 c 2.14344,3.75074 5.05081,3.83996 7.8986,2.21253 2.01429,-1.1511 3.33396,-2.87274 3.97392,-4.89701 0.73433,1.28498 1.01218,1.77118 2.40134,0.97732 l 2.88252,-1.64727 c 0.55566,-0.31755 1.38916,-0.79387 0.77392,-1.87047 -0.5954,-1.04187 -1.46363,-0.54571 -1.98457,-0.24801 l -1.87537,1.07172 -6.13261,-10.73129 1.87537,-1.07172 c 0.55567,-0.31755 1.38916,-0.79387 0.77392,-1.87047 -0.5954,-1.04187 -1.46363,-0.54571 -1.98456,-0.24801 l -6.14706,3.51286 c -0.52093,0.2977 -1.38916,0.79386 -0.79376,1.83574 0.61524,1.0766 1.44874,0.60028 2.00441,0.28273 l 1.87537,-1.07172 3.49301,6.11233 c 2.0839,3.64655 -0.22802,6.53415 -2.13812,7.62572 -2.43104,1.38926 -3.50769,0.39206 -4.6191,-1.55277 l -4.44565,-7.77932 1.87537,-1.07172 c 0.52094,-0.2977 1.38916,-0.79387 0.79377,-1.83574 -0.61525,-1.0766 -1.44875,-0.60028 -2.00441,-0.28274 l -6.14706,3.51286 c -0.52093,0.2977 -1.38916,0.79387 -0.79376,1.83574 z"
         style="fill:#ffffff"
         id="path4874" />
      <path
         d="m 380.42581,990.66336 c 0.44741,1.15647 1.34274,0.81008 1.93963,0.57916 l 2.01449,-0.77937 4.74837,12.27345 c 0.44741,1.1565 0.81557,1.443 2.08396,0.9523 l 9.36367,-3.6227 0.6639,1.7161 c 0.28865,0.7461 0.56288,1.4549 -0.88739,2.9167 -1.19513,1.2343 -2.63561,1.8345 -3.41902,2.1376 -0.14922,0.058 -2.12641,0.8227 -2.25631,0.4869 -0.0433,-0.1119 -0.0204,-0.1636 -0.12145,-0.4248 -0.40412,-1.0445 -1.43289,-1.3756 -2.29091,-1.0437 -0.89533,0.3464 -1.43339,1.2837 -1.01484,2.3655 1.15462,2.9845 5.37013,1.3536 6.30277,0.9928 3.20827,-1.2412 7.83439,-4.3606 6.34782,-8.203 l -0.7505,-1.93991 1.56683,-0.60617 c 0.59689,-0.23093 1.52952,-0.59175 1.08211,-1.74821 -0.43298,-1.11917 -1.36562,-0.75835 -1.9252,-0.54186 l -1.60413,0.62061 -4.45971,-11.52739 2.01449,-0.77936 c 0.59689,-0.23093 1.49222,-0.57731 1.0448,-1.73378 -0.43298,-1.11916 -1.36561,-0.75835 -1.9252,-0.54186 l -6.60306,2.5546 c -0.55958,0.21649 -1.49222,0.5773 -1.05924,1.69647 0.44742,1.15647 1.34275,0.81008 1.93963,0.57916 l 2.0145,-0.77937 4.45971,11.52739 -8.28181,3.20408 -4.45971,-11.5274 2.01449,-0.77937 c 0.55959,-0.21649 1.49222,-0.57731 1.05924,-1.69647 -0.44741,-1.15647 -1.34275,-0.81009 -1.93963,-0.57916 l -6.60307,2.55459 c -0.55958,0.21649 -1.49222,0.57731 -1.05923,1.69647 z"
         style="fill:#ffffff"
         id="path4876" />
      <path
         d="m 369.08786,993.99609 c 0.36462,1.18518 1.28218,0.9029 1.89388,0.71471 l 2.06451,-0.63514 5.98677,19.45994 c 0.36462,1.1852 0.71163,1.4969 2.0115,1.097 l 3.17323,-0.9762 c 0.61171,-0.1882 1.52927,-0.4705 1.16465,-1.6557 -0.35286,-1.1469 -1.30865,-0.8529 -1.88212,-0.6765 l -2.06451,0.6352 -5.75153,-18.6953 2.06451,-0.63514 c 0.6117,-0.18819 1.52926,-0.47047 1.16465,-1.65566 -0.35286,-1.14695 -1.30865,-0.8529 -1.88212,-0.67647 l -6.76701,2.08184 c -0.57347,0.17643 -1.52926,0.47047 -1.17641,1.61742 z"
         style="fill:#ffffff"
         id="path4878" />
      <path
         d="m 346.31083,999.545 c 0.28001,1.208 1.21522,0.9912 1.83868,0.8467 l 2.10421,-0.48781 2.97179,12.82011 c 0.28002,1.2079 0.60415,1.5434 1.92902,1.2363 l 3.23424,-0.7497 c 0.5845,-0.1355 1.55867,-0.3614 1.28769,-1.5304 -0.28002,-1.2079 -1.21522,-0.9911 -1.83869,-0.8466 l -2.10421,0.4878 -1.92398,-8.3 c -0.84909,-3.66284 2.85842,-4.85076 4.18329,-5.15788 3.54598,-0.82198 3.86213,0.54186 4.14214,1.74983 l 2.42983,10.48205 c 0.28002,1.208 0.60415,1.5434 1.92902,1.2363 l 3.23424,-0.7497 c 0.62347,-0.1445 1.55867,-0.3613 1.27865,-1.5693 -0.27098,-1.169 -1.24515,-0.9432 -1.82965,-0.8077 l -2.10421,0.4878 -2.30337,-9.93652 c -1.01167,-4.36428 -4.95068,-3.82073 -7.09385,-3.32392 -2.64974,0.61423 -4.13562,1.82094 -4.9681,2.83513 -0.31615,-1.36384 -1.13445,-1.17415 -1.87482,-1.00253 l -3.23424,0.74973 c -0.5845,0.13549 -1.55867,0.36131 -1.28768,1.53031 z"
         style="fill:#ffffff"
         id="path4880" />
      <path
         d="m 332.5217,1015.4772 c 0.16522,1.1077 1.3549,2.3054 3.33302,2.0103 2.05724,-0.3068 3.52588,-1.5774 4.50623,-3.1391 0.24783,1.6616 0.32454,2.1759 1.90703,1.9399 l 3.28368,-0.4897 c 0.633,-0.094 1.58249,-0.2361 1.39957,-1.4625 -0.17702,-1.1869 -1.16608,-1.0394 -1.75952,-0.9509 l -2.13636,0.3187 -1.82334,-12.2248 2.13637,-0.3186 c 0.633,-0.094 1.58249,-0.2361 1.39957,-1.46249 -0.17702,-1.18687 -1.16608,-1.03935 -1.75952,-0.95084 l -7.95203,1.18605 c -0.59344,0.0885 -1.5825,0.23608 -1.40547,1.42288 0.18292,1.2265 1.13242,1.0848 1.76541,0.9904 l 3.08587,-0.4602 0.74939,5.0244 c 0.51927,3.4815 -0.41347,7.2604 -3.40666,8.0708 -0.29156,-1.4124 -1.40105,-1.53 -1.91536,-1.4533 -0.87037,0.1298 -1.5672,0.8808 -1.40788,1.949 z"
         style="fill:#ffffff"
         id="path4882" />
    </g>
  </g>
</svg>
